<svg xmlns="http://www.w3.org/2000/svg" width="24" height="24" viewBox="0 0 24 24" fill="none">
  <path d="M19.25 12.5293C19.25 12.349 19.0646 12.2275 18.8994 12.2998L18.8008 12.3438L12.7012 15.0117C12.2541 15.2072 11.7459 15.2072 11.2988 15.0117L5.19922 12.3438L5.10059 12.2998C4.93541 12.2275 4.75 12.349 4.75 12.5293V18C4.75 18.1381 4.86193 18.25 5 18.25H19C19.1381 18.25 19.25 18.1381 19.25 18V12.5293ZM11.25 11.5V10.25H10C9.58579 10.25 9.25 9.91421 9.25 9.5C9.25 9.08579 9.58579 8.75 10 8.75H11.25V7.5C11.25 7.08579 11.5858 6.75 12 6.75C12.4142 6.75 12.75 7.08579 12.75 7.5V8.75H14C14.4142 8.75 14.75 9.08579 14.75 9.5C14.75 9.91421 14.4142 10.25 14 10.25H12.75V11.5C12.75 11.9142 12.4142 12.25 12 12.25C11.5858 12.25 11.25 11.9142 11.25 11.5ZM17.75 6C17.75 5.86193 17.6381 5.75 17.5 5.75H6.5C6.36193 5.75 6.25 5.86193 6.25 6V11.165L11.8994 13.6377C11.9633 13.6656 12.0367 13.6656 12.1006 13.6377L17.75 11.165V6ZM19.25 10.7979C20.0667 10.9176 20.75 11.6129 20.75 12.5293V18C20.75 18.9665 19.9665 19.75 19 19.75H5C4.0335 19.75 3.25 18.9665 3.25 18V12.5293C3.25 11.6129 3.93328 10.9176 4.75 10.7979V6C4.75 5.0335 5.5335 4.25 6.5 4.25H17.5C18.4665 4.25 19.25 5.0335 19.25 6V10.7979Z" fill="currentColor" />
</svg>