<svg xmlns="http://www.w3.org/2000/svg" width="24" height="24" viewBox="0 0 24 24" fill="none">
  <path d="M9.41866 5.16129C9.95939 3.55681 12.1458 3.50822 12.7869 5.01552L12.8411 5.16221L13.5708 7.32597C13.7381 7.8222 14.0083 8.2763 14.3633 8.65763C14.7183 9.03895 15.1499 9.33865 15.6288 9.5365L15.8251 9.61076L17.959 10.3497C19.5414 10.898 19.5893 13.115 18.1037 13.765L17.959 13.82L15.8251 14.5599C15.3355 14.7294 14.8875 15.0033 14.5112 15.3633C14.135 15.7233 13.8393 16.1609 13.6441 16.6467L13.5708 16.8447L12.842 19.0094C12.3013 20.6139 10.1149 20.6625 9.47472 19.1561L9.41866 19.0094L8.68986 16.8456C8.52275 16.3492 8.25256 15.8949 7.89753 15.5134C7.54251 15.132 7.11091 14.8321 6.63186 14.6342L6.43655 14.5599L4.3026 13.8209C2.71931 13.2727 2.67139 11.0557 4.15792 10.4066L4.3026 10.3497L6.43655 9.61076C6.92594 9.4412 7.37378 9.16718 7.74986 8.80721C8.12593 8.44723 8.4215 8.00966 8.61662 7.52401L8.68986 7.32597L9.41866 5.16129ZM11.1303 5.75358L10.4015 7.91734C10.1469 8.67402 9.73267 9.36532 9.18767 9.94311C8.64267 10.5209 7.98 10.9713 7.24583 11.2629L7.01977 11.3464L4.88582 12.0853L7.01977 12.8243C7.76603 13.0825 8.44781 13.5025 9.01764 14.0552C9.58747 14.6078 10.0317 15.2797 10.3193 16.0241L10.4015 16.2533L11.1303 18.4171L11.8591 16.2533C12.1138 15.4967 12.528 14.8053 13.073 14.2276C13.618 13.6498 14.2807 13.1994 15.0149 12.9077L15.2409 12.8252L17.3749 12.0853L15.2409 11.3464C14.4947 11.0882 13.8129 10.6681 13.2431 10.1155C12.6732 9.5629 12.229 8.89099 11.9414 8.14655L11.8601 7.91734L11.1303 5.75358ZM18.3641 2C18.5333 2 18.699 2.04811 18.8426 2.13888C18.9861 2.22964 19.1017 2.35941 19.1761 2.51344L19.2195 2.62071L19.536 3.56139L20.4646 3.88229C20.6341 3.94069 20.7827 4.0488 20.8916 4.19293C21.0005 4.33706 21.0647 4.51072 21.0761 4.69189C21.0875 4.87306 21.0457 5.05359 20.9558 5.21061C20.8659 5.36762 20.7321 5.49405 20.5713 5.57388L20.4646 5.61788L19.5369 5.93878L19.2204 6.88038C19.1627 7.05223 19.056 7.20284 18.9138 7.31313C18.7716 7.42342 18.6003 7.48843 18.4216 7.49992C18.243 7.51141 18.065 7.46886 17.9102 7.37766C17.7554 7.28647 17.6307 7.15073 17.5521 6.98766L17.5087 6.88038L17.1922 5.9397L16.2636 5.6188C16.0941 5.5604 15.9455 5.45229 15.8366 5.30816C15.7277 5.16403 15.6635 4.99038 15.6521 4.80921C15.6407 4.62803 15.6825 4.4475 15.7724 4.29048C15.8623 4.13347 15.9961 4.00704 16.1569 3.92722L16.2636 3.88321L17.1913 3.56231L17.5078 2.62071C17.5688 2.43956 17.6841 2.28231 17.8377 2.17099C17.9913 2.05968 18.1753 1.99989 18.3641 2Z" fill="currentColor" />
</svg>