<svg xmlns="http://www.w3.org/2000/svg" width="24" height="24" viewBox="0 0 17 16" fill="none">
  <path fill-rule="evenodd" clip-rule="evenodd" d="M2.5 3.72276C2.5 2.7713 3.23111 2 4.13298 2H10.3927V3.1485H4.13298C3.83236 3.1485 3.58865 3.40561 3.58865 3.72276V9.75241C3.58865 10.0696 3.83236 10.3267 4.13298 10.3267H7.35225L8.75976 11.8116V10.3267H11.7536C12.0542 10.3267 12.2979 10.0696 12.2979 9.75241V6.59402H13.3865V9.75241C13.3865 10.7039 12.6554 11.4752 11.7536 11.4752H9.84841L9.7 14L6.90131 11.4752H4.13298C3.23111 11.4752 2.5 10.7039 2.5 9.75241V3.72276Z" fill="currentColor" />
  <path d="M12.9268 5.53494L13.0363 5.27494C13.2288 4.81488 13.5814 4.44593 14.0246 4.24088L14.3631 4.08561C14.404 4.06609 14.4386 4.03492 14.4628 3.99577C14.4871 3.95661 14.5 3.91112 14.5 3.86465C14.5 3.81818 14.4871 3.77268 14.4628 3.73353C14.4386 3.69438 14.404 3.6632 14.3631 3.64369L14.0433 3.49669C13.5889 3.2858 13.2303 2.90321 13.0412 2.42772L12.9285 2.1475C12.912 2.10402 12.8831 2.06669 12.8457 2.04038C12.8083 2.01407 12.7641 2 12.7188 2C12.6735 2 12.6293 2.01407 12.5918 2.04038C12.5544 2.06669 12.5256 2.10402 12.509 2.1475L12.3963 2.42818C12.2071 2.90358 11.8483 3.28601 11.3938 3.49669L11.0745 3.64323C11.0335 3.66269 10.9987 3.69387 10.9744 3.73307C10.95 3.77227 10.9371 3.81786 10.9371 3.86442C10.9371 3.91098 10.95 3.95656 10.9744 3.99577C10.9987 4.03497 11.0335 4.06615 11.0745 4.08561L11.4125 4.24134C11.8558 4.44618 12.2086 4.81497 12.4012 5.27494L12.5108 5.53494C12.5279 5.57728 12.5568 5.61345 12.5938 5.63889C12.6308 5.66433 12.6743 5.6779 12.7188 5.6779C12.7633 5.6779 12.8067 5.66433 12.8437 5.63889C12.8808 5.61345 12.9096 5.57728 12.9268 5.53494Z" fill="currentColor" />
</svg>