<svg xmlns="http://www.w3.org/2000/svg" width="24" height="24" viewBox="0 0 24 24" fill="none">
  <path fill="currentColor" d="M18.311 9.70296L18.1098 10.1557C18.0783 10.2295 18.0252 10.2924 17.9572 10.3367C17.8892 10.381 17.8094 10.4047 17.7277 10.4047C17.6459 10.4047 17.5661 10.381 17.4981 10.3367C17.4301 10.2924 17.377 10.2295 17.3456 10.1557L17.1443 9.70296C16.7904 8.90198 16.1423 8.25977 15.3279 7.90305L14.7069 7.63187C14.6315 7.59798 14.5677 7.54369 14.5229 7.47542C14.4782 7.40715 14.4544 7.32777 14.4544 7.24669C14.4544 7.16561 14.4782 7.08623 14.5229 7.01796C14.5677 6.94969 14.6315 6.89539 14.7069 6.86151L15.2935 6.60632C16.1284 6.23945 16.7876 5.57348 17.1353 4.74562L17.3423 4.25685C17.3727 4.18114 17.4257 4.11614 17.4945 4.07032C17.5632 4.02451 17.6445 4 17.7277 4C17.8109 4 17.8921 4.02451 17.9609 4.07032C18.0296 4.11614 18.0826 4.18114 18.113 4.25685L18.32 4.74482C18.6674 5.57284 19.3263 6.23909 20.161 6.60632L20.7485 6.86231C20.8236 6.89629 20.8872 6.95058 20.9317 7.01876C20.9763 7.08694 21 7.16617 21 7.24709C21 7.32801 20.9763 7.40724 20.9317 7.47542C20.8872 7.5436 20.8236 7.59789 20.7485 7.63187L20.1266 7.90225C19.3124 8.25933 18.6646 8.90182 18.311 9.70296ZM3 6.40073C3 6.18857 3.0862 5.9851 3.23965 5.83508C3.39309 5.68506 3.6012 5.60078 3.8182 5.60078H12.8184V7.20069H5.0496L11.182 12.53L14.7805 9.40217L15.8679 10.5981L11.182 14.6707L4.63641 8.9822V18.4001H17.7277V12.0004H19.3641V19.2C19.3641 19.4122 19.2779 19.6157 19.1244 19.7657C18.971 19.9157 18.7629 20 18.5459 20H3.8182C3.6012 20 3.39309 19.9157 3.23965 19.7657C3.0862 19.6157 3 19.4122 3 19.2V6.40073Z" />
</svg>