<svg xmlns="http://www.w3.org/2000/svg" width="24" height="24" viewBox="0 0 16 12" fill="none">
  <path d="M2.75 10C2.19772 10 1.75 10.4477 1.75 11C1.75 11.5523 2.19772 12 2.75 12H15C15.5523 12 16 11.5523 16 11C16 10.4477 15.5523 10 15 10H2.75ZM6.25 5C5.69772 5 5.25 5.44772 5.25 6C5.25 6.55228 5.69772 7 6.25 7H15C15.5523 7 16 6.55228 16 6C16 5.44772 15.5523 5 15 5H6.25ZM1 0C0.447715 0 0 0.447715 0 1C0 1.55228 0.447715 2 1 2H15C15.5523 2 16 1.55228 16 1C16 0.447715 15.5523 0 15 0H1Z" fill="currentColor" />
</svg>