<svg xmlns="http://www.w3.org/2000/svg" width="24" height="24" viewBox="0 0 18 12" fill="none">
  <path d="M14.5 10C15.0523 10 15.5 10.4477 15.5 11C15.5 11.5523 15.0523 12 14.5 12H3.5C2.94772 12 2.5 11.5523 2.5 11C2.5 10.4477 2.94772 10 3.5 10H14.5ZM17 5C17.5523 5 18 5.44772 18 6C18 6.55228 17.5523 7 17 7H1C0.447715 7 6.44255e-08 6.55228 0 6C0 5.44772 0.447715 5 1 5H17ZM14.5 0C15.0523 0 15.5 0.447715 15.5 1C15.5 1.55228 15.0523 2 14.5 2H3.5C2.94772 2 2.5 1.55228 2.5 1C2.5 0.447715 2.94772 0 3.5 0H14.5Z" fill="currentColor" />
</svg>