<svg xmlns="http://www.w3.org/2000/svg" width="24" height="24" viewBox="0 0 16 12" fill="none">
  <path d="M13.25 10C13.8023 10 14.25 10.4477 14.25 11C14.25 11.5523 13.8023 12 13.25 12H1C0.447715 12 1.28851e-07 11.5523 0 11C0 10.4477 0.447715 10 1 10H13.25ZM9.75 5C10.3023 5 10.75 5.44772 10.75 6C10.75 6.55228 10.3023 7 9.75 7H1C0.447715 7 6.44255e-08 6.55228 0 6C0 5.44772 0.447715 5 1 5H9.75ZM15 0C15.5523 0 16 0.447715 16 1C16 1.55228 15.5523 2 15 2H1C0.447715 2 0 1.55228 0 1C0 0.447715 0.447715 0 1 0H15Z" fill="currentColor" />
</svg>