<svg xmlns="http://www.w3.org/2000/svg" width="24" height="24" viewBox="0 0 24 24" fill="none">
  <path d="M4.125 6.76586C4.125 6.32573 4.30279 5.90362 4.61926 5.5924C4.93573 5.28119 5.36495 5.10634 5.8125 5.10634H18.1875C18.6351 5.10634 19.0643 5.28119 19.3807 5.5924C19.6972 5.90362 19.875 6.32573 19.875 6.76586V14.5103C19.875 14.9504 19.6972 15.3725 19.3807 15.6837C19.0643 15.9949 18.6351 16.1698 18.1875 16.1698H13.368L8.172 19.8561C8.14399 19.8759 8.11096 19.8878 8.07654 19.8903C8.04213 19.8929 8.00768 19.886 7.97697 19.8705C7.94626 19.855 7.92049 19.8315 7.9025 19.8026C7.88451 19.7736 7.87499 19.7403 7.875 19.7064V16.1698H5.8125C5.36495 16.1698 4.93573 15.9949 4.61926 15.6837C4.30279 15.3725 4.125 14.9504 4.125 14.5103V6.76586ZM5.8125 4C5.06658 4 4.35121 4.2914 3.82376 4.8101C3.29632 5.3288 3 6.03231 3 6.76586V14.5103C3 15.2438 3.29632 15.9473 3.82376 16.466C4.35121 16.9847 5.06658 17.2761 5.8125 17.2761H6.75V19.7071C6.75 20.7596 7.962 21.3696 8.8305 20.7537L13.7318 17.2761H18.1875C18.9334 17.2761 19.6488 16.9847 20.1762 16.466C20.7037 15.9473 21 15.2438 21 14.5103V6.76586C21 6.03231 20.7037 5.3288 20.1762 4.8101C19.6488 4.2914 18.9334 4 18.1875 4H5.8125ZM10.6875 11.7444H17.4375C17.5867 11.7444 17.7298 11.6861 17.8352 11.5824C17.9407 11.4786 18 11.3379 18 11.1912C18 11.0445 17.9407 10.9038 17.8352 10.8001C17.7298 10.6963 17.5867 10.6381 17.4375 10.6381H10.6875C10.5383 10.6381 10.3952 10.6963 10.2898 10.8001C10.1843 10.9038 10.125 11.0445 10.125 11.1912C10.125 11.3379 10.1843 11.4786 10.2898 11.5824C10.3952 11.6861 10.5383 11.7444 10.6875 11.7444ZM8.4375 10.6381H6.5625C6.41332 10.6381 6.27024 10.6963 6.16475 10.8001C6.05926 10.9038 6 11.0445 6 11.1912C6 11.3379 6.05926 11.4786 6.16475 11.5824C6.27024 11.6861 6.41332 11.7444 6.5625 11.7444H8.4375C8.58668 11.7444 8.72976 11.6861 8.83525 11.5824C8.94074 11.4786 9 11.3379 9 11.1912C9 11.0445 8.94074 10.9038 8.83525 10.8001C8.72976 10.6963 8.58668 10.6381 8.4375 10.6381ZM6.5625 13.2195C6.41332 13.2195 6.27024 13.2778 6.16475 13.3816C6.05926 13.4853 6 13.626 6 13.7727C6 13.9194 6.05926 14.0601 6.16475 14.1639C6.27024 14.2676 6.41332 14.3259 6.5625 14.3259H13.3125C13.4617 14.3259 13.6048 14.2676 13.7102 14.1639C13.8157 14.0601 13.875 13.9194 13.875 13.7727C13.875 13.626 13.8157 13.4853 13.7102 13.3816C13.6048 13.2778 13.4617 13.2195 13.3125 13.2195H6.5625ZM15.5625 14.3259C15.4133 14.3259 15.2702 14.2676 15.1648 14.1639C15.0593 14.0601 15 13.9194 15 13.7727C15 13.626 15.0593 13.4853 15.1648 13.3816C15.2702 13.2778 15.4133 13.2195 15.5625 13.2195H17.4375C17.5867 13.2195 17.7298 13.2778 17.8352 13.3816C17.9407 13.4853 18 13.626 18 13.7727C18 13.9194 17.9407 14.0601 17.8352 14.1639C17.7298 14.2676 17.5867 14.3259 17.4375 14.3259H15.5625Z" fill="currentColor" />
</svg>