<svg xmlns="http://www.w3.org/2000/svg" width="24" height="24" viewBox="0 0 24 24" fill="none">
  <path d="M6.92588 16.8803L14.7611 7.5426L6.70297 8.2476C6.29033 8.2837 5.92665 7.97853 5.89054 7.56589C5.85444 7.15325 6.15961 6.78957 6.57225 6.75346L16.4341 5.89067L16.5107 5.88743C16.8909 5.89269 17.2127 6.1855 17.2465 6.57237L18.1093 16.4342C18.1454 16.8468 17.8402 17.2105 17.4276 17.2466C17.015 17.2827 16.6513 16.9776 16.6152 16.5649L15.9102 8.50678L8.07494 17.8444C7.80869 18.1618 7.33562 18.2031 7.01832 17.9369C6.70101 17.6706 6.65962 17.1976 6.92588 16.8803Z" fill="currentColor" />
</svg>