<svg xmlns="http://www.w3.org/2000/svg" width="24" height="24" viewBox="0 0 24 24" fill="none">
  <path d="M19.5698 6.21512C19.5699 5.96183 19.5146 5.71087 19.4069 5.47684C19.2991 5.24282 19.1414 5.02987 18.9423 4.85073C18.7431 4.67161 18.5061 4.53001 18.2458 4.43304C17.9857 4.33614 17.7071 4.28581 17.4255 4.28571C17.1438 4.28565 16.8646 4.33537 16.6043 4.4322C16.344 4.52907 16.1071 4.67166 15.9078 4.85073L5.47765 14.2274C4.80718 14.8301 4.43023 15.6476 4.43017 16.5C4.43017 17.3525 4.80713 18.1706 5.47765 18.7734C6.14814 19.376 7.05749 19.7143 8.00559 19.7143C8.95368 19.7143 9.86303 19.376 10.5335 18.7734L17.8687 12.1791C18.148 11.9281 18.6006 11.9281 18.8799 12.1791C19.1591 12.4302 19.1591 12.8371 18.8799 13.0882L11.5447 19.6825C10.606 20.5262 9.33299 21 8.00559 21C6.67818 21 5.40518 20.5262 4.46648 19.6825C3.52775 18.8386 3 17.6935 3 16.5C3.00006 15.3066 3.5278 14.1622 4.46648 13.3184L14.8966 3.94085C15.2287 3.64249 15.6231 3.40587 16.0568 3.24442C16.4907 3.08297 16.956 2.9999 17.4255 3C17.8951 3.0001 18.3605 3.08362 18.7942 3.24526C19.2277 3.40684 19.6217 3.64336 19.9534 3.94169C20.2853 4.24013 20.5485 4.5948 20.7281 4.98465C20.9077 5.37465 21.0001 5.79304 21 6.21512C20.9999 6.63725 20.9079 7.05563 20.7281 7.44559C20.5707 7.78688 20.349 8.10079 20.0736 8.37388L19.9525 8.48772L9.50372 17.8811C9.49236 17.8909 9.47898 17.8992 9.46741 17.9088C9.46336 17.9118 9.45942 17.915 9.45531 17.918C9.05379 18.2442 8.53208 18.423 7.99162 18.4169C7.42901 18.4104 6.89151 18.2052 6.49534 17.846C6.09938 17.4868 5.87578 17.0023 5.87337 16.4967C5.87102 15.9908 6.09043 15.5045 6.48324 15.1423L6.48883 15.1364H6.48976L13.9358 8.44169C14.215 8.19082 14.6677 8.19084 14.9469 8.44169C15.2261 8.69269 15.226 9.09966 14.9469 9.35073L7.50093 16.0455C7.37394 16.1655 7.30285 16.3249 7.30354 16.4908C7.30432 16.6594 7.37911 16.8214 7.51117 16.9411C7.64323 17.0608 7.82273 17.129 8.01024 17.1311C8.19504 17.1332 8.37116 17.0709 8.50466 16.9595L8.51117 16.9545L18.9413 7.57868L19.0829 7.43806C19.2164 7.29184 19.326 7.12877 19.4069 6.9534C19.5147 6.71947 19.5697 6.46836 19.5698 6.21512Z" />
</svg>