<svg xmlns="http://www.w3.org/2000/svg" width="24" height="24" viewBox="0 0 20 20" fill="none">
  <path d="M5.09837 14.2764V5.25869L4.19179 6.16526C3.94772 6.40934 3.55208 6.40934 3.308 6.16526C3.06403 5.92118 3.06396 5.52552 3.308 5.28147L5.28147 3.308C5.52552 3.06396 5.92118 3.06403 6.16526 3.308L8.13955 5.28147C8.38344 5.52546 8.3833 5.92119 8.13955 6.16526C7.89547 6.40934 7.49902 6.40934 7.25494 6.16526L6.34837 5.25869V14.2764C6.34825 14.6215 6.06848 14.9014 5.72337 14.9014C5.37836 14.9013 5.09848 14.6214 5.09837 14.2764Z" fill="currentColor" />
  <path d="M5.72337 13.651H14.7411L13.8345 12.7444C13.5905 12.5003 13.5905 12.1047 13.8345 11.8606C14.0786 11.6167 14.4743 11.6166 14.7183 11.8606L16.6918 13.8341C16.9358 14.0781 16.9358 14.4738 16.6918 14.7179L14.7183 16.6922C14.4743 16.9361 14.0786 16.9359 13.8345 16.6922C13.5905 16.4481 13.5905 16.0517 13.8345 15.8076L14.7411 14.901L5.72337 14.9014C5.37836 14.9013 5.09848 14.6214 5.09837 14.2764C5.09849 13.9314 5.37836 13.6511 5.72337 13.651Z" fill="currentColor" />
</svg>