<svg xmlns="http://www.w3.org/2000/svg" width="24" height="24" viewBox="0 0 17 17" fill="none">
  <path d="M15.1707 10.8795C15.0865 10.939 13.3413 12.8153 13.3413 14.1321C13.3413 15.5205 14.2094 16.4071 15.1707 16.4554C15.9994 16.4963 17 15.6274 17 14.1321C17 12.7382 15.2548 10.939 15.1707 10.8795ZM5.64532 16.4554C5.99107 16.8067 6.45023 17 6.93866 17C7.4271 17 7.88626 16.8067 8.232 16.4554L14.6347 9.9502L13.988 9.29317L6.93866 2.13092L4.84133 0L3.54799 1.31405L5.64532 3.44498L0.535995 8.63614C0.190251 8.98743 0 9.45394 0 9.9502C0 10.4465 0.190251 10.913 0.535995 11.2643L5.64532 16.4554ZM6.93866 4.75903L12.048 9.9502H1.82933L6.93866 4.75903Z" fill="currentColor" />
</svg>