<svg xmlns="http://www.w3.org/2000/svg" width="24" height="24" viewBox="0 0 12 18" fill="none">
  <path fill-rule="evenodd" clip-rule="evenodd" d="M0 16.2V1.8C0 0.81 0.771429 0 1.71429 0H6C8.57143 0 11.1137 1.26 11.1429 4.4271C11.1429 6.0813 10.3449 7.7841 8.97257 8.3187V8.4402C10.7151 8.9028 12 10.2645 12 12.6972C12 13.617 11.826 14.4117 11.5089 15.0849C10.5746 17.064 8.64857 18 6 18H1.71429C0.771429 18 0 17.19 0 16.2ZM2.57143 15.3H6C8.19943 15.3 9.42857 14.22 9.42857 12.6C9.42857 10.98 8.22171 9.9 6 9.9H2.57143V15.3ZM2.57143 7.2H5.14286C7.18971 7.2 8.57143 6.435 8.57143 4.905C8.57143 3.375 7.28571 2.7 5.13943 2.7H2.57143V7.2Z" fill="currentColor" />
</svg>