<svg xmlns="http://www.w3.org/2000/svg" width="24" height="24" viewBox="0 0 24 24" fill="none">
  <path fill-rule="evenodd" clip-rule="evenodd" d="M4.31799 9.31802C3.47408 10.1619 2.99997 11.3065 2.99997 12.5C2.99997 13.6935 3.47408 14.8381 4.31799 15.682C5.1619 16.5259 6.3065 17 7.49997 17C8.69344 17 9.83804 16.5259 10.682 15.682C11.5259 14.8381 12 13.6935 12 12.5C12 11.3065 11.5259 10.1619 10.682 9.31802C9.83804 8.47411 8.69344 8 7.49997 8C6.3065 8 5.1619 8.47411 4.31799 9.31802ZM5.16652 10.1665C5.78539 9.54768 6.62476 9.2 7.49997 9.2C8.37518 9.2 9.21455 9.54768 9.83342 10.1665C10.4523 10.7854 10.8 11.6248 10.8 12.5C10.8 13.3752 10.4523 14.2146 9.83342 14.8335C9.21455 15.4523 8.37518 15.8 7.49997 15.8C6.62476 15.8 5.78539 15.4523 5.16652 14.8335C4.54765 14.2146 4.19997 13.3752 4.19997 12.5C4.19997 11.6248 4.54765 10.7854 5.16652 10.1665ZM13.918 9.31802C14.7619 8.47411 15.9065 8 17.1 8C18.2934 8 19.438 8.47411 20.282 9.31802C21.1259 10.1619 21.6 11.3065 21.6 12.5C21.6 13.6935 21.1259 14.8381 20.282 15.682C19.438 16.5259 18.2934 17 17.1 17C15.9065 17 14.7619 16.5259 13.918 15.682C13.0741 14.8381 12.6 13.6935 12.6 12.5C12.6 11.3065 13.0741 10.1619 13.918 9.31802Z" fill="currentColor" />
</svg>