<svg xmlns="http://www.w3.org/2000/svg" width="24" height="24" viewBox="0 0 20 20" fill="none">
  <g>
    <path d="M16.2143 9.31445C16.2143 7.87135 15.578 6.47132 14.4188 5.42801C13.2573 4.38272 11.6687 3.78571 10 3.78571C8.35187 3.78571 6.77087 4.44006 5.60547 5.60547C4.44006 6.77087 3.78571 8.35187 3.78571 10C3.78571 11.6481 4.44006 13.2291 5.60547 14.3945C6.77087 15.5599 8.35187 16.2143 10 16.2143H10.1716C10.275 16.2143 10.3766 16.1858 10.4646 16.1314C10.5526 16.077 10.6234 15.9988 10.6696 15.9062C10.7159 15.8138 10.7358 15.7104 10.7266 15.6074C10.7173 15.5044 10.679 15.4056 10.6169 15.3228L10.4118 15.0483C10.2065 14.7745 10.081 14.4491 10.0502 14.1083C10.0195 13.7674 10.0847 13.4249 10.2377 13.1189C10.3907 12.8129 10.6256 12.5555 10.9166 12.3756C11.2077 12.1956 11.5436 12.1002 11.8859 12.1002H13.4286C14.1673 12.1002 14.8757 11.8064 15.3982 11.284C15.9205 10.7617 16.2142 10.0532 16.2143 9.31445ZM17.5 9.31445C17.5 10.3942 17.0707 11.4296 16.3072 12.1931C15.5437 12.9566 14.5083 13.3859 13.4286 13.3859H11.8859C11.7825 13.3859 11.6809 13.4144 11.5929 13.4688C11.5049 13.5231 11.4333 13.6014 11.387 13.6939C11.3409 13.7863 11.3217 13.8899 11.3309 13.9927C11.3402 14.0958 11.3777 14.1946 11.4397 14.2773L11.6456 14.5511C11.851 14.8249 11.9765 15.1511 12.0073 15.4919C12.0379 15.8327 11.9728 16.1753 11.8198 16.4813C11.6667 16.7874 11.4312 17.0447 11.1401 17.2246C10.849 17.4045 10.5137 17.5 10.1716 17.5H10C8.01088 17.5 6.10295 16.7101 4.69643 15.3036C3.28991 13.897 2.5 11.9891 2.5 10C2.5 8.01088 3.28991 6.10295 4.69643 4.69643C6.10295 3.28991 8.01088 2.5 10 2.5C11.9685 2.5 13.868 3.20353 15.2785 4.47294C16.6912 5.74436 17.5 7.48403 17.5 9.31445Z" fill="currentColor" />
    <path d="M11.2857 6.57143C11.5224 6.57143 11.7143 6.37955 11.7143 6.14286C11.7143 5.90616 11.5224 5.71429 11.2857 5.71429C11.049 5.71429 10.8571 5.90616 10.8571 6.14286C10.8571 6.37955 11.049 6.57143 11.2857 6.57143Z" fill="currentColor" />
    <path d="M11.2857 5.71429C11.049 5.71429 10.8571 5.90616 10.8571 6.14286C10.8571 6.37955 11.049 6.57143 11.2857 6.57143C11.5224 6.57143 11.7143 6.37955 11.7143 6.14286C11.7143 5.90616 11.5224 5.71429 11.2857 5.71429ZM12.5714 6.14286C12.5714 6.85294 11.9958 7.42857 11.2857 7.42857C10.5756 7.42857 10 6.85294 10 6.14286C10 5.43278 10.5756 4.85714 11.2857 4.85714C11.9958 4.85714 12.5714 5.43278 12.5714 6.14286Z" fill="currentColor" />
    <path d="M13.8571 9.14286C14.0938 9.14286 14.2857 8.95098 14.2857 8.71429C14.2857 8.47759 14.0938 8.28571 13.8571 8.28571C13.6204 8.28571 13.4286 8.47759 13.4286 8.71429C13.4286 8.95098 13.6204 9.14286 13.8571 9.14286Z" fill="currentColor" />
    <path d="M13.8571 8.28571C13.6204 8.28571 13.4286 8.47759 13.4286 8.71429C13.4286 8.95098 13.6204 9.14286 13.8571 9.14286C14.0938 9.14286 14.2857 8.95098 14.2857 8.71429C14.2857 8.47759 14.0938 8.28571 13.8571 8.28571ZM15.1429 8.71429C15.1429 9.42437 14.5672 10 13.8571 10C13.1471 10 12.5714 9.42437 12.5714 8.71429C12.5714 8.00421 13.1471 7.42857 13.8571 7.42857C14.5672 7.42857 15.1429 8.00421 15.1429 8.71429Z" fill="currentColor" />
    <path d="M6.14286 10.8571C6.37955 10.8571 6.57143 10.6653 6.57143 10.4286C6.57143 10.1919 6.37955 10 6.14286 10C5.90616 10 5.71429 10.1919 5.71429 10.4286C5.71429 10.6653 5.90616 10.8571 6.14286 10.8571Z" fill="currentColor" />
    <path d="M6.14286 10C5.90616 10 5.71429 10.1919 5.71429 10.4286C5.71429 10.6653 5.90616 10.8571 6.14286 10.8571C6.37955 10.8571 6.57143 10.6653 6.57143 10.4286C6.57143 10.1919 6.37955 10 6.14286 10ZM7.42857 10.4286C7.42857 11.1387 6.85294 11.7143 6.14286 11.7143C5.43278 11.7143 4.85714 11.1387 4.85714 10.4286C4.85714 9.71849 5.43278 9.14286 6.14286 9.14286C6.85294 9.14286 7.42857 9.71849 7.42857 10.4286Z" fill="currentColor" />
    <path d="M7.85714 7.42857C8.09384 7.42857 8.28571 7.23669 8.28571 7C8.28571 6.76331 8.09384 6.57143 7.85714 6.57143C7.62045 6.57143 7.42857 6.76331 7.42857 7C7.42857 7.23669 7.62045 7.42857 7.85714 7.42857Z" fill="currentColor" />
    <path d="M7.85714 6.57143C7.62045 6.57143 7.42857 6.76331 7.42857 7C7.42857 7.23669 7.62045 7.42857 7.85714 7.42857C8.09384 7.42857 8.28571 7.23669 8.28571 7C8.28571 6.76331 8.09384 6.57143 7.85714 6.57143ZM9.14286 7C9.14286 7.71008 8.56722 8.28571 7.85714 8.28571C7.14706 8.28571 6.57143 7.71008 6.57143 7C6.57143 6.28992 7.14706 5.71429 7.85714 5.71429C8.56722 5.71429 9.14286 6.28992 9.14286 7Z" fill="currentColor" />
  </g>
</svg>