<svg xmlns="http://www.w3.org/2000/svg" width="24" height="24" viewBox="0 0 24 24" fill="none">
  <path fill-rule="evenodd" clip-rule="evenodd" d="M12 3.89024C8.86039 3.89024 6.35484 6.40844 6.35484 9.46605C6.35484 11.3243 7.09548 12.9259 8.41871 13.9241C8.71045 14.1438 8.96064 14.4719 9.05548 14.888C9.13406 15.23 9.22348 15.6461 9.312 16.0873H11.3226V15.0836C11.3225 14.9513 11.3591 14.8217 11.4283 14.71L12.1526 13.5422L10.5277 12.2336C10.3954 12.1271 10.3063 11.9739 10.278 11.8038C10.2496 11.6337 10.2839 11.4588 10.3742 11.3132L11.4283 9.61527C11.4761 9.53822 11.5382 9.4716 11.6111 9.41919C11.684 9.36678 11.7662 9.32961 11.8531 9.30982C11.94 9.29002 12.0298 9.28799 12.1175 9.30382C12.2052 9.31965 12.2889 9.35305 12.364 9.4021C12.4391 9.45115 12.504 9.51489 12.5551 9.58969C12.6062 9.66449 12.6424 9.74888 12.6617 9.83805C12.681 9.92721 12.6829 10.0194 12.6675 10.1093C12.6521 10.1993 12.6195 10.2852 12.5717 10.3623L11.8474 11.5292L13.4723 12.8388C13.6044 12.9452 13.6933 13.0982 13.7216 13.2681C13.75 13.438 13.7159 13.6127 13.6258 13.7582L12.6774 15.2865V16.0873H14.688C14.7765 15.6461 14.8659 15.23 14.9445 14.888C15.0403 14.4719 15.2895 14.1438 15.5813 13.9241C16.9036 12.9259 17.6452 11.3234 17.6452 9.46605C17.6452 6.40844 15.1396 3.89024 12 3.89024ZM14.4288 17.4776H9.57032C9.66968 18.068 9.74826 18.6268 9.77265 19.0291C9.79703 19.4526 10.105 19.8317 10.5594 19.9318L10.7364 19.9717C11.5674 20.1561 12.4299 20.1561 13.2618 19.9717L13.4388 19.9318C13.8932 19.8317 14.2012 19.4526 14.2265 19.0291C14.2499 18.6278 14.3276 18.068 14.4279 17.4776M5 9.46605C5 5.59561 8.15587 2.5 12 2.5C15.8441 2.5 19 5.59654 19 9.46605C19 11.7127 18.0932 13.7545 16.3834 15.0437C16.3257 15.0818 16.2832 15.1396 16.2632 15.2068C16.1344 15.7739 16.0157 16.3434 15.9074 16.915C15.7421 17.7843 15.6075 18.6278 15.5795 19.1134C15.5163 20.1867 14.7467 21.0644 13.7261 21.2915L13.549 21.3304C12.5284 21.5565 11.4716 21.5565 10.451 21.3304L10.2739 21.2915C9.25329 21.0653 8.48374 20.1867 8.42052 19.1134C8.39252 18.6278 8.25794 17.7843 8.09264 16.915C7.98428 16.3434 7.86564 15.7739 7.73677 15.2068C7.71684 15.1396 7.67426 15.0818 7.61664 15.0437C5.90684 13.7554 5 11.7127 5 9.46698" fill="currentColor" />
</svg>