<svg xmlns="http://www.w3.org/2000/svg" width="24" height="24" viewBox="0 0 24 24" fill="none">
  <path fill-rule="evenodd" clip-rule="evenodd" d="M8.80001 4.8C8.80001 4.35817 8.44183 4 8.00001 4C7.55818 4 7.20001 4.35817 7.20001 4.8V6.40001H6.4C5.07452 6.40001 4 7.47453 4 8.80001V17.6C4 18.9255 5.07452 20 6.4 20H17.6C18.9255 20 20 18.9255 20 17.6V8.80001C20 7.47453 18.9255 6.40001 17.6 6.40001H16.8V4.8C16.8 4.35817 16.4418 4 16 4C15.5582 4 15.2 4.35817 15.2 4.8V6.40001H8.80001V4.8ZM5.6 17.6V10.4H18.4V17.6C18.4 18.0418 18.0418 18.4 17.6 18.4H6.4C5.95817 18.4 5.6 18.0418 5.6 17.6Z" fill="currentColor" />
</svg>