<svg xmlns="http://www.w3.org/2000/svg" width="24" height="24" viewBox="0 0 24 24" fill="none">
  <path fill-rule="evenodd" clip-rule="evenodd" d="M16.5714 5.37143C15.4353 5.37143 14.5143 6.29244 14.5143 7.42857C14.5143 8.5647 15.4353 9.48571 16.5714 9.48571C17.7076 9.48571 18.6286 8.5647 18.6286 7.42857C18.6286 6.29244 17.7076 5.37143 16.5714 5.37143ZM13.1429 7.42857C13.1429 5.53502 14.6779 4 16.5714 4C18.465 4 20 5.53502 20 7.42857C20 9.32212 18.465 10.8571 16.5714 10.8571C14.6779 10.8571 13.1429 9.32212 13.1429 7.42857ZM7.42857 14.5143C6.29244 14.5143 5.37143 15.4353 5.37143 16.5714C5.37143 17.7075 6.29244 18.6286 7.42857 18.6286C8.5647 18.6286 9.48571 17.7075 9.48571 16.5714C9.48571 15.4353 8.5647 14.5143 7.42857 14.5143ZM4 16.5714C4 14.6779 5.53502 13.1428 7.42857 13.1428C9.32212 13.1428 10.8571 14.6779 10.8571 16.5714C10.8571 18.465 9.32212 20 7.42857 20C5.53502 20 4 18.465 4 16.5714ZM4.68571 4C4.307 4 4 4.307 4 4.68571V9.25714C4 9.68149 4.16857 10.0885 4.46863 10.3885C4.76869 10.6886 5.17565 10.8571 5.6 10.8571H9.25714C9.68149 10.8571 10.0885 10.6886 10.3885 10.3885C10.6886 10.0885 10.8571 9.68149 10.8571 9.25714V4.68571C10.8571 4.307 10.5501 4 10.1714 4H4.68571ZM5.37143 9.25714V5.37143H9.48571V9.25714C9.48571 9.31776 9.46163 9.3759 9.41877 9.41877C9.3759 9.46163 9.31776 9.48571 9.25714 9.48571H5.6C5.53938 9.48571 5.48124 9.46163 5.43838 9.41877C5.39551 9.3759 5.37143 9.31776 5.37143 9.25714ZM13.8286 13.1429C13.4499 13.1429 13.1429 13.4499 13.1429 13.8286V18.4C13.1429 18.8243 13.3114 19.2313 13.6115 19.5314C13.9115 19.8314 14.3185 20 14.7429 20H18.4C18.8243 20 19.2313 19.8314 19.5314 19.5314C19.8314 19.2313 20 18.8243 20 18.4V13.8286C20 13.4499 19.693 13.1429 19.3143 13.1429H13.8286ZM14.5143 18.4V14.5143H18.6286V18.4C18.6286 18.4606 18.6045 18.5188 18.5616 18.5616C18.5188 18.6045 18.4606 18.6286 18.4 18.6286H14.7429C14.6822 18.6286 14.6241 18.6045 14.5812 18.5616C14.5384 18.5188 14.5143 18.4606 14.5143 18.4Z" fill="currentColor" />
</svg>