<svg xmlns="http://www.w3.org/2000/svg" width="24" height="24" viewBox="0 0 24 24" fill="none">
  <path fill-rule="evenodd" clip-rule="evenodd" d="M20.0002 10.5455C20.0002 10.0561 19.9453 9.56818 19.8365 9.09097C19.5069 7.64487 18.696 6.35357 17.5365 5.42865C16.3771 4.50372 14.9378 3.99999 13.4546 4V10.5455H20.0002ZM17.0544 6.94579C17.6522 7.54357 18.0917 8.28082 18.3332 9.09097H14.9092V5.66693C15.7194 5.90849 16.4566 6.348 17.0544 6.94579ZM4.64799 10.6152C4.22147 11.501 4 12.4716 4 13.4547C4.00002 14.3761 4.19453 15.287 4.57081 16.128C4.9471 16.9689 5.49668 17.721 6.18361 18.335C6.87054 18.9489 7.67934 19.4109 8.55712 19.6908C9.43489 19.9707 10.3619 20.0621 11.2774 19.9591C12.1929 19.8561 13.0764 19.561 13.8701 19.093C14.6637 18.6251 15.3496 17.9949 15.8829 17.2436C16.4162 16.4923 16.7849 15.637 16.9649 14.7334C17.1449 13.8298 17.1321 12.8985 16.9274 12.0002H12.0001V7.07284C11.0415 6.85436 10.046 6.85463 9.08754 7.07363C8.12907 7.29262 7.23225 7.72473 6.46367 8.33784C5.69509 8.95096 5.0745 9.72934 4.64799 10.6152ZM10.5455 13.4547H15.494C15.494 14.4334 15.2037 15.3902 14.66 16.2039C14.1163 17.0177 13.3434 17.6519 12.4392 18.0265C11.535 18.401 10.54 18.499 9.58014 18.3081C8.62024 18.1171 7.73852 17.6459 7.04647 16.9538C6.35442 16.2618 5.88313 15.38 5.69219 14.4201C5.50126 13.4602 5.59925 12.4653 5.97379 11.5611C6.34832 10.6569 6.98257 9.88402 7.79634 9.34028C8.6101 8.79654 9.56683 8.50632 10.5455 8.50632V13.4547Z" fill="currentColor" />
</svg>