<svg xmlns="http://www.w3.org/2000/svg" width="24" height="24" viewBox="0 0 20 20" fill="none">
  <path d="M17.0588 15.7784H16.3235V3.77843C16.3235 3.66055 16.277 3.54751 16.1943 3.46416C16.1116 3.38081 15.9994 3.33398 15.8824 3.33398H11.7647C11.6477 3.33398 11.5355 3.38081 11.4527 3.46416C11.37 3.54751 11.3235 3.66055 11.3235 3.77843V6.88954H7.64706C7.53005 6.88954 7.41784 6.93637 7.3351 7.01971C7.25236 7.10306 7.20588 7.21611 7.20588 7.33398V10.4451H4.11765C4.00064 10.4451 3.88842 10.4919 3.80569 10.5753C3.72295 10.6586 3.67647 10.7717 3.67647 10.8895V15.7784H2.94118C2.82417 15.7784 2.71195 15.8253 2.62922 15.9086C2.54648 15.992 2.5 16.105 2.5 16.2229C2.5 16.3407 2.54648 16.4538 2.62922 16.5371C2.71195 16.6205 2.82417 16.6673 2.94118 16.6673H17.0588C17.1758 16.6673 17.288 16.6205 17.3708 16.5371C17.4535 16.4538 17.5 16.3407 17.5 16.2229C17.5 16.105 17.4535 15.992 17.3708 15.9086C17.288 15.8253 17.1758 15.7784 17.0588 15.7784ZM12.2059 4.22287H15.4412V15.7784H12.2059V4.22287ZM8.08824 7.77843H11.3235V15.7784H8.08824V7.77843ZM4.55882 11.334H7.20588V15.7784H4.55882V11.334Z" fill="currentColor" />
</svg>