<svg xmlns="http://www.w3.org/2000/svg" width="24" height="24" viewBox="0 0 24 24" fill="none">
  <path d="M8.56748 15.4729C8.85138 15.1888 9.29595 15.2056 9.56078 15.5102C9.82556 15.8148 9.81047 16.292 9.52691 16.5765L6.31264 19.7968C6.08771 20.0221 5.7567 20.0615 5.49511 19.9078L5.388 19.8302L4.00928 18.6224L3.95527 18.5703C3.70346 18.2998 3.67853 17.8629 3.90858 17.5601C4.13869 17.2576 4.54222 17.1964 4.83963 17.4068L4.8973 17.453L5.80089 18.2431L8.56748 15.4729ZM8.62241 9.78796C8.90608 9.55687 9.31247 9.58907 9.56078 9.87444C9.82568 10.1791 9.81066 10.6572 9.52691 10.9416L6.31264 14.162C6.17566 14.2992 5.9927 14.3721 5.80546 14.3644C5.66515 14.3586 5.53102 14.3073 5.41913 14.2199L5.31476 14.1207L3.93604 12.511L3.88935 12.4511C3.67608 12.1448 3.70934 11.7082 3.97724 11.4438C4.2452 11.1794 4.65283 11.1811 4.91927 11.435L4.97054 11.489L5.87046 12.5395L8.56748 9.83808L8.62241 9.78796ZM8.62241 4.15316C8.90616 3.92185 9.31243 3.95402 9.56078 4.23963C9.80921 4.52536 9.8111 4.96292 9.57635 5.25083L9.52691 5.30586L6.31264 8.52617C6.06872 8.77054 5.70447 8.79358 5.43835 8.59987L5.33033 8.50357L3.95161 6.99414L3.904 6.93616C3.68113 6.63739 3.70074 6.19969 3.96076 5.92595C4.22062 5.65247 4.62796 5.64019 4.90188 5.88467L4.95498 5.93676L5.85398 6.92044L8.56748 4.20327L8.62241 4.15316Z" fill="currentColor" />
  <path d="M16.25 16.5827L16.3231 16.5864C16.6812 16.6229 16.9605 16.9246 16.9605 17.2913C16.9604 17.658 16.6811 17.9598 16.3231 17.9963L16.25 18H12.4605C12.0682 18 11.7501 17.6826 11.75 17.2913C11.75 16.9 12.0681 16.5827 12.4605 16.5827H16.25ZM20.0395 16.5827L20.1126 16.5864C20.4706 16.6229 20.75 16.9246 20.75 17.2913C20.7499 17.658 20.4706 17.9598 20.1126 17.9963L20.0395 18H18.9024C18.5102 17.9999 18.192 17.6826 18.1919 17.2913C18.1919 16.9 18.5101 16.5828 18.9024 16.5827H20.0395ZM13.5976 11.2909L13.6697 11.2946C14.028 11.3307 14.3079 11.6327 14.3081 11.9995C14.3081 12.3665 14.0281 12.6683 13.6697 12.7045L13.5976 12.7082H12.4605C12.0681 12.7082 11.75 12.3909 11.75 11.9995C11.7502 11.6083 12.0682 11.2909 12.4605 11.2909H13.5976ZM20.0395 11.2909L20.1126 11.2946C20.4705 11.331 20.7498 11.6329 20.75 11.9995C20.75 12.3663 20.4706 12.668 20.1126 12.7045L20.0395 12.7082H16.25C15.8576 12.7082 15.5395 12.3909 15.5395 11.9995C15.5397 11.6083 15.8577 11.2909 16.25 11.2909H20.0395ZM20.0395 6L20.1126 6.00369C20.4706 6.04018 20.75 6.34188 20.75 6.70865C20.75 7.07542 20.4706 7.37712 20.1126 7.41361L20.0395 7.4173H12.4605C12.0681 7.4173 11.75 7.10003 11.75 6.70865C11.75 6.31727 12.0681 6. 0  11.9995 12.7082  11.75 6.70865H12.4605L20.0395Z" fill="currentColor" />
</svg>