<svg xmlns="http://www.w3.org/2000/svg" width="24" height="24" viewBox="0 0 24 24" fill="none">
  <path d="M14.0827 5.02946C14.2965 5.08596 14.4777 5.21992 14.5864 5.40189C14.6952 5.58387 14.7225 5.79895 14.6624 5.99985L10.9511 18.4254C10.9214 18.5249 10.8711 18.618 10.8031 18.6992C10.7351 18.7805 10.6508 18.8484 10.5549 18.899C10.4589 18.9497 10.3533 18.9821 10.2441 18.9944C10.1348 19.0067 10.0241 18.9987 9.91814 18.9708C9.81219 18.9429 9.71313 18.8956 9.62662 18.8318C9.5401 18.7679 9.46783 18.6886 9.41391 18.5985C9.36 18.5084 9.32551 18.4092 9.31241 18.3066C9.29931 18.204 9.30786 18.0999 9.33756 18.0004L13.0489 5.57486C13.0786 5.47524 13.1289 5.38209 13.1969 5.30075C13.265 5.21941 13.3494 5.15146 13.4454 5.10081C13.5414 5.05015 13.6472 5.01777 13.7565 5.00553C13.8659 4.99329 13.9767 5.00142 14.0827 5.02946ZM7.98456 8.10435C8.14162 8.25194 8.22985 8.45209 8.22985 8.66078C8.22985 8.86947 8.14162 9.06961 7.98456 9.2172L5.02304 12.0001L7.98456 14.7822C8.0624 14.8553 8.12415 14.9421 8.1663 15.0376C8.20845 15.1331 8.23016 15.2354 8.2302 15.3388C8.23024 15.4422 8.2086 15.5445 8.16653 15.64C8.12445 15.7356 8.06276 15.8224 7.98498 15.8955C7.9072 15.9686 7.81485 16.0266 7.7132 16.0662C7.61155 16.1058 7.50259 16.1262 7.39255 16.1262C7.28251 16.1263 7.17354 16.106 7.07186 16.0664C6.97019 16.0269 6.87779 15.9689 6.79995 15.8959L3.24529 12.5565C3.08823 12.409 3 12.2088 3 12.0001C3 11.7914 3.08823 11.5913 3.24529 11.4437L6.79995 8.10435C6.95706 7.95681 7.17011 7.87392 7.39226 7.87392C7.6144 7.87392 7.82746 7.95681 7.98456 8.10435ZM16.0154 9.2172C15.9354 9.1446 15.8716 9.05776 15.8277 8.96174C15.7838 8.86572 15.7607 8.76245 15.7597 8.65795C15.7587 8.55345 15.7799 8.44981 15.8221 8.35309C15.8642 8.25637 15.9264 8.16849 16.0051 8.0946C16.0837 8.0207 16.1773 7.96226 16.2802 7.92269C16.3832 7.88312 16.4935 7.86321 16.6047 7.86411C16.716 7.86502 16.8259 7.88673 16.9281 7.92798C17.0303 7.96923 17.1228 8.02918 17.2 8.10435L20.7547 11.4437C20.9118 11.5913 21 11.7914 21 12.0001C21 12.2088 20.9118 12.409 20.7547 12.5565L17.2 15.8959C17.0428 16.0435 16.8297 16.1263 16.6074 16.1262C16.3852 16.1262 16.1721 16.0432 16.015 15.8955C15.8579 15.7478 15.7697 15.5476 15.7698 15.3388C15.7699 15.13 15.8582 14.9298 16.0154 14.7822L18.977 12.0001L16.0154 9.2172Z" fill="currentColor" />
</svg>