<svg xmlns="http://www.w3.org/2000/svg" width="24" height="24" viewBox="0 0 24 24" fill="none">
  <path d="M19.1054 6.386C17.2545 5.4795 14.7973 5 12 5C9.20268 5 6.74554 5.4795 4.89464 6.386C3.04375 7.2925 2 8.56825 2 9.9V14.1C2 15.4318 3.05536 16.7119 4.89464 17.614C6.73393 18.5161 9.20268 19 12 19C14.7973 19 17.2545 18.5205 19.1054 17.614C20.9563 16.7075 22 15.4318 22 14.1V9.9C22 8.56825 20.9446 7.28813 19.1054 6.386ZM12 6.4C17.5929 6.4 20.5714 8.43262 20.5714 9.9C20.5714 11.3674 17.5929 13.4 12 13.4C6.40714 13.4 3.42857 11.3674 3.42857 9.9C3.42857 8.43262 6.40714 6.4 12 6.4ZM11.2857 14.7878V17.5877C9.58929 17.5335 8.16071 17.2885 7 16.9324V14.1919C8.39922 14.5572 9.83801 14.7573 11.2857 14.7878ZM12.7143 14.7878C14.162 14.7573 15.6008 14.5572 17 14.1919V16.9315C15.8393 17.2876 14.4107 17.5326 12.7143 17.5869V14.7878ZM3.42857 14.1V12.4839C3.87814 12.8495 4.37025 13.1617 4.89464 13.414C5.11161 13.5199 5.34107 13.6196 5.57143 13.7141V16.375C4.15804 15.689 3.42857 14.8254 3.42857 14.1ZM18.4286 16.375V13.7141C18.6616 13.6196 18.8884 13.5199 19.1054 13.414C19.6297 13.1617 20.1219 12.8495 20.5714 12.4839V14.1C20.5714 14.8254 19.842 15.689 18.4286 16.375Z" />
</svg>