<svg xmlns="http://www.w3.org/2000/svg" width="24" height="24" viewBox="0 0 24 24" fill="none">
  <path fill-rule="evenodd" clip-rule="evenodd" d="M4.18024 6.17007C4.42056 5.94331 4.8102 5.94331 5.05053 6.17007L7.10181 8.10555C7.34213 8.33231 7.34213 8.69995 7.10181 8.92671L5.05053 10.8622C4.8102 11.0889 4.42056 11.0889 4.18024 10.8622C3.93992 10.6354 3.93992 10.2678 4.18024 10.041L5.79638 8.51613L4.18024 6.99122C3.93992 6.76447 3.93992 6.39682 4.18024 6.17007ZM9.74359 7.35484C9.74359 7.03416 10.0191 6.77419 10.359 6.77419H19.3846C19.7245 6.77419 20 7.03416 20 7.35484C20 7.67552 19.7245 7.93548 19.3846 7.93548H10.359C10.0191 7.93548 9.74359 7.67552 9.74359 7.35484ZM9.74359 12C9.74359 11.6793 10.0191 11.4194 10.359 11.4194H19.3846C19.7245 11.4194 20 11.6793 20 12C20 12.3207 19.7245 12.5806 19.3846 12.5806H10.359C10.0191 12.5806 9.74359 12.3207 9.74359 12ZM4.18024 13.1378C4.42056 12.9111 4.8102 12.9111 5.05053 13.1378L7.10181 15.0733C7.34213 15.3 7.34213 15.6677 7.10181 15.8944L5.05053 17.8299C4.8102 18.0567 4.42056 18.0567 4.18024 17.8299C3.93992 17.6032 3.93992 17.2355 4.18024 17.0088L5.79638 15.4839L4.18024 13.959C3.93992 13.7322 3.93992 13.3646 4.18024 13.1378ZM9.74359 16.6452C9.74359 16.3245 10.0191 16.0645 10.359 16.0645H19.3846C19.7245 16.0645 20 16.3245 20 16.6452C20 16.9658 19.7245 17.2258 19.3846 17.2258H10.359C10.0191 17.2258 9.74359 16.9658 9.74359 16.6452Z" fill="currentColor" />
</svg>