<svg xmlns="http://www.w3.org/2000/svg" width="24" height="24" viewBox="0 0 24 24" fill="none">
  <path fill-rule="evenodd" clip-rule="evenodd" d="M19.8198 6.17007C19.5794 5.94331 19.1898 5.94331 18.9495 6.17007L16.8982 8.10555C16.6579 8.33231 16.6579 8.69995 16.8982 8.92671L18.9495 10.8622C19.1898 11.0889 19.5794 11.0889 19.8198 10.8622C20.0601 10.6354 20.0601 10.2678 19.8198 10.041L18.2036 8.51613L19.8198 6.99122C20.0601 6.76447 20.0601 6.39682 19.8198 6.17007ZM14.2564 7.35484C14.2564 7.03416 13.9809 6.77419 13.641 6.77419H4.61538C4.27552 6.77419 4 7.03416 4 7.35484C4 7.67552 4.27552 7.93548 4.61538 7.93548H13.641C13.9809 7.93548 14.2564 7.67552 14.2564 7.35484ZM14.2564 12C14.2564 11.6793 13.9809 11.4194 13.641 11.4194H4.61538C4.27552 11.4194 4 11.6793 4 12C4 12.3207 4.27552 12.5806 4.61538 12.5806H13.641C13.9809 12.5806 14.2564 12.3207 14.2564 12ZM19.8198 13.1378C19.5794 12.9111 19.1898 12.9111 18.9495 13.1378L16.8982 15.0733C16.6579 15.3 16.6579 15.6677 16.8982 15.8944L18.9495 17.8299C19.1898 18.0567 19.5794 18.0567 19.8198 17.8299C20.0601 17.6032 20.0601 17.2355 19.8198 17.0088L18.2036 15.4839L19.8198 13.959C20.0601 13.7322 20.0601 13.3646 19.8198 13.1378ZM14.2564 16.6452C14.2564 16.3245 13.9809 16.0645 13.641 16.0645H4.61538C4.27552 16.0645 4 16.3245 4 16.6452C4 16.9658 4.27552 17.2258 4.61538 17.2258H13.641C13.9809 17.2258 14.2564 16.9658 14.2564 16.6452Z" fill="currentColor" />
</svg>