<svg xmlns="http://www.w3.org/2000/svg" width="24" height="24" viewBox="0 0 20 20" fill="none">
  <path d="M16.1654 12.2228C16.1654 11.9625 16.0613 11.7127 15.8773 11.5286C15.6933 11.3447 15.4441 11.2415 15.1839 11.2414H13.6548L8.74349 16.1527C8.7385 16.1577 8.73305 16.1624 8.72803 16.1673H15.1839C15.4441 16.1672 15.6933 16.0632 15.8773 15.8792C16.0613 15.6953 16.1653 15.446 16.1654 15.1859V12.2228ZM6.30208 13.2043C6.57819 13.2043 6.80171 13.4278 6.80176 13.7039C6.80176 13.9801 6.57822 14.2044 6.30208 14.2044H6.29476C6.01862 14.2044 5.79427 13.9801 5.79427 13.7039C5.79432 13.4278 6.01865 13.2043 6.29476 13.2043H6.30208ZM14.6094 8.46631C14.6094 8.20608 14.5061 7.95619 14.3221 7.77214L12.2266 5.6766C12.0425 5.49262 11.7926 5.38932 11.5324 5.38932C11.2722 5.38934 11.0223 5.49261 10.8382 5.6766L9.75749 6.75732V13.7039C9.75749 13.7107 9.75671 13.7175 9.75667 13.7243L14.3221 9.16048C14.5061 8.97644 14.6094 8.72654 14.6094 8.46631ZM8.75732 4.81478C8.75723 4.55465 8.65397 4.30539 8.47005 4.12142C8.28599 3.93736 8.03618 3.83333 7.77588 3.83333H4.81283C4.55265 3.83343 4.30344 3.93744 4.11947 4.12142C3.93549 4.3054 3.83148 4.5546 3.83138 4.81478V13.7039C3.83138 14.3572 4.09133 14.9836 4.55322 15.4455C5.01512 15.9074 5.64154 16.1673 6.29476 16.1673C6.94794 16.1673 7.57442 15.9073 8.0363 15.4455C8.49813 14.9836 8.75732 14.3571 8.75732 13.7039V4.81478ZM9.75749 5.34375L10.1318 4.9694C10.5034 4.59812 11.0071 4.38918 11.5324 4.38916C12.0578 4.38916 12.5622 4.59793 12.9338 4.9694L15.0293 7.06494C15.4008 7.43652 15.6095 7.94089 15.6095 8.46631C15.6095 8.99157 15.4006 9.49532 15.0293 9.86686L14.6549 10.2412H15.1839C15.7093 10.2413 16.213 10.45 16.5845 10.8215C16.9561 11.1931 17.1647 11.6973 17.1647 12.2228V15.1859C17.1646 15.7113 16.956 16.2149 16.5845 16.5864C16.213 16.9579 15.7093 17.1666 15.1839 17.1667H6.29476C5.37632 17.1667 4.49546 16.8021 3.84603 16.1527C3.1966 15.5032 2.83203 14.6224 2.83203 13.7039V4.81478C2.83213 4.28939 3.04076 3.78574 3.41227 3.41423C3.78379 3.04271 4.28743 2.83408 4.81283 2.83398H7.77588C8.3014 2.83398 8.80565 3.04263 9.17725 3.41423C9.5487 3.78573 9.75739 4.28943 9.75749 4.81478V5.34375Z" fill="currentColor" />
</svg>