<svg xmlns="http://www.w3.org/2000/svg" width="24" height="24" viewBox="0 0 24 24" fill="none">
  <path d="M19.6154 15.188V6.43641C19.6154 6.16411 19.5014 5.89641 19.2882 5.69424C19.1006 5.51645 18.85 5.40273 18.5787 5.37718L18.4615 5.37182H5.53846C5.22286 5.37182 4.92612 5.4911 4.71184 5.69424C4.49859 5.89641 4.38462 6.16411 4.38462 6.43641V15.188C4.38472 15.4602 4.49877 15.7273 4.71184 15.9293C4.92612 16.1325 5.22285 16.2517 5.53846 16.2517H8.48167C9.75761 16.252 10.8462 17.2407 10.8462 18.5238C10.8462 18.5501 10.8531 18.5628 10.8606 18.5729C10.8709 18.5868 10.8918 18.6062 10.9255 18.6194C10.9946 18.6464 11.0572 18.6325 11.1031 18.589L12.8266 16.9555L13.0132 16.7947C13.4654 16.4433 14.03 16.2519 14.6106 16.2517H18.4615C18.7772 16.2517 19.0739 16.1325 19.2882 15.9293C19.5012 15.7273 19.6153 15.4602 19.6154 15.188ZM11.0769 12.7516L11.1481 12.7552C11.497 12.7905 11.7692 13.0825 11.7692 13.4375C11.7691 13.7925 11.497 14.0846 11.1481 14.1199L11.0769 14.1234H7.38462C7.00232 14.1234 6.69239 13.8163 6.69231 13.4375C6.69231 13.0587 7.00226 12.7516 7.38462 12.7516H11.0769ZM16.6154 10.1259L16.6866 10.1294C17.0354 10.1647 17.3076 10.4568 17.3077 10.8118C17.3077 11.1668 17.0355 11.4588 16.6866 11.4941L16.6154 11.4977H7.38462C7.00226 11.4977 6.69231 11.1906 6.69231 10.8118C6.69239 10.433 7.00232 10.1259 7.38462 10.1259H16.6154ZM16.6154 7.50101C16.9977 7.50101 17.3077 7.8081 17.3077 8.18692C17.3075 8.56554 16.9976 8.87283 16.6154 8.87283H7.38462C7.00241 8.87283 6.69254 8.56554 6.69231 8.18692C6.69231 7.8081 7.00226 7.50101 7.38462 7.50101H16.6154ZM21 15.188C20.9999 15.844 20.7246 16.4665 20.2455 16.9207C19.7673 17.374 19.1252 17.6236 18.4615 17.6236H14.6106C14.3343 17.6236 14.0725 17.7154 13.8678 17.8745L13.784 17.946L12.0604 19.5804C11.138 20.4547 9.46161 19.8956 9.46154 18.5238C9.46154 18.0551 9.05147 17.6238 8.48167 17.6236H5.53846C4.87482 17.6236 4.23266 17.374 3.75451 16.9207C3.27543 16.4665 3.0001 15.844 3 15.188V6.43641C3 5.7803 3.27531 5.15719 3.75451 4.70288C4.23265 4.24962 4.87487 4 5.53846 4H18.4615L18.7094 4.01161C19.2833 4.06565 19.8272 4.30635 20.2455 4.70288C20.7247 5.15719 21 5.7803 21 6.43641V15.188Z" fill="currentColor" />
</svg>