<svg xmlns="http://www.w3.org/2000/svg" width="24" height="24" viewBox="0 0 24 24" fill="none">
  <path d="M4.05882 12.9572H10.9412V8.04953H4.05882V12.9572ZM4.05882 6.99071H18.8824V4.71106C18.8824 4.52047 18.8213 4.36412 18.6992 4.242C18.5771 4.11988 18.4211 4.05882 18.2312 4.05882H4.71C4.52012 4.05882 4.36412 4.11988 4.242 4.242C4.11988 4.36412 4.05882 4.52047 4.05882 4.71106V6.99071ZM13.6295 21C13.3832 21 13.1788 20.9188 13.0165 20.7565C12.8541 20.5941 12.7729 20.3901 12.7729 20.1445V19.3715C12.7729 19.1435 12.8206 18.9219 12.9159 18.7066C13.0098 18.4913 13.1333 18.3071 13.2865 18.1539L18.4196 13.0398C18.5241 12.936 18.6328 12.8654 18.7458 12.828C18.8587 12.792 18.9716 12.774 19.0846 12.774C19.2011 12.774 19.3189 12.7966 19.4382 12.8418C19.5582 12.8876 19.6634 12.9561 19.7538 13.0472L20.7332 14.0467C20.82 14.1512 20.886 14.2599 20.9312 14.3728C20.9771 14.4851 21 14.5976 21 14.7106C21 14.8235 20.9785 14.9372 20.9354 15.0515C20.8924 15.1659 20.8249 15.2753 20.7332 15.3798L15.6201 20.4939C15.4669 20.6471 15.2827 20.7695 15.0674 20.8613C14.8521 20.9538 14.6305 21 14.4025 21H13.6295ZM4.71106 19.9412C4.22329 19.9412 3.81635 19.7781 3.49024 19.452C3.16412 19.1259 3.00071 18.7186 3 18.2301V4.71106C3 4.22329 3.16341 3.81635 3.49024 3.49024C3.81706 3.16412 4.224 3.00071 4.71106 3H18.2312C18.7182 3 19.1252 3.16341 19.452 3.49024C19.7788 3.81706 19.9419 4.224 19.9412 4.71106V10.5769C19.9412 10.7273 19.8907 10.8533 19.7898 10.9549C19.6888 11.0566 19.5628 11.1071 19.4118 11.1064C19.2607 11.1056 19.1347 11.0552 19.0338 10.9549C18.9328 10.8547 18.8824 10.7287 18.8824 10.5769V8.04953H12V12.9572C12 13.9927 12 13.8736 12 13.8736V13.9927L11.9533 16.8621C12 16.7647 11.7888 17.2796 11.4706 17.2941C11.204 17.3063 10.9412 17.0555 10.9412 16.8621V14.016H4.05882V18.2301C4.05882 18.4207 4.11988 18.5771 4.242 18.6992C4.36412 18.8213 4.52047 18.8824 4.71106 18.8824H10.4118C10.5628 18.8824 10.6888 18.9328 10.7898 19.0338C10.8907 19.1347 10.9412 19.2607 10.9412 19.4118C10.9412 19.5628 10.8907 19.6888 10.7898 19.7898C10.6888 19.8907 10.5628 19.9412 10.4118 19.9412H4.71106ZM13.7111 20.064H14.7169L18.3879 16.3856L17.4085 15.366L13.71 19.0581L13.7111 20.064ZM17.8913 15.8827L17.4085 15.366L18.3879 16.3856L17.8913 15.8827Z" fill="currentColor" />
</svg>