<svg xmlns="http://www.w3.org/2000/svg" width="24" height="24" viewBox="0 0 24 24" fill="none">
  <path d="M13.7404 12.8309C13.6807 12.7712 13.6098 12.7237 13.5317 12.6914C13.4537 12.659 13.3701 12.6424 13.2856 12.6424C13.2011 12.6424 13.1175 12.659 13.0394 12.6914C12.9614 12.7237 12.8905 12.7712 12.8308 12.8309L11.3571 14.3054L9.69459 12.6429L11.1691 11.1692C11.2897 11.0486 11.3575 10.885 11.3575 10.7144C11.3575 10.5438 11.2897 10.3802 11.1691 10.2596C11.0485 10.139 10.8849 10.0712 10.7143 10.0712C10.5437 10.0712 10.3801 10.139 10.2595 10.2596L8.78579 11.7341L7.31212 10.2596C7.19149 10.139 7.0279 10.0712 6.85732 10.0712C6.68673 10.0712 6.52314 10.139 6.40252 10.2596C6.2819 10.3802 6.21413 10.5438 6.21413 10.7144C6.21413 10.885 6.2819 11.0486 6.40252 11.1692L6.91276 11.6787L5.03892 13.5517C4.80009 13.7905 4.61064 14.074 4.48138 14.386C4.35212 14.698 4.28559 15.0324 4.28559 15.3701C4.28559 15.7078 4.35212 16.0422 4.48138 16.3542C4.61064 16.6662 4.80009 16.9497 5.03892 17.1885L5.47122 17.62L3.18838 19.902C3.12866 19.9617 3.08128 20.0326 3.04896 20.1107C3.01664 20.1887 3 20.2724 3 20.3568C3 20.4413 3.01664 20.5249 3.04896 20.603C3.08128 20.681 3.12866 20.7519 3.18838 20.8116C3.309 20.9322 3.4726 21 3.64318 21C3.72765 21 3.81128 20.9834 3.88932 20.951C3.96735 20.9187 4.03826 20.8713 4.09798 20.8116L6.38002 18.5288L6.81151 18.9611C7.05029 19.1999 7.33377 19.3894 7.64578 19.5186C7.95778 19.6479 8.29219 19.7144 8.62991 19.7144C8.96763 19.7144 9.30204 19.6479 9.61404 19.5186C9.92604 19.3894 10.2095 19.1999 10.4483 18.9611L12.3213 17.0872L12.8308 17.5975C12.8905 17.6572 12.9614 17.7046 13.0394 17.7369C13.1175 17.7692 13.2011 17.7859 13.2856 17.7859C13.37 17.7859 13.4537 17.7692 13.5317 17.7369C13.6097 17.7046 13.6807 17.6572 13.7404 17.5975C13.8001 17.5378 13.8475 17.4669 13.8798 17.3888C13.9121 17.3108 13.9288 17.2271 13.9288 17.1427C13.9288 17.0582 13.9121 16.9746 13.8798 16.8965C13.8475 16.8185 13.8001 16.7476 13.7404 16.6879L12.2659 15.2142L13.7404 13.7405C13.8001 13.6808 13.8476 13.6099 13.8799 13.5319C13.9123 13.4539 13.9289 13.3702 13.9289 13.2857C13.9289 13.2012 13.9123 13.1176 13.8799 13.0396C13.8476 12.9615 13.8001 12.8906 13.7404 12.8309ZM9.5387 18.0539C9.29762 18.2948 8.97074 18.4302 8.62991 18.4302C8.28908 18.4302 7.9622 18.2948 7.72111 18.0539L5.94852 16.2789C5.7076 16.0378 5.57226 15.7109 5.57226 15.3701C5.57226 15.0293 5.7076 14.7024 5.94852 14.4613L7.82155 12.5875L11.4125 16.1784L9.5387 18.0539ZM20.8115 3.18853C20.7518 3.12876 20.6809 3.08135 20.6028 3.049C20.5248 3.01665 20.4411 3 20.3567 3C20.2722 3 20.1885 3.01665 20.1105 3.049C20.0325 3.08135 19.9616 3.12876 19.9019 3.18853L17.6198 5.47137L17.1883 5.03907C16.7056 4.55771 16.0517 4.2874 15.3699 4.2874C14.6882 4.2874 14.0343 4.55771 13.5515 5.03907L11.6785 6.91291L11.1691 6.40266C11.0485 6.28204 10.8849 6.21428 10.7143 6.21428C10.5437 6.21428 10.3801 6.28204 10.2595 6.40266C10.1389 6.52328 10.0711 6.68688 10.0711 6.85746C10.0711 7.02805 10.1389 7.19164 10.2595 7.31226L16.6877 13.7405C16.7475 13.8003 16.8184 13.8476 16.8964 13.88C16.9744 13.9123 17.0581 13.9289 17.1425 13.9289C17.227 13.9289 17.3106 13.9123 17.3887 13.88C17.4667 13.8476 17.5376 13.8003 17.5973 13.7405C17.6571 13.6808 17.7044 13.6099 17.7368 13.5319C17.7691 13.4538 17.7857 13.3702 17.7857 13.2857C17.7857 13.2013 17.7691 13.1176 17.7368 13.0396C17.7044 12.9616 17.6571 12.8907 17.5973 12.8309L17.0871 12.3215L18.9609 10.4485C19.1998 10.2097 19.3892 9.92619 19.5185 9.61419C19.6477 9.30219 19.7143 8.96777 19.7143 8.63006C19.7143 8.29234 19.6477 7.95793 19.5185 7.64593C19.3892 7.33392 19.1998 7.05044 18.9609 6.81166L18.5286 6.38017L20.8115 4.09813C20.8712 4.03843 20.9187 3.96753 20.951 3.8895C20.9834 3.81146 21 3.72781 21 3.64333C21 3.55885 20.9834 3.47521 20.951 3.39717C20.9187 3.31913 20.8712 3.24823 20.8115 3.18853ZM18.0513 9.53644L16.1783 11.4127L12.5873 7.8217L14.4611 5.94867C14.7022 5.70774 15.0291 5.57241 15.3699 5.57241C15.7108 5.57241 16.0377 5.70774 16.2787 5.94867L18.0513 7.71644C18.1714 7.8359 18.2666 7.97789 18.3316 8.13427C18.3966 8.29064 18.43 8.45831 18.43 8.62765C18.43 8.79698 18.3966 8.96465 18.3316 9.12103C18.2666 9.2774 18.1714 9.41939 18.0513 9.53885V9.53644Z" />
</svg>