<svg xmlns="http://www.w3.org/2000/svg" width="24" height="24" viewBox="0 0 24 24" fill="none">
  <path fill="currentColor" fill-rule="evenodd" clip-rule="evenodd" d="M5.24443 6.24598C5.24443 5.68588 5.71252 5.22508 6.28146 5.22508H14.5777C14.7722 5.22508 14.881 5.27088 14.9613 5.32825C15.0551 5.39526 15.1573 5.51273 15.2783 5.72695C15.4453 6.02261 15.8242 6.129 16.1245 5.96459C16.4248 5.80018 16.5329 5.42722 16.3659 5.13156C16.2032 4.8435 15.9943 4.55262 15.6923 4.33683C15.3769 4.11142 15.0054 4 14.5777 4H6.28146C5.02524 4 4 5.00929 4 6.24598V14.4137C4.00039 14.8103 4.1074 15.1996 4.31017 15.5422C4.51293 15.8848 4.80422 16.1685 5.15442 16.3644C5.4532 16.5315 5.83303 16.4285 6.00279 16.1344C6.17255 15.8403 6.06795 15.4663 5.76917 15.2992C5.60998 15.2102 5.47758 15.0812 5.38542 14.9255C5.2933 14.7699 5.24466 14.593 5.24443 14.4128V6.24598ZM9.21063 9.21063C9.49927 8.922 9.89075 8.75984 10.2989 8.75984H17.2566C17.4587 8.75984 17.6588 8.79965 17.8456 8.877C18.0323 8.95435 18.202 9.06772 18.3449 9.21063C18.4878 9.35355 18.6012 9.52322 18.6785 9.70995C18.7559 9.89668 18.7957 10.0968 18.7957 10.2989V17.2566C18.7957 17.4587 18.7559 17.6588 18.6785 17.8456C18.6012 18.0323 18.4878 18.202 18.3449 18.3449C18.202 18.4878 18.0323 18.6012 17.8456 18.6785C17.6588 18.7559 17.4587 18.7957 17.2566 18.7957H10.2989C10.0968 18.7957 9.89668 18.7559 9.70995 18.6785C9.52322 18.6012 9.35355 18.4878 9.21063 18.3449C9.06772 18.202 8.95435 18.0323 8.877 17.8456C8.79965 17.6588 8.75984 17.4587 8.75984 17.2566V10.2989C8.75984 9.89075 8.922 9.49927 9.21063 9.21063ZM10.2989 7.55554C9.57135 7.55554 8.87355 7.84458 8.35906 8.35906C7.84458 8.87355 7.55554 9.57135 7.55554 10.2989V17.2566C7.55554 17.6169 7.6265 17.9736 7.76437 18.3064C7.90224 18.6393 8.10432 18.9417 8.35906 19.1965C8.61381 19.4512 8.91624 19.6533 9.24909 19.7912C9.58193 19.929 9.93867 20 10.2989 20H17.2566C17.6169 20 17.9736 19.929 18.3064 19.7912C18.6393 19.6533 18.9417 19.4512 19.1965 19.1965C19.4512 18.9417 19.6533 18.6393 19.7912 18.3064C19.929 17.9736 20 17.6169 20 17.2566V10.2989C20 9.93867 19.929 9.58193 19.7912 9.24909C19.6533 8.91624 19.4512 8.61381 19.1965 8.35906C18.9417 8.10432 18.6393 7.90224 18.3064 7.76437C17.9736 7.6265 17.6169 7.55554 17.2566 7.55554H10.2989Z" />
</svg>