<svg xmlns="http://www.w3.org/2000/svg" width="24" height="24" viewBox="0 0 16 16" fill="none">
  <path d="M2.51758 11.5553V5.13602C2.51758 4.6251 2.72076 4.13532 3.08203 3.77404C3.44331 3.41277 3.93309 3.20959 4.44401 3.20959H7.65365L7.70443 3.21219C7.95665 3.23771 8.15365 3.45064 8.15365 3.70959C8.15365 3.96854 7.95665 4.18147 7.70443 4.20698L7.65365 4.20959H4.44401C4.19831 4.20959 3.9628 4.30733 3.78906 4.48107C3.61532 4.65481 3.51758 4.89032 3.51758 5.13602V11.5553C3.51766 11.8009 3.61539 12.0366 3.78906 12.2102C3.96279 12.3839 4.19837 12.4817 4.44401 12.4817H11.5762C11.8218 12.4817 12.0574 12.3839 12.2311 12.2102C12.4048 12.0366 12.5025 11.8009 12.5026 11.5553V8.34566C12.5026 8.06953 12.7265 7.84568 13.0026 7.84566C13.2787 7.84566 13.5026 8.06951 13.5026 8.34566V11.5553C13.5025 12.0661 13.2994 12.5561 12.9382 12.9173C12.5769 13.2784 12.087 13.4817 11.5762 13.4817H4.44401C3.93316 13.4817 3.44329 13.2785 3.08203 12.9173C2.72082 12.5561 2.51766 12.0661 2.51758 11.5553Z" />
  <path d="M12.1973 2.16929C12.5226 2.15134 12.8439 2.23906 13.1133 2.41799L13.2253 2.50002L13.2487 2.5202L13.3398 2.60353L13.3613 2.62502L13.4616 2.7383C13.6802 3.0132 13.7991 3.35607 13.7962 3.7103C13.7929 4.11529 13.6305 4.50305 13.3438 4.78908L13.3431 4.78843L8.36393 9.7689C8.32277 9.81006 8.27446 9.8433 8.22201 9.86786L8.16797 9.88934L6.02865 10.6029C5.84898 10.6628 5.65084 10.6157 5.51693 10.4818C5.3831 10.3479 5.33596 10.1497 5.39583 9.97007L6.10938 7.83075L6.13086 7.77736C6.15513 7.72539 6.18793 7.67767 6.22852 7.63674L11.2116 2.61135L11.3145 2.51694C11.5625 2.30959 11.872 2.18725 12.1973 2.16929ZM12.2526 3.16734C12.1589 3.1725 12.0691 3.20384 11.9928 3.25653L11.9219 3.31577L7.02083 8.25783L6.66081 9.33791L7.73958 8.97788L11.5729 5.14455L11.2142 4.7676L11.181 4.72918C11.0254 4.52899 11.0436 4.23924 11.2311 4.06056C11.4185 3.88204 11.7086 3.87759 11.901 4.04234L11.9382 4.07749L12.2806 4.43687L12.6374 4.08075L12.6732 4.04168C12.7515 3.94649 12.7951 3.82682 12.7962 3.70249C12.7974 3.56295 12.7446 3.4283 12.6491 3.32684L12.5924 3.27476C12.496 3.19899 12.3752 3.16061 12.2526 3.16734Z" />
</svg>