<svg xmlns="http://www.w3.org/2000/svg" width="24" height="24" viewBox="0 0 24 24" fill="none">
  <path fill="currentColor" fill-rule="evenodd" clip-rule="evenodd" d="M6.59467 6.59467C6.88756 6.30178 7.36244 6.30178 7.65533 6.59467L12 10.9393L16.3447 6.59467C16.6376 6.30178 17.1124 6.30178 17.4053 6.59467C17.6982 6.88756 17.6982 7.36244 17.4053 7.65533L13.0607 12L17.4053 16.3447C17.6982 16.6376 17.6982 17.1124 17.4053 17.4053C17.1124 17.6982 16.6376 17.6982 16.3447 17.4053L12 13.0607L7.65533 17.4053C7.36244 17.6982 6.88756 17.6982 6.59467 17.4053C6.30178 17.1124 6.30178 16.6376 6.59467 16.3447L10.9393 12L6.59467 7.65533C6.30178 7.36244 6.30178 6.88756 6.59467 6.59467Z" />
</svg>