<svg xmlns="http://www.w3.org/2000/svg" width="24" height="24" viewBox="0 0 24 24" fill="none">
  <g transform="translate(2.5, 3.5)">
    <path d="M15.675 14.875H3.325C3.06375 14.875 2.85 15.1141 2.85 15.4062V16.4688C2.85 16.7609 3.06375 17 3.325 17H15.675C15.9362 17 16.15 16.7609 16.15 16.4688V15.4062C16.15 15.1141 15.9362 14.875 15.675 14.875ZM17.575 4.25C16.7883 4.25 16.15 4.96387 16.15 5.84375C16.15 6.07949 16.1975 6.29863 16.2806 6.50117L14.1312 7.94219C13.6741 8.24766 13.0833 8.075 12.8191 7.55703L10.3995 2.82227C10.7172 2.53008 10.925 2.0918 10.925 1.59375C10.925 0.713867 10.2867 0 9.5 0C8.71328 0 8.075 0.713867 8.075 1.59375C8.075 2.0918 8.28281 2.53008 8.60047 2.82227L6.18094 7.55703C5.91672 8.075 5.32297 8.24766 4.86875 7.94219L2.72234 6.50117C2.8025 6.30195 2.85297 6.07949 2.85297 5.84375C2.85297 4.96387 2.21469 4.25 1.42797 4.25C0.64125 4.25 0 4.96387 0 5.84375C0 6.72363 0.638281 7.4375 1.425 7.4375C1.50219 7.4375 1.57938 7.42422 1.65359 7.41094L3.8 13.8125H15.2L17.3464 7.41094C17.4206 7.42422 17.4978 7.4375 17.575 7.4375C18.3617 7.4375 19 6.72363 19 5.84375C19 4.96387 18.3617 4.25 17.575 4.25Z" fill="currentColor" />
  </g>
</svg>