<svg xmlns="http://www.w3.org/2000/svg" width="24" height="24" viewBox="0 0 24 24" fill="none">
  <path fill-rule="evenodd" clip-rule="evenodd" d="M5.6 5.37143C5.53938 5.37143 5.48124 5.39551 5.43838 5.43838C5.39551 5.48124 5.37143 5.53938 5.37143 5.6V10.1714C5.37143 10.232 5.39551 10.2902 5.43838 10.3331C5.48124 10.3759 5.53938 10.4 5.6 10.4H9.25714C9.31776 10.4 9.3759 10.3759 9.41877 10.3331C9.46163 10.2902 9.48571 10.232 9.48571 10.1714V5.6C9.48571 5.53938 9.46163 5.48124 9.41877 5.43838C9.3759 5.39551 9.31776 5.37143 9.25714 5.37143H5.6ZM4.46863 4.46863C4.76869 4.16857 5.17565 4 5.6 4H9.25714C9.68149 4 10.0885 4.16857 10.3885 4.46863C10.6886 4.76869 10.8571 5.17565 10.8571 5.6V10.1714C10.8571 10.5958 10.6886 11.0027 10.3885 11.3028C10.0885 11.6029 9.68149 11.7714 9.25714 11.7714H5.6C5.17565 11.7714 4.76869 11.6029 4.46863 11.3028C4.16857 11.0027 4 10.5958 4 10.1714V5.6C4 5.17565 4.16857 4.76869 4.46863 4.46863ZM14.7429 5.37143C14.6822 5.37143 14.6241 5.39551 14.5812 5.43838C14.5384 5.48124 14.5143 5.53938 14.5143 5.6V7.42857C14.5143 7.48919 14.5384 7.54733 14.5812 7.5902C14.6241 7.63306 14.6822 7.65714 14.7429 7.65714H18.4C18.4606 7.65714 18.5188 7.63306 18.5616 7.5902C18.6045 7.54733 18.6286 7.48919 18.6286 7.42857V5.6C18.6286 5.53938 18.6045 5.48124 18.5616 5.43838C18.5188 5.39551 18.4606 5.37143 18.4 5.37143H14.7429ZM13.6115 4.46863C13.9115 4.16857 14.3185 4 14.7429 4H18.4C18.8243 4 19.2313 4.16857 19.5314 4.46863C19.8314 4.76869 20 5.17565 20 5.6V7.42857C20 7.85292 19.8314 8.25988 19.5314 8.55994C19.2313 8.86 18.8243 9.02857 18.4 9.02857H14.7429C14.3185 9.02857 13.9115 8.86 13.6115 8.55994C13.3114 8.25988 13.1429 7.85292 13.1429 7.42857V5.6C13.1429 5.17565 13.3114 4.76869 13.6115 4.46863ZM14.7429 12.6857C14.6822 12.6857 14.6241 12.7098 14.5812 12.7527C14.5384 12.7955 14.5143 12.8537 14.5143 12.9143V18.4C14.5143 18.4606 14.5384 18.5188 14.5812 18.5616C14.6241 18.6045 14.6822 18.6286 14.7429 18.6286H18.4C18.4606 18.6286 18.5188 18.6045 18.5616 18.5616C18.6045 18.5188 18.6286 18.4606 18.6286 18.4V12.9143C18.6286 12.8537 18.6045 12.7955 18.5616 12.7527C18.5188 12.7098 18.4606 12.6857 18.4 12.6857H14.7429ZM13.6115 11.7829C13.9115 11.4829 14.3185 11.3143 14.7429 11.3143H18.4C18.8243 11.3143 19.2313 11.4829 19.5314 11.7829C19.8314 12.083 20 12.4899 20 12.9143V18.4C20 18.8243 19.8314 19.2313 19.5314 19.5314C19.2313 19.8314 18.8243 20 18.4 20H14.7429C14.3185 20 13.9115 19.8314 13.6115 19.5314C13.3114 19.2313 13.1429 18.8243 13.1429 18.4V12.9143C13.1429 12.4899 13.3114 12.083 13.6115 11.7829ZM5.6 15.4286C5.53938 15.4286 5.48124 15.4527 5.43838 15.4955C5.39551 15.5384 5.37143 15.5965 5.37143 15.6571V18.4C5.37143 18.4606 5.39551 18.5188 5.43838 18.5616C5.48124 18.6045 5.53938 18.6286 5.6 18.6286H9.25714C9.31777 18.6286 9.3759 18.6045 9.41877 18.5616C9.46163 18.5188 9.48571 18.4606 9.48571 18.4V15.6571C9.48571 15.5965 9.46163 15.5384 9.41877 15.4955C9.3759 15.4527 9.31776 15.4286 9.25714 15.4286H5.6ZM4.46863 14.5258C4.76869 14.2257 5.17565 14.0571 5.6 14.0571H9.25714C9.68149 14.0571 10.0885 14.2257 10.3885 14.5258C10.6886 14.8258 10.8571 15.2328 10.8571 15.6571V18.4C10.8571 18.8243 10.6886 19.2313 10.3885 19.5314C10.0885 19.8314 9.68149 20 9.25714 20H5.6C5.17565 20 4.76869 19.8314 4.46863 19.5314C4.16857 19.2313 4 18.8243 4 18.4V15.6571C4 15.2328 4.16857 14.8258 4.46863 14.5258Z" fill="currentColor" />
</svg>