<svg xmlns="http://www.w3.org/2000/svg" width="24" height="24" viewBox="0 0 24 24" fill="none">
  <path d="M17.8 15.4335C17.4871 15.6329 17.1268 15.8072 16.7359 15.9575C15.4946 16.4349 13.8201 16.7179 12 16.7179C10.1799 16.7179 8.50541 16.4349 7.26406 15.9575C6.87322 15.8072 6.51287 15.6329 6.2 15.4335V16.9231C6.2 17.0238 6.25085 17.1933 6.50078 17.4207C6.75016 17.6474 7.14549 17.8798 7.68516 18.0873C8.76021 18.5008 10.2857 18.7692 12 18.7692C13.7143 18.7692 15.2398 18.5008 16.3148 18.0873C16.8545 17.8798 17.2498 17.6474 17.4992 17.4207C17.7492 17.1933 17.8 17.0238 17.8 16.9231V15.4335ZM17.8 13.641C17.8 13.5471 17.7566 13.3954 17.5492 13.1907C17.3744 13.0181 17.1112 12.8382 16.7563 12.6667C16.7494 12.6693 16.7428 12.6728 16.7359 12.6755C15.4946 13.1529 13.8201 13.4359 12 13.4359C10.1799 13.4359 8.50541 13.1529 7.26406 12.6755C7.25695 12.6727 7.25006 12.6694 7.24297 12.6667C6.88834 12.8381 6.62549 13.0182 6.45078 13.1907C6.24345 13.3954 6.2 13.5471 6.2 13.641C6.2 13.7417 6.25085 13.9113 6.50078 14.1386C6.75016 14.3654 7.14549 14.5977 7.68516 14.8053C8.76021 15.2187 10.2857 15.4872 12 15.4872C13.7143 15.4872 15.2398 15.2187 16.3148 14.8053C16.8545 14.5977 17.2498 14.3654 17.4992 14.1386C17.7492 13.9113 17.8 13.7417 17.8 13.641ZM17.8 8.86859C17.4871 9.06807 17.1269 9.24306 16.7359 9.39343C15.4946 9.87084 13.8202 10.1538 12 10.1538C10.1798 10.1538 8.50538 9.87084 7.26406 9.39343C6.87311 9.24306 6.51292 9.06807 6.2 8.86859V10.359C6.2 10.4597 6.25085 10.6292 6.50078 10.8566C6.75016 11.0833 7.14549 11.3157 7.68516 11.5232C8.76021 11.9367 10.2857 12.2051 12 12.2051C13.7143 12.2051 15.2398 11.9367 16.3148 11.5232C16.8545 11.3157 17.2498 11.0833 17.4992 10.8566C17.7492 10.6292 17.8 10.4597 17.8 10.359V8.86859ZM17.8 7.07692C17.8 6.97626 17.7492 6.80666 17.4992 6.57933C17.2498 6.35256 16.8545 6.12024 16.3148 5.91266C15.2398 5.49919 13.7144 5.23077 12 5.23077C10.2856 5.23077 8.76018 5.49919 7.68516 5.91266C7.14547 6.12024 6.75016 6.35256 6.50078 6.57933C6.25083 6.80666 6.2 6.97626 6.2 7.07692C6.2 7.17758 6.25083 7.34718 6.50078 7.57452C6.75016 7.80128 7.14547 8.03361 7.68516 8.24119C8.76018 8.65465 10.2856 8.92308 12 8.92308C13.7144 8.92308 15.2398 8.65465 16.3148 8.24119C16.8545 8.03361 17.2498 7.80128 17.4992 7.57452C17.7492 7.34718 17.8 7.17758 17.8 7.07692ZM19 10.359C19 10.9379 18.6928 11.4157 18.2953 11.7772C18.2104 11.8545 18.1177 11.9278 18.0203 11.9992C18.1514 12.0954 18.2726 12.1964 18.3813 12.3037C18.7353 12.6532 19 13.1048 19 13.641V16.9231C19 17.502 18.6928 17.9798 18.2953 18.3413C17.897 18.7036 17.3544 19.0017 16.7359 19.2396C15.4946 19.717 13.8201 20 12 20C10.1799 20 8.50541 19.717 7.26406 19.2396C6.6456 19.0017 6.10304 18.7036 5.70469 18.3413C5.30719 17.9798 5 17.502 5 16.9231V13.641C5 13.1048 5.26472 12.6532 5.61875 12.3037C5.72728 12.1966 5.84802 12.0953 5.97891 11.9992C5.88174 11.9279 5.78947 11.8543 5.70469 11.7772C5.30719 11.4157 5 10.9379 5 10.359V7.07692C5 6.49801 5.30719 6.0202 5.70469 5.65865C6.10302 5.29644 6.64561 4.99828 7.26406 4.76042C8.50538 4.28301 10.1798 4 12 4C13.8202 4 15.4946 4.28301 16.7359 4.76042C17.3544 4.99828 17.897 5.29644 18.2953 5.65865C18.6928 6.0202 19 6.49801 19 7.07692V10.359Z" fill="currentColor" />
</svg>