<svg xmlns="http://www.w3.org/2000/svg" width="24" height="24" viewBox="0 0 24 24" fill="none">
  <path d="M11.9358 2.50787C14.928 2.5809 16.4958 3.16405 17.3215 3.82037C17.7401 4.15309 17.9611 4.49956 18.0725 4.78912C18.1273 4.93173 18.154 5.05607 18.1662 5.15142C18.1723 5.19892 18.1752 5.23963 18.176 5.27154V17.0001H17.176V14.0118C15.6946 14.8824 13.6183 15.2853 11.5881 15.2823C9.52025 15.2792 7.37584 14.8545 5.80785 13.9727V17.2393H4.80785V5.29107L4.80882 5.27447L5.30785 5.30865C4.80902 5.27437 4.80878 5.27317 4.80882 5.27252L4.8098 5.26861C4.80996 5.26659 4.80959 5.26411 4.8098 5.26178C4.81021 5.25716 4.81111 5.25197 4.81175 5.24615C4.81307 5.23433 4.81503 5.2197 4.81761 5.20318C4.82278 5.17019 4.83022 5.12788 4.843 5.07818C4.86866 4.97847 4.91329 4.84838 4.98949 4.69928C5.14358 4.39787 5.42143 4.0332 5.91136 3.68951C6.88358 3.00761 8.66158 2.42802 11.9358 2.50787ZM5.80785 12.792C7.1572 13.7534 9.3517 14.2789 11.5891 14.2823C13.8335 14.2856 15.9547 13.7639 17.176 12.8067V10.335C16.6359 10.6632 15.9976 10.9148 15.3157 11.0997C14.2094 11.3996 12.9371 11.5397 11.6614 11.5323C10.3848 11.5249 9.08778 11.3696 7.93089 11.0684C7.15604 10.8667 6.42914 10.5925 5.80785 10.2452V12.792ZM5.80785 9.0606C6.39248 9.49207 7.21192 9.84787 8.18285 10.1006C9.24963 10.3783 10.463 10.5253 11.6672 10.5323C12.8721 10.5393 14.0517 10.4055 15.0539 10.1338C15.9747 9.88422 16.7027 9.5268 17.176 9.09283V6.6651C17.1378 6.69117 17.0989 6.71826 17.0578 6.7442C16.1366 7.32558 14.4794 7.85895 11.4709 7.90826C8.77074 7.95248 7.13263 7.41406 6.1516 6.81744C6.02578 6.74091 5.912 6.66268 5.80785 6.58599V9.0606ZM11.9114 3.50689C8.74 3.42955 7.20963 4.00011 6.48558 4.50787C6.12748 4.75908 5.95915 4.99975 5.88011 5.15435C5.8649 5.18411 5.85278 5.2113 5.843 5.23541C5.86299 5.26393 5.88775 5.29688 5.91722 5.33306C6.04779 5.49328 6.28072 5.72546 6.67113 5.96295C7.45171 6.43767 8.89144 6.9502 11.4543 6.90826C14.3709 6.86046 15.8208 6.34265 16.5246 5.89849C16.8724 5.67895 17.0385 5.47732 17.1155 5.35553C17.1438 5.31072 17.1579 5.2735 17.1682 5.24908C17.1631 5.22413 17.1548 5.18985 17.1389 5.14849C17.093 5.02919 16.9815 4.82784 16.6994 4.60357C16.1231 4.1454 14.8148 3.57775 11.9114 3.50689Z" fill="currentColor" />
  <path d="M20.9563 16.751C21.0943 16.7522 21.2055 16.865 21.2043 17.003C21.2033 17.1236 21.1171 17.2237 21.0032 17.2461L20.9524 17.251H20.9504C20.9451 17.2513 20.9353 17.2515 20.9221 17.253C20.8952 17.256 20.8538 17.2625 20.803 17.2764C20.7014 17.3042 20.5641 17.3617 20.427 17.4786C20.3489 17.5452 20.2666 17.6312 20.1741 17.7315C20.0849 17.8281 19.9843 17.9394 19.8821 18.0401C19.6873 18.232 19.4199 18.4545 19.0881 18.459C18.5104 18.4668 18.1786 18.0598 17.9319 17.7715C17.6586 17.4522 17.4695 17.251 17.1575 17.251C16.8457 17.2512 16.6572 17.4523 16.384 17.7715C16.1373 18.0598 15.8054 18.4668 15.2278 18.459C14.659 18.4512 14.3376 18.033 14.1028 17.7471C13.8394 17.4264 13.6637 17.2401 13.3704 17.251C13.0933 17.2614 12.9345 17.4445 12.6965 17.753C12.4834 18.0293 12.1911 18.4313 11.6487 18.459C11.0616 18.4889 10.7238 18.0609 10.4797 17.7676C10.2036 17.4357 10.0202 17.2381 9.71899 17.251C9.43244 17.2635 9.26691 17.4479 9.02563 17.7501C8.80661 18.0243 8.51227 18.4156 7.97387 18.4581C7.39976 18.5033 7.03921 18.1287 6.77074 17.8604C6.47514 17.565 6.27072 17.376 5.95531 17.3946C5.65789 17.4122 5.4751 17.5716 5.23461 17.8116C5.00488 18.0409 4.71462 18.3561 4.23656 18.4542C3.95933 18.511 3.7076 18.448 3.46703 18.2999C3.23703 18.1582 3.00974 17.9341 2.76293 17.6563C2.55575 17.4231 2.39478 17.3782 2.30004 17.3702C2.24736 17.3657 2.20023 17.3721 2.15453 17.3799C2.13807 17.3828 2.10074 17.3894 2.07738 17.3926C2.06637 17.3942 2.02268 17.4015 1.96996 17.3936L1.91527 17.3799L1.86938 17.3575C1.77042 17.2968 1.72389 17.1731 1.76488 17.0596C1.80355 16.9527 1.90778 16.8897 2.01586 16.8965C2.02707 16.8947 2.03867 16.8922 2.07055 16.8868C2.13373 16.876 2.22832 16.8626 2.34203 16.8721C2.57997 16.8922 2.85465 17.0068 3.13598 17.3233C3.37787 17.5956 3.56559 17.773 3.72973 17.8741C3.88348 17.9687 4.00612 17.9905 4.13598 17.9639C4.44277 17.901 4.62987 17.7078 4.88109 17.4571C5.12157 17.2171 5.42353 16.9252 5.92602 16.8956C6.49835 16.8618 6.85682 17.2396 7.12426 17.5069C7.41882 17.8012 7.62235 17.9846 7.93481 17.96C8.22513 17.937 8.39203 17.7418 8.635 17.4376C8.85574 17.1611 9.15331 16.7746 9.6975 16.751C10.2836 16.7258 10.6207 17.1544 10.8645 17.4473C11.1404 17.7789 11.3233 17.9743 11.6233 17.959C11.9019 17.9447 12.0615 17.7575 12.3 17.4483C12.5138 17.1712 12.8072 16.7713 13.3518 16.751C13.9271 16.7297 14.2526 17.1413 14.4895 17.4297C14.7549 17.7528 14.9343 17.9549 15.2346 17.959C15.5445 17.9631 15.7317 17.7657 16.0041 17.4473C16.2502 17.1598 16.5816 16.7512 17.1575 16.751C17.7336 16.751 18.0656 17.1597 18.3118 17.4473C18.5842 17.7657 18.7713 17.9632 19.0813 17.959C19.1978 17.9574 19.3394 17.8739 19.5315 17.6846C19.6226 17.5948 19.7101 17.4965 19.8059 17.3926C19.8983 17.2925 19.9986 17.1868 20.1018 17.0987C20.3051 16.9252 20.5128 16.8383 20.6711 16.795C20.75 16.7734 20.8172 16.7624 20.8664 16.7569C20.8911 16.7541 20.9118 16.7527 20.927 16.752C20.9344 16.7517 20.9406 16.7511 20.9455 16.751H20.9563Z" fill="currentColor" />
  <path d="M20.9563 18.751C21.0943 18.7522 21.2055 18.865 21.2043 19.003C21.2033 19.1236 21.1171 19.2237 21.0032 19.2461L20.9524 19.251H20.9504C20.9451 19.2513 20.9353 19.2515 20.9221 19.253C20.8952 19.256 20.8538 19.2625 20.803 19.2764C20.7014 19.3042 20.5641 19.3617 20.427 19.4786C20.3489 19.5452 20.2666 19.6312 20.1741 19.7315C20.0849 19.8281 19.9843 19.9394 19.8821 20.0401C19.6873 20.232 19.4199 20.4545 19.0881 20.459C18.5104 20.4668 18.1786 20.0598 17.9319 19.7715C17.6586 19.4522 17.4695 19.251 17.1575 19.251C16.8457 19.2512 16.6572 19.4523 16.384 19.7715C16.1373 20.0598 15.8054 20.4668 15.2278 20.459C14.659 20.4512 14.3376 20.033 14.1028 19.7471C13.8394 19.4264 13.6637 19.2402 13.3704 19.251C13.0933 19.2614 12.9345 19.4445 12.6965 19.753C12.4834 20.0293 12.1911 20.4313 11.6487 20.459C11.0616 20.4889 10.7238 20.0609 10.4797 19.7676C10.2036 19.4357 10.0202 19.2381 9.71899 19.251C9.43244 19.2635 9.26691 19.4479 9.02563 19.7501C8.80661 20.0243 8.51227 20.4156 7.97387 20.4581C7.39976 20.5033 7.03921 20.1287 6.77074 19.8604C6.47514 19.565 6.27072 19.376 5.95531 19.3946C5.65789 19.4122 5.4751 19.5716 5.23461 19.8116C5.00488 20.0409 4.71462 20.3561 4.23656 20.4542C3.95933 20.511 3.7076 20.448 3.46703 20.2999C3.23703 20.1582 3.00974 19.9341 2.76293 19.6563C2.55575 19.4231 2.39478 19.3782 2.30004 19.3702C2.24736 19.3657 2.20023 19.3721 2.15453 19.3799C2.13807 19.3828 2.10074 19.3894 2.07738 19.3926C2.06637 19.3942 2.02268 19.4015 1.96996 19.3936L1.91527 19.3799L1.86938 19.3575C1.77042 19.2968 1.72389 19.1731 1.76488 19.0596C1.80355 18.9527 1.90778 18.8897 2.01586 18.8965C2.02707 18.8947 2.03867 18.8922 2.07055 18.8868C2.13373 18.876 2.22832 18.8626 2.34203 18.8721C2.57997 18.8922 2.85465 19.0068 3.13598 19.3233C3.37787 19.5956 3.56559 19.773 3.72973 19.8741C3.88348 19.9687 4.00612 19.9905 4.13598 19.9639C4.44277 19.901 4.62987 19.7078 4.88109 19.4571C5.12157 19.2171 5.42353 18.9252 5.92602 18.8956C6.49835 18.8618 6.85682 19.2396 7.12426 19.5069C7.41882 19.8012 7.62235 19.9846 7.93481 19.96C8.22513 19.937 8.39203 19.7418 8.635 19.4376C8.85574 19.1611 9.15331 18.7746 9.6975 18.751C10.2836 18.7258 10.6207 19.1544 10.8645 19.4473C11.1404 19.7789 11.3233 19.9743 11.6233 19.959C11.9019 19.9447 12.0615 19.7575 12.3 19.4483C12.5138 19.1712 12.8072 18.7713 13.3518 18.751C13.9271 18.7297 14.2526 19.1413 14.4895 19.4297C14.7549 19.7528 14.9343 19.9549 15.2346 19.959C15.5445 19.9631 15.7317 19.7657 16.0041 19.4473C16.2502 19.1598 16.5816 18.7512 17.1575 18.751C17.7336 18.751 18.0656 19.1597 18.3118 19.4473C18.5842 19.7657 18.7713 19.9632 19.0813 19.959C19.1978 19.9574 19.3394 19.8739 19.5315 19.6846C19.6226 19.5948 19.7101 19.4965 19.8059 19.3926C19.8983 19.2925 19.9986 19.1868 20.1018 19.0987C20.3051 18.9252 20.5128 18.8383 20.6711 18.795C20.75 18.7734 20.8172 18.7624 20.8664 18.7569C20.8911 18.7541 20.9118 18.7527 20.927 18.752C20.9344 18.7517 20.9406 18.7511 20.9455 18.751H20.9563Z" fill="currentColor" />
  <path d="M20.4368 13.563H13.4476C11.1466 12.585 12.0958 9.79512 13.9941 9.79512C13.9941 8.04061 15.6828 7.02565 17.5893 8.64459C18.5671 8.295 19.4589 8.64459 19.7465 9.79512C22.4214 9.53626 22.7953 12.5851 20.4368 13.563Z" fill="currentColor" />
  <path d="M14.9824 7.72302C15.7294 7.41719 16.6807 7.5943 17.6416 8.3656C18.1311 8.21917 18.6188 8.22719 19.0371 8.43298C19.4474 8.63484 19.7556 9.00953 19.9297 9.53357C20.5528 9.50938 21.0691 9.65733 21.459 9.93298C21.8914 10.2388 22.1502 10.688 22.2266 11.1771C22.3793 12.1572 21.804 13.267 20.5322 13.7943L20.4863 13.8129H13.3965L13.3496 13.7933C12.7278 13.5291 12.3082 13.1335 12.0732 12.6761C11.8392 12.2203 11.7971 11.719 11.9023 11.2572C12.0956 10.41 12.7942 9.66642 13.7539 9.55896C13.824 8.70917 14.2732 8.01367 14.9824 7.72302ZM17.4277 8.83533C16.5192 8.06381 15.7177 7.96241 15.1719 8.18591C14.6248 8.41013 14.2441 8.99661 14.2441 9.79529V10.0453H13.9941C13.1784 10.0453 12.5547 10.6447 12.3897 11.3676C12.3081 11.7253 12.3419 12.1055 12.5176 12.4476C12.6877 12.7789 12.9998 13.0894 13.5029 13.3129H20.3838C21.438 12.8566 21.8437 11.9685 21.7324 11.2543C21.6758 10.8914 21.4861 10.5648 21.1699 10.3412C20.8535 10.1175 20.3913 9.98423 19.7705 10.0443L19.5566 10.0648L19.5039 9.85584C19.3738 9.33538 19.1176 9.02944 18.8164 8.88123C18.5113 8.73114 18.1169 8.72188 17.6738 8.88025L17.5371 8.92908L17.4277 8.83533Z" fill="white" />
</svg>