<svg xmlns="http://www.w3.org/2000/svg" width="24" height="24" viewBox="0 0 24 24" fill="none">
  <path d="M19.4004 11.9218C19.401 11.8343 19.3834 11.7472 19.3486 11.6669C19.3141 11.587 19.2629 11.5153 19.1992 11.456L12 4.81632L4.8008 11.456C4.73711 11.5153 4.68596 11.587 4.65138 11.6669C4.61666 11.7472 4.59907 11.8343 4.59963 11.9218V18.7694C4.59971 18.9366 4.66696 19.0965 4.78517 19.2148C4.90339 19.333 5.06331 19.4002 5.23049 19.4003H18.7695C18.9367 19.4002 19.0966 19.333 19.2149 19.2148C19.3331 19.0965 19.4003 18.9366 19.4004 18.7694V11.9218ZM20.5996 18.7694C20.5995 19.2549 20.4068 19.7201 20.0635 20.0634C19.7202 20.4067 19.255 20.5995 18.7695 20.5995H5.23049C4.74505 20.5994 4.2798 20.4066 3.93654 20.0634C3.59328 19.7201 3.40049 19.2549 3.40041 18.7694V11.9257C3.39931 11.6731 3.45054 11.4232 3.5508 11.1913C3.65166 10.9581 3.80002 10.7479 3.98635 10.5751L3.98732 10.5741L11.5928 3.55851L11.6846 3.48917C11.9094 3.35005 12.2062 3.37305 12.4072 3.55851L20.0127 10.5741L20.0147 10.5751C20.2009 10.7479 20.3484 10.9581 20.4492 11.1913C20.5495 11.4232 20.6007 11.6731 20.5996 11.9257V18.7694Z" fill="currentColor" />
  <path d="M8.00002 11.7674C8.00002 11.1936 8.5623 10.7493 9.26082 10.465C9.97945 10.1733 10.9486 9.99992 12 9.99992C13.0514 9.99992 14.0206 10.1729 14.7392 10.465C15.4377 10.7493 16 11.1936 16 11.7674V16.2325C16 16.8062 15.4377 17.2501 14.7392 17.5348C14.0206 17.8269 13.0514 17.9999 12 17.9999C10.9486 17.9999 9.97945 17.8269 9.26082 17.5348C8.5623 17.2498 8.00002 16.8059 8.00002 16.2325V11.7674ZM8.68573 11.7674C8.68573 11.5192 8.94173 11.2189 9.56756 10.9644C10.1724 10.7184 11.0318 10.5581 12 10.5581C12.9682 10.5581 13.8277 10.7181 14.4325 10.9644C15.0583 11.2189 15.3143 11.5188 15.3143 11.7674C15.3143 12.0159 15.0583 12.3158 14.4325 12.5703C13.8277 12.8163 12.9682 12.9767 12 12.9767C11.0318 12.9767 10.1724 12.8167 9.56756 12.5703C8.94173 12.3158 8.68573 12.0159 8.68573 11.7674ZM8.68573 16.2325C8.68573 16.4807 8.94173 16.7809 9.56756 17.0354C10.1724 17.2814 11.0318 17.4418 12 17.4418C12.9682 17.4418 13.8277 17.2818 14.4325 17.0354C15.0578 16.7809 15.3143 16.481 15.3143 16.2325V15.0072C15.142 15.1188 14.9468 15.2174 14.7392 15.3019C14.0206 15.5943 13.0514 15.7674 12 15.7674C10.9486 15.7674 9.97945 15.5943 9.26082 15.3022C9.05679 15.2208 8.86401 15.1219 8.68573 15.0072V16.2325ZM15.3143 12.7746V13.9999C15.3143 14.2481 15.0583 14.5484 14.4325 14.8029C13.8277 15.0488 12.9682 15.2092 12 15.2092C11.0318 15.2092 10.1724 15.0492 9.56756 14.8029C8.94173 14.5484 8.68573 14.2485 8.68573 13.9999V12.7746C8.85807 12.8862 9.05327 12.9848 9.26082 13.0693C9.97945 13.3618 10.9486 13.5348 12 13.5348C13.0514 13.5348 14.0206 13.3618 14.7392 13.0697C14.9432 12.9882 15.136 12.8893 15.3143 12.7746Z" fill="currentColor" fill-rule="evenodd" clip-rule="evenodd" />
</svg>