<svg xmlns="http://www.w3.org/2000/svg" width="24" height="24" viewBox="0 0 24 24" fill="none">
  <path d="M21 6.24992C21.4142 6.24992 21.75 6.58571 21.75 6.99992C21.75 7.41414 21.4142 7.74992 21 7.74992H15.6045C14.9209 7.74997 14.2469 7.91454 13.6406 8.23039C13.0345 8.54625 12.5138 9.00423 12.1221 9.56438L11.6123 10.2948C11.1208 10.9977 10.4762 11.578 9.73145 11.9999C10.4747 12.4213 11.1165 13.0017 11.6074 13.703L12.1211 14.4364C12.5129 14.9963 13.0345 15.4538 13.6406 15.7695C14.2467 16.085 14.9203 16.2499 15.6035 16.2499H21C21.4142 16.2499 21.75 16.5857 21.75 16.9999C21.75 17.4141 21.4142 17.7499 21 17.7499H15.6025C14.6782 17.7498 13.7671 17.5265 12.9473 17.0995C12.2299 16.7259 11.6008 16.2057 11.0996 15.5741L10.8926 15.2968L10.3789 14.5634C9.98708 14.0036 9.46545 13.546 8.85938 13.2304C8.32903 12.9542 7.74729 12.7936 7.15234 12.7577L6.89648 12.7499H3C2.58579 12.7499 2.25 12.4141 2.25 11.9999C2.25 11.5857 2.58579 11.2499 3 11.2499H6.89941C7.58304 11.2498 8.25703 11.0844 8.86328 10.7685C9.4693 10.4526 9.99019 9.99549 10.3818 9.43547L10.8926 8.705C11.4226 7.94694 12.1279 7.32771 12.9482 6.90032C13.7686 6.47296 14.6805 6.24988 15.6055 6.24992H21Z" fill="currentColor" />
  <path d="M17.293 13.2929C17.6835 12.9024 18.3165 12.9024 18.707 13.2929L21.707 16.2929C22.0976 16.6834 22.0976 17.3164 21.707 17.707L18.707 20.707C18.3165 21.0975 17.6835 21.0975 17.293 20.707C16.9024 20.3164 16.9024 19.6834 17.293 19.2929L19.5859 16.9999L17.293 14.707C16.9024 14.3164 16.9024 13.6834 17.293 13.2929ZM17.293 3.29289C17.6835 2.90237 18.3165 2.90237 18.707 3.29289L21.707 6.29289C22.0976 6.68342 22.0976 7.31643 21.707 7.70696L18.707 10.707C18.3165 11.0975 17.6835 11.0975 17.293 10.707C16.9024 10.3164 16.9024 9.68342 17.293 9.29289L19.5859 6.99992L17.293 4.70696C16.9024 4.31643 16.9024 3.68342 17.293 3.29289Z" fill="currentColor" />
</svg>