<svg xmlns="http://www.w3.org/2000/svg" width="24" height="24" viewBox="0 0 24 24" fill="none">
  <path fill-rule="evenodd" clip-rule="evenodd" d="M16 13.5455C16 13.4008 15.9157 13.2621 15.7657 13.1598C15.6157 13.0575 15.4122 13 15.2 13H8.8C8.58783 13 8.38434 13.0575 8.23431 13.1598C8.08429 13.2621 8 13.4008 8 13.5455C8 13.6901 8.08429 13.8289 8.23431 13.9311C8.38434 14.0334 8.58783 14.0909 8.8 14.0909H15.2C15.4122 14.0909 15.6157 14.0334 15.7657 13.9311C15.9157 13.8289 16 13.6901 16 13.5455ZM16 16.4545C16 16.3099 15.9157 16.1711 15.7657 16.0689C15.6157 15.9666 15.4122 15.9091 15.2 15.9091H8.8C8.58783 15.9091 8.38434 15.9666 8.23431 16.0689C8.08429 16.1711 8 16.3099 8 16.4545C8 16.5992 8.08429 16.7379 8.23431 16.8402C8.38434 16.9425 8.58783 17 8.8 17H15.2C15.4122 17 15.6157 16.9425 15.7657 16.8402C15.9157 16.7379 16 16.5992 16 16.4545Z" fill="currentColor" />
  <path fill="currentColor" fill-rule="evenodd" clip-rule="evenodd" d="M7.48387 3.5C6.82511 3.5 6.19332 3.75259 5.72751 4.20219C5.26169 4.6518 5 5.2616 5 5.89744V18.1026C5 18.7384 5.26169 19.3482 5.72751 19.7978C6.19332 20.2474 6.82511 20.5 7.48387 20.5H16.5161C17.1749 20.5 17.8067 20.2474 18.2725 19.7978C18.7383 19.3482 19 18.7384 19 18.1026V8.48492C19 8.15277 18.888 7.83021 18.6803 7.56518L15.9724 4.1059C15.8251 3.91769 15.6345 3.76503 15.4157 3.65989C15.1969 3.55476 14.9559 3.50003 14.7115 3.5H7.48387ZM6.35484 5.89744C6.35484 5.2959 6.86065 4.80769 7.48387 4.80769H14.0323V8.64097C14.0323 9.0019 14.3357 9.29482 14.7097 9.29482H17.6452V18.1026C17.6452 18.7041 17.1394 19.1923 16.5161 19.1923H7.48387C6.86065 19.1923 6.35484 18.7041 6.35484 18.1026V5.89744Z" />
</svg>