<svg xmlns="http://www.w3.org/2000/svg" width="24" height="24" viewBox="0 0 24 24" fill="none">
  <path d="M7.625 20.0015C7.14375 20.0015 6.73192 19.8276 6.3895 19.4798C6.04708 19.1319 5.87558 18.7133 5.875 18.2238V6.00155H5V4.89043H9.375V4.16804H14.625V4.89043H19V6.00155H18.125V18.2238C18.125 18.7127 17.9538 19.1313 17.6114 19.4798C17.269 19.8282 16.8568 20.0021 16.375 20.0015H7.625ZM16.653 6.00155H7.34066V18.6086L16.653 18.6086V6.00155ZM10 16.446L11.125 16.446V8.44599L10 8.44599V16.446ZM12.875 16.446L14 16.446V8.44599L12.875 8.44599V16.446Z" fill="currentColor" />
</svg>