<svg xmlns="http://www.w3.org/2000/svg" width="24" height="24" viewBox="0 0 24 24" fill="none">
  <path d="M6.64307 19.6689L3 16.2987L3.85564 15.304L7.482 18.6582L12.4256 13.6946C12.656 13.4637 12.9636 13.3342 13.284 13.3332C13.6045 13.3322 13.9128 13.4598 14.1446 13.6893L16.4743 15.9987L20.0614 12.0165L21 12.9266L17.4122 16.9101C17.2963 17.0387 17.157 17.1423 17.0022 17.2147C16.8475 17.2871 16.6804 17.3269 16.5107 17.3319C16.341 17.3368 16.1721 17.3068 16.0137 17.2436C15.8552 17.1803 15.7105 17.0851 15.5878 16.9634L13.2883 14.684L8.36014 19.6309C8.13132 19.8607 7.82715 19.9923 7.50868 19.9992C7.1902 20.0061 6.88098 19.8886 6.64307 19.6689ZM21 8.66639H18.4286L19.7143 6.6663L21 8.66639ZM15.8571 3.99951H13.2857V5.33291H15.8571V6.6663H13.9286V7.99969H15.8571V9.33309H13.2857V10.6665H15.8571C16.198 10.666 16.5247 10.5253 16.7657 10.2754C17.0067 10.0254 17.1423 9.68656 17.1429 9.33309V5.33291C17.1429 4.97927 17.0074 4.64011 16.7663 4.39005C16.5252 4.13999 16.1981 3.99951 15.8571 3.99951ZM12 10.6665H8.14286V7.99969C8.14286 7.64606 8.27832 7.3069 8.51943 7.05684C8.76055 6.80678 9.08758 6.6663 9.42857 6.6663H10.7143V5.33291H8.14286V3.99951H10.7143C11.0553 3.99951 11.3823 4.13999 11.6234 4.39005C11.8645 4.64011 12 4.97927 12 5.33291V6.6663C12 7.01994 11.8645 7.35909 11.6234 7.60915C11.3823 7.85921 11.0553 7.99969 10.7143 7.99969H9.42857V9.33309H12V10.6665ZM5.57143 9.33309V3.99951H4.28571V4.66621H3V5.9996H4.28571V9.33309H3V10.6665H6.85714V9.33309H5.57143Z" fill="currentColor" />
</svg>