<svg xmlns="http://www.w3.org/2000/svg" width="24" height="24" viewBox="0 0 24 24" fill="none">
  <path d="M18.75 4.74902C18.75 4.4175 18.6182 4.09966 18.3838 3.86523C18.1494 3.63081 17.8315 3.49902 17.5 3.49902H6.5C6.16848 3.49902 5.85063 3.63081 5.61621 3.86523C5.38179 4.09965 5.25 4.4175 5.25 4.74902V16.999H18.75V4.74902ZM8.75 8.5H15.25V7H8.75V8.5ZM16.75 8.65039C16.7498 9.39568 16.1457 9.99979 15.4004 10H8.59961C7.85433 9.99979 7.2502 9.39568 7.25 8.65039V6.84961C7.25022 6.10434 7.85434 5.50021 8.59961 5.5H15.4004C16.1457 5.50021 16.7498 6.10434 16.75 6.84961V8.65039ZM20.25 17.749C20.25 18.1632 19.9142 18.499 19.5 18.499H5.25V19.252C5.25 19.5835 5.38181 19.9013 5.61621 20.1357C5.85063 20.3702 6.16848 20.502 6.5 20.502H19.5C19.9142 20.502 20.25 20.8378 20.25 21.252C20.25 21.6662 19.9142 22.002 19.5 22.002H6.5C5.77065 22.002 5.07139 21.712 4.55566 21.1963C4.03996 20.6806 3.75 19.9813 3.75 19.252V4.74902C3.75 4.01968 4.03994 3.32041 4.55566 2.80469C5.07139 2.28896 5.77065 1.99902 6.5 1.99902H17.5C18.2293 1.99902 18.9286 2.28896 19.4443 2.80469C19.9601 3.32041 20.25 4.01968 20.25 4.74902V17.749Z" fill="currentColor" />
</svg>