<svg xmlns="http://www.w3.org/2000/svg" width="24" height="24" viewBox="0 0 24 24" fill="none">
  <path fill-rule="evenodd" clip-rule="evenodd" d="M14.1055 13.646C14.079 13.7419 14.0737 13.8425 14.0901 13.9408L14.8269 18.3617C14.8323 18.3944 14.8306 18.4279 14.8218 18.4598C14.813 18.4918 14.7974 18.5215 14.776 18.5468C14.7546 18.5721 14.728 18.5924 14.6979 18.6064C14.6679 18.6204 14.6342 18.6277 14.6011 18.6278H14.4064C14.0676 18.6279 13.7341 18.5452 13.4353 18.3854C13.1366 18.2256 12.882 17.9936 12.6941 17.7117L11.5541 18.4733C11.8672 18.9428 12.2913 19.3279 12.7888 19.5942C13.2864 19.8605 13.842 19.999 14.4064 19.999H14.602C14.8343 19.999 15.0638 19.9484 15.2745 19.8507C15.4852 19.753 15.6722 19.6106 15.8223 19.4334C15.9725 19.2562 16.0822 19.0484 16.144 18.8245C16.2057 18.6006 16.218 18.365 16.1799 18.1359L15.5761 14.5139H18.021C18.3929 14.514 18.7601 14.4315 19.0963 14.2725C19.4324 14.1134 19.7291 13.8818 19.9649 13.5943C20.2007 13.3068 20.3699 12.9706 20.4601 12.6098C20.5503 12.2491 20.5593 11.8719 20.4866 11.5072L19.1418 11.7769C19.2826 12.4836 18.7432 13.1436 18.021 13.1436V13.1427H14.7666C14.667 13.1427 14.5686 13.1643 14.4783 13.2062C14.3879 13.248 14.3078 13.309 14.2434 13.385C14.179 13.4609 14.132 13.55 14.1055 13.646ZM4.22578 14.3131C4.35436 14.4417 4.52876 14.5139 4.7106 14.5139H8.30332V14.5149C8.49147 14.5149 8.67669 14.5614 8.84255 14.6502C9.0084 14.7391 9.14976 14.8666 9.25407 15.0231L11.5532 18.4723L12.6941 17.7117L10.395 14.2626C10.0844 13.7968 9.63282 13.4551 9.11732 13.2788V5.37216H16.924C17.1884 5.3719 17.4447 5.46423 17.6493 5.63176C17.8538 5.79929 17.9939 6.03256 18.0457 6.29182L18.0459 6.29179L19.1427 11.776L20.4866 11.5063L19.3896 6.02123L19.3894 6.02126C19.2751 5.45178 18.9672 4.93942 18.5179 4.57126C18.0684 4.20292 17.5052 4.00078 16.924 4.00089H6.53896C5.8722 4.00089 5.23276 4.26576 4.76129 4.73722C4.28983 5.20869 4.02496 5.84813 4.02496 6.51488V13.8283C4.02496 14.0102 4.0972 14.1845 4.22578 14.3131ZM7.61732 5.37216V13.1427H5.39623V6.51488C5.39623 5.8841 5.90817 5.37216 6.53896 5.37216H7.61732Z" fill="currentColor" />
</svg>