<svg xmlns="http://www.w3.org/2000/svg" width="24" height="24" viewBox="0 0 20 20" fill="none">
  <g>
    <path d="M8.70837 16.633V13.9995C8.70827 13.8118 8.63357 13.6318 8.50085 13.499C8.36801 13.3662 8.18741 13.2915 7.99955 13.2915C7.48029 13.2914 6.98244 13.0849 6.61527 12.7178C6.2481 12.3506 6.04161 11.8528 6.04154 11.3335V10.6662C6.04144 10.4785 5.96677 10.2984 5.83402 10.1657C5.70125 10.033 5.52127 9.95825 5.33353 9.95817H3.36657C3.02139 9.95817 2.74157 9.67835 2.74157 9.33317C2.7416 8.98802 3.02141 8.70817 3.36657 8.70817H5.33353C5.85279 8.70825 6.35062 8.91474 6.71781 9.2819C7.08498 9.64907 7.29144 10.1469 7.29154 10.6662V11.3335C7.29161 11.5212 7.36631 11.7012 7.49906 11.834C7.63181 11.9667 7.81181 12.0414 7.99955 12.0415C8.51893 12.0415 9.01738 12.248 9.38464 12.6152C9.75178 12.9824 9.95827 13.4803 9.95837 13.9995V16.633C9.95837 16.9781 9.67848 17.2579 9.33337 17.258C8.98819 17.258 8.70837 16.9782 8.70837 16.633ZM11.3752 16.3595V13.333C11.3753 12.8139 11.5811 12.3159 11.9481 11.9487C12.3154 11.5815 12.8138 11.375 13.3332 11.375H16.3597C16.7049 11.375 16.9847 11.6548 16.9847 12C16.9847 12.3451 16.7049 12.625 16.3597 12.625H13.3332C13.1454 12.625 12.9655 12.6997 12.8327 12.8325C12.6999 12.9653 12.6253 13.1452 12.6252 13.333V16.3595C12.6252 16.7046 12.3452 16.9844 12.0002 16.9845C11.655 16.9845 11.3752 16.7047 11.3752 16.3595ZM6.04154 5.33334V4.22656C6.04154 3.8814 6.32137 3.60158 6.66654 3.60156C7.01172 3.60156 7.29154 3.88139 7.29154 4.22656V5.33334C7.29157 5.69797 7.43653 6.04799 7.69437 6.30583C7.95221 6.56357 8.30229 6.70785 8.66686 6.70785C9.01178 6.70801 9.29166 6.98794 9.29186 7.33285C9.29186 7.67793 9.01191 7.95769 8.66686 7.95785C7.97076 7.95785 7.30285 7.68178 6.81058 7.18962C6.31832 6.69736 6.04157 6.02949 6.04154 5.33334Z" fill="currentColor" />
    <path d="M9.99949 2.70834C10.3447 2.70831 10.6253 2.98816 10.6253 3.33334C10.6253 3.67837 10.3453 3.95812 10.0003 3.95834C8.88367 3.9584 7.78841 4.26809 6.83705 4.8527C5.88576 5.43731 5.115 6.27442 4.61049 7.27051C4.10607 8.26657 3.88739 9.38287 3.97898 10.4956C4.07058 11.6085 4.46907 12.674 5.12969 13.5742C5.79033 14.4745 6.6875 15.1745 7.72165 15.5957C8.75573 16.0168 9.88674 16.1428 10.9883 15.9603C12.0897 15.7777 13.1189 15.2935 13.9619 14.5614C14.8049 13.8292 15.4287 12.8775 15.7636 11.8123C15.8672 11.4832 16.2181 11.3003 16.5473 11.4038C16.8766 11.5074 17.0594 11.8582 16.9559 12.1875C16.5516 13.4731 15.7988 14.6217 14.7814 15.5054C13.7641 16.3889 12.5218 16.9729 11.1925 17.1932C9.86299 17.4135 8.49776 17.2613 7.24965 16.7529C6.00167 16.2446 4.91864 15.4004 4.12139 14.314C3.32414 13.2275 2.8436 11.9412 2.73305 10.5981C2.62251 9.25514 2.88675 7.9079 3.49558 6.70573C4.1045 5.50349 5.03456 4.49301 6.18275 3.78744C7.33083 3.08196 8.65198 2.70849 9.99949 2.70834ZM14.7081 6.00017V4.66634C14.7081 4.4786 14.6334 4.29862 14.5006 4.16586C14.3678 4.0331 14.1879 3.9584 14.0001 3.95834C13.8123 3.95834 13.6317 4.03302 13.4988 4.16586C13.3661 4.29861 13.2914 4.47866 13.2913 4.66634V6.00017C13.2912 6.34527 13.0114 6.62517 12.6663 6.62517C12.3213 6.62503 12.0414 6.34519 12.0413 6.00017V4.66634C12.0414 4.14714 12.2479 3.64924 12.615 3.28207C12.9823 2.91481 13.4808 2.70834 14.0001 2.70834C14.5194 2.7084 15.0172 2.91489 15.3844 3.28207C15.7516 3.64925 15.9581 4.14708 15.9581 4.66634V6.00017C15.9581 6.34527 15.6783 6.62517 15.3331 6.62517C14.9881 6.62512 14.7082 6.34524 14.7081 6.00017Z" fill="currentColor" />
    <path d="M16.0419 6.66651C16.0418 6.64357 16.0225 6.625 15.9996 6.625H11.9997C11.9768 6.62509 11.9583 6.64362 11.9582 6.66651V8.66683C11.9583 8.68971 11.9768 8.70825 11.9997 8.70833H15.9996C16.0225 8.70833 16.0418 8.68977 16.0419 8.66683V6.66651ZM17.2919 8.66683C17.2918 9.38012 16.7129 9.95833 15.9996 9.95833H11.9997C11.2865 9.95825 10.7083 9.38007 10.7082 8.66683V6.66651C10.7083 5.95327 11.2865 5.37509 11.9997 5.375H15.9996C16.7129 5.375 17.2918 5.95321 17.2919 6.66651V8.66683Z" fill="currentColor" />
  </g>
</svg>