<svg xmlns="http://www.w3.org/2000/svg" width="24" height="24" viewBox="0 0 24 24" fill="none">
  <path d="M17.9993 10.4993C18.2093 10.4993 18.3128 10.4993 18.3998 10.5113C18.6747 10.5494 18.9297 10.6763 19.1259 10.8726C19.3222 11.0689 19.4491 11.3238 19.4873 11.5988C19.4993 11.6843 19.4993 11.7893 19.4993 11.9993C19.4993 12.2093 19.4993 12.3128 19.4873 12.3998C19.4491 12.6747 19.3222 12.9297 19.1259 13.1259C18.9297 13.3222 18.6747 13.4491 18.3998 13.4873C18.3143 13.4993 18.2093 13.4993 17.9993 13.4993C17.7893 13.4993 17.6858 13.4993 17.5988 13.4873C17.3238 13.4491 17.0689 13.3222 16.8726 13.1259C16.6763 12.9297 16.5494 12.6747 16.5113 12.3998C16.4993 12.3143 16.4993 12.2093 16.4993 11.9993C16.4993 11.7893 16.4993 11.6858 16.5113 11.5988C16.5494 11.3238 16.6763 11.0689 16.8726 10.8726C17.0689 10.6763 17.3238 10.5494 17.5988 10.5113C17.6843 10.4993 17.7893 10.4993 17.9993 10.4993ZM11.9993 10.4993C12.2093 10.4993 12.3128 10.4993 12.3998 10.5113C12.6747 10.5494 12.9297 10.6763 13.1259 10.8726C13.3222 11.0689 13.4491 11.3238 13.4873 11.5988C13.4993 11.6843 13.4993 11.7893 13.4993 11.9993C13.4993 12.2093 13.4993 12.3128 13.4873 12.3998C13.4491 12.6747 13.3222 12.9297 13.1259 13.1259C12.9297 13.3222 12.6747 13.4491 12.3998 13.4873C12.3143 13.4993 12.2093 13.4993 11.9993 13.4993C11.7893 13.4993 11.6858 13.4993 11.5988 13.4873C11.3238 13.4491 11.0689 13.3222 10.8726 13.1259C10.6763 12.9297 10.5494 12.6747 10.5113 12.3998C10.4993 12.3143 10.4993 12.2093 10.4993 11.9993C10.4993 11.7893 10.4993 11.6858 10.5113 11.5988C10.5494 11.3238 10.6763 11.0689 10.8726 10.8726C11.0689 10.6763 11.3238 10.5494 11.5988 10.5113C11.6843 10.4993 11.7893 10.4993 11.9993 10.4993ZM5.99927 10.4993C6.20777 10.4993 6.31277 10.4993 6.39977 10.5113C6.67422 10.5497 6.92868 10.6764 7.12463 10.8724C7.32059 11.0684 7.44736 11.3228 7.48577 11.5973C7.49777 11.6858 7.49777 11.7893 7.49777 11.9978C7.49777 12.2063 7.49777 12.3128 7.48577 12.3983C7.44736 12.6727 7.32059 12.9272 7.12463 13.1231C6.92868 13.3191 6.67422 13.4459 6.39977 13.4843C6.31277 13.4963 6.20777 13.4963 5.99927 13.4963C5.79077 13.4963 5.68577 13.4963 5.59877 13.4843C5.32432 13.4459 5.06986 13.3191 4.8739 13.1231C4.67795 12.9272 4.55117 12.6727 4.51277 12.3983C4.50077 12.3113 4.50077 12.2063 4.50077 11.9978C4.50077 11.7893 4.50077 11.6843 4.51277 11.5973C4.55117 11.3228 4.67795 11.0684 4.8739 10.8724C5.06986 10.6764 5.32432 10.5497 5.59877 10.5113C5.68577 10.4993 5.79077 10.4993 5.99927 10.4993Z" fill="currentColor" />
</svg>