<svg xmlns="http://www.w3.org/2000/svg" width="24" height="24" viewBox="0 0 24 24" fill="none">
  <path d="M12 15.1281C11.8833 15.1281 11.774 15.11 11.6719 15.0739C11.5698 15.0377 11.475 14.9756 11.3875 14.8875L8.2375 11.7375C8.0625 11.5625 7.9785 11.3583 7.9855 11.125C7.9925 10.8917 8.0765 10.6875 8.2375 10.5125C8.4125 10.3375 8.62046 10.2465 8.86137 10.2395C9.10229 10.2325 9.30995 10.3162 9.48437 10.4906L11.125 12.1313V5.875C11.125 5.62709 11.209 5.41942 11.377 5.252C11.545 5.08459 11.7527 5.00059 12 5C12.2473 4.99942 12.4553 5.08342 12.6239 5.252C12.7925 5.42059 12.8762 5.62825 12.875 5.875V12.1313L14.5156 10.4906C14.6906 10.3156 14.8986 10.2316 15.1395 10.2386C15.3804 10.2456 15.5881 10.3369 15.7625 10.5125C15.9229 10.6875 16.0069 10.8917 16.0145 11.125C16.0221 11.3583 15.9381 11.5625 15.7625 11.7375L12.6125 14.8875C12.525 14.975 12.4302 15.0371 12.3281 15.0739C12.226 15.1106 12.1167 15.1287 12 15.1281ZM6.75 19C6.26875 19 5.85692 18.8288 5.5145 18.4864C5.17208 18.144 5.00058 17.7318 5 17.25V15.5C5 15.2521 5.084 15.0444 5.252 14.877C5.42 14.7096 5.62767 14.6256 5.875 14.625C6.12233 14.6244 6.33029 14.7084 6.49887 14.877C6.66746 15.0456 6.75117 15.2533 6.75 15.5V17.25H17.25V15.5C17.25 15.2521 17.334 15.0444 17.502 14.877C17.67 14.7096 17.8777 14.6256 18.125 14.625C18.3723 14.6244 18.5803 14.7084 18.7489 14.877C18.9174 15.0456 19.0012 15.2533 19 15.5V17.25C19 17.7312 18.8288 18.1434 18.4864 18.4864C18.1439 18.8294 17.7318 19.0006 17.25 19H6.75Z" fill="currentColor" />
</svg>