<svg xmlns="http://www.w3.org/2000/svg" width="24" height="24" viewBox="0 0 24 24" fill="none">
  <path d="M10.8045 18.4375C10.8045 18.0578 10.4967 17.75 10.117 17.75C9.73728 17.75 9.42948 18.0578 9.42948 18.4375C9.42948 18.8172 9.73728 19.125 10.117 19.125C10.4967 19.125 10.8045 18.8172 10.8045 18.4375ZM12.1795 18.4375C12.1795 19.5766 11.2561 20.5 10.117 20.5C8.97789 20.5 8.05448 19.5766 8.05448 18.4375C8.05448 17.2984 8.97789 16.375 10.117 16.375C11.2561 16.375 12.1795 17.2984 12.1795 18.4375Z" fill="currentColor" />
  <path d="M17.2211 18.4375C17.2211 18.0578 16.9133 17.75 16.5336 17.75C16.1539 17.75 15.8461 18.0578 15.8461 18.4375C15.8461 18.8172 16.1539 19.125 16.5336 19.125C16.9133 19.125 17.2211 18.8172 17.2211 18.4375ZM18.5961 18.4375C18.5961 19.5766 17.6727 20.5 16.5336 20.5C15.3946 20.5 14.4711 19.5766 14.4711 18.4375C14.4711 17.2984 15.3946 16.375 16.5336 16.375C17.6727 16.375 18.5961 17.2984 18.5961 18.4375Z" fill="currentColor" />
  <path d="M5.99196 4C6.29127 4 6.55639 4.19373 6.64724 4.47892L9.70697 14.0833H16.5336C16.9133 14.0833 17.2211 14.3911 17.2211 14.7708C17.2211 15.1505 16.9133 15.4583 16.5336 15.4583H9.20388C8.90461 15.4583 8.63944 15.2646 8.5486 14.9794L5.48887 5.375H4.15863C3.77893 5.375 3.47113 5.0672 3.47113 4.6875C3.47113 4.3078 3.77893 4 4.15863 4H5.99196Z" fill="currentColor" />
  <path d="M18.1899 6.29167C18.3259 6.29158 18.4605 6.31556 18.5874 6.36239L18.7118 6.41699L18.8291 6.48592C18.904 6.5362 18.973 6.59497 19.0341 6.66138L19.12 6.76701L19.1925 6.88159C19.2582 6.99996 19.3026 7.12933 19.3232 7.26383C19.3507 7.44329 19.3349 7.6269 19.2776 7.79915L17.7495 12.3834C17.6735 12.6112 17.528 12.8095 17.3332 12.95C17.1384 13.0906 16.904 13.1664 16.6636 13.1667H8.48883C8.19023 13.1666 7.92582 12.9738 7.83446 12.6895L6.07095 7.18953C6.00389 6.98042 6.04089 6.75106 6.17031 6.57365C6.29975 6.39649 6.50589 6.29167 6.72533 6.29167H18.1899ZM8.99014 11.7917H16.4971L17.873 7.66667H7.66795L8.99014 11.7917Z" fill="currentColor" />
</svg>