<svg xmlns="http://www.w3.org/2000/svg" width="24" height="24" viewBox="0 0 24 24" fill="none">
  <path d="M19.1223 4.87774C18.8443 4.59948 18.5142 4.37874 18.1509 4.22813C17.7875 4.07752 17.3981 4 17.0047 4C16.6114 4 16.222 4.07752 15.8586 4.22813C15.4953 4.37874 15.1652 4.59948 14.8872 4.87774L5.89377 13.8716C5.46687 14.2991 5.16232 14.8333 5.0118 15.4185L4.01786 19.287C3.99321 19.3833 3.99409 19.4843 4.02042 19.5801C4.04674 19.6759 4.0976 19.7632 4.16797 19.8333C4.23834 19.9035 4.32579 19.9541 4.42168 19.9801C4.51757 20.0061 4.61859 20.0066 4.71476 19.9817L8.58198 18.9888C9.16735 18.8388 9.70163 18.5342 10.1289 18.1068L19.1223 9.11301C19.4005 8.83502 19.6213 8.5049 19.7719 8.14155C19.9225 7.77819 20 7.38871 20 6.99538C20 6.60204 19.9225 6.21257 19.7719 5.84921C19.6213 5.48585 19.4005 5.15574 19.1223 4.87774ZM15.6949 5.68549C16.0423 5.33809 16.5135 5.14292 17.0047 5.14292C17.496 5.14292 17.9672 5.33809 18.3146 5.68549C18.662 6.0329 18.8571 6.50408 18.8571 6.99538C18.8571 7.48668 18.662 7.95786 18.3146 8.30526L17.4246 9.19527L14.8049 6.57551L15.6949 5.68549ZM13.9972 7.38326L16.6169 10.003L9.32115 17.2991C9.03838 17.5816 8.68481 17.7829 8.2975 17.8817L5.36481 18.6358L6.11884 15.703C6.21717 15.3155 6.4185 14.9617 6.70149 14.6793L13.9972 7.38326Z" fill="currentColor" />
</svg>