<svg xmlns="http://www.w3.org/2000/svg" width="24" height="24" viewBox="0 0 24 24" fill="none">
  <path fill="currentColor" d="M9.3547 9.78652C9.68814 9.46048 10.2209 9.46048 10.5544 9.78652C10.8986 10.1231 10.8986 10.6769 10.5544 11.0135L8.72727 12.8L10.5544 14.5865C10.8986 14.9231 10.8986 15.4769 10.5544 15.8135C10.2209 16.1395 9.68814 16.1395 9.3547 15.8135L6.27273 12.8L9.3547 9.78652ZM14.6453 15.8135C14.3119 16.1395 13.7791 16.1395 13.4456 15.8135C13.1014 15.4769 13.1014 14.9231 13.4456 14.5865L15.2727 12.8L13.4456 11.0135C13.1014 10.6769 13.1014 10.1231 13.4456 9.78652C13.7791 9.46048 14.3119 9.46048 14.6453 9.78652L17.7273 12.8L14.6453 15.8135ZM19.3636 4H4.63636C4.20237 4 3.78616 4.16857 3.47928 4.46863C3.1724 4.76869 3 5.17565 3 5.6V18.4C3 18.8243 3.1724 19.2313 3.47928 19.5314C3.78616 19.8314 4.20237 20 4.63636 20H19.3636C19.7976 20 20.2138 19.8314 20.5207 19.5314C20.8276 19.2313 21 18.8243 21 18.4V5.6C21 5.17565 20.8276 4.76869 20.5207 4.46863C20.2138 4.16857 19.7976 4 19.3636 4ZM19.3636 18.4H4.63636V7.2H19.3636V18.4Z" />
</svg>