<svg xmlns="http://www.w3.org/2000/svg" width="24" height="24" viewBox="0 0 17 17" fill="none">
  <path d="M12.548 8.09651C13.7288 8.09651 14.8611 8.56553 15.6961 9.4004C16.531 10.2353 17 11.3676 17 12.5483C17 13.7289 16.531 14.8613 15.6961 15.6961C14.8611 16.531 13.7288 17 12.548 17C11.3673 17 10.2349 16.531 9.40003 15.6961C8.56513 14.8613 8.09609 13.7289 8.09609 12.5483C8.09609 11.3676 8.56513 10.2353 9.40003 9.4004C10.2349 8.56553 11.3673 8.09651 12.548 8.09651ZM8.09609 0C12.5675 0 16.1922 3.62453 16.1922 8.0957C16.1922 8.30884 16.1841 8.51983 16.1679 8.72866C15.8116 8.39048 15.4097 8.10387 14.974 7.87716C14.9313 6.53551 14.4971 5.23564 13.7249 4.13765C12.9526 3.03966 11.8761 2.19152 10.6279 1.69768C9.37961 1.20384 8.01416 1.08588 6.69971 1.35833C5.38526 1.63077 4.1792 2.28172 3.23009 3.231C2.28099 4.18028 1.63028 5.38643 1.35812 6.70088C1.08597 8.01533 1.20424 9.38068 1.69839 10.6288C2.19254 11.8768 3.04097 12.9531 4.13918 13.7251C5.2374 14.497 6.53743 14.9309 7.87915 14.9732C8.1058 15.4103 8.39315 15.8118 8.72907 16.1663C8.52131 16.1825 8.31032 16.1906 8.09609 16.1906C3.6247 16.1914 0 12.5669 0 8.09651C0 3.62534 3.6247 0.000809446 8.09609 0.000809446M12.548 9.71371L12.4752 9.72018C12.3943 9.73496 12.3199 9.774 12.2617 9.83213C12.2036 9.89025 12.1646 9.9647 12.1498 10.0456L12.1433 10.1184V12.1419L10.1181 12.1436L10.0452 12.15C9.96437 12.1648 9.88991 12.2038 9.83179 12.262C9.77366 12.3201 9.73461 12.3945 9.71984 12.4754L9.71336 12.5483L9.71984 12.6211C9.73461 12.702 9.77366 12.7764 9.83179 12.8345C9.88991 12.8927 9.96437 12.9317 10.0452 12.9465L10.1181 12.953H12.1433V14.9797L12.1498 15.0526C12.1647 15.1333 12.2038 15.2075 12.2619 15.2655C12.3201 15.3235 12.3944 15.3624 12.4752 15.3771L12.548 15.3844L12.6209 15.3771C12.7018 15.3624 12.7762 15.3233 12.8343 15.2652C12.8925 15.2071 12.9315 15.1326 12.9463 15.0518L12.9528 14.9789V12.9522L14.9788 12.953L15.0517 12.9465C15.1325 12.9317 15.207 12.8927 15.2651 12.8345C15.3232 12.7764 15.3623 12.702 15.3771 12.6211L15.3843 12.5483L15.3779 12.4754C15.363 12.3944 15.3239 12.3199 15.2656 12.2618C15.2073 12.2036 15.1327 12.1647 15.0517 12.15L14.9788 12.1436H12.9528V10.12L12.9463 10.0472C12.9317 9.96617 12.8927 9.89155 12.8345 9.83327C12.7764 9.77498 12.7019 9.73582 12.6209 9.72099L12.548 9.71371ZM5.23226 10.3491C5.76414 11.0255 6.51831 11.4917 7.36111 11.6652C7.29232 12.0687 7.27085 12.4789 7.29716 12.8874C6.10265 12.6902 5.02541 12.0525 4.27793 11.1002C4.17831 10.9737 4.13306 10.8127 4.15211 10.6528C4.17116 10.4929 4.25296 10.3471 4.37951 10.2475C4.50606 10.1479 4.667 10.1027 4.82693 10.1217C4.98685 10.1408 5.13265 10.2225 5.23226 10.3491ZM5.66775 5.46593C5.80297 5.46211 5.93759 5.48544 6.06365 5.53454C6.1897 5.58365 6.30463 5.65753 6.40163 5.75182C6.49863 5.84611 6.57574 5.9589 6.62839 6.08351C6.68104 6.20811 6.70817 6.34201 6.70817 6.47729C6.70817 6.61256 6.68104 6.74647 6.62839 6.87107C6.57574 6.99568 6.49863 7.10847 6.40163 7.20276C6.30463 7.29705 6.1897 7.37093 6.06365 7.42004C5.93759 7.46914 5.80297 7.49247 5.66775 7.48864C5.40446 7.4812 5.15445 7.37138 4.97086 7.18252C4.78726 6.99367 4.68455 6.74067 4.68455 6.47729C4.68455 6.21391 4.78726 5.96091 4.97086 5.77206C5.15445 5.5832 5.40446 5.47338 5.66775 5.46593ZM10.5244 5.46593C10.6597 5.46211 10.7943 5.48544 10.9203 5.53454C11.0464 5.58365 11.1613 5.65753 11.2583 5.75182C11.3553 5.84611 11.4324 5.9589 11.4851 6.08351C11.5377 6.20811 11.5649 6.34201 11.5649 6.47729C11.5649 6.61256 11.5377 6.74647 11.4851 6.87107C11.4324 6.99568 11.3553 7.10847 11.2583 7.20276C11.1613 7.29705 11.0464 7.37093 10.9203 7.42004C10.7943 7.46914 10.6597 7.49247 10.5244 7.48864C10.2611 7.4812 10.0111 7.37138 9.82754 7.18252C9.64394 6.99367 9.54123 6.74067 9.54123 6.47729C9.54123 6.21391 9.64394 5.96091 9.82754 5.77206C10.0111 5.5832 10.2611 5.47338 10.5244 5.46593Z" fill="currentColor" />
</svg>