<svg xmlns="http://www.w3.org/2000/svg" width="24" height="24" viewBox="0 0 16 16" fill="none">
  <path fill-rule="evenodd" clip-rule="evenodd" d="M10.667 2.16675C10.9431 2.16675 11.167 2.39061 11.167 2.66675L11.167 8.66675C11.167 8.94289 10.9431 9.16675 10.667 9.16675C10.3908 9.16675 10.167 8.94289 10.167 8.66675L10.167 2.66675C10.167 2.39061 10.3908 2.16675 10.667 2.16675ZM10.3539 10.9799C10.5491 11.1751 10.5491 11.4917 10.3539 11.687L8.35388 13.687C8.15862 13.8822 7.84203 13.8822 7.64677 13.687L5.64677 11.687C5.45151 11.4917 5.45151 11.1751 5.64677 10.9799C5.84203 10.7846 6.15862 10.7846 6.35388 10.9799L7.50033 12.1263L7.50033 2.66675C7.50033 2.39061 7.72418 2.16675 8.00033 2.16675C8.27647 2.16675 8.50033 2.39061 8.50033 2.66675L8.50033 12.1263L9.64677 10.9799C9.84203 10.7846 10.1586 10.7846 10.3539 10.9799ZM5.33366 2.16675C5.6098 2.16675 5.83366 2.39061 5.83366 2.66675L5.83366 8.66675C5.83366 8.94289 5.6098 9.16675 5.33366 9.16675C5.05752 9.16675 4.83366 8.94289 4.83366 8.66675L4.83366 2.66675C4.83366 2.39061 5.05752 2.16675 5.33366 2.16675Z" fill="currentColor" />
</svg>