<svg xmlns="http://www.w3.org/2000/svg" width="24" height="24" viewBox="0 0 24 24" fill="none">
  <path fill="currentColor" d="M20 11.308V19.6154C20 19.9826 19.8468 20.3348 19.574 20.5945C19.3012 20.8541 18.9312 21 18.5455 21H5.45455C5.06878 21 4.69881 20.8541 4.42603 20.5945C4.15325 20.3348 4 19.9826 4 19.6154V11.308C4 10.9408 4.15325 10.5886 4.42603 10.3289C4.69881 10.0693 5.06878 9.92341 5.45455 9.92341H7.63636C7.82925 9.92341 8.01423 9.99635 8.15062 10.1262C8.28701 10.256 8.36364 10.4321 8.36364 10.6157C8.36364 10.7993 8.28701 10.9754 8.15062 11.1052C8.01423 11.235 7.82925 11.308 7.63636 11.308H5.95455C5.6784 11.308 5.45455 11.5318 5.45455 11.808V19.1154C5.45455 19.3916 5.6784 19.6154 5.95455 19.6154H18.0455C18.3216 19.6154 18.5455 19.3916 18.5455 19.1154V11.808C18.5455 11.5318 18.3216 11.308 18.0455 11.308H16.3636C16.1708 11.308 15.9858 11.235 15.8494 11.1052C15.713 10.9754 15.6364 10.7993 15.6364 10.6157C15.6364 10.4321 15.713 10.256 15.8494 10.1262C15.9858 9.99635 16.1708 9.92341 16.3636 9.92341H18.5455C18.9312 9.92341 19.3012 10.0693 19.574 10.3289C19.8468 10.5886 20 10.9408 20 11.308ZM8.87818 7.64406L11.2727 5.36384V13.3848C11.2727 13.5685 11.3494 13.7445 11.4857 13.8744C11.6221 14.0042 11.8071 14.0771 12 14.0771C12.1929 14.0771 12.3779 14.0042 12.5143 13.8744C12.6507 13.7445 12.7273 13.5685 12.7273 13.3848V5.36384L15.1218 7.64406C15.2583 7.77396 15.4434 7.84694 15.6364 7.84694C15.8294 7.84694 16.0144 7.77396 16.1509 7.64406C16.2874 7.51416 16.364 7.33797 16.364 7.15427C16.364 6.97056 16.2874 6.79437 16.1509 6.66447L12.5145 3.20304C12.447 3.13867 12.3668 3.08761 12.2785 3.05277C12.1902 3.01793 12.0956 3 12 3C11.9044 3 11.8098 3.01793 11.7215 3.05277C11.6332 3.08761 11.553 3.13867 11.4855 3.20304L7.84909 6.66447C7.71262 6.79437 7.63596 6.97056 7.63596 7.15427C7.63596 7.33797 7.71263 7.51416 7.84909 7.64406C7.98556 7.77396 8.17064 7.84694 8.36364 7.84694C8.55663 7.84694 8.74172 7.77396 8.87818 7.64406Z" />
</svg>