<svg xmlns="http://www.w3.org/2000/svg" width="24" height="24" viewBox="0 0 24 24" fill="none">
  <path fill="currentColor" d="M3 18.5645V9.43548C3.00007 8.78958 3.25704 8.1705 3.71377 7.71377C4.1705 7.25704 4.78957 7.00007 5.43548 7H11.1409C11.5408 7 11.865 7.32421 11.865 7.72414C11.865 8.12407 11.5408 8.44828 11.1409 8.44828H5.43548C5.17368 8.44834 4.92287 8.55262 4.73774 8.73774C4.55262 8.92287 4.44834 9.17368 4.44828 9.43548V18.5645C4.44834 18.8263 4.55262 19.0771 4.73774 19.2623C4.92287 19.4474 5.17368 19.5517 5.43548 19.5517H14.5645C14.8263 19.5517 15.0771 19.4474 15.2623 19.2623C15.4474 19.0771 15.5517 18.8263 15.5517 18.5645V12.8591C15.5517 12.4592 15.8759 12.135 16.2759 12.135C16.6758 12.135 17 12.4592 17 12.8591V18.5645C16.9999 19.2104 16.743 19.8295 16.2862 20.2862C15.8295 20.743 15.2104 20.9999 14.5645 21H5.43548C4.78957 20.9999 4.17049 20.743 3.71377 20.2862C3.25704 19.8295 3.00007 19.2104 3 18.5645Z" />
  <path fill="currentColor" d="M18.5714 10.8369V6.43863L11.2193 13.7908C10.9403 14.0697 10.4882 14.0697 10.2092 13.7908C9.93026 13.5118 9.93026 13.0597 10.2092 12.7807L17.5614 5.42858H13.1631C12.7687 5.42851 12.4488 5.10874 12.4488 4.71429C12.4488 4.31984 12.7687 4.00007 13.1631 4H19.2857C19.6802 4 20 4.3198 20 4.71429V10.8369C19.9999 11.2313 19.6802 11.5512 19.2857 11.5512C18.8913 11.5512 18.5715 11.2313 18.5714 10.8369Z" />
</svg>