<svg xmlns="http://www.w3.org/2000/svg" width="24" height="24" viewBox="0 0 24 24" fill="none">
  <path fill-rule="evenodd" clip-rule="evenodd" d="M18.6859 7.16945L21 5.00001L19.9741 3.9057L17.4176 6.30237C15.976 5.47392 14.3001 5.00001 12.4709 5.00001C8.06437 5.00001 4.54771 7.7503 3.05138 11.5818C2.98287 11.7573 2.98287 11.9521 3.05138 12.1275C3.75535 13.9301 4.90649 15.4934 6.38708 16.6435L3.97409 18.9057L5 20L7.67525 17.492C9.08245 18.2677 10.7053 18.7093 12.4709 18.7093C16.8775 18.7093 20.3942 15.959 21.8905 12.1275C21.959 11.9521 21.959 11.7573 21.8905 11.5818C21.2074 9.83281 20.1034 8.3091 18.6859 7.16945ZM16.2631 7.38477C15.132 6.81712 13.8514 6.50001 12.4709 6.50001C8.84578 6.50001 5.90956 8.68684 4.55997 11.8547C5.20722 13.3739 6.21941 14.6675 7.4975 15.6025L9.60741 13.6245C9.28139 13.0969 9.10465 12.4849 9.10465 11.8547C9.10465 10.9619 9.45931 10.1056 10.0906 9.47434C10.7219 8.84304 11.5781 8.48838 12.4709 8.48838C13.1746 8.48838 13.8556 8.7087 14.4216 9.11115L16.2631 7.38477ZM15.4199 10.2313L17.5789 8.20729C18.7936 9.13351 19.7575 10.3891 20.3819 11.8547C19.0323 15.0225 16.0961 17.2093 12.4709 17.2093C11.1547 17.2093 9.92931 16.921 8.83769 16.4022L10.6609 14.6929C11.1974 15.0351 11.8246 15.2209 12.4709 15.2209C13.3637 15.2209 14.2199 14.8663 14.8512 14.235C15.4825 13.6037 15.8372 12.7474 15.8372 11.8547C15.8372 11.2819 15.6913 10.7242 15.4199 10.2313ZM13.286 10.1758C13.0343 10.0536 12.756 9.98838 12.4709 9.98838C11.976 9.98838 11.5013 10.185 11.1513 10.535C10.8013 10.885 10.6047 11.3597 10.6047 11.8547C10.6047 12.0988 10.6525 12.3381 10.743 12.5598L13.286 10.1758ZM11.8219 13.6045L14.2589 11.3198C14.3104 11.4918 14.3372 11.6718 14.3372 11.8547C14.3372 12.3496 14.1406 12.8243 13.7906 13.1743C13.4406 13.5243 12.9659 13.7209 12.4709 13.7209C12.2472 13.7209 12.0277 13.6808 11.8219 13.6045Z" fill="currentColor" />
</svg>