<svg xmlns="http://www.w3.org/2000/svg" width="24" height="24" viewBox="0 0 24 24" fill="none">
  <path fill-rule="evenodd" clip-rule="evenodd" d="M12.4709 17.2093C8.84578 17.2093 5.90956 15.0225 4.55997 11.8546C5.90956 8.68683 8.84578 6.5 12.4709 6.5C16.0961 6.5 19.0323 8.68683 20.3819 11.8546C19.0323 15.0225 16.0961 17.2093 12.4709 17.2093ZM12.4709 5C8.06437 5 4.54771 7.75029 3.05138 11.5818C2.98287 11.7573 2.98287 11.952 3.05138 12.1275C4.54771 15.959 8.06437 18.7093 12.4709 18.7093C16.8775 18.7093 20.3942 15.959 21.8905 12.1275C21.959 11.952 21.959 11.7573 21.8905 11.5818C20.3942 7.75029 16.8775 5 12.4709 5ZM11.1513 10.535C11.5013 10.185 11.976 9.98837 12.4709 9.98837C12.9659 9.98837 13.4406 10.185 13.7906 10.535C14.1406 10.885 14.3372 11.3597 14.3372 11.8547C14.3372 12.3496 14.1406 12.8243 13.7906 13.1743C13.4406 13.5243 12.9659 13.7209 12.4709 13.7209C11.976 13.7209 11.5013 13.5243 11.1513 13.1743C10.8013 12.8243 10.6047 12.3496 10.6047 11.8547C10.6047 11.3597 10.8013 10.885 11.1513 10.535ZM12.4709 8.48837C11.5781 8.48837 10.7219 8.84303 10.0906 9.47433C9.45931 10.1056 9.10465 10.9619 9.10465 11.8547C9.10465 12.7474 9.45931 13.6037 10.0906 14.235C10.7219 14.8663 11.5781 15.2209 12.4709 15.2209C13.3637 15.2209 14.2199 14.8663 14.8512 14.235C15.4825 13.6037 15.8372 12.7474 15.8372 11.8547C15.8372 10.9619 15.4825 10.1056 14.8512 9.47433C14.2199 8.84303 13.3637 8.48837 12.4709 8.48837Z" fill="currentColor" />
</svg>