<svg xmlns="http://www.w3.org/2000/svg" width="24" height="24" viewBox="0 0 20 20" fill="none">
  <path d="M5.99478 13.896L4.46482 15.4146C4.25418 15.6236 4.01293 15.6705 3.74109 15.5552C3.46924 15.4399 3.33354 15.2334 3.33399 14.9359V4.65253C3.33399 4.28939 3.46436 3.97863 3.72512 3.72026C3.98588 3.46188 4.29897 3.33247 4.66438 3.33203H15.3076C15.6734 3.33203 15.9867 3.46144 16.2475 3.72026C16.5083 3.97907 16.6384 4.28983 16.638 4.65253V7.95376C16.638 8.14083 16.5741 8.29775 16.4464 8.42452C16.3187 8.55129 16.1608 8.61445 15.9728 8.61401C15.7847 8.61357 15.6269 8.55018 15.4992 8.42386C15.3714 8.29753 15.3076 8.14083 15.3076 7.95376V4.58203H4.66438V13.3183L5.42936 12.5755H11.3164C11.5048 12.5755 11.6629 12.6389 11.7907 12.7656C11.9184 12.8924 11.982 13.0491 11.9816 13.2357C11.9811 13.4224 11.9173 13.5793 11.79 13.7065C11.6627 13.8337 11.5048 13.8969 11.3164 13.896H5.99478ZM14.6424 13.896H13.9772C13.7887 13.896 13.6308 13.8326 13.5036 13.7058C13.3763 13.5791 13.3124 13.4224 13.312 13.2357V10.5947C13.312 10.4077 13.3758 10.251 13.5036 10.1247C13.6313 9.99833 13.7891 9.93494 13.9772 9.9345H15.8896C16.067 9.9345 16.2029 10.0089 16.2974 10.1577C16.3918 10.3064 16.4056 10.4631 16.3386 10.6278L15.5071 12.5755H16.1557C16.3442 12.5755 16.4883 12.6525 16.5881 12.8066C16.6879 12.9606 16.6934 13.1202 16.6047 13.2853L14.9583 16.57C14.914 16.647 14.8501 16.6774 14.7668 16.6611C14.6834 16.6448 14.6419 16.5924 14.6424 16.504V13.896Z" fill="currentColor" />
</svg>