<svg xmlns="http://www.w3.org/2000/svg" width="24" height="24" viewBox="0 0 24 24" fill="none">
  <path d="M19.6154 8.8C19.6154 6.90214 18.07 5.37143 16.1538 5.37143C15.0548 5.37143 14.0961 5.9189 13.3909 6.75714L13.253 6.92857C12.8803 7.41513 12.7047 7.64428 12.622 7.75179C12.5981 7.78291 12.581 7.80412 12.5697 7.81875C12.5707 7.81729 12.5785 7.80578 12.5877 7.79107C12.5885 7.78987 12.5918 7.78138 12.5986 7.76964C12.5864 7.79052 12.5743 7.81149 12.5598 7.83125C12.5589 7.83235 12.5588 7.83384 12.558 7.83482L12.5571 7.83571C12.5555 7.8378 12.5538 7.83951 12.5526 7.84107C12.5504 7.84385 12.5485 7.84715 12.5463 7.85C12.5452 7.85136 12.5432 7.85421 12.5409 7.85714C12.5397 7.8586 12.5372 7.86113 12.5346 7.86429C12.5329 7.86631 12.5266 7.87377 12.5183 7.88304C12.5151 7.88662 12.5034 7.89972 12.4877 7.91518C12.4809 7.92183 12.4628 7.94004 12.4372 7.96071C12.4233 7.97163 12.3872 7.9974 12.3651 8.01161C12.3264 8.03372 12.2095 8.08259 12.1298 8.10268C12.0194 8.10979 11.8199 8.05228 11.6484 7.9625C11.6134 7.95023 11.5775 7.93272 11.5421 7.91071L11.4492 7.84375L11.4474 7.84196C11.446 7.84018 11.443 7.83661 11.4375 7.82946C11.4265 7.81518 11.4047 7.78657 11.3609 7.72946C11.2732 7.61518 11.0977 7.38658 10.747 6.92946V6.92857C10.0313 5.99422 9.01858 5.37143 7.84615 5.37143C5.93004 5.37143 4.38462 6.90214 4.38462 8.8C4.38462 9.42183 4.54981 9.99945 4.83714 10.4946L4.96695 10.7018L4.96875 10.7045L5.15174 10.9429C5.40025 11.2489 5.83972 11.7497 6.41196 12.3795C7.15595 13.1982 8.08077 14.189 8.98377 15.1473C9.88617 16.105 10.7656 17.0283 11.4195 17.7125C11.6416 17.9449 11.8379 18.1497 12 18.3188C12.1621 18.1497 12.3584 17.9449 12.5805 17.7125C13.2344 17.0283 14.1138 16.105 15.0162 15.1473C15.9192 14.189 16.844 13.1982 17.588 12.3795C18.3509 11.54 18.8786 10.9303 19.0312 10.7045L19.0331 10.7018L19.1629 10.4946C19.4502 9.99945 19.6154 9.42183 19.6154 8.8ZM12.5697 7.81875C12.5671 7.82252 12.5644 7.82533 12.5634 7.82679C12.5613 7.82977 12.5595 7.83222 12.5589 7.83304L12.5598 7.83125L12.5697 7.81875ZM12.6157 7.73839C12.6181 7.73364 12.6222 7.72927 12.6247 7.72411C12.6258 7.7219 12.6367 7.70126 12.649 7.66786C12.6399 7.69212 12.6276 7.7151 12.6157 7.73839ZM12.6788 7.55089C12.6796 7.5462 12.6825 7.54142 12.6833 7.53661C12.6836 7.53359 12.6822 7.53026 12.6824 7.52679C12.6812 7.53485 12.6803 7.54287 12.6788 7.55089ZM21 8.8C21 9.78869 20.6982 10.7064 20.1806 11.4661L20.1815 11.467C19.9603 11.7943 19.35 12.4903 18.6166 13.2973C17.8644 14.1251 16.9335 15.1227 16.0285 16.083C15.1233 17.0438 14.2418 17.9697 13.5865 18.6554C13.2588 18.9983 12.9871 19.2814 12.7978 19.4786C12.7032 19.5771 12.6293 19.6546 12.5787 19.7071C12.5535 19.7334 12.5341 19.7534 12.521 19.767C12.5145 19.7738 12.509 19.7787 12.5057 19.7821C12.5041 19.7838 12.5029 19.7857 12.5021 19.7866L12.5012 19.7875C12.3706 19.9232 12.1893 20 12 20C11.8344 20 11.6749 19.9413 11.5502 19.8357L11.4988 19.7875L11.4979 19.7866C11.4971 19.7857 11.4959 19.7838 11.4943 19.7821C11.491 19.7787 11.4855 19.7738 11.479 19.767C11.4659 19.7534 11.4465 19.7334 11.4213 19.7071C11.3707 19.6546 11.2968 19.5771 11.2022 19.4786C11.0129 19.2814 10.7412 18.9983 10.4135 18.6554C9.75821 17.9697 8.87673 17.0438 7.97145 16.083C7.06652 15.1227 6.13561 14.1251 5.38341 13.2973C4.65005 12.4903 4.03971 11.7943 3.81851 11.467V11.4661C3.30103 10.7065 3 9.78851 3 8.8C3 6.14472 5.16534 4 7.84615 4C9.55336 4 10.9405 4.9127 11.8495 6.09911L12 6.29464C12.0459 6.23478 12.0959 6.17021 12.1496 6.1L12.3263 5.88036C13.2339 4.80236 14.5532 4 16.1538 4C18.8347 4 21 6.14472 21 8.8Z" fill="currentColor" />
</svg>