<svg xmlns="http://www.w3.org/2000/svg" width="24" height="24" viewBox="0 0 24 24" fill="none">
  <path d="M17.1738 5.13965C17.1738 4.87797 17.0886 4.7263 17.002 4.64062C16.9103 4.55002 16.7842 4.50007 16.6504 4.5C16.5164 4.5 16.3896 4.54991 16.2979 4.64062C16.2113 4.72631 16.126 4.87806 16.126 5.13965V5.15723C16.0959 5.99439 15.9541 6.64639 15.5459 7.08398C15.2385 7.41346 14.8372 7.55881 14.4092 7.63086V11.3398L14.459 11.3896C14.6624 11.593 14.938 11.7079 15.2256 11.708H18.335C18.9342 11.7078 19.4199 11.2214 19.4199 10.6221V8.44238C19.4199 7.84305 18.9342 7.35663 18.335 7.35645H17.1738V5.13965ZM15.1641 16.1172C15.4401 16.1173 15.6641 16.3411 15.6641 16.6172C15.664 16.8932 15.4401 17.1171 15.1641 17.1172H5.65137C5.37529 17.1171 5.15141 16.8933 5.15137 16.6172C5.15137 16.3411 5.37526 16.1172 5.65137 16.1172H15.1641ZM15.1641 13.6729C15.4401 13.673 15.664 13.8968 15.6641 14.1729C15.6641 14.4489 15.4401 14.6727 15.1641 14.6729H5.65137C5.37526 14.6728 5.15137 14.449 5.15137 14.1729C5.15142 13.8968 5.3753 13.6729 5.65137 13.6729H15.1641ZM10.209 11.0469C10.4851 11.0469 10.7089 11.2708 10.709 11.5469C10.709 11.823 10.4851 12.0469 10.209 12.0469H5.65137C5.37526 12.0468 5.15137 11.823 5.15137 11.5469C5.15145 11.2708 5.37531 11.0469 5.65137 11.0469H10.209ZM4.5 19.2021L5.67871 18.5225C5.91537 18.3858 6.18376 18.3135 6.45703 18.3135H15.626C15.9334 18.3135 16.1834 18.0643 16.1836 17.7568V12.708H15.2256C14.8615 12.7079 14.5084 12.6103 14.1973 12.4336C14.0094 12.6799 13.7136 12.8398 13.3799 12.8398H11.8613C11.2934 12.8398 10.8322 12.3794 10.832 11.8115V9.86719H5.05664C4.74926 9.86734 4.50011 10.1164 4.5 10.4238V19.2021ZM11.832 11.8115C11.8322 11.8271 11.8457 11.8398 11.8613 11.8398H13.3799C13.3955 11.8398 13.409 11.8271 13.4092 11.8115V7.1875C13.4092 7.17178 13.3956 7.15918 13.3799 7.15918H11.8613C11.8456 7.15918 11.832 7.17178 11.832 7.1875V11.8115ZM18.1738 6.35645H18.335C19.4865 6.35663 20.4199 7.29077 20.4199 8.44238V10.6221C20.4199 11.7737 19.4865 12.7078 18.335 12.708H17.1836V17.7568C17.1834 18.6165 16.4857 19.3135 15.626 19.3135H6.45703C6.35937 19.3135 6.2633 19.3389 6.17871 19.3877L4.64648 20.2725C4.13713 20.5665 3.50034 20.1994 3.5 19.6113V10.4238C3.50011 9.56415 4.19697 8.86734 5.05664 8.86719H10.832V7.1875C10.832 6.6195 11.2933 6.15918 11.8613 6.15918H13.3799C13.748 6.15918 14.0702 6.35281 14.252 6.64355C14.5557 6.59145 14.7139 6.51119 14.8154 6.40234C14.9601 6.24718 15.096 5.92221 15.126 5.13965L15.1338 4.95703C15.1705 4.53924 15.3345 4.18717 15.5947 3.92969C15.887 3.64059 16.2724 3.49999 16.6504 3.5C17.0283 3.50007 17.4139 3.64065 17.7061 3.92969C18.0032 4.22382 18.1738 4.64189 18.1738 5.13965V6.35645Z" fill="currentColor" />
</svg>