<svg xmlns="http://www.w3.org/2000/svg" width="24" height="24" viewBox="0 0 24 24" fill="none">
  <path fill-rule="evenodd" clip-rule="evenodd" d="M20.25 7.5C20.25 7.91421 19.9142 8.25 19.5 8.25H4.5C4.08579 8.25 3.75 7.91421 3.75 7.5C3.75 7.08579 4.08579 6.75 4.5 6.75H19.5C19.9142 6.75 20.25 7.08579 20.25 7.5ZM18 12C18 12.4142 17.6642 12.75 17.25 12.75H6.75C6.33579 12.75 6 12.4142 6 12C6 11.5858 6.33579 11.25 6.75 11.25H17.25C17.6642 11.25 18 11.5858 18 12ZM14.25 17.25C14.6642 17.25 15 16.9142 15 16.5C15 16.0858 14.6642 15.75 14.25 15.75H9.75C9.33579 15.75 9 16.0858 9 16.5C9 16.9142 9.33579 17.25 9.75 17.25H14.25Z" fill="currentColor" />
</svg>