<svg xmlns="http://www.w3.org/2000/svg" width="24" height="24" viewBox="0 0 24 24" fill="none">
  <path d="M10.0892 11.6084L9.63538 13.3936L11.4535 12.9471L15.5076 8.96701L14.1433 7.62741L10.0892 11.6084ZM18.8433 5.5242C18.8433 5.4166 18.7996 5.31318 18.7222 5.23708L17.9427 4.47172C17.8653 4.3958 17.7606 4.35288 17.6512 4.35282C17.5417 4.35282 17.4363 4.39564 17.3588 4.47172L15.1174 6.67004L16.4816 8.00965L18.7222 5.81044C18.7996 5.73442 18.8432 5.63168 18.8433 5.5242ZM20.2209 5.5242C20.2209 5.7559 20.1736 5.98248 20.0855 6.19268L20.4748 6.57492C20.6411 6.73818 20.774 6.93231 20.864 7.14564C20.9541 7.35909 21.0004 7.58837 21.0004 7.81941C21.0003 8.05032 20.954 8.27896 20.864 8.4923C20.774 8.70566 20.642 8.89973 20.4757 9.06301L18.0432 11.4507C17.7742 11.7148 17.3381 11.7148 17.0691 11.4507C16.8002 11.1865 16.8001 10.7583 17.0691 10.4942L19.5016 8.10653L19.5527 8.04488C19.5678 8.02276 19.5809 7.99913 19.5913 7.97442C19.612 7.92527 19.6227 7.87261 19.6227 7.81941C19.6227 7.76609 19.6121 7.71277 19.5913 7.66352C19.5809 7.63901 19.5677 7.6159 19.5527 7.59394L19.5016 7.53229L19.2092 7.24517L12.293 14.0366C12.2047 14.1232 12.0939 14.1847 11.9728 14.2145L8.85595 14.9798C8.62128 15.0374 8.37315 14.9698 8.20208 14.8019C8.03113 14.6339 7.96229 14.3903 8.0209 14.1599L8.79944 11.0984C8.82971 10.9797 8.89256 10.8714 8.98062 10.7849L16.3848 3.51523C16.7206 3.18554 17.1763 3 17.6512 3C18.126 3.00006 18.581 3.18561 18.9168 3.51523L19.6971 4.2806L19.8155 4.40918C20.0767 4.72215 20.2209 5.11603 20.2209 5.5242Z" fill="currentColor" />
  <path d="M3.00037 19.1601V7.83987C3.00037 7.35197 3.19434 6.88397 3.53934 6.53897C3.88434 6.19397 4.35234 6 4.84024 6H10.4999C10.8907 6 11.2075 6.31679 11.2075 6.70757C11.2075 7.09836 10.8907 7.41515 10.4999 7.41515H4.84024C4.72766 7.41515 4.6195 7.45992 4.53989 7.53952C4.46028 7.61913 4.41551 7.72729 4.41551 7.83987V19.1601C4.41551 19.2727 4.46028 19.3809 4.53989 19.4605C4.6195 19.5401 4.72768 19.5849 4.84024 19.5849H16.1605C16.2731 19.5849 16.3812 19.5401 16.4608 19.4605C16.5405 19.3809 16.5852 19.2727 16.5852 19.1601V13.4995C16.5854 13.109 16.9022 12.792 17.2928 12.792C17.6834 12.792 18.0001 13.109 18.0004 13.4995V19.1601C18.0004 19.648 17.8064 20.116 17.4614 20.461C17.1164 20.806 16.6484 21 16.1605 21H4.84024C4.35236 21 3.88433 20.806 3.53934 20.461C3.19434 20.116 3.00037 19.648 3.00037 19.1601Z" fill="currentColor" />
</svg>