<svg xmlns="http://www.w3.org/2000/svg" width="24" height="24" viewBox="0 0 24 24" fill="none">
  <path d="M20.6847 3.41391C20.569 3.33548 20.4354 3.28615 20.2957 3.27025C20.156 3.25435 20.0145 3.27235 19.8835 3.32269C18.5013 3.90024 17.0433 4.28408 15.5523 4.46294C14.6096 4.21463 13.7095 3.83036 12.8816 3.32269C11.8131 2.67538 10.6322 2.227 9.39809 2C7.41606 2.17213 5.46479 2.59367 3.5922 3.25428C3.41969 3.31149 3.26979 3.42036 3.16356 3.56558C3.05734 3.7108 3.00014 3.88506 3 4.06385V21.1448C3 21.3716 3.09175 21.5891 3.25508 21.7495C3.4184 21.9099 3.63991 22 3.87088 22C4.10186 22 4.32337 21.9099 4.48669 21.7495C4.65001 21.5891 4.74177 21.3716 4.74177 21.1448V14.4743C6.18758 13.9605 7.69343 13.6273 9.22391 13.4823C10.2069 13.7198 11.1468 14.1044 12.0107 14.6226C13.021 15.2292 14.1279 15.6648 15.2853 15.9111H15.5523C17.2341 15.7026 18.8789 15.2691 20.4409 14.6226C20.605 14.5604 20.7461 14.4508 20.8456 14.3084C20.9451 14.1659 20.9983 13.9972 20.9982 13.8244V4.12087C21.007 3.98704 20.9831 3.85311 20.9285 3.73016C20.874 3.60722 20.7904 3.49881 20.6847 3.41391ZM19.3262 13.2543C18.1201 13.7456 16.8498 14.068 15.5523 14.2121C14.6096 13.9638 13.7095 13.5795 12.8816 13.0718C11.8131 12.4245 10.6322 11.9761 9.39809 11.7491H9.16585C7.67111 11.8813 6.19768 12.1875 4.7766 12.6613V4.67959C6.22241 4.16579 7.72827 3.8325 9.25875 3.68757C10.2417 3.92507 11.1817 4.30965 12.0456 4.82782C13.0558 5.43446 14.1628 5.87002 15.3201 6.11631C16.6825 6.06315 18.0256 5.78164 19.2913 5.28392L19.3262 13.2543Z" fill="currentColor" />
</svg>