<svg xmlns="http://www.w3.org/2000/svg" width="24" height="24" viewBox="0 0 19 16" fill="none">
  <path d="M12.8578 3.00977C12.9428 3.02265 13.0256 3.04762 13.1029 3.08496L13.2143 3.15039L13.3149 3.23047C13.4087 3.31785 13.4825 3.42548 13.5297 3.5459L17.6401 14H18.2279C18.6421 14 18.9779 14.3358 18.9779 14.75C18.9779 15.1642 18.6422 15.5 18.2279 15.5H15.4779C15.0639 15.4998 14.7279 15.1641 14.7279 14.75C14.728 14.336 15.064 14.0002 15.4779 14H16.0277L15.0463 11.5039C15.0078 11.51 14.9684 11.5146 14.9281 11.5146H10.5287C10.4886 11.5146 10.449 11.511 10.4106 11.5049L9.43009 14H9.97794C10.3921 14 10.7279 14.3358 10.7279 14.75C10.7279 15.1642 10.3922 15.5 9.97794 15.5H7.22794C6.81394 15.4998 6.47794 15.1641 6.47794 14.75C6.47798 14.336 6.81396 14.0002 7.22794 14H7.81778L11.9281 3.5459C11.9911 3.38536 12.1012 3.24775 12.2436 3.15039L12.3549 3.08496C12.471 3.02895 12.5989 3 12.7289 3L12.8578 3.00977ZM5.14982 0C5.32303 0 5.49218 0.0526296 5.63517 0.150391C5.7425 0.22379 5.83171 0.319837 5.89591 0.431641L5.95157 0.547852L5.95841 0.56543L8.46232 7.51074C8.54509 7.74047 8.51084 7.99645 8.37052 8.19629C8.23009 8.39619 8.00056 8.51465 7.75626 8.51465H2.82853L1.44864 12.0244C1.29708 12.4099 0.861443 12.5997 0.475988 12.4482C0.0905273 12.2967 -0.0993753 11.8611 0.0521595 11.4756L4.34903 0.545898C4.41199 0.385376 4.52213 0.24776 4.66446 0.150391C4.80743 0.0526477 4.97663 1.72756e-05 5.14982 0ZM10.9975 10.0146H14.4604L12.7289 5.60938L10.9975 10.0146ZM3.41739 7.01465H6.68888L5.12345 2.67383L3.41739 7.01465Z" fill="currentColor" />
</svg>