<svg xmlns="http://www.w3.org/2000/svg" width="24" height="24" viewBox="0 0 21 18" fill="none">
  <path clip-rule="evenodd" d="M4.28041 0.186904C4.16043 0.0672159 3.99788 0 3.82841 0C3.65894 0 3.49639 0.0672159 3.37641 0.186904L0.176411 3.3869C0.0613439 3.5078 -0.00194242 3.66887 4.54521e-05 3.83576C0.00203333 4.00265 0.0691381 4.16216 0.187052 4.28028C0.304966 4.39841 0.464359 4.46579 0.631246 4.46808C0.798133 4.47036 0.95931 4.40736 1.08041 4.2925L3.18921 2.1853V15.0941L1.08041 12.9869C0.95931 12.8721 0.798133 12.8091 0.631246 12.8113C0.464359 12.8136 0.304966 12.881 0.187052 12.9991C0.0691381 13.1172 0.00203333 13.2768 4.54521e-05 13.4436C-0.00194242 13.6105 0.0613439 13.7716 0.176411 13.8925L3.37641 17.0925C3.49639 17.2122 3.65894 17.2794 3.82841 17.2794C3.99788 17.2794 4.16043 17.2122 4.28041 17.0925L7.48041 13.8925C7.59548 13.7716 7.65876 13.6105 7.65678 13.4436C7.65479 13.2768 7.58768 13.1172 7.46977 12.9991C7.35186 12.881 7.19246 12.8136 7.02558 12.8113C6.85869 12.8091 6.69751 12.8721 6.57641 12.9869L4.46761 15.0941V2.1853L6.57641 4.2925C6.69751 4.40736 6.85869 4.47036 7.02558 4.46808C7.19246 4.46579 7.35186 4.39841 7.46977 4.28028C7.58768 4.16216 7.65479 4.00265 7.65678 3.83576C7.65876 3.66887 7.59548 3.5078 7.48041 3.3869L4.28041 0.186904ZM14.6292 1.0397C14.7936 1.03977 14.954 1.0905 15.0886 1.18497C15.2231 1.27945 15.3253 1.41309 15.3812 1.5677L20.1812 14.8797C20.2465 15.0775 20.2321 15.2929 20.141 15.4802C20.05 15.6675 19.8895 15.8119 19.6936 15.8827C19.4978 15.9536 19.282 15.9452 19.0922 15.8595C18.9024 15.7738 18.7536 15.6175 18.6772 15.4237L17.106 11.0653H12.1524L10.5812 15.4221C10.5049 15.6159 10.356 15.7722 10.1662 15.8579C9.97638 15.9436 9.76064 15.952 9.5648 15.8811C9.36896 15.8103 9.20846 15.6659 9.11742 15.4786C9.02637 15.2913 9.01194 15.0759 9.07721 14.8781L13.8772 1.5677C13.9331 1.41309 14.0353 1.27945 14.1698 1.18497C14.3044 1.0905 14.4648 1.03977 14.6292 1.0397ZM14.6292 4.1981L16.6148 9.70531H12.6452L14.6292 4.1981Z" fill-rule="evenodd" fill="currentColor" />
</svg>