<svg xmlns="http://www.w3.org/2000/svg" width="24" height="24" viewBox="0 0 24 24" fill="none">
  <path d="M15.1073 7.25977C15.1923 7.27265 15.2751 7.29762 15.3525 7.33496L15.4638 7.40039L15.5644 7.48047C15.6582 7.56785 15.732 7.67548 15.7792 7.7959L19.8896 18.25H20.4775C20.8916 18.25 21.2274 18.5858 21.2275 19C21.2275 19.4142 20.8917 19.75 20.4775 19.75H17.7275C17.3135 19.7498 16.9775 19.4141 16.9775 19C16.9775 18.586 17.3135 18.2502 17.7275 18.25H18.2773L17.2958 15.7539C17.2573 15.76 17.2179 15.7646 17.1776 15.7646H12.7782C12.7381 15.7646 12.6985 15.761 12.6601 15.7549L11.6796 18.25H12.2275C12.6416 18.25 12.9774 18.5858 12.9775 19C12.9775 19.4142 12.6417 19.75 12.2275 19.75H9.47745C9.06345 19.7498 8.72745 19.4141 8.72745 19C8.72749 18.586 9.06348 18.2502 9.47745 18.25H10.0673L14.1776 7.7959C14.2406 7.63536 14.3507 7.49775 14.4931 7.40039L14.6044 7.33496C14.7205 7.27895 14.8484 7.25 14.9784 7.25L15.1073 7.25977ZM7.39933 4.25C7.57254 4.25 7.74169 4.30263 7.88468 4.40039C7.99201 4.47379 8.08122 4.56984 8.14542 4.68164L8.20109 4.79785L8.20792 4.81543L10.7118 11.7607C10.7946 11.9905 10.7604 12.2464 10.62 12.4463C10.4796 12.6462 10.2501 12.7646 10.0058 12.7646H5.07804L3.69816 16.2744C3.54659 16.6599 3.11096 16.8497 2.7255 16.6982C2.34004 16.5467 2.15014 16.1111 2.30167 15.7256L6.59855 4.7959C6.6615 4.63538 6.77164 4.49776 6.91398 4.40039C7.05694 4.30265 7.22614 4.25002 7.39933 4.25ZM13.247 14.2646H16.7099L14.9784 9.85938L13.247 14.2646ZM5.66691 11.2646H8.93839L7.37296 6.92383L5.66691 11.2646Z" fill="currentColor" />
</svg>