<svg xmlns="http://www.w3.org/2000/svg" width="24" height="24" viewBox="0 0 24 24" fill="none">
  <path fill-rule="evenodd" clip-rule="evenodd" d="M6.06608 5.42252C6.18394 5.16501 6.44018 5 6.72223 5H17.3148C17.7618 5 18.1904 5.17843 18.5064 5.49603C18.8225 5.81363 19 6.24439 19 6.69355V8.62903C19 9.02988 18.6767 9.35484 18.2778 9.35484C17.8789 9.35484 17.5556 9.02988 17.5556 8.62903V6.69355C17.5556 6.62938 17.5302 6.56785 17.485 6.52247C17.4399 6.4771 17.3787 6.45161 17.3148 6.45161H8.2925L13.0484 12.0277C13.2802 12.2995 13.2802 12.7005 13.0484 12.9723L8.2925 18.5484H17.3148C17.3787 18.5484 17.4399 18.5229 17.485 18.4775C17.5302 18.4322 17.5556 18.3706 17.5556 18.3065V16.371C17.5556 15.9701 17.8789 15.6452 18.2778 15.6452C18.6767 15.6452 19 15.9701 19 16.371V18.3065C19 18.7556 18.8225 19.1864 18.5064 19.504C18.1904 19.8216 17.7618 20 17.3148 20H6.72223C6.44018 20 6.18394 19.835 6.06608 19.5775C5.94823 19.32 5.99033 19.0171 6.17388 18.8018L11.5488 12.5L6.17388 6.19816C5.99033 5.98294 5.94823 5.68004 6.06608 5.42252Z" fill="currentColor" />
</svg>