<svg xmlns="http://www.w3.org/2000/svg" width="24" height="24" viewBox="0 0 24 24" fill="none">
  <path d="M19.6154 10.2865C19.6154 9.84861 19.6136 9.58742 19.5874 9.40021C19.5754 9.31444 19.5614 9.2711 19.5532 9.25177C19.5513 9.24747 19.5487 9.24309 19.5487 9.24309L19.5478 9.24049L19.5451 9.23962C19.5451 9.23962 19.5405 9.23706 19.536 9.23528C19.516 9.22732 19.471 9.21383 19.3819 9.20229C19.1875 9.17712 18.9163 9.17538 18.4615 9.17538H5.53847C5.08375 9.17538 4.81251 9.17712 4.6181 9.20229C4.52903 9.21383 4.48402 9.22732 4.46395 9.23528C4.45948 9.23706 4.45494 9.23962 4.45494 9.23962L4.45223 9.24049L4.45133 9.24309C4.45133 9.24309 4.44867 9.24747 4.44682 9.25177C4.43856 9.2711 4.42455 9.31444 4.41257 9.40021C4.38643 9.58742 4.38462 9.84861 4.38462 10.2865V11.6198C4.38462 11.8362 4.38498 11.9651 4.39184 12.0608L4.40175 12.1476L4.40356 12.1502L4.42429 12.1884C4.44907 12.2241 4.48453 12.2521 4.52615 12.2691L4.619 12.2795C4.71877 12.2861 4.85254 12.2865 5.07693 12.2865C5.28235 12.2865 5.47143 12.2864 5.62952 12.2969C5.79405 12.3078 5.97561 12.3322 6.15956 12.4063C6.50458 12.5442 6.78654 12.7926 6.96185 13.1068L7.03035 13.2457L7.03126 13.2474L7.07903 13.3785C7.11859 13.5089 7.13465 13.636 7.14303 13.7544C7.15378 13.9063 7.15385 14.0885 7.15385 14.2865V17.3976C7.15385 17.8355 7.15566 18.0967 7.1818 18.2839C7.19378 18.3696 7.20779 18.413 7.21605 18.4323C7.2179 18.4366 7.22056 18.441 7.22056 18.441L7.22146 18.4436L7.22416 18.4445C7.22416 18.4445 7.22871 18.447 7.23318 18.4488C7.25325 18.4568 7.29826 18.4703 7.38733 18.4818C7.58174 18.507 7.85297 18.5087 8.3077 18.5087H15.6923C16.147 18.5087 16.4183 18.507 16.6127 18.4818C16.7017 18.4703 16.7468 18.4568 16.7668 18.4488C16.7713 18.447 16.7758 18.4445 16.7758 18.4445L16.7785 18.4436L16.7794 18.441C16.7794 18.441 16.7821 18.4366 16.7839 18.4323C16.7922 18.413 16.8062 18.3696 16.8182 18.2839C16.8443 18.0967 16.8461 17.8355 16.8461 17.3976V14.2865C16.8461 14.0887 16.8461 13.9066 16.857 13.7544C16.8683 13.5959 16.8936 13.4211 16.9705 13.244C17.1344 12.8645 17.4481 12.5633 17.8422 12.4054L17.844 12.4045L17.9802 12.3585C18.1156 12.3204 18.2476 12.305 18.3705 12.2969C18.5282 12.2866 18.7174 12.2865 18.9231 12.2865C19.1477 12.2865 19.2816 12.2861 19.381 12.2795C19.4734 12.2734 19.485 12.2644 19.4711 12.27L19.4738 12.2683L19.5135 12.2483C19.5508 12.2243 19.5797 12.1897 19.5973 12.1493C19.5996 12.1393 19.6045 12.1132 19.6082 12.0608C19.6149 11.9647 19.6154 11.8359 19.6154 11.6198V10.2865ZM21 11.6198C21 11.8178 20.9999 12 20.9892 12.1519C20.978 12.3096 20.9529 12.4828 20.8774 12.6589L20.8765 12.6606C20.7125 13.0403 20.3991 13.3414 20.0048 13.4992L20.0057 13.5C19.8217 13.5742 19.6402 13.5985 19.4757 13.6094C19.3176 13.6199 19.1285 13.6198 18.9231 13.6198C18.6987 13.6198 18.5649 13.6202 18.4651 13.6268C18.4092 13.6304 18.382 13.635 18.3723 13.6372C18.3168 13.6599 18.2729 13.7025 18.2497 13.7561L18.2479 13.7587C18.2537 13.7453 18.2444 13.7566 18.238 13.8455C18.2311 13.9412 18.2308 14.0702 18.2308 14.2865V17.3976C18.2308 17.7978 18.2326 18.165 18.1911 18.4618C18.1469 18.7779 18.0427 19.1117 17.7575 19.3863C17.4723 19.6609 17.1257 19.7613 16.7975 19.8038C16.4893 19.8438 16.1079 19.842 15.6923 19.842H8.3077C7.89207 19.842 7.51072 19.8438 7.20253 19.8038C6.87429 19.7613 6.5277 19.6609 6.2425 19.3863C5.9573 19.1117 5.85306 18.7779 5.8089 18.4618C5.76744 18.165 5.76924 17.7978 5.76924 17.3976V14.2865C5.76924 14.0704 5.76881 13.9416 5.76203 13.8455C5.75821 13.7916 5.75343 13.7655 5.75121 13.7561C5.72759 13.7028 5.68329 13.6603 5.62771 13.638L5.62501 13.6363C5.63891 13.6419 5.62722 13.6329 5.53486 13.6268C5.43545 13.6202 5.30158 13.6198 5.07693 13.6198C4.87131 13.6198 4.68209 13.6197 4.52435 13.6094C4.36057 13.5986 4.18073 13.5744 3.99791 13.5018L3.9961 13.5009C3.60198 13.343 3.28829 13.0418 3.12441 12.6624L3.07573 12.5295C3.03554 12.3985 3.01933 12.2706 3.01083 12.1519C2.99993 11.9997 3.00001 11.8176 3.00001 11.6198V10.2865C3.00001 9.88626 2.99822 9.51903 3.03967 9.22226C3.08383 8.90617 3.18807 8.57242 3.47327 8.29778C3.75847 8.02314 4.10506 7.92277 4.4333 7.88025C4.74149 7.84032 5.12284 7.84205 5.53847 7.84205H18.4615C18.8772 7.84205 19.2585 7.84032 19.5667 7.88025C19.8949 7.92277 20.2415 8.02314 20.5267 8.29778C20.8119 8.57242 20.9162 8.90617 20.9603 9.22226C21.0018 9.51903 21 9.88626 21 10.2865V11.6198Z" fill="currentColor" />
  <path d="M17.6452 6.26557V6.10156C17.6451 5.95706 17.6108 5.81447 17.5446 5.68585C17.4783 5.55716 17.3821 5.44587 17.2641 5.36135C17.1461 5.27683 17.0092 5.22174 16.8654 5.19997C16.7576 5.18367 16.648 5.18604 16.5417 5.20787L16.4367 5.23593C15.3192 5.60596 14.2974 6.21462 13.4422 7.01719L13.2728 7.18031L12.6774 7.77231V12.2083H18.3226L18.3923 12.2119C18.7336 12.2465 18.9998 12.5334 19 12.8819C19 13.2305 18.7336 13.5173 18.3923 13.552L18.3226 13.5555H12.6774V19.1685C12.6774 19.5405 12.3741 19.842 12 19.842C11.6259 19.842 11.3226 19.5405 11.3226 19.1685V13.5555H5.67742C5.30329 13.5555 5 13.2539 5 12.8819C5.00018 12.5101 5.3034 12.2083 5.67742 12.2083H11.3226V7.77231L10.7272 7.18031C9.83895 6.29666 8.75539 5.63154 7.56326 5.23681C7.42537 5.19106 7.27828 5.17824 7.13458 5.19997C6.99081 5.22174 6.85388 5.27683 6.73589 5.36135C6.61791 5.44587 6.52167 5.55716 6.45539 5.68585C6.38915 5.81447 6.35489 5.95706 6.35484 6.10156V6.26557L6.36807 6.4287C6.4285 6.80332 6.69342 7.12003 7.06313 7.24258L8.60144 7.75302L8.66583 7.77757C8.97897 7.9176 9.14085 8.27379 9.03012 8.60462C8.91174 8.9575 8.52766 9.14854 8.17276 9.03085L6.63445 8.52042C5.71998 8.2172 5.084 7.40015 5.00794 6.45589L5 6.26557V6.10156C5.00005 5.74355 5.08551 5.39059 5.24962 5.07193C5.41373 4.7533 5.65171 4.47785 5.9438 4.26856C6.23599 4.05926 6.5748 3.92167 6.93082 3.86776C7.28668 3.81395 7.65049 3.84481 7.99194 3.9581L7.99105 3.95897C9.38288 4.41983 10.648 5.19621 11.6851 6.22786L12 6.54096L12.3149 6.22786L12.5116 6.03754C13.51 5.10045 14.7033 4.39109 16.0081 3.95897C16.3495 3.84569 16.7133 3.81395 17.0692 3.86776C17.4252 3.92167 17.764 4.05926 18.0562 4.26856C18.3483 4.47785 18.5863 4.7533 18.7504 5.07193C18.9145 5.39059 18.9999 5.74355 19 6.10156V6.26557C18.9998 7.22512 18.4208 8.08381 17.5446 8.45377L17.3655 8.52042L15.8272 9.03085C15.4723 9.14854 15.0883 8.9575 14.9699 8.60462C14.8518 8.25186 15.0438 7.87069 15.3986 7.75302L16.9369 7.24258L17.0886 7.17856C17.4262 7.00337 17.645 6.65371 17.6452 6.26557Z" fill="currentColor" />
</svg>