<svg xmlns="http://www.w3.org/2000/svg" width="24" height="24" viewBox="0 0 24 24" fill="none">
  <path d="M12.2037 10.1302H21.8057C22.1341 11.8966 22.0453 13.7133 21.546 15.4409C21.0866 17.0295 20.1942 18.4653 18.9648 19.5939C17.8855 18.7684 16.8014 17.9491 15.7222 17.1236C16.2573 16.7698 16.7139 16.3137 17.0649 15.7827C17.4158 15.2517 17.6538 14.6567 17.7645 14.0333H12.2037C12.2021 12.7333 12.2037 11.4317 12.2037 10.1302Z" fill="#587DBD" />
  <path d="M3.08571 16.4957C4.20099 15.6523 5.31574 14.8046 6.42994 13.9527C6.86101 15.1929 7.68086 16.2678 8.77236 17.024C9.45316 17.4957 10.2267 17.8231 11.0438 17.9855C11.8489 18.1323 12.6747 18.1323 13.4798 17.9855C14.2825 17.8523 15.048 17.556 15.727 17.1157C16.8063 17.9412 17.8904 18.7605 18.9696 19.586C17.7886 20.6388 16.3488 21.3729 14.7914 21.7163C13.0723 22.1125 11.2808 22.0935 9.57092 21.6609C8.21854 21.3069 6.95534 20.6829 5.86047 19.828C4.70162 18.926 3.75513 17.7894 3.08571 16.4957Z" fill="#319F43" />
  <path d="M2.20004 10.0274C2.37979 9.15406 2.67821 8.30832 3.08732 7.51278L6.43156 10.0574C5.99407 11.3204 5.99407 12.6897 6.43156 13.9527C5.31735 14.7961 4.2026 15.6438 3.08732 16.4957C2.06315 14.4972 1.7508 12.2201 2.20004 10.0274Z" fill="#F8BD00" />
  <path d="M8.86755 2.54843C11.0984 1.79762 13.5243 1.81827 15.7415 2.60695C16.9592 3.05382 18.0749 3.73209 19.0245 4.60281C18.7018 4.94125 18.3614 5.25755 18.0323 5.5865C17.4064 6.19907 16.781 6.80953 16.1561 7.41789C15.5332 6.8339 14.7797 6.40065 13.9557 6.15268C12.9012 5.84056 11.7795 5.81919 10.7134 6.09091C9.64742 6.36264 8.67833 6.91696 7.91251 7.69307C7.24404 8.35973 6.73779 9.16579 6.43156 10.0511L3.08732 7.51278C4.28435 5.18569 6.35695 3.40564 8.86755 2.54843Z" fill="#E33629" />
</svg>