<svg xmlns="http://www.w3.org/2000/svg" width="24" height="24" viewBox="0 0 24 24" fill="none">
  <path fill-rule="evenodd" clip-rule="evenodd" d="M11.4667 5.23077H5.6C5.45855 5.23077 5.3229 5.2956 5.22288 5.41101C5.12286 5.52642 5.06667 5.68294 5.06667 5.84615V11.3846H11.4667V5.23077ZM12.5333 5.23077V11.3846H18.9333V5.84615C18.9333 5.68294 18.8771 5.52642 18.7771 5.41101C18.6771 5.2956 18.5414 5.23077 18.4 5.23077H12.5333ZM11.4667 12.6154H5.06667V18.1538C5.06667 18.3171 5.12286 18.4736 5.22288 18.589C5.3229 18.7044 5.45855 18.7692 5.6 18.7692H11.4667V12.6154ZM12.5333 18.7692V12.6154H18.9333V18.1538C18.9333 18.3171 18.8771 18.4736 18.7771 18.589C18.6771 18.7044 18.5414 18.7692 18.4 18.7692H12.5333ZM5.6 4C5.17565 4 4.76869 4.19451 4.46863 4.54073C4.16857 4.88695 4 5.35652 4 5.84615V18.1538C4 18.6435 4.16857 19.1131 4.46863 19.4593C4.76869 19.8055 5.17565 20 5.6 20H18.4C18.8243 20 19.2313 19.8055 19.5314 19.4593C19.8314 19.1131 20 18.6435 20 18.1538V5.84615C20 5.35652 19.8314 4.88695 19.5314 4.54073C19.2313 4.19451 18.8243 4 18.4 4H5.6Z" fill="currentColor" />
</svg>