<svg xmlns="http://www.w3.org/2000/svg" width="24" height="24" viewBox="0 0 24 24" fill="none">
  <path fill-rule="evenodd" clip-rule="evenodd" d="M4 7.65217C4 7.29199 4.307 7 4.68571 7H19.3143C19.693 7 20 7.29199 20 7.65217C20 8.01236 19.693 8.30435 19.3143 8.30435H4.68571C4.307 8.30435 4 8.01236 4 7.65217ZM4 12C4 11.6398 4.307 11.3478 4.68571 11.3478H19.3143C19.693 11.3478 20 11.6398 20 12C20 12.3602 19.693 12.6522 19.3143 12.6522H4.68571C4.307 12.6522 4 12.3602 4 12ZM4 16.3478C4 15.9876 4.307 15.6957 4.68571 15.6957H19.3143C19.693 15.6957 20 15.9876 20 16.3478C20 16.708 19.693 17 19.3143 17H4.68571C4.307 17 4 16.708 4 16.3478Z" fill="currentColor" />
</svg>