<svg xmlns="http://www.w3.org/2000/svg" width="24" height="24" viewBox="0 0 24 24" fill="none">
  <path fill-rule="evenodd" clip-rule="evenodd" d="M11.252 4.02064C11.6194 4.11248 11.8428 4.48477 11.751 4.85217L10.8211 8.5715H14.8932L15.9062 4.51956C15.998 4.15216 16.3703 3.92879 16.7377 4.02064C17.1051 4.11248 17.3285 4.48477 17.2367 4.85217L16.3068 8.5715H19.3143C19.693 8.5715 20 8.8785 20 9.2572C20 9.6359 19.693 9.9429 19.3143 9.9429H15.964L14.9354 14.0571H17.4857C17.8644 14.0571 18.1714 14.3641 18.1714 14.7428C18.1714 15.1215 17.8644 15.4285 17.4857 15.4285H14.5925L13.5795 19.4804C13.4877 19.8478 13.1154 20.0712 12.748 19.9794C12.3806 19.8875 12.1572 19.5152 12.249 19.1478L13.1789 15.4285H9.10682L8.09381 19.4804C8.00196 19.8478 7.62966 20.0712 7.26226 19.9794C6.89486 19.8875 6.67148 19.5152 6.76333 19.1478L7.69318 15.4285H4.68571C4.307 15.4285 4 15.1215 4 14.7428C4 14.3641 4.307 14.0571 4.68571 14.0571H8.03604L9.06461 9.9429H6.51429C6.13558 9.9429 5.82857 9.6359 5.82857 9.2572C5.82857 8.8785 6.13558 8.5715 6.51429 8.5715H9.40747L10.4205 4.51956C10.5123 4.15216 10.8846 3.92879 11.252 4.02064ZM10.4782 9.9429L9.44968 14.0571H13.5218L14.5503 9.9429H10.4782Z" fill="currentColor" />
</svg>