<svg xmlns="http://www.w3.org/2000/svg" width="24" height="24" viewBox="0 0 24 24" fill="none">
  <path d="M5.04761 13.3335C4.49978 13.3335 3.97438 13.121 3.58701 12.7429C3.19963 12.3647 2.98201 11.8518 2.98201 11.3169V8.01707C2.98201 7.48224 3.19963 6.96931 3.58701 6.59113C3.97438 6.21295 4.49978 6.00049 5.04761 6.00049H17.4412C18.0887 6.00049 18.6655 6.29088 19.0448 6.74626C18.6128 6.78941 18.1999 6.94266 17.8475 7.19064C17.7208 7.13099 17.5819 7.10016 17.4412 7.10044H14.2489V10.6613L13.1222 11.7613V7.10044H9.36658V12.2335H12.6385L11.6132 13.2345C11.5804 13.2668 11.5483 13.2998 11.5171 13.3335H5.04761ZM4.1087 11.3169C4.1087 11.8229 4.52933 12.2335 5.04761 12.2335H8.23989V7.10044H5.04761C4.52933 7.10044 4.1087 7.51109 4.1087 8.01707V11.3169ZM18.0796 7.9584L12.1435 13.7529C11.8856 14.0056 11.7024 14.3215 11.6132 14.6674L11.2692 16.01C11.235 16.1436 11.2368 16.2836 11.2745 16.4163C11.3121 16.549 11.3844 16.6699 11.4842 16.7672C11.5839 16.8646 11.7078 16.935 11.8438 16.9717C11.9797 17.0084 12.1231 17.01 12.2599 16.9765L13.6345 16.6414C13.9891 16.5543 14.313 16.3751 14.5719 16.123L20.5073 10.3284C20.8168 10.0117 20.9872 9.58931 20.9819 9.15157C20.9766 8.71383 20.7962 8.29547 20.4791 7.98592C20.162 7.67637 19.7335 7.50019 19.2851 7.49505C18.8367 7.48991 18.4041 7.65621 18.0796 7.9584Z" fill="currentColor" />
</svg>