<svg xmlns="http://www.w3.org/2000/svg" width="24" height="24" viewBox="0 0 24 24" fill="none">
  <path d="M5.14286 18C4.81905 18 4.54781 17.8848 4.32914 17.6544C4.11048 17.424 4.00076 17.1392 4 16.8V7.2C4 6.86 4.10971 6.5752 4.32914 6.3456C4.54857 6.116 4.81981 6.0008 5.14286 6C5.4659 5.9992 5.73752 6.1144 5.95771 6.3456C6.1779 6.5768 6.28724 6.8616 6.28571 7.2V10.8H10.8571V7.2C10.8571 6.86 10.9669 6.5752 11.1863 6.3456C11.4057 6.116 11.677 6.0008 12 6C12.323 5.9992 12.5947 6.1144 12.8149 6.3456C13.035 6.5768 13.1444 6.8616 13.1429 7.2V16.8C13.1429 17.14 13.0331 17.4252 12.8137 17.6556C12.5943 17.886 12.323 18.0008 12 18C11.677 17.9992 11.4057 17.884 11.1863 17.6544C10.9669 17.4248 10.8571 17.14 10.8571 16.8V13.2H6.28571V16.8C6.28571 17.14 6.176 17.4252 5.95657 17.6556C5.73714 17.886 5.4659 18.0008 5.14286 18ZM18.8571 18C18.5333 18 18.2621 17.8848 18.0434 17.6544C17.8248 17.424 17.715 17.1392 17.7143 16.8V8.4H16.5714C16.2476 8.4 15.9764 8.2848 15.7577 8.0544C15.539 7.824 15.4293 7.5392 15.4286 7.2C15.4278 6.8608 15.5375 6.576 15.7577 6.3456C15.9779 6.1152 16.2491 6 16.5714 6H18.8571C19.1809 6 19.4526 6.1152 19.672 6.3456C19.8914 6.576 20.0008 6.8608 20 7.2V16.8C20 17.14 19.8903 17.4252 19.6709 17.6556C19.4514 17.886 19.1802 18.0008 18.8571 18Z" fill="currentColor" />
</svg>