<svg xmlns="http://www.w3.org/2000/svg" width="24" height="24" viewBox="0 0 24 24" fill="none">
  <path d="M12.8502 19.2V16.7996C12.8501 16.5743 12.7604 16.3584 12.6012 16.199C12.4418 16.0396 12.225 15.95 11.9996 15.95C11.7743 15.9501 11.5583 16.0397 11.399 16.199C11.2397 16.3584 11.1501 16.5743 11.15 16.7996V19.2C11.1499 19.6141 10.8141 19.95 10.4 19.95C9.98585 19.95 9.65011 19.6141 9.65 19.2V16.7996C9.65005 16.1765 9.89787 15.5791 10.3385 15.1385C10.7791 14.6979 11.3765 14.4501 11.9996 14.45C12.6229 14.45 13.221 14.6978 13.6617 15.1385C14.1023 15.5791 14.3501 16.1765 14.3502 16.7996V19.2C14.3501 19.6141 14.0143 19.9499 13.6002 19.95C13.186 19.95 12.8503 19.6141 12.8502 19.2ZM11.2496 11.2V10.3494H10.4C9.98579 10.3494 9.65 10.0136 9.65 9.59941C9.65021 9.18538 9.98592 8.84941 10.4 8.84941H11.2496V7.9998C11.2496 7.58572 11.5856 7.25002 11.9996 7.2498C12.4138 7.2498 12.7496 7.58559 12.7496 7.9998V8.84941H13.6002C14.0142 8.84952 14.35 9.18544 14.3502 9.59941C14.3502 10.0136 14.0143 10.3493 13.6002 10.3494H12.7496V11.2C12.7495 11.6141 12.4138 11.95 11.9996 11.95C11.5856 11.9498 11.2497 11.614 11.2496 11.2Z" fill="currentColor" />
  <path d="M3.25 17.5996V10.3994C3.2501 9.7763 3.49786 9.1789 3.93848 8.73828C4.37909 8.29766 4.97649 8.04991 5.59961 8.0498H7.2002C7.61432 8.04991 7.9502 8.38566 7.9502 8.7998C7.9502 9.21395 7.61432 9.5497 7.2002 9.5498H5.59961C5.37432 9.54991 5.15834 9.63951 4.99902 9.79883C4.83971 9.95814 4.7501 10.1741 4.75 10.3994V17.5996C4.75 17.825 4.83962 18.0418 4.99902 18.2012C5.15832 18.3604 5.37441 18.4501 5.59961 18.4502H18.4004C18.6256 18.4501 18.8417 18.3604 19.001 18.2012C19.1604 18.0418 19.25 17.825 19.25 17.5996V12.7998C19.25 12.5745 19.1603 12.3586 19.001 12.1992C18.8417 12.0399 18.6257 11.9503 18.4004 11.9502H16.7998C16.3858 11.9501 16.05 11.6142 16.0498 11.2002C16.0498 10.786 16.3857 10.4503 16.7998 10.4502H18.4004C19.0234 10.4503 19.6209 10.6973 20.0615 11.1377C20.5022 11.5784 20.75 12.1765 20.75 12.7998V17.5996C20.75 18.2229 20.5022 18.821 20.0615 19.2617C19.6209 19.7022 19.0234 19.9501 18.4004 19.9502H5.59961C4.97658 19.9501 4.37908 19.7022 3.93848 19.2617C3.49777 18.821 3.25 18.2229 3.25 17.5996Z" fill="currentColor" />
  <path d="M16.0496 19.2002V6.39941C16.0495 6.17412 15.9599 5.95814 15.8006 5.79883C15.6412 5.63954 15.4253 5.5498 15.2 5.5498H8.79961C8.57432 5.54991 8.35834 5.63951 8.19902 5.79883C8.03971 5.95814 7.9501 6.17412 7.95 6.39941V19.2002C7.94979 19.6142 7.61408 19.9502 7.2 19.9502C6.78592 19.9502 6.45021 19.6142 6.45 19.2002V6.39941C6.4501 5.7763 6.69786 5.1789 7.13848 4.73828C7.57909 4.29766 8.17649 4.04991 8.79961 4.0498H15.2C15.8233 4.0498 16.4214 4.29757 16.8621 4.73828C17.3025 5.17887 17.5495 5.77643 17.5496 6.39941V19.2002C17.5494 19.6142 17.2137 19.9502 16.7996 19.9502C16.3857 19.95 16.0498 19.6141 16.0496 19.2002Z" fill="currentColor" />
</svg>