<svg xmlns="http://www.w3.org/2000/svg" width="24" height="24" viewBox="0 0 24 24" fill="none">
  <path d="M13.271 5.57452C13.309 5.41767 13.3965 5.27724 13.5207 5.17411C13.6448 5.07098 13.7989 5.01063 13.96 5.00204C14.1212 4.99345 14.2808 5.03707 14.4152 5.12642C14.5496 5.21577 14.6516 5.34609 14.706 5.49802L16.7575 11.25C17.488 11.249 17.9515 11.114 18.4425 10.746C18.5866 10.5669 18.7605 10.414 18.9565 10.294L19 10.25V10.2675C19.3041 10.0922 19.6489 9.9999 19.9999 10C20.3509 10.0001 20.6957 10.0926 20.9996 10.2682C21.3035 10.4438 21.5559 10.6962 21.7314 11.0002C21.9068 11.3042 21.9992 11.649 21.9992 12C21.9992 12.351 21.9068 12.6958 21.7314 12.9998C21.5559 13.3038 21.3035 13.5563 20.9996 13.7318C20.6957 13.9074 20.3509 13.9999 19.9999 14C19.6489 14.0001 19.3041 13.9079 19 13.7325V13.75L18.9555 13.706C18.7705 13.5925 18.6055 13.4495 18.4665 13.284C18.0115 12.954 17.584 12.8415 16.951 12.823H16.254C16.0993 12.8229 15.9485 12.775 15.8221 12.6859C15.6957 12.5967 15.6 12.4707 15.548 12.325L14.1395 8.37502L11.7205 18.4255C11.6825 18.5829 11.5946 18.7238 11.4699 18.827C11.3452 18.9303 11.1904 18.9905 11.0287 18.9985C10.867 19.0066 10.7071 18.9621 10.5727 18.8717C10.4384 18.7813 10.3369 18.6498 10.2835 18.497L7.459 10.408L6.698 12.347C6.64294 12.4873 6.54691 12.6077 6.4224 12.6927C6.29789 12.7776 6.1507 12.823 6 12.823H2V11.323H5.4885L6.802 7.97602C6.85802 7.83353 6.95631 7.7116 7.08366 7.62661C7.21101 7.54163 7.36131 7.49765 7.51439 7.50059C7.66746 7.50352 7.81597 7.55324 7.93997 7.64306C8.06396 7.73287 8.15749 7.85849 8.208 8.00302L10.859 15.5955L13.271 5.57452Z" fill="currentColor" />
</svg>