<svg xmlns="http://www.w3.org/2000/svg" width="24" height="24" viewBox="0 0 24 24" fill="none">
  <path d="M21 8.8C21 9.78869 20.6982 10.7064 20.1806 11.4661L20.1815 11.467C19.9603 11.7943 19.35 12.4903 18.6166 13.2973C17.8644 14.1251 16.9335 15.1227 16.0285 16.083C15.1233 17.0438 14.2418 17.9697 13.5865 18.6554C13.2588 18.9983 12.9871 19.2814 12.7978 19.4786C12.7032 19.5771 12.6293 19.6546 12.5787 19.7071C12.5535 19.7334 12.5341 19.7534 12.521 19.767C12.5145 19.7738 12.509 19.7787 12.5057 19.7821C12.5041 19.7838 12.5021 19.7866 12.5021 19.7866L12.5012 19.7875C12.3706 19.9232 12.1893 20 12 20C11.8344 20 11.6749 19.9413 11.5502 19.8357L11.4988 19.7875L11.4979 19.7866C11.4979 19.7866 11.4959 19.7838 11.4943 19.7821C11.491 19.7787 11.4855 19.7738 11.479 19.767C11.4659 19.7534 11.4465 19.7334 11.4213 19.7071C11.3707 19.6546 11.2968 19.5771 11.2022 19.4786C11.0129 19.2814 10.7412 18.9983 10.4135 18.6554C9.75822 17.9697 8.87673 17.0438 7.97145 16.083C7.06652 15.1227 6.13561 14.1251 5.38341 13.2973C4.65005 12.4903 4.03971 11.7943 3.81851 11.467C3.30103 10.7074 3 9.78851 3 8.8C3 6.14472 5.16534 4 7.84615 4C9.55336 4 10.9405 4.9127 11.8495 6.09911L12 6.29464C12.0459 6.23478 12.0959 6.17021 12.1496 6.1L12.3263 5.88036C13.2339 4.80236 14.5532 4 16.1538 4C18.8347 4 21 6.14472 21 8.8Z" fill="currentColor" />
</svg>