<svg xmlns="http://www.w3.org/2000/svg" width="24" height="24" viewBox="0 0 16 16" fill="none">
  <path fill-rule="evenodd" clip-rule="evenodd" d="M3.4875 3.48714V12.5128H12.5131V3.48714H3.4875ZM2.88328 2.88292C3.02177 2.74443 3.2096 2.66663 3.40545 2.66663H12.5952C12.791 2.66663 12.9789 2.74443 13.1174 2.88292C13.2559 3.02141 13.3337 3.20924 13.3337 3.40509V12.5948C13.3337 12.7907 13.2559 12.9785 13.1174 13.117C12.9789 13.2555 12.791 13.3333 12.5952 13.3333H3.40545C3.2096 13.3333 3.02177 13.2555 2.88328 13.117C2.74479 12.9785 2.66699 12.7907 2.66699 12.5948V3.40509C2.66699 3.20924 2.74479 3.0214 2.88328 2.88292ZM7.09481 5.59483C6.90638 5.75471 6.76956 5.99847 6.76956 6.35893C6.76956 6.58551 6.58588 6.76919 6.3593 6.76919C6.13272 6.76919 5.94904 6.58551 5.94904 6.35893C5.94904 5.76214 6.18829 5.28794 6.56396 4.96919C6.93071 4.658 7.4051 4.51278 7.86357 4.51278C8.32205 4.51278 8.79643 4.658 9.16319 4.96919C9.53886 5.28794 9.7781 5.76214 9.7781 6.35893C9.7781 6.77787 9.67079 7.09711 9.49553 7.36001C9.34824 7.58093 9.15685 7.75173 9.00627 7.88611C8.98983 7.90078 8.97389 7.91501 8.95853 7.92883C8.79051 8.08006 8.66386 8.20472 8.57103 8.36872C8.48222 8.52562 8.41058 8.74481 8.41058 9.09398C8.41058 9.32055 8.2269 9.50423 8.00033 9.50423C7.77375 9.50423 7.59007 9.32055 7.59007 9.09398C7.59007 8.62263 7.68937 8.26062 7.85697 7.96453C8.02055 7.67554 8.23578 7.47542 8.40964 7.31895C8.42313 7.30681 8.4363 7.29498 8.44915 7.28344C8.61337 7.13594 8.72652 7.03432 8.81282 6.90487C8.89396 6.78315 8.95759 6.62375 8.95759 6.35893C8.95759 5.99847 8.82076 5.75471 8.63233 5.59483C8.43499 5.42739 8.15724 5.33329 7.86357 5.33329C7.56991 5.33329 7.29216 5.42739 7.09481 5.59483ZM8.28177 10.9779C8.44942 11.1303 8.46177 11.3898 8.30935 11.5574L8.30388 11.5635C8.15147 11.7311 7.892 11.7435 7.72435 11.591C7.5567 11.4386 7.54435 11.1792 7.69677 11.0115L7.70224 11.0055C7.85465 10.8378 8.11412 10.8255 8.28177 10.9779Z" fill="currentColor" />
</svg>