<svg xmlns="http://www.w3.org/2000/svg" width="24" height="24" viewBox="0 0 24 24" fill="none">
  <path fill-rule="evenodd" clip-rule="evenodd" d="M11.5649 4.18024C11.8052 3.93992 12.1948 3.93992 12.4351 4.18024L19.8198 11.5649C20.0601 11.8052 20.0601 12.1948 19.8198 12.4351C19.5794 12.6755 19.1898 12.6755 18.9495 12.4351L18.359 11.8446V18.5641C18.359 18.9449 18.2077 19.3102 17.9384 19.5794C17.6691 19.8487 17.3039 20 16.9231 20H7.07692C6.6961 20 6.33087 19.8487 6.06159 19.5794C5.79231 19.3102 5.64103 18.9449 5.64103 18.5641V11.8446L5.05053 12.4351C4.8102 12.6755 4.42056 12.6755 4.18024 12.4351C3.93992 12.1948 3.93992 11.8052 4.18024 11.5649L11.5649 4.18024ZM6.87179 10.6139V18.5641C6.87179 18.6185 6.89341 18.6707 6.93188 18.7092C6.97034 18.7476 7.02252 18.7692 7.07692 18.7692H9.53846C9.59287 18.7692 9.64504 18.7476 9.68351 18.7092C9.72198 18.6707 9.74359 18.6185 9.74359 18.5641V15.2821C9.74359 14.9012 9.89487 14.536 10.1642 14.2667C10.4334 13.9974 10.7987 13.8462 11.1795 13.8462H12.8205C13.2013 13.8462 13.5666 13.9974 13.8358 14.2667C14.1051 14.536 14.2564 14.9012 14.2564 15.2821V18.5641C14.2564 18.6185 14.278 18.6707 14.3165 18.7092C14.355 18.7476 14.4071 18.7692 14.4615 18.7692H16.9231C16.9775 18.7692 17.0297 18.7476 17.0681 18.7092C17.1066 18.6707 17.1282 18.6185 17.1282 18.5641V10.6139L12 5.48567L6.87179 10.6139ZM13.0404 18.7692C13.0306 18.7017 13.0256 18.6332 13.0256 18.5641V15.2821C13.0256 15.2276 13.004 15.1755 12.9656 15.137C12.9271 15.0985 12.8749 15.0769 12.8205 15.0769H11.1795C11.1251 15.0769 11.0729 15.0985 11.0344 15.137C10.996 15.1755 10.9744 15.2276 10.9744 15.2821V18.5641C10.9744 18.6332 10.9694 18.7017 10.9596 18.7692H13.0404Z" fill="currentColor" />
</svg>