<svg xmlns="http://www.w3.org/2000/svg" width="24" height="24" viewBox="0 0 24 24" fill="none">
  <path d="M5.01086 19.4869C4.92796 19.4696 4.84935 19.4366 4.77952 19.3897C4.70968 19.3427 4.65 19.2828 4.60388 19.2133C4.55776 19.1438 4.5261 19.066 4.51071 18.9846C4.49533 18.9031 4.49652 18.8195 4.51422 18.7384L6.87162 7.83672L8.33378 13.6741L9.57408 10.4029L11.8831 12.7611L14.3882 4.5L16.2806 11.8985L17.5447 10.9464L20.9437 18.3488C20.9783 18.4244 20.9974 18.5059 20.9997 18.5887C21.0021 18.6715 20.9878 18.7539 20.9576 18.8313C20.9274 18.9086 20.8819 18.9794 20.8236 19.0396C20.7654 19.0998 20.6957 19.1482 20.6184 19.182C20.541 19.2158 20.4576 19.2344 20.3729 19.2368C20.2883 19.2391 20.2039 19.2251 20.1248 19.1955C20.0456 19.166 19.9732 19.1215 19.9117 19.0646C19.8501 19.0077 19.8006 18.9395 19.766 18.8639L17.0378 12.9193L15.5066 14.0707L14.2837 9.28124L12.4887 15.2037L10.0668 12.7296L8.08031 17.9717L6.9645 13.5057L5.7758 18.9976C5.75854 19.0789 5.72502 19.1561 5.67715 19.2247C5.62928 19.2933 5.56802 19.352 5.49688 19.3974C5.42574 19.4428 5.34613 19.4741 5.26261 19.4893C5.17909 19.5045 5.09332 19.5035 5.01021 19.4862L5.01086 19.4869Z" fill="currentColor" />
</svg>