<svg xmlns="http://www.w3.org/2000/svg" width="24" height="24" viewBox="0 0 24 24" fill="none">
  <path d="M13 10.4459C13 10.2868 12.9262 10.1342 12.795 10.0217C12.6637 9.90916 12.4857 9.84595 12.3 9.84595H6.7C6.51435 9.84595 6.3363 9.90916 6.20503 10.0217C6.07375 10.1342 6 10.2868 6 10.4459C6 10.6051 6.07375 10.7577 6.20503 10.8702C6.3363 10.9827 6.51435 11.0459 6.7 11.0459H12.3C12.4857 11.0459 12.6637 10.9827 12.795 10.8702C12.9262 10.7577 13 10.6051 13 10.4459ZM12.0667 12.8459C12.0667 12.6868 11.9929 12.5342 11.8616 12.4217C11.7304 12.3092 11.5523 12.2459 11.3667 12.2459H6.7C6.51435 12.2459 6.3363 12.3092 6.20503 12.4217C6.07375 12.5342 6 12.6868 6 12.8459C6 13.0051 6.07375 13.1577 6.20503 13.2702C6.3363 13.3827 6.51435 13.4459 6.7 13.4459H11.3667C11.5523 13.4459 11.7304 13.3827 11.8616 13.2702C11.9929 13.1577 12.0667 13.0051 12.0667 12.8459ZM12.3 14.6459C12.4857 14.6459 12.6637 14.7092 12.795 14.8217C12.9262 14.9342 13 15.0868 13 15.2459C13 15.4051 12.9262 15.5577 12.795 15.6702C12.6637 15.7827 12.4857 15.8459 12.3 15.8459H6.7C6.51435 15.8459 6.3363 15.7827 6.20503 15.6702C6.07375 15.5577 6 15.4051 6 15.2459C6 15.0868 6.07375 14.9342 6.20503 14.8217C6.3363 14.7092 6.51435 14.6459 6.7 14.6459H12.3Z" fill="currentColor" />
  <path d="M6.46154 20.8459H18.4615C19.1348 20.8459 19.7804 20.5841 20.2565 20.1179C20.7326 19.6518 21 19.0196 21 18.3604V13.3892C21 13.2094 20.9271 13.037 20.7972 12.9099C20.6674 12.7827 20.4913 12.7113 20.3077 12.7113H17.3077V5.65497C17.3077 4.3688 15.8225 3.62041 14.7535 4.36789L14.592 4.48087C14.2383 4.72674 13.8151 4.85852 13.3813 4.85788C12.9475 4.85723 12.5247 4.72418 12.1717 4.47726C11.5824 4.06661 10.8771 3.84595 10.1538 3.84595C9.43057 3.84595 8.72527 4.06661 8.136 4.47726C7.78303 4.72418 7.36023 4.85723 6.92644 4.85788C6.49264 4.85852 6.06943 4.72674 5.71569 4.48087L5.55415 4.36789C4.48523 3.62041 3 4.36789 3 5.65497V17.4565C3 18.3555 3.3647 19.2176 4.01386 19.8532C4.66303 20.4888 5.54348 20.8459 6.46154 20.8459ZM8.94092 5.57995C9.29534 5.3336 9.71921 5.20126 10.1538 5.20126C10.5885 5.20126 11.0124 5.3336 11.3668 5.57995C11.9545 5.99131 12.6587 6.21284 13.3811 6.21365C14.1035 6.21446 14.8082 5.99451 15.3969 5.58447L15.5585 5.47149C15.5929 5.44746 15.6335 5.43317 15.6757 5.43019C15.7179 5.4272 15.7602 5.43565 15.7978 5.45459C15.8354 5.47353 15.867 5.50224 15.8891 5.53758C15.9112 5.57292 15.923 5.61353 15.9231 5.65497V18.3604C15.9231 18.7671 16.0228 19.1512 16.2 19.4902H6.46154C5.9107 19.4902 5.38243 19.2759 4.99293 18.8945C4.60343 18.5131 4.38462 17.9959 4.38462 17.4565V5.65497C4.38473 5.61353 4.39647 5.57292 4.41857 5.53758C4.44066 5.50224 4.47226 5.47353 4.5099 5.45459C4.54754 5.43565 4.58978 5.4272 4.63199 5.43019C4.6742 5.43317 4.71476 5.44746 4.74923 5.47149L4.91077 5.58447C5.49946 5.99451 6.20415 6.21446 6.92658 6.21365C7.64902 6.21284 8.3532 5.99131 8.94092 5.57995ZM17.3077 18.3604V14.0671H19.6154V18.3604C19.6154 18.66 19.4938 18.9474 19.2774 19.1593C19.061 19.3711 18.7676 19.4902 18.4615 19.4902C18.1555 19.4902 17.862 19.3711 17.6456 19.1593C17.4293 18.9474 17.3077 18.66 17.3077 18.3604Z" fill="currentColor" fillRule="evenodd" clipRule="evenodd" />
</svg>