<svg xmlns="http://www.w3.org/2000/svg" width="24" height="24" viewBox="0 0 24 24" fill="none">
  <path fill-rule="evenodd" clip-rule="evenodd" d="M14.1055 10.3539C14.079 10.2579 14.0737 10.1573 14.0901 10.0591L14.8269 5.63815C14.8323 5.60546 14.8306 5.57198 14.8218 5.54003C14.813 5.50808 14.7974 5.47843 14.776 5.45312C14.7546 5.42781 14.728 5.40746 14.6979 5.39348C14.6679 5.37949 14.6342 5.3722 14.6011 5.37212H14.4064C14.0676 5.372 13.7341 5.45463 13.4353 5.61443C13.1366 5.77423 12.882 6.00625 12.6941 6.28813L11.5541 5.52662C11.8672 5.05704 12.2913 4.67199 12.7888 4.40567C13.2864 4.13935 13.842 4.0009 14.4064 4.00085H14.602C14.8343 4.0009 15.0638 4.05151 15.2745 4.14918C15.4852 4.24685 15.6722 4.38924 15.8223 4.56645C15.9725 4.74366 16.0822 4.95143 16.144 5.17534C16.2057 5.39925 16.218 5.63483 16.1799 5.86395L15.5761 9.48593H18.021C18.3929 9.48591 18.7601 9.56838 19.0963 9.72741C19.4324 9.88643 19.7291 10.118 19.9649 10.4056C20.2007 10.6931 20.3699 11.0293 20.4601 11.3901C20.5503 11.7508 20.5593 12.128 20.4866 12.4927L19.1418 12.223C19.2826 11.5163 18.7432 10.8563 18.021 10.8563V10.8572H14.7666C14.667 10.8572 14.5686 10.8356 14.4783 10.7937C14.3879 10.7519 14.3078 10.6908 14.2434 10.6149C14.179 10.5389 14.132 10.4499 14.1055 10.3539ZM4.22578 9.68675C4.35436 9.55817 4.52876 9.48593 4.7106 9.48593H8.30332V9.48501C8.49147 9.48497 8.67669 9.43847 8.84255 9.34964C9.0084 9.26081 9.14976 9.13332 9.25407 8.97673L11.5532 5.52753L12.6941 6.28813L10.395 9.73733C10.0844 10.2031 9.63282 10.5448 9.11732 10.7211V18.6277H16.924C17.1884 18.628 17.4447 18.5356 17.6493 18.3681C17.8538 18.2006 17.9939 17.9673 18.0457 17.7081L18.0459 17.7081L19.1427 12.2239L20.4866 12.4936L19.3896 17.9787L19.3894 17.9786C19.2751 18.5481 18.9672 19.0605 18.5179 19.4286C18.0684 19.797 17.5052 19.9991 16.924 19.999H6.53896C5.8722 19.999 5.23276 19.7341 4.76129 19.2627C4.28983 18.7912 4.02496 18.1517 4.02496 17.485V10.1716C4.02496 9.98972 4.0972 9.81533 4.22578 9.68675ZM7.61732 18.6277V10.8572H5.39623V17.485C5.39623 18.1158 5.90817 18.6277 6.53896 18.6277H7.61732Z" fill="currentColor" />
</svg>