<svg xmlns="http://www.w3.org/2000/svg" width="24" height="24" viewBox="0 0 24 24" fill="none">
  <path d="M20 16.5C20.4142 16.5 20.75 16.8358 20.75 17.25C20.75 17.6642 20.4142 18 20 18H7.75C7.33579 18 7 17.6642 7 17.25C7 16.8358 7.33579 16.5 7.75 16.5H20ZM20 11.25C20.4142 11.25 20.75 11.5858 20.75 12C20.75 12.4142 20.4142 12.75 20 12.75H7.75C7.33579 12.75 7 12.4142 7 12C7 11.5858 7.33579 11.25 7.75 11.25H20ZM20 6C20.4142 6 20.75 6.33579 20.75 6.75C20.75 7.16421 20.4142 7.5 20 7.5H7.75C7.33579 7.5 7 7.16421 7 6.75C7 6.33579 7.33579 6 7.75 6H20Z" fill="currentColor" />
  <path d="M5 6.75C5 6.61193 4.88807 6.5 4.75 6.5C4.61193 6.5 4.5 6.61193 4.5 6.75C4.5 6.88807 4.61193 7 4.75 7C4.88807 7 5 6.88807 5 6.75ZM6 6.75C6 7.44036 5.44036 8 4.75 8C4.05964 8 3.5 7.44036 3.5 6.75C3.5 6.05964 4.05964 5.5 4.75 5.5C5.44036 5.5 6 6.05964 6 6.75Z" fill="currentColor" />
  <path d="M5 12C5 11.8619 4.88807 11.75 4.75 11.75C4.61193 11.75 4.5 11.8619 4.5 12C4.5 12.1381 4.61193 12.25 4.75 12.25C4.88807 12.25 5 12.1381 5 12ZM6 12C6 12.6904 5.44036 13.25 4.75 13.25C4.05964 13.25 3.5 12.6904 3.5 12C3.5 11.3096 4.05964 10.75 4.75 10.75C5.44036 10.75 6 11.3096 6 12Z" fill="currentColor" />
  <path d="M5 17.25C5 17.1119 4.88807 17 4.75 17C4.61193 17 4.5 17.1119 4.5 17.25C4.5 17.3881 4.61193 17.5 4.75 17.5C4.88807 17.5 5 17.3881 5 17.25ZM6 17.25C6 17.9404 5.44036 18.5 4.75 18.5C4.05964 18.5 3.5 17.9404 3.5 17.25C3.5 16.5596 4.05964 16 4.75 16C5.44036 16 6 16.5596 6 17.25Z" fill="currentColor" />
</svg>