<svg xmlns="http://www.w3.org/2000/svg" width="24" height="24" viewBox="0 0 24 24" fill="none">
  <path d="M17.2432 8.95703C17.178 7.59482 16.6282 6.30638 15.7021 5.34473C14.777 4.38414 13.5482 3.82327 12.2588 3.75684L12 3.75C10.6171 3.75 9.28475 4.32006 8.29785 5.34473C7.31006 6.37051 6.75008 7.76805 6.75 9.23047L6.75684 9.45703C6.82473 10.6132 7.40041 12.1241 8.40918 13.9775C9.33783 15.6837 10.5872 17.5939 12 19.667C13.4128 17.5939 14.6622 15.6837 15.5908 13.9775C16.6668 12.0007 17.25 10.4131 17.25 9.23047L17.2432 8.95703ZM18.7412 9.53125C18.6548 11.0518 17.9317 12.8166 16.9092 14.6953C15.805 16.724 14.284 19.0029 12.6182 21.4248L12 22.3232L11.3818 21.4248C9.71597 19.0029 8.19498 16.724 7.09082 14.6953C6.06826 12.8166 5.34516 11.0518 5.25879 9.53125L5.25 9.23047C5.25008 7.38817 5.95438 5.61574 7.2168 4.30469C8.4803 2.99259 10.2005 2.25 12 2.25L12.3359 2.25879C14.0125 2.34508 15.5986 3.07449 16.7832 4.30469C18.0456 5.61574 18.7499 7.38817 18.75 9.23047L18.7412 9.53125Z" fill="currentColor" />
  <path d="M14.2393 8.77734C14.1881 8.26236 13.96 7.77833 13.5908 7.40918C13.2217 7.04003 12.7376 6.81193 12.2227 6.76074L12 6.75C11.4033 6.75 10.8311 6.98722 10.4092 7.40918C9.98722 7.83114 9.75 8.40326 9.75 9L9.76074 9.22266C9.81193 9.73764 10.04 10.2217 10.4092 10.5908C10.8311 11.0128 11.4033 11.25 12 11.25L12.2227 11.2393C12.7376 11.1881 13.2217 10.96 13.5908 10.5908C14.0128 10.1689 14.25 9.59674 14.25 9L14.2393 8.77734ZM15.75 9C15.75 9.99456 15.3546 10.9481 14.6514 11.6514C13.992 12.3108 13.1125 12.6992 12.1855 12.7451L12 12.75C11.0054 12.75 10.0519 12.3546 9.34863 11.6514C8.68923 10.992 8.30077 10.1125 8.25488 9.18555L8.25 9C8.25 8.00544 8.64537 7.05189 9.34863 6.34863C10.0519 5.64537 11.0054 5.25 12 5.25L12.1855 5.25488C13.1125 5.30077 13.992 5.68923 14.6514 6.34863C15.3546 7.05189 15.75 8.00544 15.75 9Z" fill="currentColor" />
</svg>