<svg xmlns="http://www.w3.org/2000/svg" width="24" height="24" viewBox="0 0 24 24" fill="none">
  <path d="M9.75 5.77734V4.88867C9.75003 4.88331 9.75144 4.85733 9.79199 4.82129C9.83418 4.78386 9.9064 4.75 10 4.75H19C19.0936 4.75 19.1658 4.78386 19.208 4.82129C19.2485 4.85733 19.25 4.88331 19.25 4.88867V19.1113C19.25 19.1167 19.2485 19.1427 19.208 19.1787C19.1658 19.2161 19.0936 19.25 19 19.25H10C9.9064 19.25 9.83418 19.2161 9.79199 19.1787C9.75144 19.1427 9.75003 19.1167 9.75 19.1113V18.2227C9.75 17.8084 9.41421 17.4727 9 17.4727C8.58578 17.4727 8.25 17.8084 8.25 18.2227V19.1113C8.25012 20.0949 9.12133 20.75 10 20.75H19C19.8787 20.75 20.7499 20.0949 20.75 19.1113V4.88867C20.7499 3.90509 19.8787 3.25 19 3.25H10C9.12133 3.25 8.25012 3.90509 8.25 4.88867V5.77734C8.25 6.19156 8.58578 6.52734 9 6.52734C9.41421 6.52734 9.75 6.19156 9.75 5.77734Z" fill="currentColor" />
  <path d="M4 11.25C3.58578 11.25 3.25 11.5858 3.25 12C3.25 12.4142 3.58578 12.75 4 12.75H15C15.4142 12.75 15.75 12.4142 15.75 12C15.75 11.5858 15.4142 11.25 15 11.25H4Z" fill="currentColor" />
  <path d="M8.03027 7.96973C7.75566 7.69512 7.32094 7.67766 7.02636 7.91797L6.96972 7.96973L3.46972 11.4697L3.41796 11.5264C3.17765 11.8209 3.19512 12.2557 3.46972 12.5303L6.96972 16.0303C7.26261 16.3232 7.73737 16.3232 8.03027 16.0303C8.32316 15.7374 8.32316 15.2626 8.03027 14.9697L5.06054 12L8.03027 9.03027L8.08203 8.97363C8.32233 8.67905 8.30487 8.24433 8.03027 7.96973Z" fill="currentColor" />
</svg>