<svg xmlns="http://www.w3.org/2000/svg" width="24" height="24" viewBox="0 0 24 24" fill="none">
  <path d="M18.9515 5.22967C18.7591 5.10226 18.539 5.02518 18.3106 5.0052C18.0822 4.98523 17.8526 5.02297 17.6418 5.11511L10.7351 7.89896C10.5717 7.96764 10.3967 8.00267 10.2201 8.00207H5.79851C5.4274 8.00207 5.0715 8.15294 4.80909 8.4215C4.54667 8.69005 4.39925 9.0543 4.39925 9.43409V9.54865H3V12.9855H4.39925V13.1344C4.40802 13.5082 4.55931 13.8637 4.82077 14.1249C5.08224 14.3861 5.43315 14.5322 5.79851 14.5321L7.47761 18.1752C7.59131 18.4205 7.77031 18.628 7.99406 18.7739C8.21781 18.9198 8.47723 18.9982 8.74254 19H9.44776C9.81692 18.997 10.17 18.8448 10.43 18.5765C10.6899 18.3083 10.8358 17.9458 10.8358 17.568V14.6696L17.6418 17.4534C17.8094 17.5208 17.9878 17.5558 18.1679 17.5565C18.4473 17.5513 18.7194 17.4638 18.9515 17.3045C19.1356 17.1773 19.2875 17.007 19.3945 16.8078C19.5016 16.6086 19.5608 16.3861 19.5672 16.1589V6.40966C19.5661 6.17655 19.5095 5.94721 19.4022 5.74157C19.2949 5.53594 19.1402 5.36022 18.9515 5.22967ZM9.43657 9.43409V13.1344H5.79851V9.43409H9.43657ZM9.43657 17.568H8.73134L7.35448 14.5321H9.43657V17.568ZM11.25 13.3063C11.1171 13.2368 10.9785 13.1793 10.8358 13.1344V9.3539C10.9771 9.32384 11.1156 9.28169 11.25 9.22788L18.1679 6.40966V16.1245L11.25 13.3063ZM19.6007 9.83506V12.6991C19.9719 12.6991 20.3278 12.5482 20.5902 12.2797C20.8526 12.0111 21 11.6469 21 11.2671C21 10.8873 20.8526 10.523 20.5902 10.2545C20.3278 9.98593 19.9719 9.83506 19.6007 9.83506Z" fill="currentColor" />
</svg>