<svg xmlns="http://www.w3.org/2000/svg" width="24" height="24" viewBox="0 0 24 24" fill="none">
  <path fill-rule="evenodd" clip-rule="evenodd" d="M8.75 6.5C8.75 5.63805 9.09241 4.8114 9.7019 4.2019C10.3114 3.59241 11.138 3.25 12 3.25C12.862 3.25 13.6886 3.59241 14.2981 4.2019C14.9076 4.8114 15.25 5.63805 15.25 6.5L15.25 12.5C15.25 13.362 14.9076 14.1886 14.2981 14.7981C13.6886 15.4076 12.862 15.75 12 15.75C11.138 15.75 10.3114 15.4076 9.7019 14.7981C9.09241 14.1886 8.75 13.362 8.75 12.5L8.75 6.5ZM12 4.75C11.5359 4.75 11.0908 4.93437 10.7626 5.26256C10.4344 5.59075 10.25 6.03587 10.25 6.5L10.25 12.5C10.25 12.9641 10.4344 13.4092 10.7626 13.7374C11.0908 14.0656 11.5359 14.25 12 14.25C12.4641 14.25 12.9092 14.0656 13.2374 13.7374C13.5656 13.4092 13.75 12.9641 13.75 12.5L13.75 6.5C13.75 6.03587 13.5656 5.59075 13.2374 5.26256C12.9092 4.93437 12.4641 4.75 12 4.75ZM7 11.75C7.19891 11.75 7.38968 11.829 7.53033 11.9697C7.67098 12.1103 7.75 12.3011 7.75 12.5C7.75 13.6272 8.19777 14.7082 8.9948 15.5052C9.79183 16.3022 10.8728 16.75 12 16.75C13.1272 16.75 14.2082 16.3022 15.0052 15.5052C15.8022 14.7082 16.25 13.6272 16.25 12.5C16.25 12.3011 16.329 12.1103 16.4697 11.9697C16.6103 11.829 16.8011 11.75 17 11.75C17.1989 11.75 17.3897 11.829 17.5303 11.9697C17.671 12.1103 17.75 12.3011 17.75 12.5C17.75 13.8951 17.2428 15.2426 16.3229 16.2915C15.403 17.3404 14.1332 18.019 12.75 18.201V19.25H15C15.1989 19.25 15.3897 19.329 15.5303 19.4697C15.671 19.6103 15.75 19.8011 15.75 20C15.75 20.1989 15.671 20.3897 15.5303 20.5303C15.3897 20.671 15.1989 20.75 15 20.75H9C8.80109 20.75 8.61032 20.671 8.46967 20.5303C8.32902 20.3897 8.25 20.1989 8.25 20C8.25 19.8011 8.32902 19.6103 8.46967 19.4697C8.61032 19.329 8.80109 19.25 9 19.25H11.25V18.201C9.86681 18.019 8.59695 17.3404 7.67706 16.2915C6.75716 15.2426 6.24997 13.8951 6.25 12.5C6.25 12.3011 6.32902 12.1103 6.46967 11.9697C6.61032 11.829 6.80109 11.75 7 11.75Z" fill="currentColor" />
</svg>