<svg xmlns="http://www.w3.org/2000/svg" width="24" height="24" viewBox="0 0 24 24" fill="none">
  <path d="M12 13C11.4696 13 10.9609 13.2107 10.5858 13.5858C10.2107 13.9609 10 14.4696 10 15C10 15.5304 10.2107 16.0391 10.5858 16.4142C10.9609 16.7893 11.4696 17 12 17C12.5304 17 13.0391 16.7893 13.4142 16.4142C13.7893 16.0391 14 15.5304 14 15C14 14.4696 13.7893 13.9609 13.4142 13.5858C13.0391 13.2107 12.5304 13 12 13ZM11.1429 15C11.1429 14.7727 11.2332 14.5547 11.3939 14.3939C11.5547 14.2332 11.7727 14.1429 12 14.1429C12.2273 14.1429 12.4453 14.2332 12.6061 14.3939C12.7668 14.5547 12.8571 14.7727 12.8571 15C12.8571 15.2273 12.7668 15.4453 12.6061 15.6061C12.4453 15.7668 12.2273 15.8571 12 15.8571C11.7727 15.8571 11.5547 15.7668 11.3939 15.6061C11.2332 15.4453 11.1429 15.2273 11.1429 15Z" />
  <path d="M16.2103 6.6709L13.7882 3.32935L4.88229 10.3303L4.38857 10.3251V10.3326H4V19.3293H20V10.3326H19.267L17.8088 6.13484L16.2103 6.6709ZM17.6571 10.3326H10.0168L15.7074 8.42377L16.867 8.05865L17.6571 10.3326ZM14.7048 7.17621L8.83048 9.14651L13.4827 5.48932L14.7048 7.17621ZM5.52381 16.4571V13.2033C5.84547 13.0916 6.13764 12.9105 6.3789 12.6732C6.62016 12.4359 6.8044 12.1485 6.9181 11.832H17.0819C17.1955 12.1486 17.3797 12.4362 17.621 12.6736C17.8622 12.911 18.1545 13.0923 18.4762 13.204V16.4579C18.1545 16.5697 17.8622 16.7509 17.621 16.9883C17.3797 17.2257 17.1955 17.5133 17.0819 17.8299H6.91962C6.80547 17.5133 6.62093 17.2257 6.37944 16.9882C6.13796 16.7507 5.84564 16.5693 5.52381 16.4571Z" />
</svg>