<svg xmlns="http://www.w3.org/2000/svg" width="24" height="24" viewBox="0 0 24 24" fill="none">
  <g>
    <path d="M9.28211 14.8278L9.13902 15.2942C9.12246 15.3481 9.11404 15.4043 9.11404 15.4607V19.5727C9.11404 19.9242 8.8291 20.2091 8.4776 20.2091H4.70834C4.35684 20.2091 4.0719 19.9242 4.0719 19.5727V15.6898C4.0719 15.3383 4.35684 15.0533 4.70834 15.0533H8.7107C8.7688 15.0533 8.82619 15.0406 8.87884 15.016L9.28211 14.8278Z" fill="currentColor" />
    <path d="M14.6851 9.19659L14.5421 9.66298C14.5255 9.71695 14.5171 9.77309 14.5171 9.82955V14.2144C14.5171 14.2456 14.5257 14.2763 14.5419 14.303L14.7415 14.631L14.2019 14.578H9.80516C9.77782 14.578 9.75089 14.5845 9.72664 14.5971L9.28211 14.8278L9.46323 14.3659C9.47097 14.3461 9.47494 14.325 9.47494 14.3038V10.0586C9.47494 9.7071 9.75988 9.42215 10.1114 9.42215H14.1137C14.1718 9.42215 14.2292 9.40942 14.2819 9.38484L14.6851 9.19659Z" fill="currentColor" />
    <path d="M14.6694 9.2173L14.8125 8.75091C14.829 8.69694 14.8374 8.6408 14.8374 8.58434V4.47238C14.8374 4.12088 15.1224 3.83594 15.4739 3.83594H19.2431C19.5946 3.83594 19.8796 4.12088 19.8796 4.47238V8.35529C19.8796 8.70679 19.5946 8.99173 19.2431 8.99173H15.2408C15.1827 8.99173 15.1253 9.00447 15.0726 9.02905L14.6694 9.2173Z" fill="currentColor" />
    <path d="M14.7415 14.631L14.8846 15.0975C14.9012 15.1515 14.9096 15.2076 14.9096 15.264V19.376C14.9096 19.7275 15.1945 20.2091 15.546 20.2091H19.3153C19.6668 20.2091 19.9517 19.7275 19.9517 19.376V15.4931C19.9517 15.1416 19.6668 14.8567 19.3153 14.8567H15.3129C15.2548 14.8567 15.1974 14.8439 15.1448 14.8193L14.7415 14.631Z" fill="currentColor" />
  </g>
</svg>