<svg xmlns="http://www.w3.org/2000/svg" width="24" height="24" viewBox="0 0 24 24" fill="none">
  <path d="M3.5 10.808C3.5 12.2133 4.14419 13.3573 5.23819 14.28C6.33152 15.2033 7.23533 15.5867 8.714 15.6661L7.012 14.28C6.91866 14.1867 6.86866 14.0727 6.862 13.938C6.85533 13.8047 6.90366 13.6827 7.007 13.572C7.12033 13.462 7.24066 13.407 7.368 13.407C7.49533 13.407 7.61433 13.462 7.725 13.572L10.088 15.935C10.25 16.097 10.331 16.2857 10.331 16.501C10.331 16.7163 10.2503 16.9047 10.089 17.066L7.719 19.436C7.62566 19.5293 7.511 19.5793 7.375 19.586C7.239 19.5927 7.11466 19.5393 7.002 19.426C6.898 19.322 6.846 19.2073 6.846 19.082C6.846 18.9567 6.89933 18.8387 7.006 18.728L8.714 17.008C6.96 16.924 5.441 16.325 4.157 15.211C2.873 14.097 2.23066 12.6933 2.23 11C2.22933 9.30667 2.838 7.88333 4.056 6.73C5.274 5.57667 6.794 5 8.5 5C10.206 5 10 5 10 5C10 5 10.2607 5.048 10.356 5.144C10.4513 5.24 10.4993 5.359 10.5 5.501C10.5007 5.643 10.4527 5.76167 10.356 5.857C10.2593 5.95233 10.1407 6 10 6C10 6 9.38399 6.12672 8.442 6.12672C7.5 6.12672 6.02667 6.538 5 7.5C3.97333 8.462 3.5 9.39867 3.5 10.808ZM14.316 19C14.0787 19 13.8833 18.9227 13.73 18.768C13.5767 18.6133 13.5 18.4213 13.5 18.192V14.008C13.5 13.7707 13.5773 13.5753 13.732 13.422C13.8873 13.2687 14.0793 13.192 14.308 13.192H20.184C20.4213 13.192 20.6167 13.2697 20.77 13.425C20.9233 13.5803 21 13.772 21 14V18.185C21 18.4223 20.9227 18.6173 20.768 18.77C20.6133 18.9227 20.4213 18.9993 20.192 19H14.316ZM14.316 10.808C14.0787 10.808 13.8833 10.7307 13.73 10.576C13.5767 10.4213 13.5 10.2293 13.5 10V5.815C13.5 5.57833 13.5773 5.38333 13.732 5.23C13.8867 5.07667 14.0787 5 14.308 5H20.184C20.4213 5 20.6167 5.07733 20.77 5.232C20.9233 5.38667 21 5.57867 21 5.808V9.993C21 10.2297 20.9227 10.4247 20.768 10.578C20.6127 10.7313 20.4207 10.808 20.192 10.808H14.316ZM15 9.5H19.5V6.5H15V9.5Z" fill="currentColor" />
</svg>