<svg xmlns="http://www.w3.org/2000/svg" width="24" height="24" viewBox="0 0 24 24" fill="none">
  <path d="M5.41176 6.82353C6.19146 6.82353 6.82353 6.19146 6.82353 5.41176C6.82353 4.63207 6.19146 4 5.41176 4C4.63207 4 4 4.63207 4 5.41176C4 6.19146 4.63207 6.82353 5.41176 6.82353Z" fill="currentColor" />
  <path d="M12 6.82353C12.7797 6.82353 13.4118 6.19146 13.4118 5.41176C13.4118 4.63207 12.7797 4 12 4C11.2203 4 10.5882 4.63207 10.5882 5.41176C10.5882 6.19146 11.2203 6.82353 12 6.82353Z" fill="currentColor" />
  <path d="M18.5882 6.82353C19.3679 6.82353 20 6.19146 20 5.41176C20 4.63207 19.3679 4 18.5882 4C17.8085 4 17.1765 4.63207 17.1765 5.41176C17.1765 6.19146 17.8085 6.82353 18.5882 6.82353Z" fill="currentColor" />
  <path d="M5.41176 13.4118C6.19146 13.4118 6.82353 12.7797 6.82353 12C6.82353 11.2203 6.19146 10.5882 5.41176 10.5882C4.63207 10.5882 4 11.2203 4 12C4 12.7797 4.63207 13.4118 5.41176 13.4118Z" fill="currentColor" />
  <path d="M12 13.4118C12.7797 13.4118 13.4118 12.7797 13.4118 12C13.4118 11.2203 12.7797 10.5882 12 10.5882C11.2203 10.5882 10.5882 11.2203 10.5882 12C10.5882 12.7797 11.2203 13.4118 12 13.4118Z" fill="currentColor" />
  <path d="M18.5882 13.4118C19.3679 13.4118 20 12.7797 20 12C20 11.2203 19.3679 10.5882 18.5882 10.5882C17.8085 10.5882 17.1765 11.2203 17.1765 12C17.1765 12.7797 17.8085 13.4118 18.5882 13.4118Z" fill="currentColor" />
  <path d="M5.41176 20C6.19146 20 6.82353 19.3679 6.82353 18.5882C6.82353 17.8085 6.19146 17.1765 5.41176 17.1765C4.63207 17.1765 4 17.8085 4 18.5882C4 19.3679 4.63207 20 5.41176 20Z" fill="currentColor" />
  <path d="M12 20C12.7797 20 13.4118 19.3679 13.4118 18.5882C13.4118 17.8085 12.7797 17.1765 12 17.1765C11.2203 17.1765 10.5882 17.8085 10.5882 18.5882C10.5882 19.3679 11.2203 20 12 20Z" fill="currentColor" />
  <path d="M18.5882 20C19.3679 20 20 19.3679 20 18.5882C20 17.8085 19.3679 17.1765 18.5882 17.1765C17.8085 17.1765 17.1765 17.8085 17.1765 18.5882C17.1765 19.3679 17.8085 20 18.5882 20Z" fill="currentColor" />
</svg>