<svg xmlns="http://www.w3.org/2000/svg" width="24" height="24" viewBox="0 0 20 20" fill="none">
  <path d="M3.75 5L3.81429 5.00326C4.12926 5.03544 4.375 5.30153 4.375 5.625V13.75C4.72018 13.75 5 14.0298 5 14.375C5 14.7202 4.72018 15 4.375 15H3.125C2.77982 15 2.5 14.7202 2.5 14.375C2.5 14.0298 2.77982 13.75 3.125 13.75V6.25C2.77982 6.25 2.5 5.97018 2.5 5.625C2.5 5.27982 2.77982 5 3.125 5H3.75ZM11.25 5C11.5952 5 11.875 5.27982 11.875 5.625V10C11.875 10.3452 11.5952 10.625 11.25 10.625H7.5V13.75H11.25C11.5952 13.75 11.875 14.0298 11.875 14.375C11.875 14.7202 11.5952 15 11.25 15H6.875C6.52982 15 6.25 14.7202 6.25 14.375V10C6.25 9.65482 6.52982 9.375 6.875 9.375H10.625V6.25H6.875C6.52982 6.25 6.25 5.97018 6.25 5.625C6.25 5.27982 6.52982 5 6.875 5H11.25ZM17.5 5C17.8452 5 18.125 5.27982 18.125 5.625V14.375C18.125 14.7202 17.8452 15 17.5 15H13.75C13.4048 15 13.125 14.7202 13.125 14.375C13.125 14.0298 13.4048 13.75 13.75 13.75H16.875V10.625H14.375C14.0298 10.625 13.75 10.3452 13.75 10C13.75 9.65482 14.0298 9.375 14.375 9.375H16.875V6.25H13.75C13.4048 6.25 13.125 5.97018 13.125 5.625C13.125 5.27982 13.4048 5 13.75 5H17.5Z" fill="currentColor" />
</svg>