<svg xmlns="http://www.w3.org/2000/svg" width="24" height="24" viewBox="0 0 24 24" fill="none">
  <path d="M2.87903 17V9.5H0.75V7H5.00806V17H2.87903ZM7.84677 17V12.8333C7.84677 12.3611 7.98303 11.9656 8.25555 11.6467C8.52806 11.3278 8.86492 11.1678 9.26613 11.1667H12.1048V9.5H7.84677V7H12.8145C13.2167 7 13.554 7.16 13.8265 7.48C14.099 7.8 14.2348 8.19555 14.2339 8.66667V11.1667C14.2339 11.6389 14.0976 12.035 13.8251 12.355C13.5526 12.675 13.2157 12.8344 12.8145 12.8333H9.9758V14.5H14.2339V17H7.84677ZM16.3629 17V14.5H20.621V12.8333H17.7823V11.1667H20.621V9.5H16.3629V7H21.3306C21.7328 7 22.0701 7.16 22.3426 7.48C22.6152 7.8 22.7509 8.19555 22.75 8.66667V15.3333C22.75 15.8056 22.6137 16.2017 22.3412 16.5217C22.0687 16.8417 21.7318 17.0011 21.3306 17H16.3629Z" fill="currentColor" />
</svg>