<svg xmlns="http://www.w3.org/2000/svg" width="24" height="24" viewBox="0 0 16 16" fill="none">
  <path d="M2.66602 11.6584V4.34416C2.66602 3.89961 2.84274 3.47339 3.15709 3.15904C3.47143 2.84469 3.89765 2.66797 4.34221 2.66797H6.7803C7.03277 2.66797 7.23744 2.87264 7.23744 3.12511C7.23744 3.37758 7.03277 3.58225 6.7803 3.58225H4.34221C4.14014 3.58225 3.9464 3.66258 3.80352 3.80547C3.66063 3.94835 3.5803 4.14209 3.5803 4.34416V11.6584L3.58387 11.734C3.60124 11.9084 3.67856 12.0722 3.80352 12.1971C3.9464 12.34 4.14014 12.4203 4.34221 12.4203H11.6565C11.8586 12.4203 12.0523 12.34 12.1952 12.1971C12.3381 12.0542 12.4184 11.8605 12.4184 11.6584V9.22035C12.4184 8.96788 12.6231 8.76321 12.8755 8.76321C13.128 8.76321 13.3327 8.96788 13.3327 9.22035V11.6584C13.3327 12.103 13.156 12.5292 12.8416 12.8436C12.5273 13.1579 12.101 13.3346 11.6565 13.3346H4.34221C3.89765 13.3346 3.47143 13.1579 3.15709 12.8436C2.88199 12.5685 2.71241 12.2077 2.67435 11.8239L2.66602 11.6584ZM13.3327 6.17273C13.3327 6.4252 13.128 6.62987 12.8755 6.62987C12.6231 6.62987 12.4184 6.4252 12.4184 6.17273V4.22868L8.32256 8.32452C8.14404 8.50304 7.85466 8.50304 7.67613 8.32452C7.49761 8.14599 7.49761 7.85661 7.67613 7.67809L11.772 3.58225H9.82792C9.57545 3.58225 9.37078 3.37758 9.37078 3.12511C9.37078 2.87264 9.57545 2.66797 9.82792 2.66797H12.8755L12.9226 2.67035C13.1529 2.69389 13.3327 2.88851 13.3327 3.12511V6.17273Z" fill="currentColor" />
</svg>