<svg xmlns="http://www.w3.org/2000/svg" width="24" height="24" viewBox="0 0 24 24" fill="none">
  <path d="M5.28301 8.09847C5.61479 8.09847 5.83621 7.87449 5.83621 7.41698V4.13104C5.83621 3.70348 5.58067 3.42871 5.21513 3.42871C4.90876 3.42871 4.72146 3.55069 4.50874 3.72388L3.91343 4.2222C3.73447 4.36457 3.64118 4.49697 3.64118 4.71053C3.64118 4.97531 3.81978 5.15806 4.01507 5.15806C4.11743 5.15806 4.17696 5.13766 4.3218 5.01568L4.71311 4.70055H4.72146V7.41654C4.72146 7.87449 4.95123 8.09847 5.28301 8.09847ZM8.23525 6.867H19.8823C20.2736 6.867 20.5713 6.51107 20.5713 6.05312C20.5713 5.58519 20.2736 5.22881 19.8823 5.22881H8.23525C7.85229 5.22881 7.55463 5.58475 7.55463 6.05312C7.55463 6.51063 7.85229 6.867 8.23525 6.867ZM3.91343 14.2332H6.09975C6.33787 14.2332 6.50812 14.0396 6.50812 13.7549C6.50812 13.4497 6.33787 13.2566 6.09975 13.2566H4.88335V13.2262L5.58067 12.5542C6.16763 11.9847 6.38906 11.6592 6.38906 11.0589C6.38906 10.245 5.81915 9.69586 4.90005 9.69586C4.09202 9.69586 3.49635 10.2042 3.49635 10.8553C3.49635 11.1808 3.67494 11.354 3.96461 11.354C4.1599 11.354 4.29603 11.2828 4.40674 11.0489C4.5258 10.8045 4.68733 10.6721 4.91711 10.6721C5.1723 10.6721 5.34254 10.8657 5.34254 11.1504C5.34254 11.3948 5.24054 11.6084 4.80676 12.0255L3.68365 13.1237C3.52212 13.2869 3.45388 13.4701 3.45388 13.6937C3.45388 14.0092 3.63247 14.2332 3.91343 14.2332ZM8.23525 13.0217H19.8823C19.9731 13.023 20.0632 13.0026 20.1472 12.9616C20.2313 12.9207 20.3077 12.86 20.3719 12.7833C20.4361 12.7065 20.4868 12.6152 20.521 12.5146C20.5553 12.4141 20.5723 12.3064 20.5713 12.1979C20.5713 11.7399 20.2736 11.384 19.8823 11.384H8.23525C7.85229 11.384 7.55463 11.7399 7.55463 12.1979C7.55463 12.6558 7.85229 13.0217 8.23525 13.0217ZM4.92582 20.5716C5.9295 20.5716 6.53389 20.0324 6.53389 19.1782C6.53389 18.6182 6.20175 18.2319 5.61479 18.1707V18.1403C6.04857 18.0487 6.38071 17.7028 6.38071 17.1124C6.38071 16.3398 5.75091 15.9122 4.91711 15.9122C4.24521 15.9122 3.52212 16.2886 3.52212 16.9601C3.52212 17.2448 3.692 17.4484 3.9559 17.4484C4.14284 17.4484 4.22815 17.3568 4.34721 17.204C4.54286 16.9497 4.70439 16.8685 4.90876 16.8685C5.1723 16.8685 5.36795 17.0208 5.36795 17.326C5.36795 17.6112 5.1723 17.7536 4.82346 17.7536H4.72182C4.48333 17.7536 4.33015 17.8959 4.33015 18.1911C4.33015 18.4659 4.47462 18.6287 4.72146 18.6287H4.83217C5.21513 18.6287 5.41913 18.781 5.41913 19.0966C5.41913 19.3714 5.20642 19.5745 4.92546 19.5745C4.61945 19.5745 4.40674 19.3714 4.24521 19.1778C4.14284 19.0658 4.0579 18.9846 3.90472 18.9846C3.62412 18.9846 3.42847 19.1778 3.42847 19.4933C3.42847 20.1952 4.22815 20.5716 4.92582 20.5716ZM8.23525 19.1678H19.8823C20.2736 19.1678 20.5713 18.8118 20.5713 18.3539C20.5713 17.886 20.2736 17.5296 19.8823 17.5296H8.23525C7.85229 17.5296 7.55463 17.8855 7.55463 18.3539C7.55463 18.8114 7.85229 19.1678 8.23525 19.1678Z" fill="currentColor" />
</svg>