<svg xmlns="http://www.w3.org/2000/svg" width="24" height="24" viewBox="0 0 24 24" fill="none">
  <path d="M19.6154 5.07692C19.6154 4.69457 19.3054 4.38462 18.9231 4.38462H5.07692C4.69457 4.38462 4.38462 4.69457 4.38462 5.07692V18.9231C4.38462 19.3054 4.69457 19.6154 5.07692 19.6154H18.9231C19.3054 19.6154 19.6154 19.3054 19.6154 18.9231V5.07692ZM21 18.9231C21 20.0701 20.0701 21 18.9231 21H5.07692C3.92987 21 3 20.0701 3 18.9231V5.07692C3 3.92987 3.92987 3 5.07692 3H18.9231C20.0701 3 21 3.92987 21 5.07692V18.9231Z" fill="currentColor" />
  <path d="M8.07692 20.2768V8.94643H3.69231C3.30996 8.94643 3 8.62263 3 8.22321C3 7.82379 3.30996 7.5 3.69231 7.5H20.3077C20.69 7.5 21 7.82379 21 8.22321C21 8.62263 20.69 8.94643 20.3077 8.94643H9.46154V20.2768C9.46154 20.6762 9.15158 21 8.76923 21C8.38688 21 8.07692 20.6762 8.07692 20.2768Z" fill="currentColor" />
</svg>