<svg xmlns="http://www.w3.org/2000/svg" width="24" height="24" viewBox="0 0 24 24" fill="none">
  <path d="M15.1427 19.1111V5.77778H11.8198V19.1111C11.8198 19.6019 11.4191 19.9999 10.9251 20C10.4309 20 10.0303 19.602 10.0303 19.1111V15.1111H9.90188C9.01035 15.1111 7.34823 15.016 5.87819 14.3281C5.131 13.9784 4.40207 13.4611 3.86153 12.6979C3.31555 11.9269 3 10.9586 3 9.77778C3 7.35636 4.3158 5.86841 5.82314 5.03299C7.28238 4.22424 8.94635 4.00006 9.90188 4H19.1053C19.5994 4 20 4.39797 20 4.88889C20 5.37981 19.5994 5.77778 19.1053 5.77778H16.9322V19.1111C16.9322 19.602 16.5316 20 16.0375 20C15.5434 19.9999 15.1427 19.602 15.1427 19.1111ZM4.78947 9.77778C4.78947 10.6286 5.01113 11.2321 5.32509 11.6753C5.64462 12.1264 6.0994 12.4661 6.64098 12.7196C7.74806 13.2376 9.08881 13.3333 9.90188 13.3333H10.0303V5.77778H9.90188C9.15267 5.77784 7.81315 5.96632 6.69516 6.58594C5.62495 7.17909 4.78947 8.13577 4.78947 9.77778Z" fill="currentColor" />
</svg>