<svg xmlns="http://www.w3.org/2000/svg" width="24" height="24" viewBox="0 0 24 24" fill="none">
  <path d="M18.6286 10.8889H5.37143V16.1484C5.37153 16.246 5.42366 16.3866 5.54107 16.5104C5.66181 16.6376 5.77229 16.6665 5.81071 16.6667H18.1893C18.2277 16.6665 18.3382 16.6376 18.4589 16.5104C18.5763 16.3866 18.6285 16.246 18.6286 16.1484V10.8889ZM13.6875 13.704L13.758 13.7075C14.1038 13.7416 14.3732 14.0255 14.3732 14.3707C14.3731 14.7157 14.1037 14.9997 13.758 15.0339L13.6875 15.0373H9.18661C8.80809 15.0372 8.50105 14.7387 8.50089 14.3707C8.50089 14.0025 8.80799 13.7041 9.18661 13.704H13.6875ZM17.0634 13.704L17.1339 13.7075C17.4796 13.7417 17.7491 14.0255 17.7491 14.3707C17.749 14.7157 17.4796 14.9997 17.1339 15.0339L17.0634 15.0373H15.9384C15.5598 15.0373 15.2528 14.7387 15.2527 14.3707C15.2527 14.0025 15.5597 13.704 15.9384 13.704H17.0634ZM18.6286 7.85156C18.6285 7.75401 18.5763 7.61337 18.4589 7.48958C18.3382 7.36241 18.2277 7.33347 18.1893 7.33333H5.81071C5.77229 7.33347 5.66181 7.36241 5.54107 7.48958C5.42366 7.61337 5.37153 7.75401 5.37143 7.85156V9.55556H18.6286V7.85156ZM20 16.1484C19.9999 16.6433 19.7703 17.0945 19.4661 17.4149C19.1652 17.7318 18.7136 17.9999 18.1893 18H5.81071C5.28642 17.9999 4.83482 17.7318 4.53393 17.4149C4.22972 17.0945 4.00009 16.6433 4 16.1484V7.85156C4.00009 7.35672 4.22972 6.90547 4.53393 6.58507C4.83482 6.2682 5.28642 6.00009 5.81071 6H18.1893C18.7136 6.00009 19.1652 6.2682 19.4661 6.58507C19.7703 6.90547 19.9999 7.35672 20 7.85156V16.1484Z" fill="currentColor" />
</svg>