<svg xmlns="http://www.w3.org/2000/svg" width="24" height="24" viewBox="0 0 24 24" fill="none">
  <path d="M13.2 19.2C13.8365 19.2 14.4469 19.4529 14.8971 19.9029C15.3472 20.3529 15.6 20.9634 15.6 21.6C15.6 22.2365 15.3472 22.8470 14.8971 23.2971C14.4469 23.7471 13.8365 24 13.2 24C12.5635 24 11.9530 23.7471 11.5029 23.2971C11.0529 22.8470 10.8 22.2365 10.8 21.6C10.8 20.9634 11.0529 20.3529 11.5029 19.9029C11.9530 19.4529 12.5635 19.2 13.2 19.2ZM5.6892 15.6C6.48485 15.6 7.24791 15.9161 7.81052 16.4787C8.37313 17.0413 8.6892 17.8044 8.6892 18.6C8.6892 19.3956 8.37313 20.1587 7.81052 20.7213C7.24791 21.2839 6.48485 21.6 5.6892 21.6C4.89355 21.6 4.13049 21.2839 3.56788 20.7213C3.00527 20.1587 2.6892 19.3956 2.6892 18.6C2.6892 17.8044 3.00527 17.0413 3.56788 16.4787C4.13049 15.9161 4.89355 15.6 5.6892 15.6ZM19.5828 16.2C20.2193 16.2 20.8297 16.4529 21.2799 16.9029C21.7300 17.3529 21.9828 17.9634 21.9828 18.6C21.9828 19.2365 21.7300 19.8470 21.2799 20.2971C20.8297 20.7471 20.2193 21 19.5828 21C18.9463 21 18.3358 20.7471 17.8857 20.2971C17.4357 19.8470 17.1828 19.2365 17.1828 18.6C17.1828 17.9634 17.4357 17.3529 17.8857 16.9029C18.3358 16.4529 18.9463 16.2 19.5828 16.2ZM22.2 11.1828C22.6775 11.1828 23.1353 11.3724 23.4728 11.7100C23.8104 12.0476 24 12.5054 24 12.9828C24 13.4602 23.8104 13.9180 23.4728 14.2556C23.1353 14.5932 22.6775 14.7828 22.2 14.7828C21.7225 14.7828 21.2647 14.5932 20.9272 14.2556C20.5896 13.9180 20.4 13.4602 20.4 12.9828C20.4 12.5054 20.5896 12.0476 20.9272 11.7100C21.2647 11.3724 21.7225 11.1828 22.2 11.1828ZM3 7.2C3.79565 7.2 4.55871 7.51607 5.12132 8.07868C5.68393 8.64129 6 9.40435 6 10.2C6 10.9956 5.68393 11.7587 5.12132 12.3213C4.55871 12.8839 3.79565 13.2 3 13.2C2.20435 13.2 1.44129 12.8839 0.87868 12.3213C0.316071 11.7587 0 10.9956 0 10.2C0 9.40435 0.316071 8.64129 0.87868 8.07868C1.44129 7.51607 2.20435 7.2 3 7.2ZM21.3432 6.2484C21.6615 6.2484 21.9667 6.37483 22.1917 6.59987C22.4168 6.82492 22.5432 7.13014 22.5432 7.4484C22.5432 7.76666 22.4168 8.07188 22.1917 8.29693C21.9667 8.52197 21.6615 8.6484 21.3432 8.6484C21.0249 8.6484 20.7197 8.52197 20.4947 8.29693C20.2696 8.07188 20.1432 7.76666 20.1432 7.4484C20.1432 7.13014 20.2696 6.82492 20.4947 6.59987C20.7197 6.37483 21.0249 6.2484 21.3432 6.2484ZM9.6 0C10.5548 0 11.4704 0.379284 12.1456 1.05442C12.8207 1.72956 13.2 2.64522 13.2 3.6C13.2 4.55478 12.8207 5.47044 12.1456 6.14558C11.4704 6.82072 10.5548 7.2 9.6 7.2C8.64522 7.2 7.72956 6.82072 7.05442 6.14558C6.37928 5.47044 6 4.55478 6 3.6C6 2.64522 6.37928 1.72956 7.05442 1.05442C7.72956 0.379284 8.64522 0 9.6 0ZM18.6 3.6C18.7591 3.6 18.9117 3.66321 19.0242 3.77574C19.1368 3.88827 19.2 4.04086 19.2 4.2C19.2 4.35914 19.1368 4.51173 19.0242 4.62426C18.9117 4.73679 18.7591 4.8 18.6 4.8C18.4409 4.8 18.2883 4.73679 18.1758 4.62426C18.0632 4.51173 18 4.35914 18 4.2C18 4.04086 18.0632 3.88827 18.1758 3.77574C18.2883 3.66321 18.4409 3.6 18.6 3.6Z" fill="currentColor" />
</svg>