<svg xmlns="http://www.w3.org/2000/svg" width="24" height="24" viewBox="0 0 24 24" fill="none">
  <path fill="currentColor" d="M19.2764 8.05325C19.5014 7.83359 19.681 7.57157 19.8051 7.28217C19.9293 6.99277 19.9954 6.68164 19.9998 6.36657C20.0041 6.0515 19.9467 5.73864 19.8307 5.44588C19.7146 5.15311 19.5423 4.88616 19.3235 4.66029C18.8702 4.22676 18.2652 3.98972 17.6393 4.00034C17.0133 4.01097 16.4167 4.26841 15.9781 4.71707L13.5185 7.15414C13.3306 7.3414 13.0765 7.44647 12.8118 7.44647C12.547 7.44647 12.293 7.3414 12.105 7.15414L11.7893 6.83708L11.1343 7.51852L16.487 12.8943L17.1561 12.2223L16.8404 11.9052C16.6539 11.7165 16.5493 11.4613 16.5493 11.1954C16.5493 10.9295 16.6539 10.6744 16.8404 10.4856L19.2764 8.05325ZM16.1855 9.82782C15.9359 10.0779 15.7598 10.3923 15.6766 10.7364L13.2829 8.33245C13.6256 8.24885 13.9386 8.07202 14.1876 7.82138L16.6189 5.37484C16.8853 5.0971 17.2502 4.9363 17.6341 4.92744C18.018 4.91857 18.3898 5.06237 18.6686 5.32752C18.9326 5.60754 19.0758 5.98097 19.067 6.36651C19.0581 6.75205 18.898 7.11847 18.6215 7.38602L16.1855 9.82782Z" />
  <path fill="currentColor" d="M7.16696 18.2085C6.99013 18.3861 6.7503 18.4859 6.50023 18.4859C6.25016 18.4859 6.01033 18.3861 5.8335 18.2085C5.65667 18.0309 5.55733 17.79 5.55733 17.5389C5.55733 17.2877 5.65667 17.0469 5.8335 16.8693L12.4819 10.1922L11.8128 9.52496L5.16442 16.2021C4.87079 16.4932 4.68042 16.8731 4.62254 17.2835C4.56466 17.6938 4.64247 18.1119 4.84401 18.4735L4.14666 19.1739C4.10032 19.2181 4.06343 19.2713 4.03821 19.3303C4.013 19.3892 4 19.4528 4 19.5169C4 19.5811 4.013 19.6446 4.03821 19.7036C4.06343 19.7626 4.10032 19.8158 4.14666 19.86C4.19046 19.9044 4.24257 19.9396 4.29999 19.9636C4.35741 19.9876 4.419 20 4.4812 20C4.5434 20 4.60499 19.9876 4.66241 19.9636C4.71982 19.9396 4.77194 19.9044 4.81574 19.86L5.48954 19.1786C5.78467 19.3644 6.126 19.4628 6.47431 19.4625C6.72662 19.4624 6.97641 19.4122 7.2093 19.3147C7.4422 19.2173 7.6536 19.0745 7.83133 18.8947L14.4798 12.1986L13.8154 11.5314L7.16696 18.2085Z" />
</svg>