<svg xmlns="http://www.w3.org/2000/svg" width="24" height="24" viewBox="0 0 24 24" fill="none">
  <path fill-rule="evenodd" clip-rule="evenodd" d="M14.5614 4.00051C14.7331 3.99358 14.9 4.05767 15.0215 4.17725L19.8198 8.89761C19.9414 9.0172 20.0065 9.18137 19.9995 9.35034C19.9924 9.51932 19.9138 9.67769 19.7827 9.78707L15.5108 13.3512L15.7997 16.0894C15.8188 16.2708 15.7538 16.4509 15.6228 16.5798L14.2309 17.9491C13.9906 18.1855 13.6011 18.1855 13.3609 17.9491L10.1578 14.7981L5.05015 19.8227C4.80991 20.0591 4.42041 20.0591 4.18018 19.8227C3.93994 19.5864 3.93994 19.2032 4.18018 18.9669L9.28782 13.9422L5.82061 10.5313C5.70525 10.4178 5.64044 10.2639 5.64044 10.1034C5.64044 9.94288 5.70525 9.78895 5.82061 9.67546L7.21252 8.30615C7.34357 8.17724 7.5267 8.11331 7.71103 8.13214L10.4936 8.41629L14.1174 4.2137C14.2286 4.08474 14.3896 4.00743 14.5614 4.00051ZM14.6237 5.49759L11.222 9.44267C11.0906 9.595 10.8913 9.67375 10.6893 9.65313L7.87536 9.36577L7.12557 10.1034L13.7959 16.6654L14.5457 15.9277L14.2536 13.1586C14.2326 12.9599 14.3127 12.7638 14.4675 12.6346L18.4776 9.28892L14.6237 5.49759Z" fill="currentColor" />
</svg>