<svg xmlns="http://www.w3.org/2000/svg" width="24" height="24" viewBox="0 0 16 16" fill="none">
  <path d="M12.4184 7.25926H3.5803V10.7656C3.58037 10.8307 3.61512 10.9244 3.6934 11.0069C3.77389 11.0917 3.84754 11.111 3.87316 11.1111H12.1255C12.1512 11.111 12.2248 11.0917 12.3053 11.0069C12.3836 10.9244 12.4183 10.8307 12.4184 10.7656V7.25926ZM9.12435 9.136L9.17137 9.13831C9.40187 9.16108 9.58149 9.35033 9.58149 9.58044C9.58139 9.81047 9.40183 9.99982 9.17137 10.0226L9.12435 10.0249H6.12375C5.87141 10.0248 5.66672 9.82577 5.66661 9.58044C5.66661 9.33502 5.87134 9.13607 6.12375 9.136H9.12435ZM11.3749 9.136L11.422 9.13831C11.6524 9.1611 11.8321 9.35035 11.8321 9.58044C11.832 9.81046 11.6524 9.9998 11.422 10.0226L11.3749 10.0249H10.6249C10.3726 10.0249 10.1679 9.8258 10.1678 9.58044C10.1678 9.33499 10.3725 9.13602 10.6249 9.136H11.3749ZM12.4184 5.23438C12.4183 5.16934 12.3836 5.07558 12.3053 4.99306C12.2248 4.90827 12.1512 4.88898 12.1255 4.88889H3.87316C3.84754 4.88898 3.77389 4.90828 3.6934 4.99306C3.61512 5.07558 3.58037 5.16934 3.5803 5.23438V6.37037H12.4184V5.23438ZM13.3327 10.7656C13.3326 11.0955 13.1795 11.3964 12.9767 11.61C12.7761 11.8212 12.4751 11.9999 12.1255 12H3.87316C3.52363 11.9999 3.22256 11.8212 3.02197 11.61C2.81916 11.3964 2.66608 11.0955 2.66602 10.7656V5.23438C2.66608 4.90448 2.81916 4.60365 3.02197 4.39005C3.22256 4.1788 3.52363 4.00006 3.87316 4H12.1255C12.4751 4.00006 12.7761 4.1788 12.9767 4.39005C13.1795 4.60365 13.3326 4.90448 13.3327 5.23438V10.7656Z" />
</svg>