<svg xmlns="http://www.w3.org/2000/svg" width="24" height="24" viewBox="0 0 24 24" fill="none">
  <path d="M4.5 6.90455C4.5 4.68349 6.88372 3.30035 8.81019 4.3671L18.0059 9.46343H18.005C18.4571 9.7096 18.8342 10.0751 19.0969 10.5206C19.3607 10.9678 19.5 11.4795 19.5 12C19.5 12.5205 19.3607 13.0321 19.0969 13.4794C18.8342 13.9248 18.4569 14.2895 18.005 14.5357L18.0059 14.5366L8.81019 19.632C6.88333 20.7007 4.5 19.3163 4.5 17.0963V6.90455ZM5.86364 17.0963C5.86364 18.2538 7.1179 19.005 8.15234 18.4311L17.348 13.3357L17.3533 13.3321C17.5882 13.2048 17.7858 13.0141 17.9242 12.7794C18.0626 12.5446 18.1364 12.2752 18.1364 12C18.1364 11.7248 18.0626 11.4553 17.9242 11.2205C17.7858 10.9859 17.5882 10.7952 17.3533 10.6679L17.348 10.6643L8.15234 5.56797C7.1175 4.99509 5.86364 5.74663 5.86364 6.90455V17.0963Z" fill="currentColor" />
</svg>