<svg xmlns="http://www.w3.org/2000/svg" width="24" height="24" viewBox="0 0 24 24" fill="none">
  <path d="M19.6154 12C19.6154 11.7998 19.545 11.6094 19.4216 11.4601L19.3648 11.3984L15.4994 7.57292C15.3616 7.43676 15.1839 7.3559 14.9982 7.33767L14.918 7.33333H5.53756L5.42578 7.33941C5.1667 7.36562 4.92018 7.47921 4.72987 7.66753C4.51172 7.88345 4.38562 8.18016 4.38462 8.49306V15.5069L4.39093 15.6241C4.41882 15.8933 4.53909 16.1436 4.72987 16.3325C4.94739 16.5477 5.23826 16.6657 5.53756 16.6667H14.918L14.9982 16.6623C15.1839 16.6441 15.3616 16.5632 15.4994 16.4271L19.3648 12.6016L19.4216 12.5399C19.545 12.3906 19.6154 12.2002 19.6154 12ZM21 12C21 12.4998 20.8242 12.984 20.5033 13.3715L20.3573 13.5312L16.4919 17.3568C16.1294 17.7153 15.6508 17.9394 15.1388 17.9896L14.918 18H5.53305C4.85577 17.9978 4.21042 17.7302 3.73738 17.2622C3.32414 16.8531 3.07085 16.3199 3.01262 15.7552L3 15.5113V8.48872L3.01262 8.24479C3.07085 7.68013 3.32414 7.1469 3.73738 6.73785C4.21042 6.26975 4.85577 6.00219 5.53305 6H14.918L15.1388 6.01042C15.6508 6.06064 16.1294 6.28468 16.4919 6.64323L20.3573 10.4688L20.5033 10.6285C20.8242 11.016 21 11.5002 21 12Z" fill="currentColor" />
  <path d="M17.0243 11.0004C17.5764 11.0138 18.0131 11.4722 17.9997 12.0244C17.9863 12.5765 17.5278 13.0132 16.9757 12.9998C16.4236 12.9864 15.9869 12.5279 16.0003 11.9758C16.0129 11.4582 16.4164 11.0418 16.9217 11.0028L17.0243 11.0004Z" fill="currentColor" />
</svg>