<svg xmlns="http://www.w3.org/2000/svg" width="24" height="24" viewBox="0 0 24 24" fill="none">
  <path d="M4 6.02381C4 5.74767 4.22386 5.52381 4.5 5.52381H10.4C10.4 5.11967 10.5686 4.73208 10.8686 4.44631C11.1687 4.16054 11.5757 4 12 4C12.4243 4 12.8313 4.16054 13.1314 4.44631C13.4314 4.73208 13.6 5.11967 13.6 5.52381H19.5C19.7761 5.52381 20 5.74767 20 6.02381V6.54762C20 6.82376 19.7761 7.04762 19.5 7.04762H19.2V14.4286C19.2 14.9809 18.7523 15.4286 18.2 15.4286H14.6L16 20H14.4L13 15.4286H11L9.6 20H8L9.4 15.4286H5.8C5.24771 15.4286 4.8 14.9809 4.8 14.4286V7.04762H4.5C4.22386 7.04762 4 6.82376 4 6.54762V6.02381ZM6.4 7.04762V12.9048C6.4 13.457 6.84772 13.9048 7.4 13.9048H16.6C17.1523 13.9048 17.6 13.457 17.6 12.9048V7.04762H6.4Z" fill="currentColor" />
</svg>