<svg xmlns="http://www.w3.org/2000/svg" width="24" height="24" viewBox="0 0 24 24" fill="none">
  <path d="M12 14.6667C13.191 14.6667 14.3598 15.0454 15.3235 15.7586L15.502 15.8956C16.3758 16.5999 17.0249 17.5653 17.3333 18.6749L16.1636 19.1102C15.9467 18.3298 15.4777 17.6095 14.8003 17.0635L14.6619 16.957C13.9084 16.3994 12.9719 16.0892 12 16.0892C11.0888 16.0892 10.2087 16.3615 9.48135 16.8551L9.33813 16.957C8.58647 17.5139 8.06866 18.2779 7.83638 19.1111L6.66667 18.674C6.99636 17.4913 7.71211 16.4724 8.67567 15.7586L8.85969 15.6289C9.78653 14.9997 10.8835 14.6667 12 14.6667Z" fill="currentColor" />
  <path d="M13.6 10.2222C13.6 9.33857 12.8837 8.62222 12 8.62222C11.1163 8.62222 10.4 9.33857 10.4 10.2222C10.4 11.1059 11.1163 11.8222 12 11.8222C12.8837 11.8222 13.6 11.1059 13.6 10.2222ZM14.6667 10.2222C14.6667 11.695 13.4728 12.8889 12 12.8889C10.5272 12.8889 9.33333 11.695 9.33333 10.2222C9.33333 8.74946 10.5272 7.55556 12 7.55556C13.4728 7.55556 14.6667 8.74946 14.6667 10.2222Z" fill="currentColor" />
  <path d="M18.7692 7.07692C18.7692 6.05732 17.9427 5.23077 16.9231 5.23077H7.07692C6.05732 5.23077 5.23077 6.05732 5.23077 7.07692V16.9231C5.23077 17.9427 6.05732 18.7692 7.07692 18.7692H16.9231C17.9427 18.7692 18.7692 17.9427 18.7692 16.9231V7.07692ZM20 16.9231C20 18.6224 18.6224 20 16.9231 20H7.07692C5.37759 20 4 18.6224 4 16.9231V7.07692C4 5.37759 5.37759 4 7.07692 4H16.9231C18.6224 4 20 5.37759 20 7.07692V16.9231Z" fill="currentColor" />
</svg>