<svg xmlns="http://www.w3.org/2000/svg" width="24" height="24" viewBox="0 0 24 24" fill="none">
  <path d="M4.26035 3.75933C4.60749 3.41356 5.17018 3.41356 5.51732 3.75933L11.7396 9.95731C12.0868 10.3031 12.0868 10.8636 11.7396 11.2094L5.51732 17.4073C5.17018 17.7531 4.60749 17.7531 4.26035 17.4073C3.91322 17.0616 3.91322 16.5011 4.26035 16.1553L9.8542 10.5833L4.26035 5.01138C3.91322 4.6656 3.91322 4.10511 4.26035 3.75933Z" fill="currentColor" />
  <path d="M19.0769 18.6111C19.5867 18.6111 20 19.034 20 19.5556C20 20.0772 19.5867 20.5 19.0769 20.5H8.92308C8.41328 20.5 8 20.0772 8 19.5556C8 19.034 8.41328 18.6111 8.92308 18.6111H19.0769Z" fill="currentColor" />
</svg>