<svg xmlns="http://www.w3.org/2000/svg" width="24" height="24" viewBox="0 0 24 24" fill="none">
  <path d="M5.80952 10.5017C5.80952 10.2808 5.98861 10.1017 6.20952 10.1017H7.31429C7.5352 10.1017 7.71429 10.2808 7.71429 10.5017V16.3128C7.71429 16.5337 7.5352 16.7128 7.31429 16.7128H6.20952C5.98861 16.7128 5.80952 16.5337 5.80952 16.3128V10.5017ZM13.4286 13.335C13.4286 13.1141 13.6077 12.935 13.8286 12.935H14.9333C15.1542 12.935 15.3333 13.1141 15.3333 13.335V16.3128C15.3333 16.5337 15.1542 16.7128 14.9333 16.7128H13.8286C13.6077 16.7128 13.4286 16.5337 13.4286 16.3128V13.335ZM9.61905 7.66833C9.61905 7.44742 9.79813 7.26833 10.019 7.26833H11.1238C11.3447 7.26833 11.5238 7.44742 11.5238 7.66833V16.3128C11.5238 16.5337 11.3447 16.7128 11.1238 16.7128H10.019C9.79813 16.7128 9.61905 16.5337 9.61905 16.3128V7.66833ZM19.1429 7.27778V5.39682C19.1429 4.87084 18.7165 4.44444 18.1905 4.44444C17.6645 4.44444 17.2381 4.87084 17.2381 5.39683V7.27778H15.3254C14.8038 7.27778 14.381 7.70062 14.381 8.22222C14.381 8.74382 14.8038 9.16667 15.3254 9.16667H17.2381V11.0476C17.2381 11.5736 17.6645 12 18.1905 12C18.7165 12 19.1429 11.5736 19.1429 11.0476V9.16667H21.0556C21.5772 9.16667 22 8.74382 22 8.22222C22 7.70062 21.5772 7.27778 21.0556 7.27778H19.1429ZM17.5 18C17.5 18.5523 17.0523 19 16.5 19H4.5C3.94772 19 3.5 18.5523 3.5 18V6C3.5 5.44772 3.94772 5 4.5 5H14.5833C14.9975 5 15.3333 4.66421 15.3333 4.25C15.3333 3.83579 14.9975 3.5 14.5833 3.5H3.90476C2.85714 3.5 2 4.35 2 5.38889V18.6111C2 19.65 2.85714 20.5 3.90476 20.5H17.2381C18.2857 20.5 19.1429 19.65 19.1429 18.6111V14.7103C19.1429 14.2567 18.7751 13.8889 18.3214 13.8889C17.8678 13.8889 17.5 14.2567 17.5 14.7103V18Z" fill="currentColor" />
</svg>