<svg xmlns="http://www.w3.org/2000/svg" width="24" height="24" viewBox="0 0 24 24" fill="none">
  <path d="M18.7939 10.9282L15.2075 14.3757C15.0236 14.5525 14.9353 14.7587 14.9426 14.9945C14.95 15.2302 15.0459 15.4365 15.2305 15.6133C15.4144 15.7753 15.629 15.8602 15.8742 15.8678C16.1194 15.8755 16.334 15.7906 16.5179 15.6133L20.748 11.547C20.8399 11.4586 20.9052 11.3628 20.9438 11.2597C20.9825 11.1565 21.0012 11.046 20.9999 10.9282C20.9987 10.8103 20.9794 10.6998 20.942 10.5967C20.9046 10.4936 20.8396 10.3978 20.7471 10.3094L16.517 6.24309C16.3484 6.08103 16.1375 6 15.8843 6C15.6311 6 15.4132 6.08103 15.2305 6.24309C15.0466 6.41989 14.9546 6.62998 14.9546 6.87337C14.9546 7.11676 15.0466 7.32656 15.2305 7.50276L18.7939 10.9282ZM13.2764 11.8122L10.6096 14.3757C10.4256 14.5525 10.3374 14.7587 10.3447 14.9945C10.3521 15.2302 10.448 15.4365 10.6326 15.6133C10.8165 15.7753 11.031 15.8602 11.2763 15.8678C11.5215 15.8755 11.7361 15.7906 11.92 15.6133L16.1501 11.547C16.242 11.4586 16.3073 11.3628 16.3459 11.2597C16.3846 11.1565 16.4032 11.046 16.402 10.9282C16.4008 10.8103 16.3815 10.6998 16.3441 10.5967C16.3067 10.4936 16.2417 10.3978 16.1491 10.3094L11.919 6.24309C11.7505 6.08103 11.5396 6 11.2864 6C11.0332 6 10.8149 6.08103 10.6316 6.24309C10.4477 6.41989 10.3558 6.62998 10.3558 6.87337C10.3558 7.11676 10.4477 7.32656 10.6316 7.50276L13.2764 10.0442H7.59792C6.32583 10.0442 5.24133 10.4753 4.34443 11.3375C3.44753 12.1996 2.99939 13.2418 3 14.4641V17.116C3 17.3665 3.08828 17.5766 3.26484 17.7463C3.4414 17.916 3.65965 18.0006 3.91958 18C4.17952 17.9994 4.39777 17.9145 4.57433 17.7454C4.75089 17.5763 4.83917 17.3665 4.83917 17.116V14.4641C4.83917 13.7274 5.10738 13.1013 5.6438 12.5856C6.18023 12.07 6.8316 11.8122 7.59792 11.8122H13.2764Z" fill="currentColor" />
</svg>