<svg xmlns="http://www.w3.org/2000/svg" width="24" height="24" viewBox="0 0 24 24" fill="none">
  <path d="M17.4436 6.02419H17.3407V7.23387H17.4436C17.604 7.23387 17.7578 7.2976 17.8712 7.41102C17.9847 7.52445 18.0484 7.6783 18.0484 7.83871V19.9355C18.0484 20.0959 17.9847 20.2497 17.8712 20.3632C17.7578 20.4766 17.604 20.5403 17.4436 20.5403H6.55646C6.39605 20.5403 6.2422 20.4766 6.12877 20.3632C6.01534 20.2497 5.95162 20.0959 5.95162 19.9355V7.83871C5.95162 7.6783 6.01534 7.52445 6.12877 7.41102C6.2422 7.2976 6.39605 7.23387 6.55646 7.23387H6.65928V6.02419H6.55646C6.07522 6.02419 5.61369 6.21537 5.2734 6.55565C4.93312 6.89594 4.74194 7.35747 4.74194 7.83871V19.9355C4.74194 20.4167 4.93312 20.8783 5.2734 21.2185C5.61369 21.5588 6.07522 21.75 6.55646 21.75H17.4436C17.9248 21.75 18.3863 21.5588 18.7266 21.2185C19.0669 20.8783 19.2581 20.4167 19.2581 19.9355V7.83871C19.2581 7.35747 19.0669 6.89594 18.7266 6.55565C18.3863 6.21537 17.9248 6.02419 17.4436 6.02419Z" fill="currentColor" />
  <path d="M16.2339 4.81452H14.4194V3H9.58065V4.81452H7.76614V8.44355H16.2339V4.81452ZM15.0242 7.23387H8.97581V6.02419H10.7903V4.20968H13.2097V6.02419H15.0242V7.23387Z" fill="currentColor" />
  <path d="M8.37098 10.8629H15.629V12.0726H8.37098V10.8629ZM8.37098 13.8871H15.629V15.0968H8.37098V13.8871ZM8.37098 16.9113H15.629V18.121H8.37098V16.9113Z" fill="currentColor" />
</svg>