<svg xmlns="http://www.w3.org/2000/svg" width="24" height="24" viewBox="0 0 24 24" fill="none">
  <path d="M11.9998 3C12.3766 3 12.6821 3.30548 12.6821 3.68231C12.6821 4.05914 12.3766 4.36462 11.9998 4.36462C10.4899 4.36468 9.01394 4.81231 7.75848 5.65107C6.50293 6.49001 5.52366 7.68265 4.94575 9.07773C4.36785 10.4729 4.2167 12.0085 4.51131 13.4897C4.8059 14.9707 5.5332 16.331 6.60087 17.3987C7.66869 18.4666 9.02969 19.1937 10.5108 19.4883C11.9918 19.7829 13.5267 19.6318 14.9218 19.0539C16.3169 18.476 17.5094 17.4976 18.3484 16.242C19.135 15.0647 19.5782 13.6936 19.6304 12.2823L19.6357 11.9998C19.6357 9.23666 18.2101 6.78276 16.0341 5.4414L15.8209 5.31435L15.7622 5.27704C15.4806 5.07631 15.391 4.69105 15.5659 4.38417C15.741 4.07723 16.1186 3.9578 16.4348 4.0981L16.497 4.12919L16.7493 4.27934C19.33 5.86964 21.0003 8.76423 21.0004 11.9998L20.9941 12.3329C20.9326 13.9963 20.4101 15.6122 19.4829 16.9998C18.494 18.4798 17.0886 19.6334 15.4442 20.3146C13.7997 20.9958 11.9901 21.1744 10.2443 20.8272C8.49846 20.4799 6.89471 19.6223 5.63605 18.3636C4.37762 17.105 3.52065 15.5018 3.17336 13.7562C2.82612 12.0105 3.00402 10.2007 3.68509 8.55623C4.36627 6.91169 5.51975 5.50548 6.99977 4.51655C8.47973 3.52766 10.2199 3.00005 11.9998 3Z" fill="currentColor" />
  <path d="M15.0004 9.25881V4.74119L15.0042 4.66495C15.0424 4.29142 15.3579 4 15.7415 4H20.2592L20.3354 4.00386C20.709 4.04197 21.0004 4.35754 21.0004 4.74119C21.0004 5.12485 20.709 5.44042 20.3354 5.47853L20.2592 5.48239H16.4827V9.25881C16.4827 9.66816 16.1509 10 15.7415 10C15.3322 10 15.0004 9.66816 15.0004 9.25881Z" fill="currentColor" />
</svg>