<svg xmlns="http://www.w3.org/2000/svg" width="24" height="24" viewBox="0 0 24 24" fill="none">
  <path d="M20.0771 3.25391C20.4548 3.2925 20.7495 3.61129 20.75 3.99903C20.7516 6.05609 20.267 8.08515 19.335 9.91895C18.4751 11.6108 17.2557 13.0913 15.7666 14.2617C15.8051 14.5289 15.8268 14.8005 15.8271 15.0762V15.0772C15.8271 16.5817 15.2289 18.025 14.165 19.0889C13.1013 20.1524 11.6586 20.7499 10.1543 20.75C9.74008 20.75 9.4043 20.4142 9.4043 20V16.6758C8.63499 16.0631 7.93787 15.365 7.3252 14.5957H4C3.58597 14.5957 3.25029 14.2607 3.25 13.8467C3.24984 12.9906 3.44354 12.1447 3.81641 11.374C4.18926 10.6035 4.73206 9.9276 5.40332 9.39649C6.07467 8.86533 6.85766 8.49323 7.69336 8.30762C8.36625 8.1582 9.05889 8.13471 9.73828 8.2334C10.9087 6.74419 12.3902 5.52599 14.082 4.66602C15.9157 3.73399 17.9441 3.24852 20.001 3.25L20.0771 3.25391ZM5.6543 15.2051C5.98677 14.9582 6.45614 15.0279 6.70312 15.3604C6.94996 15.6928 6.88113 16.1622 6.54883 16.4092C6.1188 16.7287 5.78443 17.1602 5.58203 17.6563C5.45503 17.9676 5.38247 18.2969 5.36719 18.6299C5.77877 18.6109 6.18262 18.5076 6.55176 18.3223C6.96155 18.1166 7.3179 17.8179 7.5918 17.4502C7.83914 17.1181 8.30845 17.0488 8.64062 17.2959C8.97282 17.5433 9.04137 18.0135 8.79395 18.3457C8.38048 18.9008 7.84319 19.3516 7.22461 19.6621C6.60586 19.9727 5.92279 20.1349 5.23047 20.1348C4.9982 20.1348 4.7683 20.1169 4.54199 20.0811C4.22137 20.0301 3.96989 19.7786 3.91895 19.458C3.79238 18.6583 3.88749 17.8385 4.19336 17.0889C4.49925 16.3394 5.00453 15.6878 5.6543 15.2051ZM14.3223 15.25C13.2567 15.8795 12.1065 16.3543 10.9043 16.6582V19.1807C11.7321 19.0293 12.5012 18.6307 13.1045 18.0273C13.8461 17.2857 14.279 16.2938 14.3223 15.25ZM19.2227 4.77637C17.6708 4.87994 16.153 5.29576 14.7617 6.00293C13.139 6.82776 11.7339 8.02474 10.6621 9.4961L10.6611 9.49707C9.70053 10.8093 9.0298 12.3105 8.69336 13.9004C9.12052 14.4084 9.59077 14.8784 10.0986 15.3057C11.6892 14.9694 13.1904 14.3006 14.5029 13.3398L14.5039 13.3389C15.9752 12.2671 17.1722 10.862 17.9971 9.23926C18.7044 7.84753 19.1193 6.32877 19.2227 4.77637ZM8.74902 9.67676C8.50394 9.68699 8.25948 9.71799 8.01855 9.77149C7.40393 9.908 6.82777 10.1817 6.33398 10.5723C5.84027 10.9629 5.44126 11.4607 5.16699 12.0273C5.00269 12.3669 4.88671 12.7269 4.81934 13.0957H7.34082C7.64485 11.8935 8.11942 10.7423 8.74902 9.67676ZM14.9424 9.53809C14.9423 9.41072 14.8918 9.28832 14.8018 9.19825C14.7117 9.10817 14.5893 9.05772 14.4619 9.05762C14.3344 9.05762 14.2113 9.10808 14.1211 9.19825C14.0311 9.28831 13.9806 9.41077 13.9805 9.53809C13.9805 9.6656 14.0309 9.78875 14.1211 9.87891C14.2113 9.96907 14.3344 10.0195 14.4619 10.0195C14.5892 10.0194 14.7117 9.96891 14.8018 9.87891C14.8919 9.78875 14.9424 9.6656 14.9424 9.53809ZM16.4424 9.53809C16.4424 10.0634 16.2338 10.568 15.8623 10.9395C15.4909 11.3108 14.9871 11.5194 14.4619 11.5195C13.9366 11.5195 13.432 11.3109 13.0605 10.9395C12.6891 10.568 12.4805 10.0634 12.4805 9.53809C12.4806 9.01295 12.6892 8.50907 13.0605 8.1377C13.432 7.76623 13.9366 7.55762 14.4619 7.55762C14.9871 7.55772 15.4909 7.76632 15.8623 8.1377C16.2337 8.50908 16.4423 9.01289 16.4424 9.53809Z" fill="currentColor" />
</svg>