<svg xmlns="http://www.w3.org/2000/svg" width="24" height="24" viewBox="0 0 24 24" fill="none">
  <path d="M18.25 13.3897C18.25 12.7847 18.2484 12.4145 18.2119 12.1611C18.2088 12.1399 18.2033 12.1213 18.2002 12.1045C18.1908 12.1075 18.1807 12.1107 18.1699 12.1143C17.9381 12.1924 17.6193 12.3539 17.0918 12.625L14.6768 13.8672C14.4443 13.9868 14.1656 13.976 13.9424 13.8399C13.7195 13.7037 13.5831 13.4614 13.583 13.2002C13.583 12.6874 13.5819 12.374 13.5547 12.1553C13.5516 12.1307 13.5441 12.11 13.541 12.0918C13.5301 12.0954 13.5178 12.0979 13.5049 12.1026C13.3065 12.1739 13.0372 12.311 12.5898 12.541L10.417 13.6572V19.25H15.8887C16.6439 19.25 17.133 19.2481 17.4932 19.1983C17.8291 19.1517 17.9405 19.077 18.0068 19.0088C18.076 18.9376 18.1526 18.8141 18.1992 18.458C18.2483 18.0824 18.25 17.5747 18.25 16.7998V13.3897ZM15.8887 5.65041C16.3029 5.65041 16.6387 5.98619 16.6387 6.40041C16.6385 6.81444 16.3028 7.15041 15.8887 7.15041H11.2227C10.8086 7.15041 10.4729 6.81444 10.4727 6.40041C10.4727 5.98619 10.8084 5.65041 11.2227 5.65041H15.8887ZM6.583 5.59963C6.583 5.24324 6.58185 4.90267 6.61816 4.62502C6.65704 4.32772 6.75095 3.9923 7.02343 3.71193C7.29891 3.42859 7.6336 3.32753 7.93261 3.28615C8.20764 3.24809 8.54383 3.25002 8.88867 3.25002H12.7773C13.1916 3.25002 13.5273 3.5858 13.5273 4.00002C13.5273 4.41423 13.1916 4.75002 12.7773 4.75002H8.88867C8.50059 4.75002 8.28704 4.75199 8.13867 4.77248C8.12945 4.77375 8.12078 4.77514 8.11328 4.77638C8.11114 4.78848 8.10766 4.80256 8.10547 4.81935C8.08483 4.97714 8.08301 5.20202 8.083 5.59963C8.083 6.01384 7.74722 6.34963 7.333 6.34963C6.91894 6.34945 6.583 6.01373 6.583 5.59963ZM15.8887 3.25002C16.3029 3.25002 16.6387 3.5858 16.6387 4.00002C16.6387 4.41423 16.3029 4.75002 15.8887 4.75002H15.1113C14.6971 4.75002 14.3613 4.41423 14.3613 4.00002C14.3613 3.5858 14.6971 3.25002 15.1113 3.25002H15.8887ZM5.75 16.7998C5.75 17.5747 5.75169 18.0824 5.80078 18.458C5.84734 18.8141 5.92395 18.9376 5.99316 19.0088C6.0595 19.077 6.17085 19.1517 6.50683 19.1983C6.867 19.2481 7.35607 19.25 8.11132 19.25H8.91699V11.1504H5.75V16.7998ZM8.91699 9.59963C8.91699 9.20202 8.91516 8.97714 8.89453 8.81935C8.89232 8.80249 8.88789 8.78851 8.88574 8.77638C8.87849 8.77519 8.87015 8.7737 8.86132 8.77248C8.71295 8.75199 8.49941 8.75002 8.11132 8.75002H6.55566C6.16713 8.75002 5.9531 8.75194 5.80468 8.77248C5.79571 8.77372 5.78761 8.77517 5.78027 8.77638C5.77813 8.78848 5.77466 8.80256 5.77246 8.81935C5.75182 8.97714 5.75 9.20202 5.75 9.59963V9.65041H8.91699V9.59963ZM10.417 11.9707L11.9033 11.207C12.3115 10.9971 12.6847 10.8029 12.9971 10.6904C13.3134 10.5767 13.7316 10.4832 14.1621 10.6719H14.1631C14.3034 10.7334 14.4334 10.8161 14.5488 10.916L14.5508 10.918C14.8992 11.2217 15.0012 11.6344 15.043 11.9697C15.0438 11.9765 15.0431 11.9834 15.0439 11.9903L16.4062 11.291V11.2901C16.8874 11.0428 17.3257 10.8153 17.6904 10.6924C18.0433 10.5735 18.5006 10.4922 18.9443 10.7285L19.0332 10.7803L19.1924 10.8994C19.5316 11.194 19.6468 11.6038 19.6963 11.9473C19.7518 12.3331 19.75 12.834 19.75 13.3897V16.7998C19.75 17.5336 19.7513 18.1578 19.6865 18.6533C19.6191 19.1682 19.4683 19.6563 19.082 20.0537C18.6926 20.4543 18.209 20.6139 17.6982 20.6846C17.2115 20.7519 16.6002 20.75 15.8887 20.75H8.11132C7.39984 20.75 6.78854 20.7519 6.30175 20.6846C5.79098 20.6139 5.30739 20.4543 4.91797 20.0537C4.53165 19.6563 4.38087 19.1682 4.31347 18.6533C4.24866 18.1578 4.25 17.5336 4.25 16.7998V9.59963C4.25 9.24322 4.24884 8.90268 4.28515 8.62502C4.32404 8.32766 4.41782 7.99233 4.69043 7.71193L4.7959 7.6133C5.04857 7.40374 5.338 7.32235 5.59961 7.28615C5.87464 7.24813 6.21087 7.25002 6.55566 7.25002H8.11132C8.45616 7.25002 8.79235 7.24809 9.06738 7.28615C9.32905 7.32236 9.61838 7.40363 9.87109 7.6133L9.97656 7.71193L10.0703 7.81935C10.2714 8.07551 10.3478 8.36481 10.3818 8.62502C10.4181 8.90267 10.417 9.24324 10.417 9.59963V11.9707Z" fill="currentColor" />
</svg>