<svg xmlns="http://www.w3.org/2000/svg" width="24" height="24" viewBox="0 0 24 24" fill="none">
  <path d="M12 13.1953C12.1913 13.1953 12.3735 13.2732 12.5019 13.409L17.4758 18.67L17.5102 18.6979C17.5162 18.7012 17.5198 18.7026 17.5217 18.703C17.5248 18.7035 17.5351 18.7038 17.5525 18.6962C17.5704 18.6884 17.5928 18.6725 17.6108 18.6455C17.6274 18.6205 17.6452 18.5788 17.6452 18.5138V6.32099C17.6452 6.02991 17.5354 5.76159 17.3576 5.57351C17.1818 5.38757 16.9585 5.29732 16.7419 5.29732H7.25806C7.0415 5.29732 6.81818 5.38757 6.64239 5.57351C6.46458 5.76159 6.35484 6.02991 6.35484 6.32099V18.5138C6.35484 18.6349 6.41603 18.6824 6.44745 18.6962C6.46477 18.7038 6.47504 18.7027 6.47833 18.7021C6.48014 18.7018 6.48389 18.7011 6.48979 18.6979C6.49574 18.6947 6.50804 18.6871 6.52419 18.67L11.4981 13.409L11.5484 13.3608C11.672 13.255 11.8326 13.1953 12 13.1953ZM19 18.5138C19 19.1368 18.6352 19.6488 18.1162 19.8761C17.6198 20.0934 17.0105 20.0332 16.5593 19.6261L16.4711 19.54L12 14.8102L7.52886 19.54C7.07115 20.0241 6.41211 20.1081 5.88294 19.8761C5.36436 19.6487 5 19.1366 5 18.5138V6.32099C5 5.72521 5.22356 5.14173 5.63861 4.70272C6.05565 4.26179 6.63638 4 7.25806 4H16.7419C17.3636 4 17.9443 4.26179 18.3614 4.70272C18.7764 5.14173 19 5.72521 19 6.32099V18.5138Z" fill="currentColor" />
</svg>