<svg xmlns="http://www.w3.org/2000/svg" width="24" height="24" viewBox="0 0 24 24" fill="none">
  <path fill-rule="evenodd" clip-rule="evenodd" d="M11.2222 5.75C9.7709 5.75 8.37902 6.32654 7.35278 7.35278C6.32654 8.37902 5.75 9.7709 5.75 11.2222C5.75 12.6735 6.32654 14.0654 7.35278 15.0917C8.37902 16.1179 9.7709 16.6944 11.2222 16.6944C12.6735 16.6944 14.0654 16.1179 15.0917 15.0917C16.1179 14.0654 16.6944 12.6735 16.6944 11.2222C16.6944 9.7709 16.1179 8.37902 15.0917 7.35278C14.0654 6.32654 12.6735 5.75 11.2222 5.75ZM6.29212 6.29212C7.59966 4.98457 9.37307 4.25 11.2222 4.25C13.0714 4.25 14.8448 4.98457 16.1523 6.29212C17.4599 7.59966 18.1944 9.37307 18.1944 11.2222C18.1944 12.8196 17.6463 14.3605 16.6541 15.5934L19.5303 18.4697C19.8232 18.7626 19.8232 19.2374 19.5303 19.5303C19.2374 19.8232 18.7626 19.8232 18.4697 19.5303L15.5934 16.6541C14.3605 17.6463 12.8196 18.1944 11.2222 18.1944C9.37307 18.1944 7.59966 17.4599 6.29212 16.1523C4.98457 14.8448 4.25 13.0714 4.25 11.2222C4.25 9.37307 4.98457 7.59966 6.29212 6.29212Z" fill="currentColor" />
</svg>