<svg xmlns="http://www.w3.org/2000/svg" width="24" height="24" viewBox="0 0 24 24" fill="none">
  <path fill-rule="evenodd" clip-rule="evenodd" d="M10.3236 4C10.0288 4 9.77362 4.20046 9.7098 4.48215L9.31901 6.20706C8.93152 6.37897 8.56222 6.58773 8.21643 6.83032L6.49388 6.29957C6.21282 6.21297 5.90802 6.32908 5.76069 6.57887L4.08425 9.42112C3.93698 9.6708 3.98654 9.98709 4.20348 10.1821L5.53401 11.3781C5.49238 11.7922 5.49238 12.2093 5.534 12.6235L4.20361 13.8186C3.98657 14.0136 3.93695 14.33 4.08425 14.5797L5.76069 17.422C5.90802 17.6717 6.21282 17.7878 6.49388 17.7012L8.21653 17.1705C8.5621 17.4128 8.93113 17.6213 9.31832 17.793L9.70986 19.5181C9.77377 19.7997 10.0289 20 10.3236 20H13.6764C13.9711 20 14.2262 19.7997 14.2901 19.5181L14.6817 17.7928C15.0691 17.6206 15.4382 17.4117 15.7838 17.1689L17.5061 17.6996C17.7872 17.7862 18.092 17.6701 18.2393 17.4203L19.9157 14.5781C20.063 14.3283 20.0134 14.012 19.7964 13.817L18.466 12.6218C18.5076 12.2077 18.5076 11.7906 18.466 11.3765L19.7964 10.1814C20.0134 9.98641 20.063 9.67004 19.9157 9.4203L18.2393 6.57804C18.092 6.32826 17.7872 6.21215 17.5061 6.29875L15.7835 6.82953C15.4379 6.58722 15.0689 6.3787 14.6817 6.20696L14.2901 4.48191C14.2262 4.20034 13.9711 4 13.6764 4H10.3236ZM10.4763 6.7835L10.8281 5.23077H13.1721L13.5246 6.78373C13.57 6.98383 13.7142 7.14866 13.9093 7.22334C14.4 7.41128 14.8589 7.6706 15.2706 7.99257C15.4342 8.1205 15.6521 8.16032 15.8518 8.09879L17.4026 7.62095L18.5748 9.6083L17.3771 10.6842C17.2229 10.8228 17.1492 11.0274 17.1806 11.2299C17.2596 11.7399 17.2596 12.2585 17.1806 12.7684C17.1492 12.971 17.2229 13.1756 17.3771 13.3141L18.5748 14.3901L17.4026 16.3774L15.8518 15.8996C15.6519 15.838 15.4338 15.8779 15.2702 16.0061C14.8586 16.3286 14.3996 16.5884 13.9088 16.7768C13.714 16.8516 13.57 17.0163 13.5246 17.2163L13.1721 18.7692H10.8279L10.4754 17.2163C10.43 17.0162 10.2858 16.8513 10.0907 16.7767C9.60002 16.5887 9.14107 16.3294 8.72939 16.0074C8.56582 15.8795 8.34793 15.8397 8.14822 15.9012L6.59741 16.379L5.42521 14.3917L6.62291 13.3158C6.77713 13.1772 6.85079 12.9726 6.81939 12.7701C6.74036 12.2601 6.74036 11.7415 6.81939 11.2316C6.85078 11.0291 6.77717 10.8246 6.62304 10.686L5.42514 9.60925L6.59741 7.62177L8.14822 8.09961C8.34798 8.16116 8.56594 8.12129 8.72952 7.99329C9.14139 7.671 9.6006 7.41142 10.0916 7.22333C10.2867 7.1486 10.4309 6.98368 10.4763 6.7835ZM10.114 12C10.114 10.9804 10.9584 10.1538 12 10.1538C13.0416 10.1538 13.886 10.9804 13.886 12C13.886 13.0196 13.0416 13.8462 12 13.8462C10.9584 13.8462 10.114 13.0196 10.114 12ZM12 8.92308C10.264 8.92308 8.85667 10.3007 8.85667 12C8.85667 13.6993 10.264 15.0769 12 15.0769C13.736 15.0769 15.1433 13.6993 15.1433 12C15.1433 10.3007 13.736 8.92308 12 8.92308Z" fill="currentColor" />
</svg>