<svg xmlns="http://www.w3.org/2000/svg" width="24" height="24" viewBox="0 0 24 24" fill="none">
  <path d="M4.48274 3.20291C4.70725 2.9784 5.05596 2.93521 5.3283 3.09834L8.52304 5.01571C8.7315 5.1408 8.85921 5.36577 8.85929 5.60887V6.52203L11.7602 9.42288C11.9511 9.04041 12.0148 8.51658 11.9639 7.91296L11.9486 7.61819C11.9345 6.93039 12.0771 6.24695 12.3677 5.62058C12.7 4.90478 13.2138 4.28813 13.8578 3.83212C14.5019 3.37609 15.2547 3.09638 16.0402 3.02082C16.8256 2.94534 17.6172 3.07643 18.3362 3.40123C18.5434 3.49479 18.6911 3.68426 18.732 3.90784C18.7728 4.13146 18.7016 4.36096 18.5409 4.52172L16.0511 7.01061C16.1434 7.21675 16.2721 7.40566 16.4333 7.56681C16.5941 7.72764 16.7829 7.85582 16.9886 7.94812L19.4784 5.45923C19.6391 5.29851 19.8686 5.22731 20.0923 5.26812C20.3159 5.30895 20.5053 5.45674 20.5989 5.66385C20.9102 6.35319 21.0438 7.11002 20.9874 7.86428C20.931 8.61845 20.6864 9.34646 20.2762 9.98178C19.8658 10.6172 19.3025 11.1399 18.6382 11.5016C17.9741 11.8631 17.23 12.0525 16.4738 12.0524C16.3888 12.0524 16.304 12.0483 16.2196 12.0434L20.1572 15.9809L20.1644 15.989C20.7031 16.5455 21.0018 17.2915 20.9955 18.0659C20.9891 18.8402 20.6786 19.5809 20.131 20.1284C19.5835 20.676 18.8428 20.9865 18.0685 20.9929C17.2941 20.9992 16.548 20.7005 15.9916 20.1618L15.9835 20.1546L11.5555 15.7267L8.07502 19.9545L8.07412 19.9536C7.82081 20.262 7.50661 20.5151 7.15013 20.6946C6.79323 20.8742 6.40258 20.9769 6.00349 20.9965C5.6043 21.0162 5.2054 20.952 4.8325 20.8081C4.45965 20.6643 4.12079 20.4444 3.8382 20.1618C3.55562 19.8792 3.33568 19.5404 3.19186 19.1675C3.04804 18.7946 2.98381 18.3957 3.00346 17.9965C3.02311 17.5974 3.12577 17.2068 3.30544 16.8499C3.48492 16.4935 3.73716 16.1783 4.04554 15.925L9.28116 11.6125L6.52453 8.85677H5.61136C5.36818 8.85677 5.14241 8.72905 5.0173 8.52053L3.10082 5.32671C2.93737 5.0543 2.98075 4.70489 3.20538 4.48026L4.48274 3.20291ZM16.7091 4.39462C16.5311 4.38121 16.3518 4.38193 16.1728 4.39913C15.6275 4.45157 15.1054 4.64602 14.6583 4.96253C14.2113 5.27903 13.8549 5.70699 13.6244 6.20382C13.4226 6.63863 13.3225 7.11279 13.3323 7.59024L13.344 7.79487C13.4259 8.76402 13.3095 10.0853 12.3263 10.8976L12.3272 10.8985L12.2397 10.9707C12.2336 10.9758 12.227 10.9802 12.2208 10.9851L10.7677 12.1804C10.7616 12.1857 10.7568 12.1924 10.7505 12.1975L4.92625 16.9932L4.92535 16.9941C4.7658 17.125 4.63505 17.2885 4.54224 17.4728C4.44952 17.657 4.39642 17.859 4.38628 18.065C4.37621 18.271 4.40947 18.4766 4.48364 18.669C4.5579 18.8615 4.67125 19.0369 4.81718 19.1828C4.9631 19.3288 5.13846 19.4421 5.33101 19.5164C5.52337 19.5905 5.72905 19.6238 5.93498 19.6137C6.14097 19.6036 6.343 19.5505 6.52723 19.4578C6.71155 19.365 6.87501 19.2342 7.0059 19.0747L7.0068 19.0738L13.0979 11.6774L13.0988 11.6765C13.4586 11.2407 13.9224 10.9748 14.3987 10.8219C14.4016 10.8207 14.4048 10.8204 14.4077 10.8192C14.4263 10.8133 14.445 10.8068 14.4636 10.8012C15.0426 10.6286 15.6583 10.6101 16.2034 10.6552L16.2079 10.6561C16.295 10.6638 16.3839 10.6678 16.4738 10.6678C16.9988 10.6679 17.5155 10.5366 17.9766 10.2856C18.4376 10.0345 18.8285 9.67184 19.1133 9.23087C19.3981 8.78988 19.5672 8.28411 19.6064 7.76062C19.6181 7.60341 19.6164 7.44623 19.6046 7.29006L17.6665 9.22907C17.4977 9.39771 17.2544 9.46742 17.0219 9.41387C16.4283 9.27712 15.885 8.9765 15.4543 8.54577C15.0236 8.11505 14.7229 7.57173 14.5862 6.97816C14.5327 6.74574 14.6024 6.50231 14.771 6.33363L16.7091 4.39462ZM14.4988 12.2805C14.3679 12.356 14.2573 12.448 14.167 12.5572L12.4398 14.6531L16.9543 19.1675L17.0697 19.2685C17.349 19.4903 17.6971 19.6112 18.0568 19.6083C18.4679 19.605 18.8613 19.4402 19.1521 19.1495C19.4428 18.8588 19.6076 18.4653 19.6109 18.0542C19.6138 17.6945 19.4929 17.3464 19.271 17.0671L19.1701 16.9518L14.4988 12.2805ZM5.93047 17.3754C6.31282 17.3754 6.62278 17.6854 6.62278 18.0677V18.0741C6.62278 18.4564 6.31282 18.7664 5.93047 18.7664H5.92416C5.54181 18.7664 5.23185 18.4564 5.23185 18.0741V18.0677C5.23185 17.6854 5.54181 17.3754 5.92416 17.3754H5.93047ZM14.7052 14.7026C14.9755 14.4324 15.4138 14.4326 15.6842 14.7026L17.9207 16.9391C18.191 17.2095 18.191 17.6477 17.9207 17.9181C17.6503 18.1885 17.2121 18.1884 16.9417 17.9181L14.7052 15.6816C14.4351 15.4112 14.4349 14.9729 14.7052 14.7026ZM4.56567 5.07701L6.00349 7.47215H6.81209L6.94731 7.48567C7.08041 7.51227 7.20419 7.57759 7.30158 7.67498L10.3548 10.7282L10.7677 10.3883L7.67748 7.29908C7.54771 7.1693 7.47472 6.99312 7.47466 6.80959V6.00099L5.0786 4.56409L4.56567 5.07701Z" fill="currentColor" />
</svg>