<svg xmlns="http://www.w3.org/2000/svg" width="24" height="24" viewBox="0 0 24 24" fill="none">
  <path d="M19.6055 17.3329C19.5582 16.8576 19.3477 16.4108 19.0069 16.07C18.6174 15.6805 18.0893 15.4615 17.5385 15.4615C16.9876 15.4615 16.4595 15.6805 16.07 16.07C15.908 16.232 15.7765 16.4183 15.677 16.6199C15.6717 16.6316 15.6676 16.6444 15.6617 16.6559C15.6602 16.6588 15.6578 16.6612 15.6562 16.6641C15.5301 16.9356 15.4615 17.2333 15.4615 17.5385C15.4615 18.0893 15.6805 18.6174 16.07 19.0069C16.4595 19.3964 16.9876 19.6154 17.5385 19.6154L17.744 19.6055C18.2194 19.5582 18.6662 19.3477 19.0069 19.0069C19.3964 18.6174 19.6154 18.0893 19.6154 17.5385L19.6055 17.3329ZM8.53846 12C8.53846 11.6947 8.46911 11.3973 8.34285 11.1256C8.3414 11.1229 8.33976 11.1202 8.33834 11.1175C8.33232 11.1058 8.32741 11.0933 8.32212 11.0814C8.22266 10.88 8.09186 10.6934 7.92999 10.5316C7.54049 10.1421 7.01237 9.92308 6.46154 9.92308C5.9107 9.92308 5.38259 10.1421 4.99309 10.5316C4.60359 10.921 4.38462 11.4492 4.38462 12C4.38462 12.5508 4.60359 13.079 4.99309 13.4684C5.38259 13.8579 5.9107 14.0769 6.46154 14.0769C7.01237 14.0769 7.54049 13.8579 7.92999 13.4684C8.09205 13.3064 8.22262 13.1194 8.32212 12.9177C8.32731 12.9061 8.33245 12.8939 8.33834 12.8825C8.33988 12.8795 8.34127 12.8765 8.34285 12.8735C8.46889 12.602 8.53846 12.305 8.53846 12ZM19.6055 6.25601C19.5582 5.78064 19.3477 5.33385 19.0069 4.99309C18.6174 4.60359 18.0893 4.38462 17.5385 4.38462C16.9876 4.38462 16.4595 4.60359 16.07 4.99309C15.6805 5.38259 15.4615 5.9107 15.4615 6.46154C15.4615 6.76646 15.5303 7.06366 15.6562 7.33504C15.6579 7.33812 15.6601 7.34094 15.6617 7.34405C15.6675 7.35538 15.6718 7.36772 15.677 7.37921C15.7765 7.58109 15.9079 7.76783 16.07 7.92999C16.4595 8.31949 16.9876 8.53846 17.5385 8.53846C18.0893 8.53846 18.6174 8.31949 19.0069 7.92999C19.3964 7.54049 19.6154 7.01237 19.6154 6.46154L19.6055 6.25601ZM20.9955 6.63281C20.9531 7.48851 20.5946 8.30028 19.9859 8.90895C19.3367 9.55812 18.4565 9.92308 17.5385 9.92308C16.6204 9.92308 15.7402 9.55812 15.091 8.90895C14.9842 8.80208 14.8856 8.68856 14.7945 8.57001L9.8131 11.1364C9.88521 11.4162 9.92308 11.7061 9.92308 12C9.92308 12.2936 9.88507 12.5831 9.8131 12.8627L14.7945 15.4291C14.8854 15.3107 14.9843 15.1978 15.091 15.091C15.7402 14.4419 16.6204 14.0769 17.5385 14.0769C18.4565 14.0769 19.3367 14.4419 19.9859 15.091C20.635 15.7402 21 16.6204 21 17.5385L20.9955 17.7097C20.9531 18.5654 20.5946 19.3772 19.9859 19.9859C19.3772 20.5946 18.5654 20.9531 17.7097 20.9955L17.5385 21C16.6204 21 15.7402 20.635 15.091 19.9859C14.4419 19.3367 14.0769 18.4565 14.0769 17.5385C14.0769 17.2447 14.1139 16.9546 14.186 16.6749L9.20463 14.1085C9.11362 14.2269 9.0157 14.3407 8.90895 14.4474C8.25979 15.0966 7.3796 15.4615 6.46154 15.4615C5.54348 15.4615 4.66329 15.0966 4.01412 14.4474C3.36496 13.7983 3 12.9181 3 12C3 11.0819 3.36496 10.2017 4.01412 9.55258C4.66329 8.90342 5.54348 8.53846 6.46154 8.53846C7.3796 8.53846 8.25979 8.90342 8.90895 9.55258C9.01553 9.65916 9.11374 9.77244 9.20463 9.89062L14.186 7.32422C14.1141 7.04473 14.0769 6.75504 14.0769 6.46154C14.0769 5.54348 14.4419 4.66329 15.091 4.01412C15.7402 3.36496 16.6204 3 17.5385 3C18.4565 3 19.3367 3.36496 19.9859 4.01412C20.635 4.66329 21 5.54348 21 6.46154L20.9955 6.63281Z" fill="currentColor" />
</svg>