<svg xmlns="http://www.w3.org/2000/svg" width="24" height="24" viewBox="0 0 16 16" fill="none">
  <path d="M3.60786 4.54837C4.12766 4.54837 4.54904 4.12699 4.54904 3.60719C4.54904 3.08739 4.12766 2.66602 3.60786 2.66602C3.08807 2.66602 2.66669 3.08739 2.66669 3.60719C2.66669 4.12699 3.08807 4.54837 3.60786 4.54837Z" fill="currentColor" />
  <path d="M8.00002 4.54837C8.51982 4.54837 8.9412 4.12699 8.9412 3.60719C8.9412 3.08739 8.51982 2.66602 8.00002 2.66602C7.48022 2.66602 7.05884 3.08739 7.05884 3.60719C7.05884 4.12699 7.48022 4.54837 8.00002 4.54837Z" fill="currentColor" />
  <path d="M12.3922 4.54837C12.912 4.54837 13.3334 4.12699 13.3334 3.60719C13.3334 3.08739 12.912 2.66602 12.3922 2.66602C11.8724 2.66602 11.451 3.08739 11.451 3.60719C11.451 4.12699 11.8724 4.54837 12.3922 4.54837Z" fill="currentColor" />
  <path d="M3.60786 8.94053C4.12766 8.94053 4.54904 8.51915 4.54904 7.99935C4.54904 7.47955 4.12766 7.05817 3.60786 7.05817C3.08807 7.05817 2.66669 7.47955 2.66669 7.99935C2.66669 8.51915 3.08807 8.94053 3.60786 8.94053Z" fill="currentColor" />
  <path d="M8.00002 8.94053C8.51982 8.94053 8.9412 8.51915 8.9412 7.99935C8.9412 7.47955 8.51982 7.05817 8.00002 7.05817C7.48022 7.05817 7.05884 7.47955 7.05884 7.99935C7.05884 8.51915 7.48022 8.94053 8.00002 8.94053Z" fill="currentColor" />
  <path d="M12.3922 8.94053C12.912 8.94053 13.3334 8.51915 13.3334 7.99935C13.3334 7.47955 12.912 7.05817 12.3922 7.05817C11.8724 7.05817 11.451 7.47955 11.451 7.99935C11.451 8.51915 11.8724 8.94053 12.3922 8.94053Z" fill="currentColor" />
  <path d="M3.60786 13.3327C4.12766 13.3327 4.54904 12.9113 4.54904 12.3915C4.54904 11.8717 4.12766 11.4503 3.60786 11.4503C3.08807 11.4503 2.66669 11.8717 2.66669 12.3915C2.66669 12.9113 3.08807 13.3327 3.60786 13.3327Z" fill="currentColor" />
  <path d="M8.00002 13.3327C8.51982 13.3327 8.9412 12.9113 8.9412 12.3915C8.9412 11.8717 8.51982 11.4503 8.00002 11.4503C7.48022 11.4503 7.05884 11.8717 7.05884 12.3915C7.05884 12.9113 7.48022 13.3327 8.00002 13.3327Z" fill="currentColor" />
  <path d="M12.3922 13.3327C12.912 13.3327 13.3334 12.9113 13.3334 12.3915C13.3334 11.8717 12.912 11.4503 12.3922 11.4503C11.8724 11.4503 11.451 11.8717 11.451 12.3915C11.451 12.9113 11.8724 13.3327 12.3922 13.3327Z" fill="currentColor" />
</svg>