<svg xmlns="http://www.w3.org/2000/svg" width="24" height="24" viewBox="0 0 24 24" fill="none">
  <path d="M16.6397 13.0722C16.8838 12.813 17.2704 12.7969 17.5322 13.0238L17.5829 13.0722L19.8049 15.4317L19.8504 15.4854C20.0499 15.745 20.0499 16.1199 19.8504 16.3794L19.8049 16.4332L17.5829 18.7927C17.3225 19.0691 16.9 19.0691 16.6397 18.7927C16.3794 18.5162 16.3794 18.0676 16.6397 17.7911L18.3901 15.9324L16.6397 14.0737L16.5941 14.02C16.3805 13.7419 16.3956 13.3314 16.6397 13.0722ZM16.6397 5.20727C16.8838 4.94807 17.2704 4.93201 17.5322 5.15888L17.5829 5.20727L19.8049 7.56674L19.8504 7.6205C20.0499 7.88004 20.0499 8.25499 19.8504 8.51452L19.8049 8.56829L17.5829 10.9278C17.3225 11.2042 16.9 11.2042 16.6397 10.9278C16.3794 10.6513 16.3794 10.2026 16.6397 9.92622L18.3901 8.06751L16.6397 6.20881L16.5941 6.15505C16.3805 5.87703 16.3956 5.46646 16.6397 5.20727Z" fill="currentColor" />
  <path d="M9.13948 14.4322C9.46075 14.2111 9.91641 14.2707 10.1574 14.5655C10.3984 14.8603 10.3334 15.2784 10.0122 15.4996C9.187 16.0675 8.18325 16.375 7.15171 16.375H4.72756C4.32591 16.375 4 16.0759 4 15.7074C4 15.3388 4.32592 15.0398 4.72756 15.0398H7.15171C7.86849 15.0398 8.56603 14.8269 9.13948 14.4322ZM10.4644 12C10.4644 11.1937 10.1159 10.4203 9.49458 9.85015C8.91207 9.31564 8.13474 9.0011 7.31584 8.96386L7.15171 8.96024H4.72756C4.32591 8.96024 4 8.66117 4 8.29262C4 7.92406 4.32592 7.625 4.72756 7.625H7.15171L7.38844 7.63079C8.56666 7.6845 9.68467 8.13759 10.5228 8.90665C11.4169 9.72707 11.9195 10.8398 11.9195 12L11.9235 12.1506C11.964 12.902 12.3068 13.6153 12.8893 14.1498C13.5106 14.72 14.3535 15.0398 15.2322 15.0398H19.2724L19.3466 15.0434C19.7134 15.0775 20 15.3618 20 15.7074C20 16.053 19.7134 16.3373 19.3466 16.3714L19.2724 16.375H15.2322C13.9678 16.375 12.7552 15.9138 11.8611 15.0933C11.023 14.3243 10.5292 13.2984 10.4707 12.2172L10.4644 12ZM19.2724 7.625L19.3466 7.62862C19.7134 7.66271 20 7.94704 20 8.29262C20 8.6382 19.7134 8.92252 19.3466 8.95662L19.2724 8.96024H15.2314C14.515 8.95936 13.8177 9.17265 13.2452 9.56775C12.9242 9.78916 12.4679 9.72975 12.2265 9.43525C11.9852 9.1407 12.0499 8.72193 12.3709 8.50043L12.5279 8.39689C13.3216 7.89421 14.2648 7.62472 15.2322 7.62572L19.2724 7.625Z" fill="currentColor" />
</svg>