<svg xmlns="http://www.w3.org/2000/svg" width="24" height="24" viewBox="0 0 24 24" fill="none">
  <path d="M11.1923 4C11.0189 4 10.8526 4.07024 10.73 4.19526C10.6073 4.32029 10.5385 4.48986 10.5385 4.66667C10.5385 4.84348 10.6073 5.01305 10.73 5.13807C10.8526 5.2631 11.0189 5.33333 11.1923 5.33333H17.7308C18.251 5.33333 18.7499 5.54405 19.1178 5.91912C19.4856 6.29419 19.6923 6.8029 19.6923 7.33333V16.6667C19.6923 17.1971 19.4856 17.7058 19.1178 18.0809C18.7499 18.456 18.251 18.6667 17.7308 18.6667H11.1923C11.0189 18.6667 10.8526 18.7369 10.73 18.8619C10.6073 18.987 10.5385 19.1565 10.5385 19.3333C10.5385 19.5101 10.6073 19.6797 10.73 19.8047C10.8526 19.9298 11.0189 20 11.1923 20H17.7308C18.5978 20 19.4294 19.6488 20.0425 19.0237C20.6556 18.3986 21 17.5507 21 16.6667V7.33333C21 6.44928 20.6556 5.60143 20.0425 4.97631C19.4294 4.35119 18.5978 4 17.7308 4H11.1923ZM15.5783 11.528L11.6552 7.528C11.5944 7.46602 11.5223 7.41685 11.4428 7.3833C11.3634 7.34976 11.2783 7.33249 11.1923 7.33249C11.1063 7.33249 11.0212 7.34976 10.9418 7.3833C10.8623 7.41685 10.7902 7.46602 10.7294 7.528C10.6686 7.58998 10.6204 7.66357 10.5875 7.74456C10.5546 7.82554 10.5376 7.91234 10.5376 8C10.5376 8.08766 10.5546 8.17446 10.5875 8.25545C10.6204 8.33643 10.6686 8.41002 10.7294 8.472L13.537 11.3333H4.65385C4.48044 11.3333 4.31413 11.4036 4.19151 11.5286C4.06889 11.6536 4 11.8232 4 12C4 12.1768 4.06889 12.3464 4.19151 12.4714C4.31413 12.5964 4.48044 12.6667 4.65385 12.6667H13.537L10.7294 15.528C10.6066 15.6532 10.5376 15.823 10.5376 16C10.5376 16.177 10.6066 16.3468 10.7294 16.472C10.8522 16.5972 11.0187 16.6675 11.1923 16.6675C11.3659 16.6675 11.5325 16.5972 11.6552 16.472L15.5783 12.472C15.6392 12.4101 15.6875 12.3365 15.7205 12.2555C15.7534 12.1745 15.7704 12.0877 15.7704 12C15.7704 11.9123 15.7534 11.8255 15.7205 11.7445C15.6875 11.6635 15.6392 11.5899 15.5783 11.528Z" fill="currentColor" />
</svg>