<svg xmlns="http://www.w3.org/2000/svg" width="24" height="24" viewBox="0 0 24 24" fill="none">
  <path d="M5.77778 20C5.28889 20 4.87052 19.8261 4.52267 19.4782C4.17481 19.1304 4.00059 18.7117 4 18.2222V5.77778C4 5.28889 4.17422 4.87052 4.52267 4.52267C4.87111 4.17481 5.28948 4.00059 5.77778 4H18.2222C18.7111 4 19.1298 4.17422 19.4782 4.52267C19.8267 4.87111 20.0006 5.28948 20 5.77778V18.2222C20 18.7111 19.8261 19.1298 19.4782 19.4782C19.1304 19.8267 18.7117 20.0006 18.2222 20H5.77778ZM12 18.2222H18.2222V5.77778H12V18.2222Z" fill="currentColor" />
</svg>