<svg xmlns="http://www.w3.org/2000/svg" width="24" height="24" viewBox="0 0 24 24" fill="none">
  <path fill-rule="evenodd" clip-rule="evenodd" d="M10.5342 4.70582C10.5393 4.53086 10.4779 4.35393 10.3486 4.21627C10.0893 3.94022 9.65534 3.92662 9.37929 4.18589L4.21627 9.03514C3.94022 9.29441 3.92662 9.72836 4.18589 10.0044C4.44516 10.2805 4.87912 10.2941 5.15516 10.0348L9.16303 6.2705V19.2739C9.16303 19.6526 9.47003 19.9596 9.84874 19.9596C10.2274 19.9596 10.5345 19.6526 10.5345 19.2739V4.72613C10.5345 4.71933 10.5344 4.71256 10.5342 4.70582ZM14.1513 4.08082C14.53 4.08082 14.837 4.38783 14.837 4.76654V17.7295L18.8448 13.9652C19.1209 13.7059 19.5548 13.7195 19.8141 13.9956C20.0734 14.2716 20.0598 14.7056 19.7837 14.9648L14.6207 19.8141C14.4214 20.0013 14.1299 20.0522 13.879 19.9436C13.628 19.835 13.4655 19.5877 13.4655 19.3143V4.76654C13.4655 4.38783 13.7725 4.08082 14.1513 4.08082Z" fill="currentColor" />
</svg>