<svg xmlns="http://www.w3.org/2000/svg" width="24" height="24" viewBox="0 0 24 24" fill="none">
  <path fill="currentColor" d="M12.6075 3.49859L14.6266 8.05374C14.7026 8.22515 14.8236 8.37325 14.9772 8.4826C15.1308 8.59195 15.3112 8.65854 15.4996 8.67544L20.4184 9.11167C20.9749 9.19179 21.1969 9.86691 20.7934 10.2557L17.0882 13.3345C16.7882 13.5837 16.6517 13.9755 16.7342 14.3538L17.8112 19.3407C17.9057 19.8883 17.3252 20.3067 16.8272 20.047L12.534 17.5602C12.3721 17.4662 12.1877 17.4166 11.9999 17.4166C11.8122 17.4166 11.6278 17.4662 11.4659 17.5602L7.17268 20.0455C6.67615 20.3037 6.09412 19.8868 6.18862 19.3393L7.26568 14.3523C7.34668 13.974 7.21168 13.5823 6.91166 13.333L3.20496 10.2571C2.80294 9.86987 3.02495 9.19328 3.57998 9.11315L8.49875 8.67693C8.68719 8.66003 8.8676 8.59343 9.02116 8.48408C9.17472 8.37473 9.29581 8.22663 9.37179 8.05523L11.3909 3.50007C11.6414 3.00153 12.3585 3.00153 12.6075 3.49859Z" />
  <path fill="currentColor" d="M12.3734 8.30172L12.0096 5.54307C11.9952 5.3894 11.9537 5.12598 12.2761 5.12598C12.5314 5.12598 12.6703 5.53209 12.6703 5.53209L13.7618 7.74682C14.1736 8.58954 14.0044 8.87858 13.607 9.04932C13.1506 9.24445 12.4772 9.092 12.3734 8.30172Z" />
  <path fill="currentColor" d="M17.1986 13.8092L19.7592 10.8859C19.8858 10.7313 20.1142 10.4849 19.9315 10.2043C19.7866 9.98277 19.3951 10.3016 19.3951 10.3016L17.1543 11.5828C16.486 11.9208 16.0423 12.4211 16.0032 13.0512C15.9523 13.8913 16.4678 14.5386 17.1986 13.8092Z" />
</svg>