<svg xmlns="http://www.w3.org/2000/svg" width="24" height="24" viewBox="0 0 24 24" fill="none">
  <path d="M17 12.2308C17.6276 12.2308 18.1364 11.7142 18.1364 11.0769C18.1364 10.4397 17.6276 9.92308 17 9.92308C16.3724 9.92308 15.8636 10.4397 15.8636 11.0769C15.8636 11.7142 16.3724 12.2308 17 12.2308ZM17 13.6154C15.6193 13.6154 14.5 12.4789 14.5 11.0769C14.5 9.67497 15.6193 8.53846 17 8.53846C18.3807 8.53846 19.5 9.67497 19.5 11.0769C19.5 12.4789 18.3807 13.6154 17 13.6154Z" fill="currentColor" />
  <path d="M17 19.6154C17.6276 19.6154 18.1364 19.0988 18.1364 18.4615C18.1364 17.8243 17.6276 17.3077 17 17.3077C16.3724 17.3077 15.8636 17.8243 15.8636 18.4615C15.8636 19.0988 16.3724 19.6154 17 19.6154ZM17 21C15.6193 21 14.5 19.8635 14.5 18.4615C14.5 17.0596 15.6193 15.9231 17 15.9231C18.3807 15.9231 19.5 17.0596 19.5 18.4615C19.5 19.8635 18.3807 21 17 21Z" fill="currentColor" />
  <path d="M7 4.38462C6.3724 4.38462 5.86364 4.90121 5.86364 5.53846C5.86364 6.17571 6.3724 6.69231 7 6.69231C7.6276 6.69231 8.13636 6.17571 8.13636 5.53846C8.13636 4.90121 7.6276 4.38462 7 4.38462ZM7 3C8.38071 3 9.5 4.13651 9.5 5.53846C9.5 6.94042 8.38071 8.07692 7 8.07692C5.61929 8.07692 4.5 6.94042 4.5 5.53846C4.5 4.13651 5.61929 3 7 3Z" fill="currentColor" />
  <path d="M6.31818 14.7692V8.30769H7.68182V14.7692C7.68182 15.6593 7.68313 16.2571 7.74219 16.7028C7.79859 17.1284 7.89609 17.3107 8.01474 17.4312C8.13339 17.5517 8.31296 17.6507 8.73207 17.7079C9.17104 17.7679 9.7598 17.7692 10.6364 17.7692H15.1818V19.1538H10.6364C9.79838 19.1538 9.1011 19.1552 8.55007 19.0799C7.97946 19.0019 7.46457 18.8305 7.0506 18.4102C6.63664 17.9898 6.46779 17.467 6.39098 16.8876C6.31685 16.3281 6.31818 15.6201 6.31818 14.7692Z" fill="currentColor" />
  <path d="M7.68182 7.38462C7.68182 8.27467 7.68313 8.87248 7.74219 9.31821C7.79859 9.74376 7.89609 9.9261 8.01474 10.0466C8.13339 10.167 8.31296 10.266 8.73207 10.3233C9.17104 10.3833 9.7598 10.3846 10.6364 10.3846H15.1818V11.7692H10.6364C9.79838 11.7692 9.1011 11.7706 8.55007 11.6953C7.97946 11.6173 7.46457 11.4459 7.0506 11.0255C6.63664 10.6052 6.46779 10.0824 6.39098 9.50301C6.31685 8.9435 6.31818 8.23549 6.31818 7.38462H7.68182Z" fill="currentColor" />
</svg>