<svg xmlns="http://www.w3.org/2000/svg" width="24" height="24" viewBox="0 0 24 24" fill="none">
  <path d="M23 10.6667H21.1667V10H18.7222V14H21.1667V13.3333H23V16H16.8889V8H23V10.6667ZM7.11111 8V16H5.27778V14H2.83333V16H1V8H7.11111ZM5.27778 10H2.83333V12H5.27778V10ZM13.8333 12C14.5056 12 15.0556 12.6 15.0556 13.3333V14.6667C15.0556 15.4 14.5056 16 13.8333 16H8.94444V8H13.8333C14.5056 8 15.0556 8.6 15.0556 9.33333V10.6667C15.0556 11.4 14.5056 12 13.8333 12ZM10.7778 10V11H13.2222V10H10.7778ZM13.2222 13H10.7778V14H13.2222V13Z" fill="currentColor" />
</svg>