<svg xmlns="http://www.w3.org/2000/svg" width="24" height="24" viewBox="0 0 14 16" fill="none">
  <path d="M7 1.77778C4.87463 1.77778 3.5 3.14667 3.5 4.44444C3.5 5.15911 3.745 5.65511 4.25687 6.06044C4.809 6.49778 5.71375 6.85778 7.07787 7.11111H13.125C13.3571 7.11111 13.5796 7.20476 13.7437 7.37146C13.9078 7.53816 14 7.76425 14 8C14 8.23575 13.9078 8.46184 13.7437 8.62854C13.5796 8.79524 13.3571 8.88889 13.125 8.88889H11.2096C11.8991 9.59467 12.25 10.4916 12.25 11.5556C12.25 14.1849 9.70725 16 7 16C5.25175 16 3.65138 15.2764 2.681 14.0898C2.60514 14.0003 2.54758 13.8964 2.51169 13.7841C2.47579 13.6718 2.46227 13.5534 2.47193 13.4358C2.48158 13.3181 2.51421 13.2036 2.56791 13.0989C2.62161 12.9942 2.6953 12.9014 2.78469 12.8259C2.87408 12.7505 2.97736 12.6939 3.08852 12.6594C3.19968 12.6249 3.31649 12.6133 3.43211 12.6252C3.54774 12.6371 3.65988 12.6723 3.76197 12.7287C3.86407 12.7851 3.95408 12.8616 4.02675 12.9538C4.62438 13.6827 5.705 14.2222 7 14.2222C9.12537 14.2222 10.5 12.8533 10.5 11.5556C10.5 10.8409 10.255 10.3449 9.74313 9.93956C9.191 9.50222 8.28625 9.14222 6.92213 8.88889H0.875C0.642936 8.88889 0.420376 8.79524 0.256282 8.62854C0.0921874 8.46184 0 8.23575 0 8C0 7.76425 0.0921874 7.53816 0.256282 7.37146C0.420376 7.20476 0.642936 7.11111 0.875 7.11111H2.79038C2.10088 6.40533 1.75 5.50844 1.75 4.44444C1.75 1.81511 4.29275 0 7 0C8.29237 0 9.4955 0.394667 10.4256 1.07111C10.6144 1.20832 10.7418 1.41609 10.7798 1.64872C10.8178 1.88134 10.7632 2.11977 10.6282 2.31156C10.4931 2.50334 10.2886 2.63276 10.0596 2.67135C9.83061 2.70994 9.59591 2.65454 9.40713 2.51733C8.79025 2.06844 7.9485 1.77778 7 1.77778Z" fill="currentColor" />
</svg>