<svg xmlns="http://www.w3.org/2000/svg" width="24" height="24" viewBox="0 0 24 24" fill="none">
  <path d="M4 18C3.71667 18 3.47933 17.8848 3.288 17.6544C3.09667 17.424 3.00067 17.1392 3 16.8V7.2C3 6.86 3.096 6.5752 3.288 6.3456C3.48 6.116 3.71733 6.0008 4 6C4.28267 5.9992 4.52033 6.1144 4.713 6.3456C4.90567 6.5768 5.00133 6.8616 5 7.2V10.8H9V7.2C9 6.86 9.096 6.5752 9.288 6.3456C9.48 6.116 9.71733 6.0008 10 6C10.2827 5.9992 10.5203 6.1144 10.713 6.3456C10.9057 6.5768 11.0013 6.8616 11 7.2V16.8C11 17.14 10.904 17.4252 10.712 17.6556C10.52 17.886 10.2827 18.0008 10 18C9.71733 17.9992 9.48 17.884 9.288 17.6544C9.096 17.4248 9 17.14 9 16.8V13.2H5V16.8C5 17.14 4.904 17.4252 4.712 17.6556C4.52 17.886 4.28267 18.0008 4 18ZM14 18C13.7167 18 13.4793 17.8848 13.288 17.6544C13.0967 17.424 13.0007 17.1392 13 16.8V13.2C13 12.54 13.196 11.9752 13.588 11.5056C13.98 11.036 14.4507 10.8008 15 10.8H19V8.4H14C13.7167 8.4 13.4793 8.2848 13.288 8.0544C13.0967 7.824 13.0007 7.5392 13 7.2C12.9993 6.8608 13.0953 6.576 13.288 6.3456C13.4807 6.1152 13.718 6 14 6H19C19.55 6 20.021 6.2352 20.413 6.7056C20.805 7.176 21.0007 7.7408 21 8.4V10.8C21 11.46 20.8043 12.0252 20.413 12.4956C20.0217 12.966 19.5507 13.2008 19 13.2H15V15.6H20C20.2833 15.6 20.521 15.7152 20.713 15.9456C20.905 16.176 21.0007 16.4608 21 16.8C20.9993 17.1392 20.9033 17.4244 20.712 17.6556C20.5207 17.8868 20.2833 18.0016 20 18H14Z" fill="currentColor" />
</svg>