<svg xmlns="http://www.w3.org/2000/svg" width="24" height="24" viewBox="0 0 24 24" fill="none">
  <path d="M10.5789 18V13H4.89474V18C4.89474 18.5523 4.47059 19 3.94737 19C3.42415 19 3 18.5523 3 18V6C3 5.44772 3.42415 5 3.94737 5C4.47059 5 4.89474 5.44772 4.89474 6V11H10.5789V6C10.5789 5.44772 11.0031 5 11.5263 5C12.0495 5 12.4737 5.44772 12.4737 6V18C12.4737 18.5523 12.0495 19 11.5263 19C11.0031 19 10.5789 18.5523 10.5789 18ZM19.1053 12C19.1053 11.7389 18.9476 11.4566 18.5687 11.3232C18.2007 11.1939 17.5728 11.2127 16.8312 11.7998C16.4126 12.131 15.8193 12.0414 15.5054 11.5996C15.1916 11.1578 15.2766 10.5315 15.6951 10.2002C16.848 9.28753 18.1151 9.05623 19.1682 9.42676C20.2101 9.79349 21 10.7612 21 12C21 13.0159 20.6635 13.762 20.1442 14.333C19.6848 14.8381 19.0709 15.2018 18.6603 15.4727C18.1988 15.7771 17.8615 16.0362 17.6213 16.3848C17.5112 16.5445 17.4093 16.742 17.3345 17H20.0526C20.5758 17 21 17.4477 21 18C21 18.5523 20.5758 19 20.0526 19H16.2632C15.7399 19 15.3158 18.5523 15.3158 18C15.3158 16.8183 15.6008 15.918 16.0892 15.209C16.5594 14.5265 17.1697 14.0978 17.6555 13.7773C18.1921 13.4234 18.5259 13.2241 18.7768 12.9482C18.968 12.7381 19.1053 12.4839 19.1053 12Z" fill="currentColor" />
</svg>