<svg xmlns="http://www.w3.org/2000/svg" width="24" height="24" viewBox="0 0 24 24" fill="none">
  <path fill="currentColor" d="M4 18.9512V6.90244C4 6.22646 4.26509 5.57836 4.73661 5.10037C5.20813 4.62238 5.84746 4.35366 6.51429 4.35366H8.8C9.17871 4.35366 9.48571 4.66488 9.48571 5.04878C9.48571 5.43269 9.17871 5.7439 8.8 5.7439H6.51429C6.21118 5.7439 5.92058 5.86605 5.70625 6.08332C5.49192 6.30059 5.37143 6.59518 5.37143 6.90244V18.9512L5.37679 19.0662C5.40284 19.3312 5.51881 19.5803 5.70625 19.7703C5.92058 19.9876 6.21118 20.1098 6.51429 20.1098H17.4857C17.7888 20.1098 18.0794 19.9876 18.2937 19.7703C18.5081 19.5531 18.6286 19.2585 18.6286 18.9512V6.90244C18.6286 6.59518 18.5081 6.30059 18.2937 6.08332C18.1063 5.89331 17.8606 5.77575 17.5991 5.74933L17.4857 5.7439H15.2C14.8213 5.7439 14.5143 5.43269 14.5143 5.04878C14.5143 4.66488 14.8213 4.35366 15.2 4.35366H17.4857C18.1525 4.35366 18.7919 4.62238 19.2634 5.10037C19.7349 5.57836 20 6.22646 20 6.90244V18.9512C20 19.6272 19.7349 20.2753 19.2634 20.7533C18.7919 21.2313 18.1525 21.5 17.4857 21.5H6.51429C5.84746 21.5 5.20813 21.2313 4.73661 20.7533C4.26509 20.2753 4 19.6272 4 18.9512Z" />
  <path fill="currentColor" d="M13.3152 2.5L13.5241 2.50905C14.01 2.55026 14.4749 2.73426 14.8616 3.04035C15.3035 3.39014 15.6176 3.87925 15.7536 4.43059L16.3223 6.73409C16.3734 6.94165 16.3272 7.1619 16.1973 7.33055C16.0674 7.49905 15.8682 7.59756 15.6571 7.59756H8.34286C8.13185 7.59756 7.93263 7.49906 7.80268 7.33055C7.67276 7.16189 7.62655 6.9417 7.67768 6.73409L8.24554 4.43059C8.38152 3.87925 8.69564 3.39014 9.1375 3.04035C9.5793 2.69062 10.1234 2.50016 10.6839 2.5H13.3152ZM10.5893 3.89386C10.3685 3.91259 10.157 3.99644 9.98125 4.13553C9.78039 4.29454 9.63769 4.51756 9.57589 4.7682L9.22054 6.20732H14.7786L14.4232 4.7682C14.3614 4.51756 14.2187 4.29454 14.0179 4.13553C13.8421 3.99644 13.6306 3.9126 13.4098 3.89386L13.3143 3.89024H10.6848L10.5893 3.89386Z" />
  <path fill="currentColor" d="M14.7429 15.2439C15.2478 15.2439 15.6571 15.6589 15.6571 16.1707C15.6571 16.6826 15.2478 17.0976 14.7429 17.0976H9.25714C8.7522 17.0976 8.34286 16.6826 8.34286 16.1707C8.34286 15.6589 8.7522 15.2439 9.25714 15.2439H14.7429ZM14.7429 11.5366C15.2478 11.5366 15.6571 11.9515 15.6571 12.4634C15.6571 12.9753 15.2478 13.3902 14.7429 13.3902H9.25714C8.7522 13.3902 8.34286 12.9753 8.34286 12.4634C8.34286 11.9515 8.7522 11.5366 9.25714 11.5366H14.7429Z" />
</svg>