<svg xmlns="http://www.w3.org/2000/svg" width="24" height="24" viewBox="0 0 24 24" fill="none">
  <path d="M16.4444 10.3613C16.8587 10.3613 17.1944 10.6971 17.1944 11.1113C17.1943 11.5254 16.8586 11.8613 16.4444 11.8613H12.0001C11.586 11.8613 11.2502 11.5254 11.2501 11.1113C11.2501 10.6971 11.5859 10.3613 12.0001 10.3613H16.4444ZM16.4444 6.80566C16.8587 6.80566 17.1944 7.14145 17.1944 7.55566C17.1944 7.96983 16.8586 8.30566 16.4444 8.30566H12.0001C11.5859 8.30566 11.2502 7.96983 11.2501 7.55566C11.2501 7.14145 11.5859 6.80566 12.0001 6.80566H16.4444ZM20.7501 16.4443C20.7501 17.5862 20.2968 18.6818 19.4894 19.4893C18.6819 20.2967 17.5863 20.75 16.4444 20.75C16.0302 20.75 15.6944 20.4142 15.6944 20C15.6944 19.5858 16.0302 19.25 16.4444 19.25C17.1883 19.25 17.9017 18.9546 18.4278 18.4287C18.954 17.9026 19.2501 17.1884 19.2501 16.4443V4.75H9.19444V14.667C9.19427 15.0811 8.85855 15.417 8.44444 15.417C8.03034 15.417 7.69462 15.0811 7.69444 14.667V4.5332C7.69448 4.19289 7.82978 3.86662 8.07042 3.62598C8.31106 3.38534 8.63733 3.25003 8.97765 3.25H19.4669C19.7648 3.25006 20.052 3.35374 20.2804 3.54102L20.3741 3.62598L20.4591 3.71973C20.6463 3.94811 20.7501 4.2353 20.7501 4.5332V16.4443Z" fill="currentColor" />
  <path d="M12.3555 13.9167C13.0217 13.9167 13.541 14.4118 13.6475 15.0143L13.6631 15.1364C13.7152 15.78 13.8729 16.8681 14.3203 17.7721C14.7557 18.6517 15.3982 19.25 16.4444 19.25C16.8585 19.25 17.1942 19.5856 17.1943 19.9997C17.1943 20.4139 16.8587 20.75 16.4444 20.75L6.66699 20.7497C5.76099 20.7497 4.89169 20.3902 4.25098 19.7497C3.6103 19.109 3.25009 18.2397 3.25 17.3337V16.444C3.25011 15.7738 3.51629 15.1308 3.99023 14.6569C4.46418 14.183 5.10709 13.9168 5.77734 13.9167H12.3555ZM4.75 17.3337C4.75009 17.8418 4.95226 18.3288 5.31152 18.6882C5.67097 19.0476 6.15866 19.2497 6.66699 19.2497H13.4736C13.2789 18.9911 13.1135 18.7159 12.9756 18.4372C12.4422 17.3594 12.2527 16.1489 12.1826 15.4167H5.77734C5.50492 15.4168 5.24342 15.5248 5.05078 15.7174C4.85814 15.9101 4.75011 16.1716 4.75 16.444V17.3337Z" fill="currentColor" />
</svg>