<svg xmlns="http://www.w3.org/2000/svg" width="24" height="24" viewBox="0 0 24 24" fill="none">
  <path d="M18.6433 17.2744C18.6432 17.0537 18.5535 16.8275 18.3706 16.6497C18.1854 16.4698 17.9216 16.3584 17.6352 16.3584C17.3487 16.3584 17.0851 16.4697 16.8998 16.6497C16.7168 16.8275 16.6272 17.0537 16.6271 17.2744C16.6271 17.4954 16.7166 17.7223 16.8998 17.9002C17.0851 18.0801 17.3488 18.1915 17.6352 18.1915C17.9216 18.1915 18.1854 18.0801 18.3706 17.9002C18.5538 17.7223 18.6433 17.4953 18.6433 17.2744ZM18.6424 5.45893C18.6422 5.23821 18.5526 5.01193 18.3697 4.83415C18.1844 4.65423 17.9207 4.54287 17.6342 4.54286H10.5423V8.90725H18.6424V5.45893ZM4.45943 17.2744C4.45943 17.4953 4.54902 17.7223 4.73213 17.9002C4.91736 18.0801 5.18116 18.1915 5.46755 18.1915H9.08287V10.4501H4.45943V17.2744ZM20.1027 17.2744C20.1027 17.4386 20.0858 17.6004 20.0543 17.7576L20.612 18.07C20.9678 18.2695 21.1035 18.7363 20.9151 19.1126C20.7264 19.4891 20.284 19.6325 19.9279 19.433L19.3037 19.0835C19.0303 19.3339 18.7097 19.5166 18.3649 19.6229V20.2286C18.3649 20.6546 18.0381 20.9999 17.6352 21C17.2322 21 16.9055 20.6546 16.9055 20.2286V19.6229C16.5605 19.5166 16.2393 19.3342 15.9658 19.0835L15.3425 19.433C14.9864 19.6324 14.5449 19.489 14.3562 19.1126C14.1677 18.7362 14.3033 18.2694 14.6593 18.07L15.2152 17.7576C15.1836 17.6004 15.1676 17.4385 15.1676 17.2744C15.1677 17.1102 15.1836 16.9485 15.2152 16.7913L14.6593 16.4799C14.3032 16.2804 14.1675 15.8127 14.3562 15.4363C14.5449 15.0601 14.9865 14.9167 15.3425 15.1158L15.9658 15.4644C16.2392 15.214 16.5607 15.0322 16.9055 14.926V14.3213C16.9055 13.8953 17.2322 13.5499 17.6352 13.5499C18.0381 13.55 18.3649 13.8953 18.3649 14.3213V14.926C18.7096 15.0322 19.0303 15.2151 19.3037 15.4654L19.927 15.1158C20.283 14.9162 20.7253 15.0599 20.9142 15.4363C21.1029 15.8126 20.9669 16.2792 20.6111 16.4789L20.0543 16.7913C20.0859 16.9486 20.1027 17.1102 20.1027 17.2744ZM4.45943 8.90725H9.08287V4.54286H5.46755C5.18116 4.54292 4.91736 4.65427 4.73213 4.83415C4.54923 5.01191 4.45955 5.23825 4.45943 5.45893V8.90725ZM20.1018 11.3672C20.1017 11.7932 19.775 12.1386 19.3721 12.1386C18.9692 12.1385 18.6424 11.7931 18.6424 11.3672V10.4501H10.5423V18.1915H11.5514C11.9542 18.1917 12.2811 18.537 12.2811 18.9629C12.2809 19.3887 11.9541 19.7342 11.5514 19.7344H5.46755C4.83217 19.7343 4.21148 19.4894 3.74492 19.0363C3.27631 18.5811 3 17.9488 3 17.2744V5.45893C3.00011 4.78482 3.2765 4.15316 3.74492 3.6981C4.21148 3.245 4.83217 3.00006 5.46755 3H17.6342C18.2697 3.00001 18.8903 3.24496 19.3569 3.6981C19.8254 4.15317 20.1017 4.78478 20.1018 5.45893V11.3672Z" fill="currentColor" />
</svg>