<svg xmlns="http://www.w3.org/2000/svg" width="24" height="24" viewBox="0 0 24 24" fill="none">
  <path d="M19.5405 16.1351H14.4324V19.5405H19.2973C19.4316 19.5405 19.5405 19.4316 19.5405 19.2973V16.1351ZM3 16.8649V4.7027C3 3.76233 3.76233 3 4.7027 3H16.8649C17.2679 3 17.5946 3.32671 17.5946 3.72973C17.5946 4.13275 17.2679 4.45946 16.8649 4.45946H4.7027C4.56836 4.45946 4.45946 4.56836 4.45946 4.7027V16.8649C4.45946 17.2679 4.13275 17.5946 3.72973 17.5946C3.32671 17.5946 3 17.2679 3 16.8649ZM14.4324 14.6757H19.5405V11.2703H14.4324V14.6757ZM7.86486 14.6757H12.973V11.2703H7.86486V14.6757ZM7.86486 19.2973C7.86486 19.4316 7.97377 19.5405 8.10811 19.5405H12.973V16.1351H7.86486V19.2973ZM19.5405 8.10811C19.5405 7.97377 19.4316 7.86486 19.2973 7.86486H8.10811C7.97377 7.86486 7.86486 7.97377 7.86486 8.10811V9.81081H19.5405V8.10811ZM21 19.2973C21 20.2377 20.2377 21 19.2973 21H8.10811C7.16773 21 6.40541 20.2377 6.40541 19.2973V8.10811C6.40541 7.16773 7.16773 6.40541 8.10811 6.40541H19.2973C20.2377 6.40541 21 7.16773 21 8.10811V19.2973Z" fill="currentColor" />
</svg>