<svg xmlns="http://www.w3.org/2000/svg" width="24" height="24" viewBox="0 0 24 24" fill="none">
  <path d="M9.54545 21H4.45455C4.06878 21 3.69881 20.8276 3.42603 20.5207C3.15325 20.2138 3 19.7976 3 19.3636V13.6364C3 13.2024 3.15325 12.7862 3.42603 12.4793C3.69881 12.1724 4.06878 12 4.45455 12H9.54545C9.93122 12 10.3012 12.1724 10.574 12.4793C10.8468 12.7862 11 13.2024 11 13.6364V19.3636C11 19.7976 10.8468 20.2138 10.574 20.5207C10.3012 20.8276 9.93122 21 9.54545 21ZM4.45455 13.6364V19.3636H9.54545V13.6364H4.45455Z" fill="currentColor" />
  <path d="M19.6154 3H4.38462C4.01739 3 3.66521 3.14588 3.40554 3.40554C3.14588 3.66521 3 4.01739 3 4.38462V10.6154C3 10.9977 3.30996 11.3077 3.69231 11.3077C4.07466 11.3077 4.38462 10.9977 4.38462 10.6154V8.53846H11.3077V10.6154C11.3077 10.9977 11.6176 11.3077 12 11.3077C12.3824 11.3077 12.6923 10.9977 12.6923 10.6154V8.53846H19.6154V13.3846H13.3846C13.0023 13.3846 12.6923 13.6946 12.6923 14.0769C12.6923 14.4593 13.0023 14.7692 13.3846 14.7692H19.6154V19.6154H13.3846C13.0023 19.6154 12.6923 19.9253 12.6923 20.3077C12.6923 20.69 13.0023 21 13.3846 21H19.6154C19.9826 21 20.3348 20.8541 20.5945 20.5945C20.8541 20.3348 21 19.9826 21 19.6154V4.38462C21 4.01739 20.8541 3.66521 20.5945 3.40554C20.3348 3.14588 19.9826 3 19.6154 3ZM19.6154 7.15385H4.38462V4.38462H19.6154V7.15385Z" fill="currentColor" />
</svg>