<svg xmlns="http://www.w3.org/2000/svg" width="24" height="24" viewBox="0 0 24 24" fill="none">
  <path d="M9.71681 13.4561C10.8752 13.4833 12.0132 13.7675 13.0449 14.2881C13.9477 14.7437 14.7493 15.3703 15.4043 16.1309L15.6758 16.4648L15.6826 16.4727L15.7764 16.6084C15.9837 16.9313 16.1097 17.3005 16.1416 17.6846C16.1781 18.1236 16.0896 18.5635 15.8877 18.9551C15.6859 19.3464 15.3788 19.6735 15.002 19.9014C14.6252 20.1291 14.1923 20.2494 13.752 20.25H5.64357C5.20377 20.2486 4.77161 20.1283 4.39552 19.9004C4.01933 19.6724 3.71322 19.345 3.51174 18.9541C3.31019 18.563 3.2217 18.124 3.25783 17.6855C3.29396 17.2471 3.45258 16.8278 3.71486 16.4746L3.7217 16.4658L3.99318 16.1318C4.64819 15.3709 5.45049 14.7439 6.35353 14.2881C7.38529 13.7674 8.52329 13.4833 9.68166 13.4561H9.71681ZM14.8945 13.0664C16.0645 13.1218 17.2014 13.4788 18.1895 14.1055C19.1775 14.7322 19.9802 15.6051 20.5156 16.6348L20.6192 16.8428L20.6475 16.9102L20.707 17.1133C20.7383 17.2503 20.7528 17.3907 20.75 17.5312L20.7324 17.7422C20.6921 18.0225 20.5837 18.2884 20.417 18.5166C20.2503 18.7447 20.03 18.9278 19.7774 19.0527C19.5283 19.1758 19.254 19.2378 18.9766 19.2354L17.127 19.2363C16.7129 19.2362 16.377 18.9004 16.377 18.4863C16.377 18.0722 16.7129 17.7365 17.127 17.7363H18.9883L19.0528 17.7295C19.0737 17.7248 19.0943 17.7174 19.1133 17.708C19.1511 17.6892 19.1822 17.6622 19.2051 17.6309C19.228 17.5995 19.2429 17.5644 19.2481 17.5283L19.249 17.4736C19.248 17.4633 19.2438 17.4535 19.2412 17.4434C18.8299 16.6002 18.1893 15.8827 17.3858 15.373C16.6702 14.9192 15.8527 14.6457 15.0059 14.5762L14.6416 14.5586L14.5645 14.5537C14.1871 14.5104 13.8967 14.1878 13.9014 13.7998C13.9067 13.3857 14.2461 13.0535 14.6602 13.0586L14.8945 13.0664ZM9.69826 14.9551C8.76805 14.9797 7.85603 15.2107 7.02931 15.6279C6.1985 16.0473 5.47587 16.6446 4.91506 17.375C4.82125 17.5035 4.76575 17.6535 4.75295 17.8086C4.73998 17.9659 4.7715 18.1243 4.84474 18.2666C4.91816 18.4091 5.03108 18.5313 5.17287 18.6172C5.31478 18.7032 5.47965 18.7495 5.64845 18.75H13.75C13.9189 18.7498 14.0835 18.7031 14.2256 18.6172C14.3676 18.5313 14.4812 18.4101 14.5547 18.2676C14.6281 18.1251 14.6596 17.9662 14.6465 17.8086C14.6336 17.6545 14.5783 17.5057 14.4854 17.3779L14.2676 17.1094C13.7418 16.4988 13.0971 15.9943 12.3692 15.627C11.542 15.2096 10.6289 14.9794 9.69826 14.9551ZM9.69826 3.75C10.8451 3.75004 11.9478 4.19751 12.7627 4.99805C13.5779 5.79891 14.0379 6.88796 14.0381 8.02637L14.0332 8.23926C13.9801 9.3007 13.5285 10.3062 12.7647 11.0586C11.9506 11.8604 10.8483 12.3097 9.70119 12.3125C9.68887 12.3125 9.67625 12.3111 9.66408 12.3105C8.52844 12.2998 7.43956 11.8518 6.63283 11.0576C5.86907 10.3057 5.41691 9.3013 5.3633 8.24023L5.35744 8.02734C5.35744 6.88866 5.81837 5.79906 6.63381 4.99805C7.44878 4.19749 8.55138 3.75 9.69826 3.75ZM14.8428 4.48438C15.2909 4.50593 15.7326 4.6031 16.1485 4.77246C16.6238 4.96614 17.0571 5.25114 17.4219 5.61035C17.7865 5.96947 18.076 6.39645 18.2735 6.86719C18.4707 7.33754 18.5724 7.84209 18.5713 8.35156L18.5664 8.54199C18.5442 8.98614 18.4439 9.42386 18.2705 9.83496C18.0725 10.3044 17.7824 10.7299 17.418 11.0879C17.0533 11.446 16.6212 11.7298 16.1465 11.9229C15.7312 12.0917 15.2902 12.1884 14.8428 12.21L14.6504 12.2148L14.5742 12.2109C14.196 12.1726 13.9005 11.8531 13.9004 11.4648C13.9005 11.0506 14.2372 10.7147 14.6514 10.7148L14.8897 10.7031C15.1272 10.6802 15.3602 10.623 15.5811 10.5332C15.8756 10.4134 16.1431 10.2386 16.3672 10.0186C16.5912 9.79854 16.7682 9.53767 16.8887 9.25195C17.0092 8.96619 17.0713 8.66007 17.0713 8.35156V8.34961L17.0596 8.11816C17.0371 7.88825 16.9807 7.66206 16.8906 7.44727C16.7705 7.16074 16.5933 6.89945 16.3692 6.67871C16.145 6.45799 15.8779 6.28228 15.583 6.16211C15.3619 6.07201 15.1285 6.01427 14.8906 5.99121L14.6514 5.97949L14.5742 5.97559C14.1963 5.9372 13.9007 5.61854 13.9004 5.23047C13.9003 4.81634 14.2363 4.47975 14.6504 4.47949L14.8428 4.48438ZM6.87111 8.30078C6.9351 8.93397 7.21983 9.53166 7.68459 9.98926C8.14989 10.4473 8.76297 10.7317 9.41701 10.7969L9.69923 10.8115H9.70705C10.4621 10.8072 11.1825 10.5107 11.7119 9.98926C12.243 9.4661 12.5382 8.7603 12.5381 8.02734L12.5244 7.75391C12.4605 7.12142 12.1758 6.52495 11.711 6.06836C11.1793 5.54613 10.4558 5.25004 9.69826 5.25C8.94065 5.25 8.21629 5.54606 7.68459 6.06836C7.15353 6.59018 6.85744 7.29534 6.85744 8.02734L6.87111 8.30078Z" />
</svg>