<svg xmlns="http://www.w3.org/2000/svg" width="24" height="24" viewBox="0 0 17 18" fill="none">
  <path d="M14.75 11.2504C15.0455 11.2504 15.3381 11.3027 15.611 11.4045C15.884 11.5062 16.1321 11.6554 16.341 11.8434C16.5499 12.0315 16.7157 12.2547 16.8287 12.5004C16.9418 12.746 17 13.0093 17 13.2752V15.9751C17 16.241 16.9418 16.5043 16.8287 16.75C16.7157 16.9957 16.5499 17.2189 16.341 17.4069C16.1321 17.595 15.884 17.7441 15.611 17.8459C15.3381 17.9476 15.0455 18 14.75 18H2.25C1.65326 18 1.08097 17.7867 0.65901 17.4069C0.237053 17.0272 0 16.5121 0 15.9751V13.2752C0 12.7382 0.237053 12.2232 0.65901 11.8434C1.08097 11.4637 1.65326 11.2504 2.25 11.2504H14.75ZM4.053 8.97347L7.806 0.427517C7.85758 0.309709 7.94495 0.207335 8.05811 0.132092C8.17128 0.0568485 8.30568 0.0117709 8.44596 0.00200908C8.58624 -0.00775279 8.72675 0.0181948 8.85142 0.0768875C8.97609 0.13558 9.07991 0.224651 9.151 0.333922L9.201 0.428417L12.948 8.97797C13.0191 9.13737 13.0201 9.31517 12.9506 9.47516C12.8811 9.63515 12.7465 9.76529 12.5742 9.83906C12.4018 9.91283 12.2047 9.92469 12.0229 9.87222C11.8412 9.81974 11.6885 9.70689 11.596 9.55664L11.552 9.47384L10.556 7.20056H6.443L5.447 9.46845C5.38059 9.62038 5.25524 9.7455 5.09417 9.82062C4.9331 9.89575 4.74723 9.91579 4.571 9.87702L4.474 9.84913C4.30536 9.78919 4.16656 9.67631 4.08327 9.53138C3.99999 9.38644 3.97787 9.21925 4.021 9.06077L4.053 8.97347ZM8.503 2.51361L7.036 5.85063H9.964L8.503 2.51361Z" fill="currentColor" />
</svg>