<svg xmlns="http://www.w3.org/2000/svg" width="24" height="24" viewBox="0 0 24 24" fill="none">
  <path d="M20.2103 6.34793C20.4041 6.4594 20.5716 6.6114 20.7031 6.79479C20.8348 6.97856 20.9277 7.18994 20.9771 7.41558C21.0265 7.6411 21.0309 7.87698 20.9926 8.10928C20.9542 8.34155 20.8734 8.56669 20.7543 8.77189C20.7511 8.77748 20.748 8.7832 20.7446 8.78871L17.3532 14.2948C17.1519 14.6218 16.744 14.7389 16.432 14.5588L7.45022 9.37318C7.13551 9.19149 7.03385 8.77445 7.22167 8.43574L10.3568 2.78166C10.8485 1.89893 11.9202 1.56171 12.7335 2.0312L20.2103 6.34793ZM12.023 3.26187C11.8617 3.1688 11.634 3.23067 11.5244 3.42587L8.72755 8.46976L16.5817 13.0044L19.6035 8.09679C19.6299 8.05002 19.6487 7.9996 19.6572 7.9483C19.6659 7.89525 19.6643 7.8428 19.6537 7.79459C19.6432 7.74645 19.6233 7.70332 19.5972 7.66686C19.5841 7.64865 19.5698 7.63179 19.5537 7.61719L19.5013 7.57946L12.023 3.26187Z" fill="currentColor" />
  <path d="M7.46908 7.90262C7.66714 7.55958 8.08635 7.43081 8.40526 7.61475C8.72419 7.79889 8.82215 8.22632 8.62405 8.56944L7.5942 10.3532L7.57448 10.3839C7.57841 10.3888 7.58181 10.395 7.58682 10.4007C7.64113 10.4628 7.72819 10.5366 7.85111 10.6202C7.97274 10.7028 8.1022 10.777 8.23877 10.8569L8.42817 10.9717C9.35222 11.5531 9.90288 12.2259 10.0629 13.0059C10.2347 13.8439 9.91577 14.6089 9.53161 15.1973C9.21489 15.6818 9.03679 15.9495 8.89812 16.1625L8.49574 16.8039C8.15036 17.3725 8.05147 17.8258 8.06131 18.1225C8.07123 18.4192 8.18147 18.5305 8.23949 18.564C8.29759 18.5975 8.44935 18.6366 8.71145 18.4967C8.94057 18.3743 9.23146 18.1202 9.5146 17.6683L9.63567 17.462C9.78681 17.1864 9.8746 17.0198 9.98992 16.7929L10.5086 15.7624C10.826 15.1351 11.3294 14.4761 12.1412 14.2059C12.947 13.9377 13.8693 14.1155 14.9144 14.7111L15.1153 14.825C15.1815 14.8614 15.2469 14.8964 15.3132 14.9284C15.447 14.9931 15.5545 15.0316 15.6355 15.0476C15.6426 15.049 15.6495 15.0485 15.6555 15.0494C15.661 15.0387 15.6669 15.0279 15.6729 15.0174L16.7028 13.2337C16.9009 12.8906 17.32 12.7617 17.6389 12.9458C17.9577 13.13 18.0558 13.5575 17.8577 13.9005L16.8279 15.6843C16.6723 15.9866 16.4412 16.2281 16.1339 16.3601C15.8278 16.4914 15.5297 16.4786 15.3006 16.4333C14.9753 16.3691 14.6519 16.2083 14.4122 16.0758L14.203 15.9571C13.3099 15.4481 12.7796 15.4471 12.4811 15.5465C12.1887 15.6438 11.9353 15.8991 11.7051 16.354L11.1837 17.3872C11.063 17.6246 10.9664 17.8081 10.8072 18.0985L10.6427 18.3799C10.2473 19.0117 9.77509 19.4735 9.27158 19.7423C8.6965 20.0493 8.05038 20.1115 7.5221 19.8066C6.99385 19.5016 6.72461 18.911 6.70299 18.2594C6.68138 17.6074 6.89883 16.8649 7.35881 16.1076L7.58232 15.7448C7.78427 15.4233 7.95582 15.1688 8.42065 14.4577C8.69933 14.0308 8.7938 13.6838 8.73195 13.3819C8.67664 13.1123 8.46595 12.7275 7.81965 12.2879L7.51536 12.096C7.28339 11.9603 6.84533 11.7165 6.55416 11.3836C6.40037 11.2077 6.23941 10.9558 6.2002 10.6248C6.16096 10.2928 6.25521 9.97207 6.43923 9.68637L7.46908 7.90262Z" fill="currentColor" />
</svg>