<svg xmlns="http://www.w3.org/2000/svg" width="24" height="24" viewBox="0 0 20 20" fill="none">
  <path d="M9.37539 4.9985C9.37536 4.84244 9.3404 4.68833 9.27285 4.54766C9.20531 4.40705 9.10729 4.28306 8.98558 4.18552C8.86375 4.08794 8.72096 4.01892 8.56891 3.98369C8.41693 3.94852 8.25891 3.94802 8.10667 3.98207C7.9544 4.01614 7.81172 4.08401 7.68919 4.18063C7.56665 4.27728 7.46731 4.40016 7.39866 4.54033C7.33002 4.6805 7.29409 4.8343 7.29287 4.99037C7.29166 5.14638 7.32494 5.30085 7.39134 5.44203C7.53827 5.75424 7.40476 6.12664 7.09267 6.27373C6.92472 6.35277 6.73989 6.34857 6.58161 6.28106C6.47998 6.26698 6.37974 6.23067 6.29189 6.16468C6.09529 6.01706 5.85293 5.94402 5.60749 5.95798C5.36197 5.97194 5.12936 6.07213 4.95075 6.24118C4.77216 6.41022 4.6592 6.63725 4.63174 6.88164C4.60437 7.12593 4.66363 7.37225 4.80019 7.57663C4.92389 7.76174 4.93405 7.98778 4.84984 8.17722C4.8152 8.27975 4.75633 8.37576 4.66836 8.45147C4.41151 8.67257 4.21386 8.95431 4.093 9.27097C3.97215 9.58762 3.93159 9.9294 3.97581 10.2654C4.02008 10.6015 4.14733 10.9218 4.34609 11.1964C4.54478 11.4709 4.80904 11.6915 5.11432 11.8385C5.3434 11.9488 5.48336 12.187 5.46751 12.4407C5.40326 13.4649 5.50111 13.9373 5.70189 14.1937C5.88466 14.4269 6.28865 14.6423 7.37181 14.708C7.70169 14.728 7.95937 15.0017 7.95937 15.3322C7.95947 15.5199 8.03414 15.6999 8.16689 15.8327C8.29971 15.9654 8.47961 16.0402 8.66738 16.0402C8.85515 16.0402 9.03505 15.9654 9.16787 15.8327C9.30062 15.6999 9.3753 15.5199 9.37539 15.3322V4.9985ZM13.8985 12.3618C14.0662 12.0601 14.4472 11.9508 14.7489 12.1185C15.0506 12.2861 15.1591 12.6672 14.9914 12.9689L14.3965 14.0398H16.0006C16.222 14.0399 16.427 14.1574 16.5393 14.3483C16.6515 14.5391 16.654 14.7749 16.5466 14.9684L15.4358 16.9687C15.2681 17.2704 14.8871 17.3789 14.5853 17.2112C14.2838 17.0435 14.1752 16.6633 14.3428 16.3616L14.9385 15.2898H13.3337C13.1123 15.2898 12.9073 15.173 12.795 14.9822C12.6827 14.7914 12.6801 14.5549 12.7877 14.3613L13.8985 12.3618ZM10.6254 6.66517L10.6327 6.80108C10.664 7.11578 10.8027 7.41209 11.0282 7.63766C11.2861 7.89547 11.6361 8.03968 12.0007 8.03968C12.3457 8.03975 12.6255 8.31969 12.6257 8.66468C12.6257 9.00982 12.3458 9.28962 12.0007 9.28968C11.511 9.28968 11.0358 9.15239 10.6254 8.89987V15.3322C10.6255 15.5198 10.7003 15.6999 10.8329 15.8327C10.9657 15.9655 11.1464 16.0402 11.3342 16.0402C11.6793 16.0403 11.9592 16.3201 11.9592 16.6652C11.9592 17.0103 11.6793 17.29 11.3342 17.2902C10.8379 17.2902 10.3622 17.1001 10.0004 16.7628C9.63858 17.0999 9.16358 17.2902 8.66738 17.2902C8.14801 17.2902 7.64953 17.0837 7.28229 16.7164C7.05487 16.4889 6.8896 16.211 6.79645 15.9091C5.89651 15.8028 5.17531 15.5494 4.71719 14.9643C4.2636 14.385 4.1744 13.61 4.20042 12.7549C3.86455 12.5355 3.57034 12.2558 3.33372 11.9288C3.0134 11.4862 2.80859 10.9707 2.73721 10.429C2.66584 9.88712 2.7303 9.33563 2.92519 8.825C3.06597 8.45622 3.27211 8.11754 3.53148 7.82321C3.39925 7.48122 3.34757 7.11091 3.38906 6.74167C3.44948 6.204 3.69841 5.70489 4.09137 5.33298C4.48433 4.96108 4.99652 4.74033 5.53668 4.7096C5.7119 4.69965 5.88609 4.71184 6.0567 4.74134C6.08611 4.48094 6.16065 4.22661 6.27643 3.9902C6.42745 3.68199 6.64576 3.41172 6.91527 3.19919C7.18491 2.98656 7.49893 2.83713 7.83405 2.76218C8.16914 2.68724 8.51679 2.68875 8.8513 2.76625C9.1858 2.84375 9.49883 2.99511 9.76683 3.20977C9.85001 3.2764 9.92764 3.34913 10.0004 3.42624C10.0732 3.349 10.1515 3.2765 10.2348 3.20977C10.5028 2.99512 10.8158 2.84374 11.1503 2.76625C11.4848 2.68877 11.8325 2.68723 12.1675 2.76218C12.5026 2.83714 12.8167 2.98658 13.0863 3.19919C13.3558 3.41172 13.5742 3.682 13.7252 3.9902C13.8408 4.22632 13.9138 4.48047 13.9433 4.74053C14.1143 4.71085 14.2892 4.69961 14.4649 4.7096C15.0051 4.74033 15.5173 4.96106 15.9102 5.33298C16.3031 5.70488 16.5513 6.20404 16.6117 6.74167C16.6532 7.1109 16.6023 7.48123 16.4701 7.82321C16.682 8.06346 16.8592 8.33378 16.9934 8.62643C17.1907 9.05689 17.2925 9.52498 17.2921 9.9985L17.2855 10.2133C17.2534 10.7107 17.1105 11.18 16.8803 11.5944C16.7125 11.8959 16.3315 12.0045 16.0298 11.8369C15.7282 11.6692 15.6197 11.2881 15.7873 10.9865C15.9494 10.6947 16.042 10.3585 16.0421 9.9985V9.99769C16.0424 9.70413 15.9789 9.41411 15.8565 9.14727C15.7341 8.88042 15.5559 8.64276 15.3332 8.45147C15.2446 8.37525 15.1847 8.27898 15.1501 8.17559C15.0669 7.98662 15.0774 7.76108 15.2006 7.57663C15.3372 7.37225 15.3972 7.12593 15.3699 6.88164C15.3424 6.6373 15.2294 6.41021 15.0508 6.24118C14.8723 6.07218 14.6395 5.97199 14.3941 5.95798C14.1486 5.94401 13.9055 6.01698 13.7089 6.16468C13.6209 6.23069 13.5209 6.26706 13.4192 6.28106C13.261 6.34836 13.0767 6.35269 12.9089 6.27373C12.5967 6.1267 12.4625 5.7543 12.6094 5.44203C12.6759 5.30079 12.7099 5.14646 12.7087 4.99037C12.7075 4.83433 12.6715 4.68047 12.6029 4.54033C12.5343 4.40022 12.4349 4.27726 12.3124 4.18063C12.1899 4.08406 12.0471 4.01616 11.8949 3.98207C11.7426 3.948 11.5839 3.94847 11.4319 3.98369C11.2799 4.01894 11.1377 4.08801 11.016 4.18552C10.8942 4.28308 10.7963 4.407 10.7287 4.54766C10.678 4.65328 10.6449 4.76624 10.6319 4.88213L10.6254 4.9985V6.66517Z" fill="currentColor" />
</svg>