<svg xmlns="http://www.w3.org/2000/svg" width="24" height="24" viewBox="0 0 24 24" fill="none">
  <path d="M3 8.37053V4.4576C3 4.2055 3.21863 4.00114 3.48832 4.00114C3.75801 4.00114 3.97663 4.2055 3.97663 4.4576V8.37053C3.97663 8.42761 4.03983 8.60285 4.44301 8.79133C4.81653 8.9659 5.36611 9.08729 5.99952 9.08732C6.63317 9.08732 7.18346 8.96672 7.55699 8.79222C7.95996 8.60392 8.02337 8.42806 8.02337 8.37053V4.45671C8.02337 4.20461 8.24199 4.00024 8.51168 4.00024C8.78117 4.00047 9 4.20475 9 4.45671V8.37053C9 8.96059 8.49996 9.37234 7.9938 9.60886C7.4582 9.85912 6.75212 10.0002 5.99952 10.0002C5.24699 10.0002 4.54167 9.85824 4.0062 9.60797C3.50024 9.37144 3 8.9603 3 8.37053Z" fill="currentColor" />
  <path d="M15 8.37053V4.4576C15 4.2055 15.2186 4.00114 15.4883 4.00114C15.758 4.00114 15.9766 4.2055 15.9766 4.4576V8.37053C15.9766 8.42805 16.0393 8.60396 16.4421 8.79222C16.8155 8.96674 17.3659 9.08729 17.9995 9.08732C18.6332 9.08732 19.1835 8.96672 19.557 8.79222C19.96 8.60392 20.0234 8.42806 20.0234 8.37053V4.45671C20.0234 4.20461 20.242 4.00024 20.5117 4.00024C20.7812 4.00047 21 4.20475 21 4.45671V8.37053C21 8.96059 20.5 9.37234 19.9938 9.60886C19.4582 9.85912 18.7521 10.0002 17.9995 10.0002C17.2472 10.0002 16.5417 9.85898 16.0062 9.60886C15.5 9.37234 15 8.96059 15 8.37053Z" fill="currentColor" />
  <path d="M8.02337 19.3694V15.4568C8.02337 15.2046 8.24199 15.0002 8.51168 15.0002C8.78117 15.0005 9 15.2048 9 15.4568V19.3694C9 19.9595 8.49995 20.3714 7.9938 20.6079C7.45819 20.8582 6.75216 21.0002 5.99952 21.0002C5.24723 21.0002 4.54173 20.8586 4.0062 20.6088C3.50004 20.3727 3 19.9616 3 19.3712V15.4568C3 15.2046 3.21863 15.0002 3.48832 15.0002C3.75801 15.0002 3.97663 15.2046 3.97663 15.4568V19.3712C3.97663 19.4285 4.03908 19.604 4.44206 19.792C4.81555 19.9663 5.36569 20.0871 5.99952 20.0872C6.63324 20.0872 7.18346 19.9657 7.55699 19.7911C7.95996 19.6028 8.02337 19.4269 8.02337 19.3694Z" fill="currentColor" />
  <path d="M20.0234 19.3687V15.4567C20.0234 15.2046 20.242 15.0002 20.5117 15.0002C20.7812 15.0005 21 15.2048 21 15.4567V19.3687C21 19.9587 20.5 20.3703 19.9938 20.6071C19.4582 20.8576 18.7523 21.0002 17.9995 21.0002C17.2471 21.0002 16.5417 20.858 16.0062 20.608C15.5 20.3717 15 19.9607 15 19.3705V15.4567C15 15.2046 15.2186 15.0002 15.4883 15.0002C15.758 15.0002 15.9766 15.2046 15.9766 15.4567V19.3705C15.9766 19.4279 16.0394 19.6032 16.4421 19.7913C16.8155 19.9657 17.3658 20.0873 17.9995 20.0873C18.6331 20.0873 19.1835 19.966 19.557 19.7913C19.96 19.6029 20.0234 19.4264 20.0234 19.3687Z" fill="currentColor" />
  <path d="M8.02337 4.50065C8.02333 4.44746 7.9596 4.28593 7.55699 4.11263C7.18361 3.95195 6.63352 3.84028 5.99952 3.84028C5.36556 3.84031 4.81539 3.95194 4.44206 4.11263C4.03968 4.28589 3.97667 4.44747 3.97663 4.50065C3.97663 4.55371 4.03934 4.71548 4.44206 4.88868C4.81539 5.04923 5.36546 5.16018 5.99952 5.16021C6.63346 5.16021 7.18361 5.04916 7.55699 4.88868C7.95971 4.71548 8.02337 4.55371 8.02337 4.50065ZM9 4.50065C9 5.04349 8.50001 5.42159 7.9938 5.63929C7.45825 5.86961 6.75251 6.00024 5.99952 6.00024C5.24662 6.00022 4.54074 5.86959 4.00525 5.63929C3.49916 5.42156 3 5.04336 3 4.50065C3.00003 3.95794 3.49904 3.57909 4.00525 3.3612C4.54074 3.1307 5.24653 3.00027 5.99952 3.00024C6.75242 3.00024 7.45829 3.13079 7.9938 3.3612C8.5 3.57909 8.99997 3.95794 9 4.50065Z" fill="currentColor" />
  <path d="M3 6.43785C3 6.19617 3.21863 6.00024 3.48832 6.00024C3.75801 6.00024 3.97663 6.19617 3.97663 6.43785C3.97663 6.493 4.03924 6.66163 4.44206 6.84212C4.81554 7.00943 5.36589 7.125 5.99952 7.12503C6.63313 7.12503 7.18346 7.0094 7.55699 6.84212C7.95996 6.6616 8.02337 6.493 8.02337 6.43785C8.02337 6.19617 8.24199 6.00024 8.51168 6.00024C8.78117 6.00046 9 6.1963 9 6.43785C9 7.00346 8.49988 7.39741 7.9938 7.62418C7.45819 7.86412 6.75216 8.00024 5.99952 8.00024C5.24704 8.00021 4.54173 7.86405 4.0062 7.62418C3.50004 7.39743 3 7.00354 3 6.43785Z" fill="currentColor" />
  <path d="M15 4.49901C15.0002 3.95665 15.4995 3.5787 16.0052 3.3612C16.5407 3.13102 17.2466 3.00027 17.9995 3.00024C18.7524 3.00024 19.4582 3.13082 19.9938 3.3612C20.5002 3.57908 21 3.95767 21 4.50065C21 5.04377 20.5002 5.42241 19.9938 5.64011C19.4582 5.8703 18.7523 6.00024 17.9995 6.00024C17.2465 6.00022 16.5408 5.8699 16.0052 5.63929C15.4988 5.42121 15 5.04192 15 4.49901ZM15.9766 4.49901C15.9766 4.55266 16.0399 4.71459 16.4421 4.88786C16.8153 5.0486 17.3656 5.16018 17.9995 5.16021C18.6336 5.16021 19.1837 5.04908 19.557 4.88868C19.9595 4.71565 20.0234 4.55412 20.0234 4.50065C20.0233 4.44705 19.9594 4.28577 19.557 4.11263C19.1837 3.95202 18.6337 3.84028 17.9995 3.84028C17.3655 3.84031 16.8154 3.95213 16.4421 4.11263C16.0401 4.28547 15.9769 4.44617 15.9766 4.49901Z" fill="currentColor" />
  <path d="M15 6.43785C15 6.19617 15.2186 6.00024 15.4883 6.00024C15.758 6.00024 15.9766 6.19617 15.9766 6.43785C15.9766 6.493 16.0392 6.66163 16.4421 6.84212C16.8155 7.00943 17.3659 7.125 17.9995 7.12503C18.6331 7.12503 19.1835 7.0094 19.557 6.84212C19.96 6.6616 20.0234 6.493 20.0234 6.43785C20.0234 6.19617 20.242 6.00024 20.5117 6.00024C20.7812 6.00046 21 6.1963 21 6.43785C21 7.00346 20.4999 7.39741 19.9938 7.62418C19.4582 7.86412 18.7522 8.00024 17.9995 8.00024C17.247 8.00021 16.5417 7.86405 16.0062 7.62418C15.5 7.39743 15 7.00354 15 6.43785Z" fill="currentColor" />
  <path d="M3 15.4994C3.00019 14.9566 3.4992 14.578 4.00525 14.3605C4.54074 14.1303 5.24672 14.0003 5.99952 14.0002C6.75227 14.0002 7.45824 14.1303 7.9938 14.3605C8.50017 14.5782 8.99989 14.9571 9 15.5002C9 16.0432 8.50001 16.4222 7.9938 16.64C7.45829 16.8703 6.75236 17.0002 5.99952 17.0002C5.24651 17.0002 4.54075 16.8698 4.00525 16.6392C3.49907 16.4212 3 16.0423 3 15.4994ZM3.97663 15.4994C3.97663 15.5526 4.03972 15.7142 4.44206 15.8876C4.81539 16.0483 5.36556 16.16 5.99952 16.16C6.6335 16.16 7.18361 16.0489 7.55699 15.8884C7.95971 15.7151 8.02337 15.5533 8.02337 15.5002C8.02323 15.4466 7.95907 15.285 7.55699 15.1121C7.18365 14.9517 6.63354 14.8405 5.99952 14.8405C5.36541 14.8405 4.81539 14.9517 4.44206 15.1121C4.04011 15.2849 3.97688 15.4461 3.97663 15.4994Z" fill="currentColor" />
  <path d="M8.02337 17.4379C8.02337 17.1962 8.24199 17.0002 8.51168 17.0002C8.78117 17.0005 9 17.1963 9 17.4379C9 18.0035 8.49988 18.3974 7.9938 18.6242C7.45819 18.8641 6.75216 19.0002 5.99952 19.0002C5.24716 19.0002 4.54165 18.8647 4.0062 18.625C3.50029 18.3985 3.00008 18.0041 3 17.4387C3 17.197 3.21863 17.0011 3.48832 17.0011C3.75801 17.0011 3.97663 17.197 3.97663 17.4387C3.97674 17.4935 4.03934 17.6618 4.44206 17.8421C4.81558 18.0094 5.3659 18.125 5.99952 18.125C6.63313 18.125 7.18346 18.0094 7.55699 17.8421C7.95996 17.6616 8.02337 17.493 8.02337 17.4379Z" fill="currentColor" />
  <path d="M20.0234 15.5002C20.0232 15.4466 19.9591 15.285 19.557 15.1121C19.1837 14.9517 18.6335 14.8405 17.9995 14.8405C17.3652 14.8405 16.8153 14.9517 16.4421 15.1121C16.0402 15.2848 15.9768 15.4462 15.9766 15.5002C15.9766 15.5533 16.0394 15.7151 16.4421 15.8884C16.8154 16.049 17.3655 16.16 17.9995 16.16C18.6335 16.16 19.1836 16.0489 19.557 15.8884C19.9597 15.7151 20.0234 15.5533 20.0234 15.5002ZM21 15.5002C21 16.0432 20.5 16.4222 19.9938 16.64C19.4583 16.8703 18.7524 17.0002 17.9995 17.0002C17.2466 17.0002 16.5407 16.8704 16.0052 16.64C15.499 16.4222 15 16.0432 15 15.5002C15.0001 14.9569 15.4988 14.5782 16.0052 14.3605C16.5408 14.1303 17.2468 14.0003 17.9995 14.0002C18.7523 14.0002 19.4582 14.1303 19.9938 14.3605C20.5002 14.5782 20.9999 14.9571 21 15.5002Z" fill="currentColor" />
  <path d="M15.2773 17.3678C15.2775 17.1154 15.486 16.9105 15.7431 16.9105C16.0002 16.9107 16.2088 17.1155 16.209 17.3678C16.209 17.4254 16.2685 17.6016 16.653 17.7902C17.0093 17.965 17.5341 18.0858 18.1387 18.0858C18.7432 18.0858 19.2681 17.965 19.6244 17.7902C20.0087 17.6016 20.0684 17.4254 20.0684 17.3678C20.0685 17.1154 20.2771 16.9106 20.5342 16.9105C20.7914 16.9105 20.9999 17.1154 21 17.3678C21 17.9588 20.5238 18.3713 20.0411 18.6082C19.5302 18.8589 18.8566 19.0002 18.1387 19.0002C17.4207 19.0002 16.7472 18.8589 16.2363 18.6082C15.7534 18.3713 15.2773 17.9588 15.2773 17.3678ZM15.5521 9.0965C15.7552 8.94154 16.0484 8.97749 16.2062 9.17688C16.3638 9.37613 16.3271 9.66312 16.1244 9.81807L12.91 12.2695L16.1244 14.7208C16.3271 14.8758 16.3638 15.1628 16.2062 15.362C16.0484 15.5614 15.7552 15.5974 15.5521 15.4424L12.1512 12.8481L8.7513 15.4424C8.5482 15.5973 8.25594 15.5613 8.09806 15.362C7.94021 15.1627 7.97687 14.8758 8.17995 14.7208L11.3925 12.2695L8.17995 9.81807C7.97682 9.66311 7.94019 9.37626 8.09806 9.17688C8.25594 8.9775 8.54817 8.94154 8.7513 9.0965L12.1512 11.6899L15.5521 9.0965Z" fill="currentColor" />
</svg>