<svg xmlns="http://www.w3.org/2000/svg" width="24" height="24" viewBox="0 0 24 24" fill="none">
  <path d="M12.3369 3C16.9413 3 20.6737 6.73241 20.6737 11.3369C20.6737 15.9413 16.9413 19.6737 12.3369 19.6737C7.73241 19.6737 4 15.9413 4 11.3369C4 6.73241 7.73241 3 12.3369 3ZM12.3369 4.66737C10.568 4.66737 8.87159 5.37005 7.62082 6.62082C6.37005 7.87159 5.66737 9.568 5.66737 11.3369C5.66737 13.1057 6.37005 14.8021 7.62082 16.0529C8.87159 17.3037 10.568 18.0063 12.3369 18.0063C14.1057 18.0063 15.8021 17.3037 17.0529 16.0529C18.3037 14.8021 19.0063 13.1057 19.0063 11.3369C19.0063 9.568 18.3037 7.87159 17.0529 6.62082C15.8021 5.37005 14.1057 4.66737 12.3369 4.66737ZM12.3369 6.33474C12.541 6.33477 12.7381 6.40974 12.8907 6.54543C13.0433 6.68112 13.1408 6.86809 13.1647 7.07088L13.1705 7.16843V10.9917L15.4273 13.2485C15.5768 13.3985 15.6637 13.5998 15.6701 13.8116C15.6766 14.0233 15.6022 14.2295 15.4621 14.3884C15.322 14.5472 15.1267 14.6468 14.9159 14.6669C14.705 14.687 14.4944 14.6261 14.3269 14.4965L14.2485 14.4273L11.7474 11.9263C11.6179 11.7966 11.5346 11.6278 11.5107 11.4461L11.5032 11.3369V7.16843C11.5032 6.94732 11.591 6.73527 11.7473 6.57892C11.9037 6.42258 12.1157 6.33474 12.3369 6.33474Z" fill="currentColor" />
</svg>