<svg xmlns="http://www.w3.org/2000/svg" width="24" height="24" viewBox="0 0 24 24" fill="none">
  <path d="M11.1 18.125V12.875H4.8V18.125C4.8 18.6082 4.39706 19 3.9 19C3.40294 19 3 18.6082 3 18.125V5.875C3 5.39175 3.40294 5 3.9 5C4.39706 5 4.8 5.39175 4.8 5.875V11.125H11.1V5.875C11.1 5.39175 11.5029 5 12 5C12.4971 5 12.9 5.39175 12.9 5.875V18.125C12.9 18.6082 12.4971 19 12 19C11.5029 19 11.1 18.6082 11.1 18.125ZM19.2 18.125V11.6266L17.574 12.7195C17.1652 12.9942 16.6051 12.8948 16.3225 12.4973C16.0399 12.0998 16.1421 11.5553 16.551 11.2805L19.5885 9.23828C19.8637 9.05348 20.2221 9.03257 20.5184 9.18359C20.8145 9.33475 21 9.63341 21 9.95862V18.125C21 18.6082 20.5971 19 20.1 19C19.6029 19 19.2 18.6082 19.2 18.125Z" stroke="currentColor" strokeWidth="0.5" />
</svg>