<svg xmlns="http://www.w3.org/2000/svg" width="24" height="24" viewBox="0 0 24 24" fill="none">
  <path d="M12 2C17.53 2 22 6.47 22 12C22 17.53 17.53 22 12 22C6.47 22 2 17.53 2 12C2 6.47 6.47 2 12 2Z" fill="#EC1C24" />
  <path d="M16.0367 8.03662C16.3884 8.38827 16.3884 8.95841 16.0367 9.31006L13.3102 12.0366L16.0367 14.7632C16.3884 15.1148 16.3884 15.685 16.0367 16.0366C15.6851 16.3883 15.1149 16.3883 14.7633 16.0366L12.0367 13.3101L9.31015 16.0366C8.9585 16.3883 8.38836 16.3883 8.03671 16.0366C7.68506 15.685 7.68506 15.1148 8.03671 14.7632L10.7633 12.0366L8.03671 9.31006C7.68506 8.95841 7.68506 8.38827 8.03671 8.03662C8.38836 7.68497 8.9585 7.68497 9.31015 8.03662L12.0367 10.7632L14.7633 8.03662C15.1149 7.68497 15.6851 7.68497 16.0367 8.03662Z" fill="white" />
</svg>