<svg xmlns="http://www.w3.org/2000/svg" width="24" height="24" viewBox="0 0 24 24" fill="none">
  <path d="M12 2.25C10.0716 2.25 8.18657 2.82183 6.58319 3.89317C4.97981 4.96452 3.73013 6.48726 2.99218 8.26884C2.25422 10.0504 2.06114 12.0108 2.43735 13.9021C2.81355 15.7934 3.74215 17.5307 5.10571 18.8943C6.46927 20.2579 8.20656 21.1865 10.0979 21.5627C11.9892 21.9389 13.9496 21.7458 15.7312 21.0078C17.5127 20.2699 19.0355 19.0202 20.1068 17.4168C21.1782 15.8134 21.75 13.9284 21.75 12C21.7473 9.41498 20.7192 6.93661 18.8913 5.10872C17.0634 3.28084 14.585 2.25273 12 2.25Z" fill="#319F43" />
  <path d="M16.6493 8.89541C16.9739 9.22002 16.9739 9.74631 16.6492 10.0709L11.3019 15.4175C10.9415 15.7779 10.3571 15.7779 9.99661 15.4175L7.41862 12.8401C7.09397 12.5155 7.09394 11.9892 7.41855 11.6646C7.74313 11.34 8.26938 11.34 8.59396 11.6646L10.6493 13.72L15.4738 8.89541C15.7984 8.57082 16.3247 8.57082 16.6493 8.89541Z" fill="white" />
</svg>