<svg xmlns="http://www.w3.org/2000/svg" width="24" height="24" viewBox="0 0 24 24" fill="none">
  <path d="M10.4127 4.40269C11.1404 3.05713 13.0751 3.06793 13.7879 4.42159L20.7781 17.6981C21.4486 18.9717 20.5252 20.5017 19.086 20.5017H4.91529C3.46622 20.5017 2.54368 18.9537 3.23311 17.6792L10.4127 4.40269Z" fill="#212121" />
  <path d="M10.4127 4.40269C11.1404 3.05713 13.0751 3.06793 13.7879 4.42159L20.7781 17.6981C21.4486 18.9717 20.5252 20.5017 19.086 20.5017H4.91529C3.46622 20.5017 2.54368 18.9537 3.23311 17.6792L10.4127 4.40269Z" fill="#EEB000" />
  <path d="M12.0009 8.35013C12.3114 8.35013 12.5634 8.60214 12.5634 8.91265V14.0879C12.5634 14.2371 12.5041 14.3802 12.3986 14.4857C12.2931 14.5912 12.1501 14.6504 12.0009 14.6504C11.8517 14.6504 11.7086 14.5912 11.6031 14.4857C11.4976 14.3802 11.4383 14.2371 11.4383 14.0879V8.91265C11.4383 8.60214 11.6903 8.35013 12.0009 8.35013ZM12.0009 17.3505C12.2396 17.3505 12.4685 17.2557 12.6373 17.0869C12.8061 16.9181 12.9009 16.6892 12.9009 16.4505C12.9009 16.2118 12.8061 15.9829 12.6373 15.8141C12.4685 15.6453 12.2396 15.5505 12.0009 15.5505C11.7622 15.5505 11.5332 15.6453 11.3644 15.8141C11.1956 15.9829 11.1008 16.2118 11.1008 16.4505C11.1008 16.6892 11.1956 16.9181 11.3644 17.0869C11.5332 17.2557 11.7622 17.3505 12.0009 17.3505Z" fill="white" />
</svg>