<svg xmlns="http://www.w3.org/2000/svg" width="24" height="24" viewBox="0 0 20 20" fill="none">
  <path fill="currentColor" d="M11.1111 8.19431H8.88888C8.74153 8.19431 8.60023 8.23821 8.49604 8.31635C8.39185 8.39449 8.33332 8.50047 8.33332 8.61098V11.111C8.33332 11.2215 8.39185 11.3275 8.49604 11.4056C8.60023 11.4837 8.74153 11.5276 8.88888 11.5276H11.1111C11.2584 11.5276 11.3997 11.4837 11.5039 11.4056C11.6081 11.3275 11.6667 11.2215 11.6667 11.111V8.61098C11.6667 8.50047 11.6081 8.39449 11.5039 8.31635C11.3997 8.23821 11.2584 8.19431 11.1111 8.19431ZM10.8889 10.9443H9.1111V8.77764H10.8889V10.9443Z" />
  <path fill="currentColor" d="M17.3641 7.22316L15.4469 5.25681C15.3596 5.16799 15.2417 5.11792 15.1187 5.11739H12.775V4.17989C12.7813 3.92727 12.6905 3.68224 12.5221 3.4978C12.3536 3.31336 12.1212 3.20433 11.875 3.19431H8.04999C7.92969 3.19916 7.81155 3.22873 7.70258 3.28125C7.59361 3.33378 7.49603 3.40819 7.41561 3.50009C7.33518 3.59199 7.27355 3.69951 7.23437 3.81628C7.19519 3.93304 7.17925 4.05669 7.18749 4.17989V5.11739H4.88125C4.81955 5.11702 4.7584 5.12915 4.70129 5.15307C4.64418 5.177 4.59223 5.21225 4.54843 5.25681L2.63593 7.22316C2.59249 7.26808 2.55812 7.32136 2.53479 7.37993C2.51146 7.43851 2.49964 7.50123 2.5 7.5645V14.7328C2.5 14.9878 2.59877 15.2324 2.77458 15.4127C2.9504 15.593 3.18886 15.6943 3.4375 15.6943H16.5625C16.8111 15.6943 17.0496 15.593 17.2254 15.4127C17.4012 15.2324 17.5 14.9878 17.5 14.7328V7.55969C17.4995 7.43357 17.4507 7.3127 17.3641 7.22316ZM8.18165 4.15585H11.7711V5.11739H8.18165V4.15585ZM16.4389 9.33416H11.875V10.3722H16.4389V14.5835H3.58926V10.3722H8.12499V9.33416H3.58926V7.76162L4.99999 6.25014H14.8437L16.4389 7.76162V9.33416Z" />
</svg>