<svg xmlns="http://www.w3.org/2000/svg" width="24" height="24" viewBox="0 0 24 24" fill="none">
  <path d="M12 20C11.7481 20 11.5372 19.9147 11.3671 19.744C11.197 19.5733 11.1117 19.3624 11.1111 19.1111V15.5556C11.1111 15.3037 11.1964 15.0927 11.3671 14.9227C11.5378 14.7526 11.7487 14.6673 12 14.6667C12.2513 14.6661 12.4625 14.7514 12.6338 14.9227C12.805 15.0939 12.8901 15.3049 12.8889 15.5556V16.4444H19.1111C19.363 16.4444 19.5742 16.5298 19.7449 16.7004C19.9156 16.8711 20.0006 17.0821 20 17.3333C19.9994 17.5846 19.9141 17.7958 19.744 17.9671C19.5739 18.1384 19.363 18.2234 19.1111 18.2222H12.8889V19.1111C12.8889 19.363 12.8036 19.5742 12.6329 19.7449C12.4622 19.9156 12.2513 20.0006 12 20ZM4.88889 18.2222C4.63704 18.2222 4.42608 18.1369 4.256 17.9662C4.08593 17.7956 4.0006 17.5846 4 17.3333C3.99941 17.0821 4.08474 16.8711 4.256 16.7004C4.42726 16.5298 4.63823 16.4444 4.88889 16.4444H8.44445C8.6963 16.4444 8.90756 16.5298 9.07822 16.7004C9.24889 16.8711 9.33393 17.0821 9.33333 17.3333C9.33274 17.5846 9.24741 17.7958 9.07733 17.9671C8.90726 18.1384 8.6963 18.2234 8.44445 18.2222H4.88889ZM8.44445 14.6667C8.19259 14.6667 7.98163 14.5813 7.81156 14.4107C7.64148 14.24 7.55615 14.029 7.55556 13.7778V12.8889H4.88889C4.63704 12.8889 4.42608 12.8036 4.256 12.6329C4.08593 12.4622 4.0006 12.2513 4 12C3.99941 11.7487 4.08474 11.5378 4.256 11.3671C4.42726 11.1964 4.63823 11.1111 4.88889 11.1111H7.55556V10.2222C7.55556 9.97037 7.64089 9.75941 7.81156 9.58933C7.98222 9.41926 8.19319 9.33393 8.44445 9.33333C8.6957 9.33274 8.90696 9.41808 9.07822 9.58933C9.24948 9.76059 9.33452 9.97156 9.33333 10.2222V13.7778C9.33333 14.0296 9.248 14.2409 9.07733 14.4116C8.90667 14.5822 8.6957 14.6673 8.44445 14.6667ZM12 12.8889C11.7481 12.8889 11.5372 12.8036 11.3671 12.6329C11.197 12.4622 11.1117 12.2513 11.1111 12C11.1105 11.7487 11.1959 11.5378 11.3671 11.3671C11.5384 11.1964 11.7493 11.1111 12 11.1111H19.1111C19.363 11.1111 19.5742 11.1964 19.7449 11.3671C19.9156 11.5378 20.0006 11.7487 20 12C19.9994 12.2513 19.9141 12.4625 19.744 12.6338C19.5739 12.805 19.363 12.8901 19.1111 12.8889H12ZM15.5556 9.33333C15.3037 9.33333 15.0927 9.248 14.9227 9.07733C14.7526 8.90667 14.6673 8.6957 14.6667 8.44445V4.88889C14.6667 4.63704 14.752 4.42608 14.9227 4.256C15.0933 4.08593 15.3043 4.0006 15.5556 4C15.8068 3.99941 16.0181 4.08474 16.1893 4.256C16.3606 4.42726 16.4456 4.63823 16.4444 4.88889V5.77778H19.1111C19.363 5.77778 19.5742 5.86311 19.7449 6.03378C19.9156 6.20445 20.0006 6.41541 20 6.66667C19.9994 6.91793 19.9141 7.12919 19.744 7.30045C19.5739 7.47171 19.363 7.55674 19.1111 7.55556H16.4444V8.44445C16.4444 8.6963 16.3591 8.90756 16.1884 9.07822C16.0178 9.24889 15.8068 9.33393 15.5556 9.33333ZM4.88889 7.55556C4.63704 7.55556 4.42608 7.47022 4.256 7.29956C4.08593 7.12889 4.0006 6.91793 4 6.66667C3.99941 6.41541 4.08474 6.20445 4.256 6.03378C4.42726 5.86311 4.63823 5.77778 4.88889 5.77778H12C12.2519 5.77778 12.4631 5.86311 12.6338 6.03378C12.8044 6.20445 12.8895 6.41541 12.8889 6.66667C12.8883 6.91793 12.803 7.12919 12.6329 7.30045C12.4628 7.47171 12.2519 7.55674 12 7.55556H4.88889Z" fill="currentColor" />
</svg>