<svg xmlns="http://www.w3.org/2000/svg" width="24" height="24" viewBox="0 0 24 24" fill="none">
  <path fill-rule="evenodd" clip-rule="evenodd" d="M6.78947 5.84615C6.78947 6.86576 5.94117 7.69231 4.89474 7.69231C3.8483 7.69231 3 6.86576 3 5.84615C3 4.82655 3.8483 4 4.89474 4C5.94117 4 6.78947 4.82655 6.78947 5.84615ZM8.68421 4.92308C8.16099 4.92308 7.73684 5.33635 7.73684 5.84615C7.73684 6.35596 8.16099 6.76923 8.68421 6.76923H20.0526C20.5758 6.76923 21 6.35596 21 5.84615C21 5.33635 20.5758 4.92308 20.0526 4.92308H8.68421ZM8.68421 11.0769C8.16099 11.0769 7.73684 11.4902 7.73684 12C7.73684 12.5098 8.16099 12.9231 8.68421 12.9231H20.0526C20.5758 12.9231 21 12.5098 21 12C21 11.4902 20.5758 11.0769 20.0526 11.0769H8.68421ZM8.68421 17.2308C8.16099 17.2308 7.73684 17.644 7.73684 18.1538C7.73684 18.6636 8.16099 19.0769 8.68421 19.0769H20.0526C20.5758 19.0769 21 18.6636 21 18.1538C21 17.644 20.5758 17.2308 20.0526 17.2308H8.68421ZM4.89474 13.8462C5.94117 13.8462 6.78947 13.0196 6.78947 12C6.78947 10.9804 5.94117 10.1538 4.89474 10.1538C3.8483 10.1538 3 10.9804 3 12C3 13.0196 3.8483 13.8462 4.89474 13.8462ZM6.78947 18.1538C6.78947 19.1734 5.94117 20 4.89474 20C3.8483 20 3 19.1734 3 18.1538C3 17.1342 3.8483 16.3077 4.89474 16.3077C5.94117 16.3077 6.78947 17.1342 6.78947 18.1538Z" fill="currentColor" />
</svg>