<svg xmlns="http://www.w3.org/2000/svg" width="24" height="24" viewBox="0 0 14 18" fill="none">
  <path d="M12.9989 16C13.2538 16.0003 13.4989 16.0979 13.6843 16.2728C13.8696 16.4478 13.9811 16.687 13.9961 16.9414C14.011 17.1958 13.9282 17.4464 13.7646 17.6418C13.601 17.8373 13.369 17.9629 13.1159 17.993L12.9989 18H0.998892C0.744012 17.9997 0.498859 17.9021 0.313523 17.7272C0.128187 17.5522 0.0166572 17.313 0.00172004 17.0586C-0.0132171 16.8042 0.0695665 16.5536 0.233157 16.3582C0.396747 16.1627 0.628796 16.0371 0.881892 16.007L0.998892 16H12.9989ZM11.9989 0C12.2438 3.23106e-05 12.4802 0.0899562 12.6633 0.252715C12.8463 0.415475 12.9632 0.639749 12.9919 0.883L12.9989 1V9C13.0005 10.5729 12.3844 12.0834 11.2832 13.2065C10.1821 14.3297 8.68399 14.9755 7.11141 15.005C5.53883 15.0345 4.01755 14.4453 2.87508 13.3643C1.7326 12.2832 1.06029 10.7968 1.00289 9.225L0.998892 9V1C0.999175 0.74512 1.09677 0.499968 1.27174 0.314632C1.44671 0.129296 1.68585 0.017765 1.94029 0.00282788C2.19473 -0.0121092 2.44527 0.0706746 2.64072 0.234265C2.83618 0.397855 2.96179 0.629904 2.99189 0.883L2.99889 1V9C2.99888 10.0436 3.40668 11.0458 4.13529 11.7929C4.86391 12.54 5.85563 12.9727 6.89886 12.9988C7.94209 13.0249 8.95421 12.6423 9.71927 11.9326C10.4843 11.2228 10.9417 10.2422 10.9939 9.2L10.9989 9V1C10.9989 0.734784 11.1042 0.48043 11.2918 0.292893C11.4793 0.105357 11.7337 0 11.9989 0Z" fill="currentColor" />
</svg>