<svg xmlns="http://www.w3.org/2000/svg" width="24" height="24" viewBox="0 0 24 24" fill="none">
  <path d="M3 7.27002V3.80702C3 3.57835 3.07734 3.38635 3.232 3.23102C3.38667 3.07568 3.57867 2.99868 3.808 3.00002H13.731C13.9597 3.00002 14.1513 3.07735 14.306 3.23202C14.4607 3.38668 14.5383 3.57868 14.539 3.80802V7.26902C14.539 7.49835 14.4613 7.69035 14.306 7.84502C14.1507 7.99968 13.959 8.07702 13.731 8.07702H3.808C3.57934 8.07702 3.38734 7.99968 3.232 7.84502C3.07667 7.69035 2.99934 7.49935 3 7.27002ZM3 20.192V16.731C3 16.5017 3.07734 16.3097 3.232 16.155C3.38667 16.0004 3.57867 15.923 3.808 15.923H7.269C7.49834 15.923 7.69034 16.0004 7.845 16.155C7.99967 16.3097 8.077 16.5017 8.077 16.731V20.192C8.077 20.4214 7.99967 20.6133 7.845 20.768C7.69034 20.9227 7.49834 21 7.269 21H3.808C3.57934 21 3.38734 20.9227 3.232 20.768C3.07667 20.6133 2.99934 20.4214 3 20.192ZM9.462 20.192V16.731C9.462 16.5017 9.53934 16.3097 9.694 16.155C9.84867 16.0004 10.0403 15.923 10.269 15.923H13.731C13.9597 15.923 14.1513 16.0004 14.306 16.155C14.4607 16.3097 14.5383 16.5017 14.539 16.731V20.192C14.539 20.4214 14.4613 20.6133 14.306 20.768C14.1507 20.9227 13.959 21 13.731 21H10.269C10.0403 21 9.84867 20.9227 9.694 20.768C9.53934 20.6133 9.46267 20.4214 9.462 20.192ZM15.923 20.192V16.731C15.923 16.5017 16.0003 16.3097 16.155 16.155C16.3097 16.0004 16.5017 15.923 16.731 15.923H20.192C20.4213 15.923 20.6133 16.0004 20.768 16.155C20.9227 16.3097 21 16.5017 21 16.731V20.192C21 20.4214 20.9227 20.6133 20.768 20.768C20.6133 20.9227 20.4213 21 20.192 21H16.731C16.5017 21 16.3097 20.9227 16.155 20.768C16.0003 20.6133 15.923 20.4214 15.923 20.192ZM3 13.731V10.269C3 10.0404 3.07734 9.84868 3.232 9.69402C3.38667 9.53935 3.57867 9.46168 3.808 9.46102H7.269C7.49834 9.46102 7.69034 9.53868 7.845 9.69402C7.99967 9.84935 8.077 10.041 8.077 10.269V13.731C8.077 13.9597 7.99967 14.1514 7.845 14.306C7.69034 14.4607 7.49834 14.5384 7.269 14.539H3.808C3.57934 14.539 3.38734 14.4614 3.232 14.306C3.07667 14.1507 2.99934 13.959 3 13.731ZM9.462 13.731V10.269C9.462 10.0404 9.53934 9.84868 9.694 9.69402C9.84867 9.53935 10.0403 9.46168 10.269 9.46102H13.731C13.9597 9.46102 14.1513 9.53868 14.306 9.69402C14.4607 9.84935 14.5383 10.041 14.539 10.269V13.731C14.539 13.9597 14.4613 14.1514 14.306 14.306C14.1507 14.4607 13.959 14.5384 13.731 14.539H10.269C10.0403 14.539 9.84867 14.4614 9.694 14.306C9.53934 14.1507 9.46267 13.959 9.462 13.731ZM15.923 13.731V10.269C15.923 10.0404 16.0003 9.84868 16.155 9.69402C16.3097 9.53935 16.5017 9.46168 16.731 9.46102H20.192C20.4213 9.46102 20.6133 9.53868 20.768 9.69402C20.9227 9.84935 21 10.041 21 10.269V13.731C21 13.9597 20.9227 14.1514 20.768 14.306C20.6133 14.4607 20.4213 14.5384 20.192 14.539H16.731C16.5017 14.539 16.3097 14.4614 16.155 14.306C16.0003 14.1507 15.923 13.959 15.923 13.731ZM4 20H7.077V16.923H4V20ZM10.462 20H13.539V16.923H10.462V20ZM16.923 20H20V16.923H16.923V20ZM4 13.538L7.077 13.539V10.462H4V13.538ZM10.462 13.538H13.539V10.462H10.462V13.538ZM16.923 13.539L20 13.538V10.462H16.923V13.539ZM15.923 7.26902V3.80802C15.923 3.57935 16.0003 3.38735 16.155 3.23202C16.3097 3.07668 16.5017 2.99935 16.731 3.00002H20.192C20.4213 3.00002 20.6133 3.07735 20.768 3.23202C20.9227 3.38668 21 3.57868 21 3.80802V7.26902C21 7.49835 20.9227 7.69035 20.768 7.84502C20.6133 7.99968 20.4213 8.07702 20.192 8.07702H16.731C16.5017 8.07702 16.3097 7.99968 16.155 7.84502C16.0003 7.69035 15.923 7.49835 15.923 7.26902ZM16.923 7.07702H20V4.00002H16.923V7.07702Z" fill="currentColor" />
</svg>