<svg xmlns="http://www.w3.org/2000/svg" width="24" height="24" viewBox="0 0 16 16" fill="none">
  <path d="M7.64884 3.01635C7.84369 2.82339 8.15761 2.82339 8.35247 3.01635L10.3299 4.97452C10.5593 5.20165 10.5593 5.5723 10.3299 5.79943V5.79943C10.1037 6.02344 9.73929 6.02344 9.51307 5.79943L8.58398 4.87942V9.8332C8.58398 10.1554 8.32282 10.4165 8.00065 10.4165V10.4165C7.67849 10.4165 7.41732 10.1554 7.41732 9.8332V4.87942L6.48823 5.79943C6.26201 6.02344 5.89758 6.02344 5.67136 5.79943V5.79943C5.44199 5.5723 5.44199 5.20165 5.67136 4.97452L7.64884 3.01635ZM3.33398 12.1794V11.0298C3.33398 10.7076 3.59515 10.4464 3.91732 10.4464V10.4464C4.23948 10.4464 4.50065 10.7076 4.50065 11.0298V12.1794H11.5007V11.0298C11.5007 10.7076 11.7618 10.4464 12.084 10.4464V10.4464C12.4062 10.4464 12.6673 10.7076 12.6673 11.0298V12.1794C12.6673 12.8174 12.145 13.3346 11.5007 13.3346H4.50065C3.85632 13.3346 3.33398 12.8174 3.33398 12.1794Z" fill="currentColor" fillRule="evenodd" clipRule="evenodd" />
</svg>