<svg xmlns="http://www.w3.org/2000/svg" width="24" height="24" viewBox="0 0 16 16" fill="none">
  <path d="M12.7376 4.25603C11.5036 3.6517 9.86553 3.33203 8.00065 3.33203C6.13577 3.33203 4.49767 3.6517 3.26375 4.25603C2.02982 4.86036 1.33398 5.71086 1.33398 6.5987V9.3987C1.33398 10.2865 2.03756 11.1399 3.26375 11.7414C4.48994 12.3428 6.13577 12.6654 8.00065 12.6654C9.86553 12.6654 11.5036 12.3457 12.7376 11.7414C13.9715 11.137 14.6673 10.2865 14.6673 9.3987V6.5987C14.6673 5.71086 13.9637 4.85745 12.7376 4.25603ZM8.00065 4.26536C11.7292 4.26536 13.7149 5.62045 13.7149 6.5987C13.7149 7.57695 11.7292 8.93203 8.00065 8.93203C4.27208 8.93203 2.28637 7.57695 2.28637 6.5987C2.28637 5.62045 4.27208 4.26536 8.00065 4.26536ZM7.52446 9.8572V11.7239C6.39351 11.6877 5.44113 11.5244 4.66732 11.2869V9.45995C5.60013 9.70352 6.55933 9.83688 7.52446 9.8572ZM8.47684 9.8572C9.44198 9.83688 10.4012 9.70352 11.334 9.45995V11.2864C10.5602 11.5238 9.60779 11.6871 8.47684 11.7233V9.8572ZM2.28637 9.3987V8.32128C2.58608 8.56501 2.91415 8.77315 3.26375 8.94137C3.40839 9.01195 3.56137 9.07845 3.71494 9.14145V10.9154C2.77267 10.458 2.28637 9.88228 2.28637 9.3987ZM12.2864 10.9154V9.14145C12.4417 9.07845 12.5929 9.01195 12.7376 8.94137C13.0872 8.77315 13.4152 8.56501 13.7149 8.32128V9.3987C13.7149 9.88228 13.2286 10.458 12.2864 10.9154Z" />
</svg>