<svg xmlns="http://www.w3.org/2000/svg" width="24" height="24" viewBox="0 0 24 24" fill="none">
  <path fill-rule="evenodd" clip-rule="evenodd" d="M16.2045 16.3864C16.2045 16.7239 16.3386 17.0476 16.5773 17.2863C16.816 17.525 17.1397 17.6591 17.4773 17.6591C17.8148 17.6591 18.1385 17.525 18.3772 17.2863C18.6159 17.0476 18.75 16.7239 18.75 16.3864C18.75 16.0488 18.6159 15.7251 18.3772 15.4864C18.1385 15.2477 17.8148 15.1136 17.4773 15.1136C17.1397 15.1136 16.816 15.2477 16.5773 15.4864C16.3386 15.7251 16.2045 16.0488 16.2045 16.3864ZM3.45454 5.63636H19.4545V11.3864H21.0909V4.72727C21.0909 4.325 20.7659 4 20.3636 4H2.54545C2.14318 4 1.81818 4.325 1.81818 4.72727V16.5455C1.81818 16.9477 2.14318 17.2727 2.54545 17.2727H10.5454V15.6364H3.45454V5.63636ZM22.0908 15.9659L22.0886 15.9636L22.0863 15.9614C21.084 13.8409 19.5317 12.75 17.4658 12.75C15.3999 12.75 13.8477 13.8432 12.8431 15.9614V15.9636C12.7204 16.225 12.7204 16.5295 12.8431 16.7909C13.8477 18.9091 15.3999 20 17.4658 20C19.5317 20 21.084 18.9068 22.0886 16.7886C22.2113 16.5273 22.2113 16.225 22.0908 15.9659ZM17.4658 18.5455C16.0545 18.5455 15.0249 17.8636 14.259 16.375C15.0227 14.8864 16.0545 14.2045 17.4658 14.2045C18.8772 14.2045 19.9067 14.8864 20.6727 16.375C19.909 17.8636 18.8772 18.5455 17.4658 18.5455ZM16.0023 7.21146L16.8387 8.04782C16.9114 8.11828 16.9114 8.23419 16.8387 8.30464L11.6955 13.4524C11.625 13.5228 11.5091 13.5228 11.4387 13.4524L9.48185 11.4933L7.16821 13.8069C7.09776 13.8774 6.98185 13.8774 6.91139 13.8069L6.07503 12.9705C6.00458 12.9001 6.00458 12.7842 6.07503 12.7137L9.35458 9.43419C9.42503 9.36373 9.54094 9.36373 9.61139 9.43419L11.5682 11.3933L15.7455 7.21146C15.8159 7.141 15.9318 7.141 16.0023 7.21146Z" fill="currentColor" />
</svg>