<svg xmlns="http://www.w3.org/2000/svg" width="24" height="24" viewBox="0 0 24 24" fill="none">
  <path d="M7.0957 12C7.0957 11.0456 7.16165 10.1196 7.28613 9.24316C6.80078 9.39016 6.35297 9.55825 5.9502 9.74414C4.37717 10.4702 3.75 11.3217 3.75 12C3.75 12.6783 4.37717 13.5298 5.9502 14.2559C6.35289 14.4417 6.80088 14.6089 7.28613 14.7559C7.16173 13.8797 7.0957 12.9541 7.0957 12ZM14.7559 16.7129C13.8797 16.8373 12.9541 16.9043 12 16.9043C11.0455 16.9043 10.1196 16.8374 9.24316 16.7129C9.39022 17.1986 9.55813 17.6468 9.74414 18.0498C10.4702 19.6228 11.3217 20.25 12 20.25C12.6783 20.25 13.5298 19.6228 14.2559 18.0498C14.4418 17.6469 14.6088 17.1985 14.7559 16.7129ZM4.35352 15.0957C4.76453 16.1109 5.37654 17.0445 6.16602 17.834C6.95519 18.6232 7.88857 19.2345 8.90332 19.6455C8.71217 19.3408 8.53752 19.016 8.38184 18.6787C8.06974 18.0025 7.80678 17.2339 7.60156 16.3975C6.76554 16.1923 5.9972 15.9301 5.32129 15.6182C4.98358 15.4623 4.65857 15.2871 4.35352 15.0957ZM19.6455 15.0957C19.3407 15.287 19.0162 15.4624 18.6787 15.6182C18.0026 15.9302 17.2338 16.1922 16.3975 16.3975C16.1922 17.2338 15.9302 18.0026 15.6182 18.6787C15.4624 19.0162 15.287 19.3407 15.0957 19.6455C16.1108 19.2345 17.0446 18.6234 17.834 17.834C18.6234 17.0446 19.2345 16.1108 19.6455 15.0957ZM8.90332 4.35352C7.88844 4.76453 6.95528 5.37676 6.16602 6.16602C5.37676 6.95528 4.76453 7.88844 4.35352 8.90332C4.65845 8.712 4.98374 8.53764 5.32129 8.38184C5.99726 8.06986 6.76545 7.80675 7.60156 7.60156C7.80675 6.76545 8.06986 5.99726 8.38184 5.32129C8.53764 4.98374 8.712 4.65845 8.90332 4.35352ZM15.0957 4.35352C15.2871 4.65857 15.4623 4.98358 15.6182 5.32129C15.9301 5.9972 16.1923 6.76554 16.3975 7.60156C17.2339 7.80678 18.0025 8.06974 18.6787 8.38184C19.016 8.53752 19.3408 8.71217 19.6455 8.90332C19.2345 7.88857 18.6232 6.95519 17.834 6.16602C17.0445 5.37654 16.1109 4.76453 15.0957 4.35352ZM12 3.75C11.3217 3.75 10.4702 4.37717 9.74414 5.9502C9.55825 6.35297 9.39016 6.80078 9.24316 7.28613C10.1196 7.16165 11.0456 7.0957 12 7.0957C12.9541 7.0957 13.8797 7.16173 14.7559 7.28613C14.6089 6.80088 14.4417 6.35289 14.2559 5.9502C13.5298 4.37717 12.6783 3.75 12 3.75ZM8.5957 12C8.5957 13.1127 8.69407 14.1686 8.86719 15.1318C9.83069 15.3051 10.8868 15.4043 12 15.4043C13.1128 15.4043 14.1686 15.305 15.1318 15.1318C15.305 14.1686 15.4043 13.1128 15.4043 12C15.4043 10.8868 15.3051 9.83069 15.1318 8.86719C14.1686 8.69407 13.1127 8.5957 12 8.5957C10.8869 8.5957 9.83064 8.69397 8.86719 8.86719C8.69397 9.83064 8.5957 10.8869 8.5957 12ZM16.9043 12C16.9043 12.9541 16.8373 13.8797 16.7129 14.7559C17.1985 14.6088 17.6469 14.4418 18.0498 14.2559C19.6228 13.5298 20.25 12.6783 20.25 12C20.25 11.3217 19.6228 10.4702 18.0498 9.74414C17.6468 9.55813 17.1986 9.39022 16.7129 9.24316C16.8374 10.1196 16.9043 11.0455 16.9043 12ZM21.75 12C21.75 14.5859 20.723 17.0661 18.8945 18.8945C17.0661 20.723 14.5859 21.75 12 21.75C9.41414 21.75 6.93395 20.723 5.10547 18.8945C3.27699 17.0661 2.25 14.5859 2.25 12C2.25 9.41414 3.27699 6.93395 5.10547 5.10547C6.93395 3.27699 9.41414 2.25 12 2.25C14.5859 2.25 17.0661 3.27699 18.8945 5.10547C20.723 6.93395 21.75 9.41414 21.75 12Z" fill="currentColor" />
</svg>