<svg xmlns="http://www.w3.org/2000/svg" width="24" height="24" viewBox="0 0 24 24" fill="none">
  <g>
    <path d="M19.7578 5.86328C19.7577 5.44232 19.6054 5.34925 19.5498 5.31641C19.4979 5.28571 19.4392 5.26662 19.3896 5.25684C19.3665 5.25228 19.349 5.2507 19.3408 5.25H4.35449C4.22649 5.25 4.17493 5.28326 4.15137 5.30176C4.11683 5.32897 4.07423 5.38141 4.03516 5.47363C3.99626 5.56557 3.97318 5.6683 3.96094 5.75488C3.9551 5.79628 3.9524 5.83019 3.95117 5.85059C3.9506 5.8601 3.95027 5.86645 3.9502 5.86914V18.1367C3.95028 18.5575 4.1026 18.6507 4.1582 18.6836C4.21013 18.7143 4.2688 18.7334 4.31836 18.7432C4.34143 18.7477 4.35901 18.7493 4.36719 18.75H19.3545C19.4821 18.7499 19.5331 18.7167 19.5566 18.6982C19.5912 18.671 19.6338 18.6186 19.6729 18.5264C19.7117 18.4344 19.7348 18.3317 19.7471 18.2451C19.7529 18.2037 19.7556 18.1698 19.7568 18.1494C19.7571 18.1442 19.7577 18.14 19.7578 18.1367V5.86328ZM21.2578 18.1504L21.2539 18.2402C21.2506 18.2944 21.2446 18.3677 21.2324 18.4541C21.2086 18.6231 21.1599 18.8616 21.0547 19.1104C20.9496 19.3588 20.7752 19.6476 20.4854 19.876C20.1843 20.1131 19.8026 20.2499 19.3545 20.25H4.35449V19.5C4.35449 20.2148 4.35491 20.2484 4.35449 20.25H4.33691C4.32982 20.2499 4.32099 20.2494 4.31152 20.249C4.29263 20.2483 4.26887 20.2475 4.24121 20.2451C4.18626 20.2405 4.11377 20.2315 4.0293 20.2148C3.86259 20.182 3.63191 20.1153 3.39551 19.9756C2.87388 19.6674 2.4503 19.0779 2.4502 18.1367V5.84961L2.4541 5.75977C2.45738 5.70561 2.4634 5.63229 2.47559 5.5459C2.49941 5.37693 2.54811 5.1384 2.65332 4.88965C2.75842 4.64122 2.9328 4.35244 3.22266 4.12402C3.52377 3.88678 3.90622 3.75 4.35449 3.75H19.3721C19.3791 3.75014 19.3872 3.75061 19.3965 3.75098C19.4154 3.75172 19.4391 3.75255 19.4668 3.75488C19.5219 3.75953 19.5949 3.76847 19.6797 3.78516C19.8463 3.81801 20.0763 3.88486 20.3125 4.02441C20.8341 4.33265 21.2577 4.92214 21.2578 5.86328V18.1504Z" fill="currentColor" />
    <path d="M18.2002 13.0385V16.1538C18.201 16.4474 18.0796 16.6938 17.8359 16.8932C17.5922 17.0926 17.2906 17.1923 16.931 17.1923L14.3925 17.1923C14.0337 17.1916 13.7325 17.0919 13.4888 16.8932C13.2451 16.6945 13.1233 16.4481 13.1233 16.1538V13.0385C13.1241 12.7449 13.246 12.4985 13.4888 12.2991C13.7317 12.0997 14.0329 12 14.3925 12H16.931C17.2897 11.9993 17.591 12.0987 17.8347 12.298C18.0783 12.4974 18.2002 12.7442 18.2002 13.0385Z" fill="currentColor" />
    <path d="M9.31558 7.84616V9.92308C9.31642 10.2166 9.195 10.4631 8.95131 10.6625C8.70762 10.8618 8.40596 10.9615 8.04635 10.9615H6.77712C6.41835 10.9608 6.11712 10.8612 5.87343 10.6625C5.62973 10.4638 5.50789 10.2173 5.50789 9.92308V7.84616C5.50873 7.55262 5.63058 7.30616 5.87343 7.10677C6.11627 6.90739 6.4175 6.8077 6.77712 6.8077L8.04635 6.8077C8.40512 6.807 8.70635 6.90635 8.95004 7.10573C9.19373 7.30512 9.31558 7.55193 9.31558 7.84616Z" fill="currentColor" />
    <path d="M11.854 13.0385V16.1538C11.8549 16.4474 11.7335 16.6938 11.4898 16.8932C11.2461 17.0926 10.9444 17.1923 10.5848 17.1923H6.77712C6.41835 17.1916 6.11712 17.0919 5.87343 16.8932C5.62973 16.6945 5.50789 16.4481 5.50789 16.1538V13.0385C5.50873 12.7449 5.63058 12.4985 5.87343 12.2991C6.11627 12.0997 6.4175 12 6.77712 12H10.5848C10.9436 11.9993 11.2448 12.0987 11.4885 12.298C11.7322 12.4974 11.854 12.7442 11.854 13.0385Z" fill="currentColor" />
    <path d="M18.2002 7.84616L18.2002 9.92308C18.201 10.2166 18.0796 10.4631 17.8359 10.6625C17.5922 10.8618 17.2906 10.9615 16.931 10.9615L11.854 10.9615C11.4953 10.9608 11.194 10.8612 10.9503 10.6625C10.7067 10.4638 10.5848 10.2173 10.5848 9.92308V7.84616C10.5857 7.55262 10.7075 7.30616 10.9503 7.10677C11.1932 6.90739 11.4944 6.8077 11.854 6.8077L16.931 6.8077C17.2897 6.807 17.591 6.90635 17.8347 7.10573C18.0783 7.30512 18.2002 7.55193 18.2002 7.84616Z" fill="currentColor" />
  </g>
</svg>