<svg xmlns="http://www.w3.org/2000/svg" width="24" height="24" viewBox="0 0 24 24" fill="none">
  <path d="M15.8857 10.0953C15.8857 10.0352 15.8634 9.98878 15.8411 9.96404C15.8306 9.95249 15.8217 9.94657 15.817 9.9444C15.813 9.9426 15.8106 9.94265 15.8098 9.94261H8.19018C8.18935 9.94265 8.18698 9.9426 8.18304 9.9444C8.17828 9.94657 8.16943 9.95249 8.15893 9.96404C8.1366 9.98878 8.11429 10.0352 8.11429 10.0953V12.4694H15.8857V10.0953ZM8.11429 18.6283H15.8857V16.9203H8.11429V18.6283ZM8.11429 15.5489H15.8857V13.8408H8.11429V15.5489ZM17.2571 18.6283H17.8518C18.046 18.6282 18.2397 18.5472 18.3884 18.3908C18.5383 18.233 18.6286 18.0114 18.6286 17.7739V9.30511C18.6286 9.13711 18.583 8.97492 18.5009 8.83726C18.4189 8.69991 18.305 8.59467 18.1759 8.52922L18.1661 8.52386L12.3527 5.46404L12.3446 5.45958C12.2634 5.41534 12.1765 5.38762 12.0884 5.37654L12 5.37118C11.9117 5.37123 11.8235 5.38805 11.7393 5.42118L11.6562 5.45958L11.6482 5.46404L5.83304 8.52386L5.82411 8.52833C5.69493 8.59383 5.58019 8.69983 5.49821 8.83726C5.41627 8.97484 5.37134 9.13731 5.37143 9.30511V17.7739C5.37143 18.0114 5.4617 18.233 5.61161 18.3908C5.76027 18.5472 5.95398 18.6282 6.14821 18.6283H6.74286V10.0953C6.74286 9.71113 6.88129 9.33051 7.14464 9.04083C7.40989 8.74922 7.78427 8.57127 8.19018 8.57118H15.8098C16.2157 8.57127 16.5901 8.74922 16.8554 9.04083C17.1187 9.33051 17.2571 9.71113 17.2571 10.0953V18.6283ZM20 17.7739C20 18.3531 19.7818 18.9157 19.383 19.3355C18.9832 19.7563 18.4331 19.9997 17.8518 19.9998H6.14821C5.56685 19.9997 5.01678 19.7563 4.61696 19.3355C4.21819 18.9157 4 18.3531 4 17.7739V9.30511C3.99986 8.89346 4.10991 8.48784 4.32054 8.13458C4.50512 7.8251 4.76162 7.56497 5.06875 7.38011L5.20357 7.30511L11.0089 4.25065V4.25154C11.3139 4.08724 11.6535 3.99982 12 3.99976L12.1313 4.00422C12.4321 4.02323 12.7247 4.10812 12.9911 4.25154L12.992 4.25065L18.7955 7.30511L18.9304 7.38011C19.2375 7.56479 19.4939 7.82438 19.6786 8.13368C19.8895 8.48708 20.0001 8.89317 20 9.30511V17.7739Z" />
</svg>