<svg xmlns="http://www.w3.org/2000/svg" width="24" height="24" viewBox="0 0 16 17" fill="none">
  <path d="M10.5898 7.23166C10.5898 7.19157 10.5749 7.16065 10.5601 7.14416C10.5531 7.13646 10.5472 7.13251 10.544 7.13106C10.5414 7.12987 10.5398 7.1299 10.5392 7.12987H5.45947C5.45892 7.1299 5.45734 7.12987 5.45471 7.13106C5.45153 7.13251 5.44563 7.13646 5.43863 7.14416C5.42375 7.16065 5.40887 7.19157 5.40887 7.23166V8.8144H10.5898V7.23166ZM5.40887 12.9204H10.5898V11.7817H5.40887V12.9204ZM5.40887 10.8674H10.5898V9.72868H5.40887V10.8674ZM11.5041 12.9204H11.9005C12.03 12.9203 12.1592 12.8663 12.2583 12.762C12.3582 12.6568 12.4184 12.5091 12.4184 12.3507V6.70487C12.4184 6.59287 12.388 6.48474 12.3333 6.39297C12.2786 6.3014 12.2027 6.23124 12.1166 6.18761L12.1101 6.18404L8.23447 4.14416L8.22911 4.14118C8.17492 4.11169 8.11699 4.09321 8.05828 4.08583L7.99935 4.08225C7.94048 4.08229 7.88168 4.0935 7.82554 4.11559L7.77018 4.14118L7.76482 4.14416L3.88804 6.18404L3.88209 6.18702C3.79597 6.23068 3.71947 6.30135 3.66483 6.39297C3.6102 6.48469 3.58024 6.59301 3.5803 6.70487V12.3507C3.5803 12.5091 3.64048 12.6568 3.74042 12.762C3.83953 12.8663 3.96867 12.9203 4.09816 12.9204H4.49459V7.23166C4.49459 6.97555 4.58688 6.72181 4.76244 6.52868C4.93927 6.33428 5.18886 6.21565 5.45947 6.21559H10.5392C10.8098 6.21565 11.0594 6.33428 11.2363 6.52868C11.4118 6.72181 11.5041 6.97555 11.5041 7.23166V12.9204ZM13.3327 12.3507C13.3327 12.7369 13.1872 13.1119 12.9214 13.3918C12.6548 13.6723 12.2881 13.8346 11.9005 13.8346H4.09816C3.71058 13.8346 3.34387 13.6723 3.07733 13.3918C2.81148 13.1119 2.66602 12.7369 2.66602 12.3507V6.70487C2.66592 6.43044 2.73929 6.16002 2.87971 5.92452C3.00277 5.7182 3.17376 5.54478 3.37852 5.42154L3.4684 5.37154L7.33863 3.33523V3.33583C7.54193 3.22629 7.76832 3.16801 7.99935 3.16797L8.08685 3.17094C8.28741 3.18362 8.48247 3.24021 8.66006 3.33583L8.66066 3.33523L12.5297 5.37154L12.6196 5.42154C12.8244 5.54466 12.9953 5.71772 13.1184 5.92392C13.259 6.15952 13.3327 6.43025 13.3327 6.70487V12.3507Z" fill="currentColor" />
</svg>