<svg xmlns="http://www.w3.org/2000/svg" width="24" height="24" viewBox="0 0 20 20" fill="none">
  <path d="M13.7235 11.0171C13.9675 10.773 14.3632 10.773 14.6073 11.0171L17.1073 13.5171C17.3513 13.7612 17.3513 14.1568 17.1073 14.4009L14.6073 16.9009C14.3632 17.145 13.9675 17.145 13.7235 16.9009C13.4794 16.6568 13.4794 16.2612 13.7235 16.0171L15.1566 14.584H3.33203C2.98685 14.584 2.70703 14.3042 2.70703 13.959C2.70703 13.6138 2.98685 13.334 3.33203 13.334H15.1566L13.7235 11.9009C13.4794 11.6568 13.4794 11.2612 13.7235 11.0171ZM2.70703 10.6338V10.6257C2.70703 10.2805 2.98685 10.0007 3.33203 10.0007C3.67721 10.0007 3.95703 10.2805 3.95703 10.6257V10.6338C3.95703 10.979 3.67721 11.2588 3.33203 11.2588C2.98685 11.2588 2.70703 10.979 2.70703 10.6338ZM2.70703 7.30046V7.29232C2.70703 6.94714 2.98685 6.66732 3.33203 6.66732C3.67721 6.66732 3.95703 6.94714 3.95703 7.29232V7.30046C3.95703 7.64563 3.67721 7.92546 3.33203 7.92546C2.98685 7.92546 2.70703 7.64563 2.70703 7.30046ZM2.70703 3.96712V3.95898C2.70703 3.61381 2.98685 3.33398 3.33203 3.33398C3.67721 3.33398 3.95703 3.61381 3.95703 3.95898V3.96712C3.95703 4.3123 3.67721 4.59212 3.33203 4.59212C2.98685 4.59212 2.70703 4.3123 2.70703 3.96712Z" fill="currentColor" />
</svg>