<svg xmlns="http://www.w3.org/2000/svg" width="24" height="24" viewBox="0 0 20 20" fill="none">
  <path d="M5.49369 16.4755V4.98892L4.01715 6.38107C3.76567 6.61817 3.35805 6.61817 3.10657 6.38107C2.8551 6.14397 2.8551 5.75964 3.10657 5.52254L5.68234 3.09398L5.73097 3.05208C5.9839 2.85755 6.35714 2.87169 6.59292 3.09398L9.16868 5.52254C9.42016 5.75964 9.42016 6.14397 9.16868 6.38107C8.91721 6.61817 8.50958 6.61817 8.25811 6.38107L6.78157 4.98892V16.4755C6.78157 16.8109 6.49327 17.0827 6.13763 17.0827C5.78199 17.0827 5.49369 16.8109 5.49369 16.4755ZM9.57198 15.8684C9.92762 15.8684 10.2159 16.1402 10.2159 16.4755C10.2159 16.8109 9.92762 17.0827 9.57198 17.0827H9.5636C9.20796 17.0827 8.91966 16.8109 8.91966 16.4755C8.91966 16.1402 9.20796 15.8684 9.5636 15.8684H9.57198ZM13.0063 15.8684C13.362 15.8684 13.6503 16.1402 13.6503 16.4755C13.6503 16.8109 13.362 17.0827 13.0063 17.0827H12.998C12.6423 17.0827 12.354 16.8109 12.354 16.4755C12.354 16.1402 12.6423 15.8684 12.998 15.8684H13.0063ZM16.4407 15.8684C16.7963 15.8684 17.0846 16.1402 17.0846 16.4755C17.0846 16.8109 16.7963 17.0827 16.4407 17.0827H16.4323C16.0767 17.0827 15.7884 16.8109 15.7884 16.4755C15.7884 16.1402 16.0767 15.8684 16.4323 15.8684H16.4407Z" fill="currentColor" />
</svg>